G04 #@! TF.FileFunction,Copper,L1,Top,Signal*
%FSLAX46Y46*%
G04 Gerber Fmt 4.6, Leading zero omitted, Abs format (unit mm)*
G04 Created by KiCad (PCBNEW (2015-10-06 BZR 6248, Git 20a3e23)-product) date 2015-10-8 0:39:17*
%MOMM*%
G01*
G04 APERTURE LIST*
%ADD10C,0.100000*%
%ADD11C,1.501140*%
%ADD12C,0.400000*%
%ADD13R,1.600000X1.000000*%
%ADD14R,1.000000X1.600000*%
%ADD15R,1.198880X1.198880*%
%ADD16R,0.400000X1.200000*%
%ADD17R,0.700000X1.300000*%
%ADD18R,1.300000X0.700000*%
%ADD19C,3.000000*%
%ADD20R,1.800000X3.000000*%
%ADD21R,1.500000X2.400000*%
%ADD22R,1.727200X1.727200*%
%ADD23O,1.727200X1.727200*%
%ADD24R,1.060000X0.650000*%
%ADD25R,2.032000X3.657600*%
%ADD26R,2.032000X1.016000*%
%ADD27R,3.657600X2.032000*%
%ADD28R,1.016000X2.032000*%
%ADD29R,1.200000X0.240000*%
%ADD30R,0.240000X1.200000*%
%ADD31R,1.700000X0.650000*%
%ADD32R,0.650000X1.060000*%
%ADD33O,1.600000X1.600000*%
%ADD34R,1.550000X0.600000*%
%ADD35R,2.032000X2.032000*%
%ADD36O,2.032000X2.032000*%
%ADD37C,2.200000*%
%ADD38O,2.700000X4.500000*%
%ADD39C,2.000000*%
%ADD40R,1.700000X1.500000*%
%ADD41R,1.500000X1.700000*%
%ADD42R,0.600000X0.500000*%
%ADD43R,0.500000X0.600000*%
%ADD44R,0.600000X0.400000*%
%ADD45R,0.400000X0.600000*%
%ADD46R,1.600200X3.599180*%
%ADD47R,2.499360X2.301240*%
%ADD48R,1.000000X0.400000*%
%ADD49R,1.350000X0.400000*%
%ADD50O,1.600000X1.100000*%
%ADD51C,0.609600*%
%ADD52C,0.711200*%
%ADD53C,1.778000*%
%ADD54C,0.254000*%
%ADD55C,1.270000*%
%ADD56C,0.508000*%
%ADD57C,0.152400*%
%ADD58C,0.381000*%
G04 APERTURE END LIST*
D10*
D11*
X70584060Y-24765000D03*
X75465940Y-24765000D03*
D12*
X34500000Y-21500000D03*
X35500000Y-21500000D03*
X36500000Y-21500000D03*
X37500000Y-21500000D03*
X38500000Y-21500000D03*
X39500000Y-21500000D03*
X40500000Y-21500000D03*
X41500000Y-21500000D03*
X42500000Y-21500000D03*
X43500000Y-21500000D03*
X44500000Y-21500000D03*
X45500000Y-21500000D03*
X46500000Y-21500000D03*
X47500000Y-21500000D03*
X48500000Y-21500000D03*
X49500000Y-21500000D03*
X34500000Y-22500000D03*
X34500000Y-23500000D03*
X34500000Y-24500000D03*
X34500000Y-25500000D03*
X34500000Y-26500000D03*
X34500000Y-27500000D03*
X34500000Y-28500000D03*
X34500000Y-29500000D03*
X49500000Y-22500000D03*
X48500000Y-22500000D03*
X47500000Y-22500000D03*
X46500000Y-22500000D03*
X45500000Y-22500000D03*
X44500000Y-22500000D03*
X43500000Y-22500000D03*
X42500000Y-22500000D03*
X41500000Y-22500000D03*
X40500000Y-22500000D03*
X39500000Y-22500000D03*
X38500000Y-22500000D03*
X35500000Y-22500000D03*
X36500000Y-22500000D03*
X37500000Y-22500000D03*
X35500000Y-23500000D03*
X36500000Y-23500000D03*
X37500000Y-23500000D03*
X38500000Y-23500000D03*
X39500000Y-23500000D03*
X40500000Y-23500000D03*
X41500000Y-23500000D03*
X42500000Y-23500000D03*
X35500000Y-24500000D03*
X36500000Y-24500000D03*
X37500000Y-24500000D03*
X38500000Y-24500000D03*
X39500000Y-24500000D03*
X40500000Y-24500000D03*
X41500000Y-24500000D03*
X42500000Y-24500000D03*
X35500000Y-25500000D03*
X36500000Y-25500000D03*
X37500000Y-25500000D03*
X43500000Y-23500000D03*
X43500000Y-24500000D03*
X44500000Y-23500000D03*
X44500000Y-24500000D03*
X45500000Y-24500000D03*
X45500000Y-23500000D03*
X46500000Y-23500000D03*
X47500000Y-23500000D03*
X47500000Y-24500000D03*
X46500000Y-24500000D03*
X48500000Y-23500000D03*
X48500000Y-24500000D03*
X49500000Y-24500000D03*
X49500000Y-23500000D03*
X46500000Y-25500000D03*
X46500000Y-26500000D03*
X46500000Y-27500000D03*
X47500000Y-27500000D03*
X47500000Y-26500000D03*
X47500000Y-25500000D03*
X48500000Y-25500000D03*
X48500000Y-26500000D03*
X48500000Y-27500000D03*
X49500000Y-27500000D03*
X49500000Y-26500000D03*
X49500000Y-25500000D03*
X35500000Y-26500000D03*
X36500000Y-26500000D03*
X37500000Y-26500000D03*
X37500000Y-27500000D03*
X36500000Y-27500000D03*
X35500000Y-27500000D03*
X35500000Y-28500000D03*
X36500000Y-28500000D03*
X37500000Y-28500000D03*
X37500000Y-29500000D03*
X36500000Y-29500000D03*
X35500000Y-29500000D03*
X34500000Y-30500000D03*
X35500000Y-30500000D03*
X36500000Y-30500000D03*
X37500000Y-30500000D03*
X37500000Y-31500000D03*
X36500000Y-31500000D03*
X35500000Y-31500000D03*
X34500000Y-31500000D03*
X34500000Y-32500000D03*
X35500000Y-32500000D03*
X36500000Y-32500000D03*
X37500000Y-32500000D03*
X37500000Y-33500000D03*
X37500000Y-34500000D03*
X37500000Y-35500000D03*
X36500000Y-35500000D03*
X36500000Y-34500000D03*
X36500000Y-33500000D03*
X35500000Y-33500000D03*
X35500000Y-34500000D03*
X35500000Y-35500000D03*
X34500000Y-33500000D03*
X34500000Y-34500000D03*
X34500000Y-35500000D03*
X34500000Y-36500000D03*
X35500000Y-36500000D03*
X36500000Y-36500000D03*
X37500000Y-36500000D03*
X41500000Y-25500000D03*
X40500000Y-25500000D03*
X39500000Y-25500000D03*
X38500000Y-25500000D03*
X38500000Y-26500000D03*
X39500000Y-26500000D03*
X40500000Y-26500000D03*
X41500000Y-26500000D03*
X38500000Y-27500000D03*
X39500000Y-27500000D03*
X40500000Y-27500000D03*
X41500000Y-27500000D03*
X38500000Y-28500000D03*
X39500000Y-28500000D03*
X40500000Y-28500000D03*
X41500000Y-28500000D03*
X38500000Y-29500000D03*
X39500000Y-29500000D03*
X40500000Y-29500000D03*
X41500000Y-29500000D03*
X38500000Y-30500000D03*
X39500000Y-30500000D03*
X40500000Y-30500000D03*
X41500000Y-30500000D03*
X38500000Y-31500000D03*
X39500000Y-31500000D03*
X40500000Y-31500000D03*
X41500000Y-31500000D03*
X38500000Y-32500000D03*
X39500000Y-32500000D03*
X40500000Y-32500000D03*
X38500000Y-34500000D03*
X39500000Y-34500000D03*
X38500000Y-35500000D03*
X39500000Y-35500000D03*
X38500000Y-36500000D03*
X39500000Y-36500000D03*
X41500000Y-32500000D03*
X38500000Y-33500000D03*
X39500000Y-33500000D03*
X40500000Y-33500000D03*
X44500000Y-34500000D03*
X43500000Y-34500000D03*
X42500000Y-34500000D03*
X41500000Y-34500000D03*
X40500000Y-34500000D03*
X40500000Y-35500000D03*
X41500000Y-35500000D03*
X42500000Y-35500000D03*
X43500000Y-35500000D03*
X44500000Y-35500000D03*
X40500000Y-36500000D03*
X41500000Y-36500000D03*
X42500000Y-36500000D03*
X43500000Y-36500000D03*
X44500000Y-36500000D03*
X41500000Y-33500000D03*
X42500000Y-25500000D03*
X43500000Y-25500000D03*
X44500000Y-25500000D03*
X45500000Y-25500000D03*
X45500000Y-34500000D03*
X42500000Y-26500000D03*
X43500000Y-26500000D03*
X44500000Y-26500000D03*
X45500000Y-26500000D03*
X42500000Y-29500000D03*
X45500000Y-27500000D03*
X44500000Y-27500000D03*
X43500000Y-27500000D03*
X42500000Y-27500000D03*
X45500000Y-35500000D03*
X45500000Y-36500000D03*
X42500000Y-28500000D03*
X43500000Y-28500000D03*
X44500000Y-28500000D03*
X45500000Y-28500000D03*
X43500000Y-29500000D03*
X44500000Y-29500000D03*
X45500000Y-29500000D03*
X46500000Y-28500000D03*
X46500000Y-29500000D03*
X46500000Y-30500000D03*
X46500000Y-31500000D03*
X46500000Y-32500000D03*
X46500000Y-33500000D03*
X46500000Y-34500000D03*
X46500000Y-35500000D03*
X46500000Y-36500000D03*
X42500000Y-33500000D03*
X42500000Y-32500000D03*
X42500000Y-31500000D03*
X42500000Y-30500000D03*
X43500000Y-30500000D03*
X43500000Y-31500000D03*
X43500000Y-32500000D03*
X43500000Y-33500000D03*
X47500000Y-36500000D03*
X47500000Y-35500000D03*
X47500000Y-34500000D03*
X47500000Y-33500000D03*
X47500000Y-32500000D03*
X47500000Y-31500000D03*
X47500000Y-30500000D03*
X47500000Y-29500000D03*
X47500000Y-28500000D03*
X48500000Y-28500000D03*
X48500000Y-29500000D03*
X48500000Y-30500000D03*
X48500000Y-31500000D03*
X48500000Y-32500000D03*
X48500000Y-33500000D03*
X48500000Y-34500000D03*
X48500000Y-35500000D03*
X48500000Y-36500000D03*
X44500000Y-33500000D03*
X44500000Y-32500000D03*
X44500000Y-31500000D03*
X44500000Y-30500000D03*
X45500000Y-30500000D03*
X45500000Y-31500000D03*
X45500000Y-32500000D03*
X45500000Y-33500000D03*
X49500000Y-36500000D03*
X49500000Y-35500000D03*
X49500000Y-34500000D03*
X49500000Y-33500000D03*
X49500000Y-32500000D03*
X49500000Y-31500000D03*
X49500000Y-30500000D03*
X49500000Y-29500000D03*
X49500000Y-28500000D03*
D13*
X69850000Y-60730000D03*
X69850000Y-63730000D03*
D14*
X72160000Y-54610000D03*
X75160000Y-54610000D03*
D13*
X11430000Y-50570000D03*
X11430000Y-53570000D03*
X11430000Y-44680000D03*
X11430000Y-41680000D03*
X55880000Y-66445000D03*
X55880000Y-69445000D03*
D15*
X43180000Y-55024020D03*
X43180000Y-52925980D03*
X47625000Y-55024020D03*
X47625000Y-52925980D03*
D16*
X82232500Y-27685000D03*
X81597500Y-27685000D03*
X80962500Y-27685000D03*
X80327500Y-27685000D03*
X79692500Y-27685000D03*
X79057500Y-27685000D03*
X78422500Y-27685000D03*
X77787500Y-27685000D03*
X77152500Y-27685000D03*
X76517500Y-27685000D03*
X75882500Y-27685000D03*
X75247500Y-27685000D03*
X74612500Y-27685000D03*
X73977500Y-27685000D03*
X73342500Y-27685000D03*
X72707500Y-27685000D03*
X72072500Y-27685000D03*
X71437500Y-27685000D03*
X70802500Y-27685000D03*
X70167500Y-27685000D03*
X69532500Y-27685000D03*
X68897500Y-27685000D03*
X68262500Y-27685000D03*
X67627500Y-27685000D03*
X66992500Y-27685000D03*
X66357500Y-27685000D03*
X65722500Y-27685000D03*
X65087500Y-27685000D03*
X65087500Y-37085000D03*
X65722500Y-37085000D03*
X66357500Y-37085000D03*
X66992500Y-37085000D03*
X67627500Y-37085000D03*
X68262500Y-37085000D03*
X68897500Y-37085000D03*
X69532500Y-37085000D03*
X70167500Y-37085000D03*
X70802500Y-37085000D03*
X71437500Y-37085000D03*
X72072500Y-37085000D03*
X72707500Y-37085000D03*
X73342500Y-37085000D03*
X73977500Y-37085000D03*
X74612500Y-37085000D03*
X75247500Y-37085000D03*
X75882500Y-37085000D03*
X76517500Y-37085000D03*
X77152500Y-37085000D03*
X77787500Y-37085000D03*
X78422500Y-37085000D03*
X79057500Y-37085000D03*
X79692500Y-37085000D03*
X80327500Y-37085000D03*
X80962500Y-37085000D03*
X81597500Y-37085000D03*
X82232500Y-37085000D03*
D17*
X7300000Y-53975000D03*
X5400000Y-53975000D03*
D18*
X86360000Y-53660000D03*
X86360000Y-55560000D03*
D19*
X12700000Y-70485000D03*
D20*
X17700000Y-65485000D03*
X7700000Y-65485000D03*
X15200000Y-65485000D03*
X10200000Y-65485000D03*
D21*
X73450000Y-60325000D03*
X78950000Y-60325000D03*
D22*
X80890000Y-880000D03*
D23*
X80890000Y1660000D03*
X78350000Y-880000D03*
X78350000Y1660000D03*
X75810000Y-880000D03*
X75810000Y1660000D03*
X73270000Y-880000D03*
X73270000Y1660000D03*
X70730000Y-880000D03*
X70730000Y1660000D03*
X68190000Y-880000D03*
X68190000Y1660000D03*
X65650000Y-880000D03*
X65650000Y1660000D03*
D18*
X83820000Y-66990000D03*
X83820000Y-65090000D03*
D17*
X73345000Y-65405000D03*
X75245000Y-65405000D03*
X75245000Y-67945000D03*
X73345000Y-67945000D03*
X6030000Y-30099000D03*
X4130000Y-30099000D03*
X23810000Y-14605000D03*
X21910000Y-14605000D03*
X21910000Y-17145000D03*
X23810000Y-17145000D03*
X54540000Y-53585000D03*
X56440000Y-53585000D03*
D18*
X43180000Y-57470000D03*
X43180000Y-59370000D03*
D17*
X73975000Y-49530000D03*
X72075000Y-49530000D03*
X63820000Y-57150000D03*
X65720000Y-57150000D03*
X65720000Y-59055000D03*
X63820000Y-59055000D03*
X73975000Y-51435000D03*
X72075000Y-51435000D03*
D18*
X47625000Y-59370000D03*
X47625000Y-57470000D03*
D17*
X76520000Y-45085000D03*
X78420000Y-45085000D03*
D18*
X83820000Y-44130000D03*
X83820000Y-42230000D03*
X74295000Y-14285000D03*
X74295000Y-12385000D03*
X86360000Y-40320000D03*
X86360000Y-38420000D03*
D17*
X81595000Y-19050000D03*
X79695000Y-19050000D03*
X79695000Y-16510000D03*
X81595000Y-16510000D03*
X77785000Y-16510000D03*
X75885000Y-16510000D03*
D24*
X78910000Y-65090000D03*
X78910000Y-66040000D03*
X78910000Y-66990000D03*
X81110000Y-66990000D03*
X81110000Y-65090000D03*
D25*
X508000Y-48260000D03*
D26*
X7112000Y-48260000D03*
X7112000Y-45974000D03*
X7112000Y-50546000D03*
D27*
X61595000Y-71882000D03*
D28*
X61595000Y-65278000D03*
X59309000Y-65278000D03*
X63881000Y-65278000D03*
D29*
X12895000Y-25575000D03*
X12895000Y-25975000D03*
X12895000Y-26375000D03*
X12895000Y-26775000D03*
X12895000Y-27175000D03*
X12895000Y-27575000D03*
X12895000Y-27975000D03*
X12895000Y-28375000D03*
X12895000Y-28775000D03*
X12895000Y-29175000D03*
X12895000Y-29575000D03*
X12895000Y-29975000D03*
X12895000Y-30375000D03*
X12895000Y-30775000D03*
X12895000Y-31175000D03*
X12895000Y-31575000D03*
D30*
X14145000Y-32825000D03*
X14545000Y-32825000D03*
X14945000Y-32825000D03*
X15345000Y-32825000D03*
X15745000Y-32825000D03*
X16145000Y-32825000D03*
X16545000Y-32825000D03*
X16945000Y-32825000D03*
X17345000Y-32825000D03*
X17745000Y-32825000D03*
X18145000Y-32825000D03*
X18545000Y-32825000D03*
X18945000Y-32825000D03*
X19345000Y-32825000D03*
X19745000Y-32825000D03*
X20145000Y-32825000D03*
D29*
X21395000Y-31575000D03*
X21395000Y-31175000D03*
X21395000Y-30775000D03*
X21395000Y-30375000D03*
X21395000Y-29975000D03*
X21395000Y-29575000D03*
X21395000Y-29175000D03*
X21395000Y-28775000D03*
X21395000Y-28375000D03*
X21395000Y-27975000D03*
X21395000Y-27575000D03*
X21395000Y-27175000D03*
X21395000Y-26775000D03*
X21395000Y-26375000D03*
X21395000Y-25975000D03*
X21395000Y-25575000D03*
D30*
X20145000Y-24325000D03*
X19745000Y-24325000D03*
X19345000Y-24325000D03*
X18945000Y-24325000D03*
X18545000Y-24325000D03*
X18145000Y-24325000D03*
X17745000Y-24325000D03*
X17345000Y-24325000D03*
X16945000Y-24325000D03*
X16545000Y-24325000D03*
X16145000Y-24325000D03*
X15745000Y-24325000D03*
X15345000Y-24325000D03*
X14945000Y-24325000D03*
X14545000Y-24325000D03*
X14145000Y-24325000D03*
D31*
X52230000Y-55880000D03*
X52230000Y-57150000D03*
X52230000Y-58420000D03*
X52230000Y-59690000D03*
X59530000Y-59690000D03*
X59530000Y-58420000D03*
X59530000Y-57150000D03*
X59530000Y-55880000D03*
D32*
X25960000Y-4860000D03*
X25010000Y-4860000D03*
X24060000Y-4860000D03*
X24060000Y-7060000D03*
X25960000Y-7060000D03*
X29770000Y-4860000D03*
X28820000Y-4860000D03*
X27870000Y-4860000D03*
X27870000Y-7060000D03*
X29770000Y-7060000D03*
X33580000Y-4860000D03*
X32630000Y-4860000D03*
X31680000Y-4860000D03*
X31680000Y-7060000D03*
X33580000Y-7060000D03*
D33*
X22860000Y-51435000D03*
X22860000Y-53975000D03*
X22860000Y-56515000D03*
X22860000Y-59055000D03*
X30480000Y-59055000D03*
X30480000Y-56515000D03*
X30480000Y-53975000D03*
X30480000Y-51435000D03*
D34*
X90330000Y-18415000D03*
X90330000Y-17145000D03*
X90330000Y-15875000D03*
X90330000Y-14605000D03*
X84930000Y-14605000D03*
X84930000Y-15875000D03*
X84930000Y-17145000D03*
X84930000Y-18415000D03*
D17*
X7935000Y-57150000D03*
X6035000Y-57150000D03*
X9210000Y-57150000D03*
X11110000Y-57150000D03*
D14*
X18185000Y-3175000D03*
X21185000Y-3175000D03*
D15*
X68165980Y-45085000D03*
X70264020Y-45085000D03*
X68165980Y-46990000D03*
X70264020Y-46990000D03*
D17*
X20000000Y-635000D03*
X18100000Y-635000D03*
D18*
X86360000Y-44130000D03*
X86360000Y-42230000D03*
D17*
X72075000Y-45085000D03*
X73975000Y-45085000D03*
X72075000Y-46990000D03*
X73975000Y-46990000D03*
D18*
X36830000Y-7940000D03*
X36830000Y-9840000D03*
D34*
X8730000Y1905000D03*
X8730000Y635000D03*
X8730000Y-635000D03*
X8730000Y-1905000D03*
X14130000Y-1905000D03*
X14130000Y-635000D03*
X14130000Y635000D03*
X14130000Y1905000D03*
X14130000Y-8255000D03*
X14130000Y-6985000D03*
X14130000Y-5715000D03*
X14130000Y-4445000D03*
X8730000Y-4445000D03*
X8730000Y-5715000D03*
X8730000Y-6985000D03*
X8730000Y-8255000D03*
D35*
X80645000Y-13335000D03*
D36*
X78105000Y-13335000D03*
D35*
X90170000Y-40005000D03*
D36*
X90170000Y-42545000D03*
D35*
X88900000Y-10795000D03*
D36*
X86360000Y-10795000D03*
D37*
X51435000Y1230000D03*
X48935000Y1230000D03*
X53935000Y1230000D03*
X48935000Y-1270000D03*
X53935000Y-1270000D03*
D38*
X45585000Y-20000D03*
X57285000Y-20000D03*
D39*
X27305000Y-67435000D03*
X27305000Y-69935000D03*
X29805000Y-69935000D03*
X24805000Y-69935000D03*
X24805000Y-67435000D03*
X29805000Y-67435000D03*
D19*
X32055000Y-64135000D03*
X22555000Y-64135000D03*
D40*
X37465000Y-59600000D03*
X37465000Y-67400000D03*
D41*
X84545000Y-48895000D03*
X76745000Y-48895000D03*
D18*
X11430000Y-48575000D03*
X11430000Y-46675000D03*
D17*
X63820000Y-61595000D03*
X65720000Y-61595000D03*
X6030000Y-28067000D03*
X4130000Y-28067000D03*
X34610000Y0D03*
X36510000Y0D03*
X36515000Y-72390000D03*
X38415000Y-72390000D03*
X36515000Y-70485000D03*
X38415000Y-70485000D03*
X6035000Y-59690000D03*
X7935000Y-59690000D03*
X11110000Y-59690000D03*
X9210000Y-59690000D03*
X79695000Y-45085000D03*
X81595000Y-45085000D03*
D42*
X8805000Y-27686000D03*
X7705000Y-27686000D03*
X8805000Y-30226000D03*
X7705000Y-30226000D03*
X8805000Y-28956000D03*
X7705000Y-28956000D03*
D43*
X29845000Y-8975000D03*
X29845000Y-10075000D03*
X26035000Y-8975000D03*
X26035000Y-10075000D03*
X33655000Y-8975000D03*
X33655000Y-10075000D03*
D42*
X17230000Y1905000D03*
X18330000Y1905000D03*
X17230000Y-8255000D03*
X18330000Y-8255000D03*
X86910000Y-20320000D03*
X85810000Y-20320000D03*
D43*
X84455000Y-40555000D03*
X84455000Y-39455000D03*
D17*
X36510000Y-1905000D03*
X34610000Y-1905000D03*
D44*
X26035000Y-16060000D03*
X26035000Y-16960000D03*
D45*
X34720000Y2930000D03*
X35620000Y2930000D03*
X34720000Y1660000D03*
X35620000Y1660000D03*
D44*
X23740000Y-1700000D03*
X23740000Y-2600000D03*
X31614000Y-8812000D03*
X31614000Y-9712000D03*
X23994000Y-8812000D03*
X23994000Y-9712000D03*
X27804000Y-8812000D03*
X27804000Y-9712000D03*
D46*
X635000Y-56939180D03*
X635000Y-62440820D03*
X17145000Y-53129180D03*
X17145000Y-58630820D03*
D47*
X78496160Y-53975000D03*
X82793840Y-53975000D03*
D18*
X69850000Y-52390000D03*
X69850000Y-54290000D03*
X7620000Y-40960000D03*
X7620000Y-42860000D03*
D17*
X53660000Y-64135000D03*
X55560000Y-64135000D03*
D15*
X24350980Y-46990000D03*
X26449020Y-46990000D03*
D17*
X22540000Y-46990000D03*
X20640000Y-46990000D03*
D44*
X47625000Y-63050000D03*
X47625000Y-63950000D03*
X43180000Y-63050000D03*
X43180000Y-63950000D03*
X48895000Y-63050000D03*
X48895000Y-63950000D03*
X41910000Y-63050000D03*
X41910000Y-63950000D03*
D48*
X49255000Y-70855000D03*
X49255000Y-70205000D03*
X49255000Y-69555000D03*
X49255000Y-68905000D03*
X49255000Y-68255000D03*
X49255000Y-67605000D03*
X49255000Y-66955000D03*
X49255000Y-66305000D03*
X43455000Y-66305000D03*
X43455000Y-66955000D03*
X43455000Y-67605000D03*
X43455000Y-68255000D03*
X43455000Y-68905000D03*
X43455000Y-69555000D03*
X43455000Y-70205000D03*
X43455000Y-70855000D03*
D22*
X880000Y-10405000D03*
D23*
X-1660000Y-10405000D03*
X880000Y-12945000D03*
X-1660000Y-12945000D03*
X880000Y-15485000D03*
X-1660000Y-15485000D03*
X880000Y-18025000D03*
X-1660000Y-18025000D03*
X880000Y-20565000D03*
X-1660000Y-20565000D03*
X880000Y-23105000D03*
X-1660000Y-23105000D03*
X880000Y-25645000D03*
X-1660000Y-25645000D03*
X880000Y-28185000D03*
X-1660000Y-28185000D03*
X880000Y-30725000D03*
X-1660000Y-30725000D03*
X880000Y-33265000D03*
X-1660000Y-33265000D03*
X880000Y-35805000D03*
X-1660000Y-35805000D03*
X880000Y-38345000D03*
X-1660000Y-38345000D03*
X880000Y-40885000D03*
X-1660000Y-40885000D03*
D49*
X90805000Y-52100000D03*
X90805000Y-51450000D03*
X90805000Y-50800000D03*
X90805000Y-50150000D03*
X90805000Y-49500000D03*
D50*
X90805000Y-53300000D03*
X90805000Y-48300000D03*
D39*
X93505000Y-54400000D03*
X93505000Y-47200000D03*
D49*
X90805000Y-33050000D03*
X90805000Y-32400000D03*
X90805000Y-31750000D03*
X90805000Y-31100000D03*
X90805000Y-30450000D03*
D50*
X90805000Y-34250000D03*
X90805000Y-29250000D03*
D39*
X93505000Y-35350000D03*
X93505000Y-28150000D03*
D10*
G36*
X39935000Y-57380000D02*
X37535000Y-57380000D01*
X37535000Y-54380000D01*
X39935000Y-54380000D01*
X39935000Y-57380000D01*
X39935000Y-57380000D01*
G37*
G36*
X39935000Y-52580000D02*
X37535000Y-52580000D01*
X37535000Y-49580000D01*
X39935000Y-49580000D01*
X39935000Y-52580000D01*
X39935000Y-52580000D01*
G37*
G36*
X36335000Y-52580000D02*
X33935000Y-52580000D01*
X33935000Y-49580000D01*
X36335000Y-49580000D01*
X36335000Y-52580000D01*
X36335000Y-52580000D01*
G37*
G36*
X36335000Y-57380000D02*
X33935000Y-57380000D01*
X33935000Y-54380000D01*
X36335000Y-54380000D01*
X36335000Y-57380000D01*
X36335000Y-57380000D01*
G37*
G36*
X33250000Y3740000D02*
X33250000Y1340000D01*
X30250000Y1340000D01*
X30250000Y3740000D01*
X33250000Y3740000D01*
X33250000Y3740000D01*
G37*
G36*
X28450000Y3740000D02*
X28450000Y1340000D01*
X25450000Y1340000D01*
X25450000Y3740000D01*
X28450000Y3740000D01*
X28450000Y3740000D01*
G37*
G36*
X28450000Y140000D02*
X28450000Y-2260000D01*
X25450000Y-2260000D01*
X25450000Y140000D01*
X28450000Y140000D01*
X28450000Y140000D01*
G37*
G36*
X33250000Y140000D02*
X33250000Y-2260000D01*
X30250000Y-2260000D01*
X30250000Y140000D01*
X33250000Y140000D01*
X33250000Y140000D01*
G37*
D13*
X82550000Y-63095000D03*
X82550000Y-60095000D03*
D11*
X62230000Y-51435000D03*
X66040000Y-51435000D03*
X89535000Y-59690000D03*
X89535000Y-63500000D03*
D51*
X9271000Y-54356000D03*
X9271000Y-53594000D03*
X9271000Y-52832000D03*
X8509000Y-52832000D03*
X8509000Y-53594000D03*
X8509000Y-54356000D03*
X87503000Y-20320000D03*
X80645000Y-29845000D03*
X78232000Y-28829000D03*
X80518000Y-28829000D03*
X72009000Y-28829000D03*
X72009000Y-29718000D03*
X70231000Y-28829000D03*
X65913000Y-38354000D03*
X68961000Y-38100000D03*
X80645000Y-38227000D03*
X81407000Y-60960000D03*
X82550000Y-59309000D03*
X81407000Y-59309000D03*
X81407000Y-60071000D03*
X75946000Y-54610000D03*
X74295000Y-54610000D03*
X69850000Y-64516000D03*
X69850000Y-62865000D03*
X53594000Y-58420000D03*
X50419000Y-71501000D03*
X11430000Y-40894000D03*
X10414000Y-52832000D03*
X21082000Y-32258000D03*
X18415000Y-31750000D03*
X20320000Y-29845000D03*
X20320000Y-28956000D03*
X18288000Y-25400000D03*
X18796000Y-23241000D03*
X13970000Y-26797000D03*
X9271000Y-26924000D03*
X14478000Y-29845000D03*
X11938000Y-25400000D03*
X12573000Y-22352000D03*
X13970000Y-31496000D03*
X13970000Y-34544000D03*
X7366000Y-30924500D03*
X27800000Y-37400000D03*
X27800000Y-36600000D03*
X26200000Y-37400000D03*
X49000000Y-32000000D03*
X12573000Y-37084000D03*
X11557000Y-37084000D03*
X75500000Y-12250000D03*
X74750000Y-49500000D03*
X66294000Y-59055000D03*
X81280000Y-55372000D03*
X81280000Y-52578000D03*
X84328000Y-55372000D03*
X84328000Y-52578000D03*
X87503000Y-33528000D03*
X76454000Y-29845000D03*
X74777600Y-28778200D03*
X89662000Y-49784000D03*
X89662000Y-49149000D03*
X91948000Y-49784000D03*
X91948000Y-49149000D03*
X29083000Y-2032000D03*
X78994000Y-19050000D03*
X89662000Y-30861000D03*
X89789000Y-30226000D03*
X91948000Y-30861000D03*
X91948000Y-30226000D03*
X48000000Y-32000000D03*
X42000000Y-34000000D03*
X43000000Y-31000000D03*
X40000000Y-31000000D03*
X39000000Y-34000000D03*
X48895000Y-62611000D03*
X41910000Y-62611000D03*
X50038000Y-66294000D03*
X44323000Y-70231000D03*
X44450000Y-67056000D03*
X70485000Y-18415000D03*
X75565000Y-18415000D03*
X45000000Y-29000000D03*
X86106000Y-36830000D03*
X85725000Y-37338000D03*
X90678000Y-57912000D03*
X90551000Y-44831000D03*
X90170000Y-24384000D03*
X88773000Y-23876000D03*
X3556000Y-30099000D03*
X3556000Y-28067000D03*
X7112000Y-27051000D03*
X6858000Y-28892500D03*
X47000000Y-29000000D03*
X73700000Y-39100000D03*
X37800000Y-18200000D03*
X38400000Y-18800000D03*
X36000000Y-32000000D03*
X37000000Y-30000000D03*
X28448000Y1397000D03*
X28448000Y3810000D03*
X36250000Y1500000D03*
X36750000Y-7250000D03*
X48500000Y-49000000D03*
X49250000Y-48250000D03*
X30500000Y-26250000D03*
X29000000Y-26250000D03*
X56750000Y-25750000D03*
X56000000Y-24750000D03*
X51300000Y-24300000D03*
X42000000Y-24000000D03*
X37000000Y-24000000D03*
X36000000Y-24000000D03*
X33700000Y-21400000D03*
X34000000Y-37000000D03*
X36000000Y-35000000D03*
X47000000Y-35000000D03*
X42000000Y-25000000D03*
X41000000Y-23000000D03*
X47000000Y-26000000D03*
X44000000Y-35000000D03*
X46000000Y-24000000D03*
X46000000Y-26000000D03*
X39000000Y-35000000D03*
X52500000Y-39500000D03*
X51500000Y-39500000D03*
X57750000Y-37750000D03*
X57750000Y-37000000D03*
X57750000Y-36000000D03*
X57750000Y-35250000D03*
X44000000Y-32000000D03*
X40000000Y-26000000D03*
X39000000Y-30000000D03*
X41000000Y-27000000D03*
X75184000Y-55753000D03*
X75184000Y-53467000D03*
X68707000Y-63754000D03*
X70993000Y-63754000D03*
X19050000Y-30099000D03*
X18034000Y-29591000D03*
X13970000Y-30480000D03*
X11049000Y-36576000D03*
X13081000Y-36576000D03*
X12446000Y-41656000D03*
X10414000Y-41656000D03*
X12446000Y-46736000D03*
X10414000Y-46736000D03*
X5842000Y-48260000D03*
X8382000Y-48260000D03*
X11430000Y-52832000D03*
X12573000Y-53594000D03*
X54737000Y-69469000D03*
X57023000Y-69469000D03*
X65786000Y-62484000D03*
X66294000Y-61595000D03*
X61595000Y-66548000D03*
X61595000Y-63881000D03*
X85598000Y-49022000D03*
X81280000Y-53975000D03*
X82804000Y-55372000D03*
X84328000Y-53975000D03*
X82804000Y-52578000D03*
X72644000Y-67945000D03*
X80010000Y-66040000D03*
X77851000Y-66167000D03*
X70612000Y-26416000D03*
X77216000Y-38227000D03*
X67564000Y-36068000D03*
X66802000Y-30353000D03*
X82804000Y-24384000D03*
X82804000Y-25273000D03*
X70231000Y-32131000D03*
X70866000Y-31369000D03*
X40259000Y-50673000D03*
X33147000Y-55880000D03*
X36576000Y-57785000D03*
X42545000Y-71628000D03*
X46863000Y-67310000D03*
X46228000Y-72263000D03*
X43942000Y-72263000D03*
X39497000Y-73279000D03*
X41783000Y-73279000D03*
X51054000Y-59690000D03*
X50419000Y-68072000D03*
D52*
X37465000Y-66040000D03*
X25400000Y-51435000D03*
X27305000Y-53975000D03*
X25527000Y-59055000D03*
X12065000Y-57150000D03*
X5080000Y-57150000D03*
D51*
X31496000Y-3810000D03*
X27000000Y-4500000D03*
X23250000Y-4500000D03*
X29845000Y-11049000D03*
X33655000Y-11049000D03*
X26035000Y-10922000D03*
X35687000Y-381000D03*
X37465000Y-381000D03*
X19304000Y1651000D03*
X19050000Y-8255000D03*
X7493000Y-1905000D03*
X7366000Y-6985000D03*
X22098000Y-2540000D03*
X22098000Y-3810000D03*
X91694000Y-14605000D03*
X83693000Y-39370000D03*
X86360000Y-44958000D03*
X81407000Y-43942000D03*
X50000000Y-37000000D03*
X50000000Y-21000000D03*
X46000000Y-34000000D03*
X42000000Y-32000000D03*
X41000000Y-30000000D03*
X40000000Y-28000000D03*
X48000000Y-28000000D03*
X36000000Y-28000000D03*
X44000000Y-23000000D03*
X43000000Y-28000000D03*
X43000000Y-30000000D03*
X41000000Y-31000000D03*
X43000000Y-29000000D03*
X53000000Y-38500000D03*
X51500000Y-37500000D03*
X55750000Y-37500000D03*
X54500000Y-36250000D03*
X54250000Y-35250000D03*
X53500000Y-35250000D03*
X44000000Y-31000000D03*
X40000000Y-27000000D03*
X43000000Y-27000000D03*
X40000000Y-30000000D03*
X41000000Y-28000000D03*
X70866000Y-52324000D03*
X70612000Y-51435000D03*
X68326000Y-51435000D03*
X69088000Y-51435000D03*
X68326000Y-52324000D03*
X69850000Y-51435000D03*
X9525000Y-27686000D03*
X10287000Y-29718000D03*
X83820000Y-18415000D03*
X78994000Y-28829000D03*
X71120000Y-28829000D03*
X68199000Y-38100000D03*
X78359000Y-38227000D03*
X51054000Y-58420000D03*
X50419000Y-69088000D03*
X19177000Y-31750000D03*
X20320000Y-28194000D03*
X66294000Y-57150000D03*
X78740000Y-16510000D03*
X90551000Y-10795000D03*
X19500000Y-46750000D03*
X47625000Y-62611000D03*
X43180000Y-62611000D03*
X68072000Y-44069000D03*
X61000000Y-57000000D03*
X61000000Y-55750000D03*
X49750000Y-38000000D03*
X49000000Y-29000000D03*
X47000000Y-30000000D03*
X31000000Y-40500000D03*
X31750000Y-40500000D03*
X32500000Y-40500000D03*
X33250000Y-40500000D03*
X37000000Y-22000000D03*
X37000000Y-31000000D03*
X21000000Y-1250000D03*
X21000000Y-500000D03*
X48250000Y-47000000D03*
X47750000Y-45500000D03*
X32500000Y-26250000D03*
X54250000Y-24750000D03*
X53250000Y-25750000D03*
X49000000Y-24000000D03*
X35000000Y-24000000D03*
X35000000Y-34000000D03*
X37000000Y-36000000D03*
X47000000Y-36000000D03*
X47000000Y-23000000D03*
X48000000Y-33000000D03*
X47000000Y-27000000D03*
X37000000Y-27000000D03*
X19050000Y-27051000D03*
X18034000Y-27559000D03*
X19050000Y-25400000D03*
X52959000Y-64897000D03*
X52959000Y-63373000D03*
X53594000Y-65151000D03*
X52959000Y-64135000D03*
X53594000Y-63119000D03*
X48514000Y-59436000D03*
X42291000Y-59436000D03*
X71374000Y-38227000D03*
X67691000Y-28702000D03*
X82931000Y-22860000D03*
X82169000Y-21844000D03*
X67564000Y-30988000D03*
X68199000Y-30099000D03*
X34036000Y-57658000D03*
X40259000Y-57785000D03*
X40640000Y-67056000D03*
X39751000Y-66421000D03*
X37338000Y-1651000D03*
X37338000Y-2540000D03*
X91567000Y-18415000D03*
X83820000Y-44958000D03*
X76581000Y-43942000D03*
X41000000Y-35000000D03*
X44000000Y-34000000D03*
X40000000Y-34000000D03*
X36000000Y-30000000D03*
X44000000Y-24000000D03*
X40000000Y-24000000D03*
X43000000Y-22000000D03*
X24892000Y-14986000D03*
X20574000Y-17272000D03*
X12954000Y-33528000D03*
X12954000Y-32766000D03*
X12192000Y-33528000D03*
X11684000Y-26924000D03*
X11811000Y-29972000D03*
X13970000Y-23368000D03*
X12192000Y-32766000D03*
X44450000Y-68199000D03*
X44958000Y-68580000D03*
X42545000Y-68961000D03*
X41783000Y-68961000D03*
X76504800Y-28778200D03*
X73990200Y-28778200D03*
X39750000Y-41750000D03*
X36000000Y-36000000D03*
X45000000Y-43000000D03*
X46000000Y-35000000D03*
X66548000Y-19558000D03*
X69342000Y-28829000D03*
X68453000Y-19558000D03*
X68453000Y-26162000D03*
X70612000Y-40386000D03*
X73025000Y-43307000D03*
X14732000Y-25400000D03*
X44250000Y-42250000D03*
X36750000Y-37250000D03*
X15875000Y-31369000D03*
X71374000Y-30734000D03*
X77597000Y-29845000D03*
X33000000Y-17500000D03*
X35000000Y-26000000D03*
X32250000Y-17250000D03*
X33500000Y-26250000D03*
X22750000Y-28750000D03*
X37000000Y-26000000D03*
X67437000Y-26035000D03*
X67437000Y-19558000D03*
X44000000Y-30000000D03*
X44000000Y-27000000D03*
X38000000Y-25000000D03*
X41000000Y-26000000D03*
X43000000Y-32000000D03*
X45000000Y-26000000D03*
X39000000Y-32000000D03*
X39000000Y-28000000D03*
X74000000Y-38100000D03*
X80391000Y-40513000D03*
X73787000Y-42799000D03*
X71628000Y-40386000D03*
X37000000Y-23000000D03*
X35750000Y-17500000D03*
X35000000Y-37000000D03*
X39250000Y-42500000D03*
X39000000Y3000000D03*
X8750000Y3000000D03*
X40750000Y1000000D03*
X15250000Y-2000000D03*
X15250000Y-500000D03*
X40250000Y1750000D03*
X39750000Y2500000D03*
X15250000Y750000D03*
X42750000Y-6250000D03*
X15250000Y-7000000D03*
X42250000Y-5500000D03*
X15250000Y-5750000D03*
X41656000Y-4445000D03*
X15240000Y-4445000D03*
X41250000Y-3500000D03*
X8750000Y-3500000D03*
X63250000Y-19500000D03*
X49000000Y-21000000D03*
X48000000Y-23000000D03*
X65015000Y-18787000D03*
X65015000Y-17644000D03*
X48000000Y-25000000D03*
X63999000Y-18787000D03*
X45000000Y-23000000D03*
X26670000Y-7112000D03*
X25273000Y-7112000D03*
X30226000Y-1905000D03*
X34671000Y-7112000D03*
X29083000Y-7112000D03*
X45203000Y-7865000D03*
X45711000Y-8627000D03*
X46219000Y-9389000D03*
X46727000Y-10151000D03*
X47250000Y-11750000D03*
X47750000Y-12500000D03*
X48250000Y-13250000D03*
X48641000Y-14224000D03*
X38354000Y-57785000D03*
D53*
X89535000Y-63500000D02*
X89535000Y-64389000D01*
X89535000Y-64389000D02*
X83947000Y-69977000D01*
X83947000Y-69977000D02*
X68580000Y-69977000D01*
X68580000Y-69977000D02*
X63881000Y-65278000D01*
X63820000Y-61595000D02*
X63820000Y-65217000D01*
X63820000Y-65217000D02*
X63881000Y-65278000D01*
D54*
X9271000Y-52832000D02*
X8509000Y-52832000D01*
X8509000Y-54356000D02*
X8509000Y-53594000D01*
D55*
X63820000Y-65217000D02*
X63881000Y-65278000D01*
D56*
X86910000Y-20320000D02*
X87503000Y-20320000D01*
D54*
X78422500Y-27685000D02*
X78422500Y-28638500D01*
X78422500Y-28638500D02*
X78232000Y-28829000D01*
X80327500Y-27685000D02*
X80327500Y-28638500D01*
X80327500Y-28638500D02*
X80518000Y-28829000D01*
X72009000Y-29718000D02*
X72009000Y-28829000D01*
X72072500Y-28765500D02*
X72009000Y-28829000D01*
X72072500Y-28765500D02*
X72072500Y-27685000D01*
D56*
X72009000Y-29718000D02*
X72072500Y-29718000D01*
X72072500Y-29718000D02*
X72009000Y-29718000D01*
X72009000Y-29718000D02*
X72072500Y-29718000D01*
D54*
X68897500Y-37085000D02*
X68897500Y-38036500D01*
X68897500Y-38036500D02*
X68961000Y-38100000D01*
D56*
X82550000Y-60095000D02*
X82272000Y-60095000D01*
X82272000Y-60095000D02*
X81407000Y-60960000D01*
X82550000Y-60095000D02*
X82550000Y-59309000D01*
X82550000Y-60095000D02*
X82193000Y-60095000D01*
X82193000Y-60095000D02*
X81407000Y-59309000D01*
X82550000Y-60095000D02*
X81431000Y-60095000D01*
X81431000Y-60095000D02*
X81407000Y-60071000D01*
X75160000Y-54610000D02*
X75946000Y-54610000D01*
X75160000Y-54610000D02*
X74295000Y-54610000D01*
X69850000Y-63730000D02*
X69850000Y-64516000D01*
X69850000Y-63730000D02*
X69850000Y-62865000D01*
D54*
X51054000Y-59690000D02*
X52230000Y-59690000D01*
D56*
X11430000Y-41680000D02*
X11430000Y-40894000D01*
X11430000Y-53570000D02*
X11152000Y-53570000D01*
X11152000Y-53570000D02*
X10414000Y-52832000D01*
D57*
X18545000Y-32825000D02*
X18545000Y-31880000D01*
X18545000Y-31880000D02*
X18415000Y-31750000D01*
X21395000Y-28775000D02*
X20501000Y-28775000D01*
X20501000Y-28775000D02*
X20320000Y-28956000D01*
X18545000Y-24325000D02*
X18545000Y-23492000D01*
X18545000Y-23492000D02*
X18796000Y-23241000D01*
X12895000Y-26775000D02*
X13948000Y-26775000D01*
X13948000Y-26775000D02*
X13970000Y-26797000D01*
X12895000Y-25575000D02*
X12113000Y-25575000D01*
X12113000Y-25575000D02*
X11938000Y-25400000D01*
X12895000Y-31575000D02*
X13891000Y-31575000D01*
X13891000Y-31575000D02*
X13970000Y-31496000D01*
D54*
X7705000Y-27686000D02*
X7705000Y-27644000D01*
X7705000Y-27644000D02*
X7112000Y-27051000D01*
X7705000Y-30226000D02*
X7705000Y-30585500D01*
X7705000Y-30585500D02*
X7366000Y-30924500D01*
D57*
X7705000Y-30585500D02*
X7366000Y-30924500D01*
D54*
X74295000Y-12385000D02*
X75365000Y-12385000D01*
X75365000Y-12385000D02*
X75500000Y-12250000D01*
D57*
X73975000Y-49530000D02*
X74720000Y-49530000D01*
X74720000Y-49530000D02*
X74750000Y-49500000D01*
X73975000Y-49530000D02*
X73975000Y-51435000D01*
D54*
X65720000Y-59055000D02*
X66294000Y-59055000D01*
D56*
X82793840Y-53975000D02*
X82677000Y-53975000D01*
X82677000Y-53975000D02*
X81280000Y-55372000D01*
X82793840Y-53975000D02*
X82677000Y-53975000D01*
X82677000Y-53975000D02*
X81280000Y-52578000D01*
X82793840Y-53975000D02*
X82931000Y-53975000D01*
X82931000Y-53975000D02*
X84328000Y-55372000D01*
X82793840Y-53975000D02*
X82804000Y-53975000D01*
X82804000Y-53975000D02*
X84328000Y-52578000D01*
D54*
X72072500Y-29718000D02*
X72072500Y-31051500D01*
X74549000Y-33528000D02*
X87503000Y-33528000D01*
X72072500Y-31051500D02*
X74549000Y-33528000D01*
X74612500Y-27685000D02*
X74612500Y-28613100D01*
X74612500Y-28613100D02*
X74777600Y-28778200D01*
D56*
X90805000Y-49500000D02*
X89946000Y-49500000D01*
D54*
X89946000Y-49500000D02*
X89662000Y-49784000D01*
X90805000Y-49500000D02*
X90013000Y-49500000D01*
X90013000Y-49500000D02*
X89662000Y-49149000D01*
D56*
X90805000Y-49500000D02*
X91664000Y-49500000D01*
D54*
X91664000Y-49500000D02*
X91948000Y-49784000D01*
X90805000Y-49500000D02*
X91597000Y-49500000D01*
X91597000Y-49500000D02*
X91948000Y-49149000D01*
X79695000Y-19050000D02*
X78994000Y-19050000D01*
X90330000Y-15875000D02*
X90330000Y-17145000D01*
X90330000Y-14605000D02*
X90330000Y-15875000D01*
X90805000Y-30450000D02*
X90073000Y-30450000D01*
X90073000Y-30450000D02*
X89662000Y-30861000D01*
X90805000Y-30450000D02*
X90013000Y-30450000D01*
X90013000Y-30450000D02*
X89789000Y-30226000D01*
X90805000Y-30450000D02*
X91537000Y-30450000D01*
X91537000Y-30450000D02*
X91948000Y-30861000D01*
X90805000Y-30450000D02*
X91724000Y-30450000D01*
X91724000Y-30450000D02*
X91948000Y-30226000D01*
X76008000Y-30500000D02*
X90755000Y-30500000D01*
X90755000Y-30500000D02*
X90805000Y-30450000D01*
D57*
X43000000Y-31000000D02*
X42500000Y-30500000D01*
X40000000Y-31000000D02*
X40500000Y-30500000D01*
D54*
X48895000Y-63050000D02*
X48895000Y-62611000D01*
X41910000Y-63050000D02*
X41910000Y-62611000D01*
X49255000Y-66305000D02*
X50027000Y-66305000D01*
X50027000Y-66305000D02*
X50038000Y-66294000D01*
X43455000Y-70205000D02*
X44297000Y-70205000D01*
X44297000Y-70205000D02*
X44323000Y-70231000D01*
X43455000Y-66955000D02*
X44349000Y-66955000D01*
X44349000Y-66955000D02*
X44450000Y-67056000D01*
D57*
X45500000Y-28500000D02*
X45000000Y-29000000D01*
X4130000Y-30099000D02*
X3556000Y-30099000D01*
X4130000Y-28067000D02*
X3556000Y-28067000D01*
X7705000Y-27686000D02*
X7705000Y-27644000D01*
X7705000Y-27644000D02*
X7112000Y-27051000D01*
X7705000Y-28956000D02*
X6921500Y-28956000D01*
X6921500Y-28956000D02*
X6858000Y-28892500D01*
X36000000Y-32000000D02*
X35500000Y-31500000D01*
D54*
X26795000Y2295000D02*
X25790000Y2295000D01*
X25790000Y2295000D02*
X28448000Y1397000D01*
X26795000Y2295000D02*
X28446000Y3808000D01*
X28446000Y3808000D02*
X28448000Y3810000D01*
X35620000Y1660000D02*
X36090000Y1660000D01*
X36090000Y1660000D02*
X36250000Y1500000D01*
X36830000Y-7940000D02*
X36830000Y-7330000D01*
X36830000Y-7330000D02*
X36750000Y-7250000D01*
D57*
X37500000Y-24500000D02*
X37000000Y-24000000D01*
X33800000Y-21500000D02*
X33700000Y-21400000D01*
X33800000Y-21500000D02*
X34500000Y-21500000D01*
X34500000Y-36500000D02*
X34000000Y-37000000D01*
X36500000Y-34500000D02*
X36000000Y-35000000D01*
X47000000Y-35000000D02*
X47500000Y-34500000D01*
X42000000Y-25000000D02*
X42500000Y-25500000D01*
X41000000Y-23000000D02*
X40500000Y-22500000D01*
X43500000Y-35500000D02*
X44000000Y-35000000D01*
X48500000Y-31500000D02*
X49000000Y-32000000D01*
X46000000Y-24000000D02*
X46500000Y-24500000D01*
X39000000Y-35000000D02*
X39500000Y-35500000D01*
X39000000Y-30000000D02*
X38500000Y-29500000D01*
X41000000Y-27000000D02*
X41500000Y-27500000D01*
D56*
X75160000Y-54610000D02*
X75160000Y-55729000D01*
X75160000Y-55729000D02*
X75184000Y-55753000D01*
X75160000Y-54610000D02*
X75160000Y-53491000D01*
X75160000Y-53491000D02*
X75184000Y-53467000D01*
X69850000Y-63730000D02*
X68731000Y-63730000D01*
X68731000Y-63730000D02*
X68707000Y-63754000D01*
X69850000Y-63730000D02*
X70969000Y-63730000D01*
X70969000Y-63730000D02*
X70993000Y-63754000D01*
D57*
X13865000Y-30375000D02*
X13970000Y-30480000D01*
X13865000Y-30375000D02*
X12895000Y-30375000D01*
D56*
X11430000Y-41680000D02*
X12422000Y-41680000D01*
X12422000Y-41680000D02*
X12446000Y-41656000D01*
X11430000Y-41680000D02*
X10438000Y-41680000D01*
X10438000Y-41680000D02*
X10414000Y-41656000D01*
X11430000Y-46675000D02*
X12385000Y-46675000D01*
X12385000Y-46675000D02*
X12446000Y-46736000D01*
X11430000Y-46675000D02*
X10475000Y-46675000D01*
X10475000Y-46675000D02*
X10414000Y-46736000D01*
X7112000Y-48260000D02*
X5842000Y-48260000D01*
X7112000Y-48260000D02*
X8382000Y-48260000D01*
X11430000Y-53570000D02*
X11430000Y-52832000D01*
X11430000Y-53570000D02*
X12549000Y-53570000D01*
X12549000Y-53570000D02*
X12573000Y-53594000D01*
X55880000Y-69445000D02*
X54761000Y-69445000D01*
X54761000Y-69445000D02*
X54737000Y-69469000D01*
X55880000Y-69445000D02*
X56999000Y-69445000D01*
X56999000Y-69445000D02*
X57023000Y-69469000D01*
X65720000Y-61595000D02*
X65720000Y-62418000D01*
X65720000Y-62418000D02*
X65786000Y-62484000D01*
X65720000Y-61595000D02*
X66294000Y-61595000D01*
X61595000Y-65278000D02*
X61595000Y-66548000D01*
X61595000Y-65278000D02*
X61595000Y-63881000D01*
D57*
X84545000Y-48895000D02*
X85471000Y-48895000D01*
X85471000Y-48895000D02*
X85598000Y-49022000D01*
D56*
X82793840Y-53975000D02*
X81280000Y-53975000D01*
X82793840Y-53975000D02*
X82793840Y-55361840D01*
X82793840Y-55361840D02*
X82804000Y-55372000D01*
X82793840Y-53975000D02*
X84328000Y-53975000D01*
X82793840Y-53975000D02*
X82793840Y-52588160D01*
X82793840Y-52588160D02*
X82804000Y-52578000D01*
X73345000Y-67945000D02*
X72644000Y-67945000D01*
X78910000Y-66040000D02*
X80010000Y-66040000D01*
X78910000Y-66040000D02*
X77978000Y-66040000D01*
X77978000Y-66040000D02*
X77851000Y-66167000D01*
D54*
X70802500Y-26606500D02*
X70612000Y-26416000D01*
X70802500Y-26606500D02*
X70802500Y-27685000D01*
X77152500Y-38163500D02*
X77216000Y-38227000D01*
X77152500Y-38163500D02*
X77152500Y-37085000D01*
X67627500Y-37085000D02*
X67627500Y-36131500D01*
X67627500Y-36131500D02*
X67564000Y-36068000D01*
X38735000Y-50680000D02*
X40252000Y-50680000D01*
X40252000Y-50680000D02*
X40259000Y-50673000D01*
X50236000Y-68255000D02*
X50419000Y-68072000D01*
X50236000Y-68255000D02*
X49255000Y-68255000D01*
X37465000Y-67400000D02*
X37465000Y-66040000D01*
X11110000Y-57150000D02*
X12065000Y-57150000D01*
X6035000Y-57150000D02*
X5080000Y-57150000D01*
D56*
X31680000Y-4860000D02*
X31680000Y-3994000D01*
X31680000Y-3994000D02*
X31496000Y-3810000D01*
X27870000Y-4860000D02*
X27034000Y-4534000D01*
X27034000Y-4534000D02*
X27000000Y-4500000D01*
X24060000Y-4860000D02*
X23284000Y-4534000D01*
X23284000Y-4534000D02*
X23250000Y-4500000D01*
X29845000Y-10075000D02*
X29845000Y-11049000D01*
X33655000Y-10075000D02*
X33655000Y-11049000D01*
X26035000Y-10075000D02*
X26035000Y-10922000D01*
X36510000Y0D02*
X36068000Y0D01*
X36068000Y0D02*
X35687000Y-381000D01*
X36510000Y0D02*
X37084000Y0D01*
X37084000Y0D02*
X37465000Y-381000D01*
X18330000Y1905000D02*
X19050000Y1905000D01*
X19050000Y1905000D02*
X19304000Y1651000D01*
X18330000Y-8255000D02*
X19050000Y-8255000D01*
X8730000Y-1905000D02*
X7493000Y-1905000D01*
X8730000Y-6985000D02*
X7366000Y-6985000D01*
X21185000Y-3175000D02*
X21971000Y-2667000D01*
X21971000Y-2667000D02*
X22098000Y-2540000D01*
X21185000Y-3175000D02*
X22074000Y-3786000D01*
X22074000Y-3786000D02*
X22098000Y-3810000D01*
D54*
X90330000Y-14605000D02*
X91694000Y-14605000D01*
D57*
X84455000Y-39455000D02*
X83778000Y-39455000D01*
X83778000Y-39455000D02*
X83693000Y-39370000D01*
X86360000Y-44130000D02*
X86360000Y-44958000D01*
X81595000Y-45085000D02*
X81595000Y-44130000D01*
X81595000Y-44130000D02*
X81407000Y-43942000D01*
X49500000Y-36500000D02*
X50000000Y-37000000D01*
X49500000Y-21500000D02*
X50000000Y-21000000D01*
X46500000Y-33500000D02*
X46000000Y-34000000D01*
X41500000Y-32500000D02*
X42000000Y-32000000D01*
X41500000Y-29500000D02*
X41000000Y-30000000D01*
X40500000Y-28500000D02*
X40000000Y-28000000D01*
X48500000Y-27500000D02*
X48000000Y-28000000D01*
X35500000Y-27500000D02*
X36000000Y-28000000D01*
X44500000Y-22500000D02*
X44000000Y-23000000D01*
X42500000Y-28500000D02*
X43000000Y-28000000D01*
D54*
X74612500Y-27685000D02*
X74612500Y-29104500D01*
X74612500Y-29104500D02*
X76008000Y-30500000D01*
X73345000Y-65405000D02*
X73345000Y-60430000D01*
X73345000Y-60430000D02*
X73450000Y-60325000D01*
D57*
X42500000Y-29500000D02*
X43000000Y-30000000D01*
X41500000Y-30500000D02*
X41000000Y-31000000D01*
X43500000Y-28500000D02*
X43000000Y-29000000D01*
X44000000Y-31000000D02*
X43500000Y-30500000D01*
X40000000Y-27000000D02*
X40500000Y-27500000D01*
X43000000Y-27000000D02*
X42500000Y-27500000D01*
X40000000Y-30000000D02*
X40500000Y-29500000D01*
X41000000Y-28000000D02*
X41500000Y-28500000D01*
D56*
X69850000Y-52390000D02*
X70800000Y-52390000D01*
X70800000Y-52390000D02*
X70866000Y-52324000D01*
X69850000Y-52390000D02*
X69850000Y-52197000D01*
X69850000Y-52197000D02*
X70612000Y-51435000D01*
X69850000Y-52390000D02*
X69281000Y-52390000D01*
X69281000Y-52390000D02*
X68326000Y-51435000D01*
X69850000Y-52197000D02*
X69088000Y-51435000D01*
X69850000Y-52390000D02*
X68392000Y-52390000D01*
X68392000Y-52390000D02*
X68326000Y-52324000D01*
X69850000Y-52390000D02*
X69850000Y-51435000D01*
D54*
X9525000Y-27686000D02*
X8805000Y-27686000D01*
D57*
X12895000Y-27575000D02*
X13859000Y-27575000D01*
X14351000Y-29210000D02*
X13986000Y-29575000D01*
X14351000Y-28067000D02*
X14351000Y-29210000D01*
X13859000Y-27575000D02*
X14351000Y-28067000D01*
X12895000Y-27575000D02*
X9636000Y-27575000D01*
X9636000Y-27575000D02*
X9525000Y-27686000D01*
X8805000Y-27686000D02*
X9525000Y-27686000D01*
X12895000Y-29575000D02*
X13986000Y-29575000D01*
D54*
X8805000Y-30226000D02*
X9779000Y-30226000D01*
X9779000Y-30226000D02*
X10287000Y-29718000D01*
D57*
X12895000Y-27975000D02*
X13624000Y-27975000D01*
X13970000Y-28829000D02*
X13624000Y-29175000D01*
X13970000Y-28321000D02*
X13970000Y-28829000D01*
X13624000Y-27975000D02*
X13970000Y-28321000D01*
X12895000Y-29175000D02*
X10830000Y-29175000D01*
X10830000Y-29175000D02*
X10287000Y-29718000D01*
X10287000Y-29718000D02*
X9779000Y-30226000D01*
X9779000Y-30226000D02*
X8805000Y-30226000D01*
X13624000Y-29175000D02*
X12895000Y-29175000D01*
D54*
X8805000Y-28956000D02*
X9044000Y-28956000D01*
X9044000Y-28956000D02*
X9625000Y-28375000D01*
X9625000Y-28375000D02*
X10106000Y-28375000D01*
D57*
X12895000Y-28375000D02*
X10106000Y-28375000D01*
D54*
X8805000Y-28956000D02*
X8805000Y-28705000D01*
X8400000Y-28300000D02*
X6263000Y-28300000D01*
X8805000Y-28705000D02*
X8400000Y-28300000D01*
X6263000Y-28300000D02*
X6030000Y-28067000D01*
D57*
X8382000Y-28321000D02*
X6284000Y-28321000D01*
X6284000Y-28321000D02*
X6030000Y-28067000D01*
X8805000Y-28956000D02*
X8805000Y-28744000D01*
X8805000Y-28744000D02*
X8382000Y-28321000D01*
D56*
X84930000Y-18415000D02*
X83820000Y-18415000D01*
X84930000Y-18415000D02*
X85090000Y-18415000D01*
X85090000Y-18415000D02*
X85810000Y-19135000D01*
X85810000Y-19135000D02*
X85810000Y-20320000D01*
D54*
X79057500Y-28765500D02*
X78994000Y-28829000D01*
X79057500Y-28765500D02*
X79057500Y-27685000D01*
X71437500Y-28511500D02*
X71120000Y-28829000D01*
X71437500Y-27685000D02*
X71437500Y-28511500D01*
X68262500Y-37085000D02*
X68262500Y-38036500D01*
X68262500Y-38036500D02*
X68199000Y-38100000D01*
X68262500Y-38036500D02*
X68199000Y-38100000D01*
X51054000Y-58420000D02*
X52230000Y-58420000D01*
X50236000Y-68905000D02*
X50419000Y-69088000D01*
X50236000Y-68905000D02*
X49255000Y-68905000D01*
D57*
X18945000Y-31982000D02*
X19177000Y-31750000D01*
X18945000Y-31982000D02*
X18945000Y-32825000D01*
X21395000Y-28375000D02*
X20501000Y-28375000D01*
X20501000Y-28375000D02*
X20320000Y-28194000D01*
D54*
X65720000Y-57150000D02*
X66294000Y-57150000D01*
X79695000Y-16510000D02*
X78740000Y-16510000D01*
X77785000Y-16510000D02*
X78740000Y-16510000D01*
X88900000Y-10795000D02*
X90551000Y-10795000D01*
D57*
X20640000Y-46990000D02*
X19740000Y-46990000D01*
X19740000Y-46990000D02*
X19500000Y-46750000D01*
D54*
X47625000Y-63050000D02*
X47625000Y-62611000D01*
X43180000Y-63050000D02*
X43180000Y-62611000D01*
X68165980Y-45085000D02*
X68165980Y-44162980D01*
X68165980Y-44162980D02*
X68072000Y-44069000D01*
X68165980Y-46990000D02*
X68165980Y-45085000D01*
X59530000Y-57150000D02*
X60850000Y-57150000D01*
X60850000Y-57150000D02*
X61000000Y-57000000D01*
X59530000Y-55880000D02*
X60870000Y-55880000D01*
X60870000Y-55880000D02*
X61000000Y-55750000D01*
D57*
X48500000Y-29500000D02*
X49000000Y-29000000D01*
X47000000Y-30000000D02*
X46500000Y-30500000D01*
X37000000Y-22000000D02*
X37500000Y-22500000D01*
X37000000Y-31000000D02*
X37500000Y-30500000D01*
D54*
X20000000Y-635000D02*
X20385000Y-635000D01*
X20385000Y-635000D02*
X21000000Y-1250000D01*
X20000000Y-635000D02*
X20865000Y-635000D01*
X20865000Y-635000D02*
X21000000Y-500000D01*
D57*
X49000000Y-24000000D02*
X48500000Y-24500000D01*
X35000000Y-24000000D02*
X35500000Y-24500000D01*
X35000000Y-34000000D02*
X35500000Y-33500000D01*
X37500000Y-35500000D02*
X37000000Y-36000000D01*
X47000000Y-36000000D02*
X46500000Y-35500000D01*
X47000000Y-23000000D02*
X46500000Y-22500000D01*
X48500000Y-33500000D02*
X48000000Y-33000000D01*
X47000000Y-27000000D02*
X46500000Y-27500000D01*
X37000000Y-27000000D02*
X37500000Y-27500000D01*
X18945000Y-25295000D02*
X19050000Y-25400000D01*
X18945000Y-25295000D02*
X18945000Y-24325000D01*
D56*
X53660000Y-64135000D02*
X53660000Y-64196000D01*
X53660000Y-64196000D02*
X52959000Y-64897000D01*
X53660000Y-64135000D02*
X53594000Y-64135000D01*
X53594000Y-64135000D02*
X52959000Y-63373000D01*
X53660000Y-64135000D02*
X53660000Y-65085000D01*
X53660000Y-65085000D02*
X53594000Y-65151000D01*
X53660000Y-64135000D02*
X52959000Y-64135000D01*
X53660000Y-64135000D02*
X53660000Y-63185000D01*
X53660000Y-63185000D02*
X53594000Y-63119000D01*
D57*
X47625000Y-59370000D02*
X48389000Y-59311000D01*
X48389000Y-59311000D02*
X48514000Y-59436000D01*
X43180000Y-59370000D02*
X42221000Y-59366000D01*
X42221000Y-59366000D02*
X42291000Y-59436000D01*
D54*
X71437500Y-37085000D02*
X71437500Y-38163500D01*
X71437500Y-38163500D02*
X71374000Y-38227000D01*
X67627500Y-28638500D02*
X67691000Y-28702000D01*
X67627500Y-28638500D02*
X67627500Y-27685000D01*
X78359000Y-37148500D02*
X78359000Y-38227000D01*
D57*
X78422500Y-38163500D02*
X78359000Y-38227000D01*
X78422500Y-38163500D02*
X78422500Y-37085000D01*
D54*
X35135000Y-55880000D02*
X35135000Y-56559000D01*
X35135000Y-56559000D02*
X34036000Y-57658000D01*
D56*
X36510000Y-1905000D02*
X37084000Y-1905000D01*
X37084000Y-1905000D02*
X37338000Y-1651000D01*
X36510000Y-1905000D02*
X36703000Y-1905000D01*
X36703000Y-1905000D02*
X37338000Y-2540000D01*
D54*
X90330000Y-18415000D02*
X91567000Y-18415000D01*
D57*
X83820000Y-44130000D02*
X83820000Y-44958000D01*
X76520000Y-45085000D02*
X76520000Y-44003000D01*
X76520000Y-44003000D02*
X76581000Y-43942000D01*
X41500000Y-35500000D02*
X41000000Y-35000000D01*
X43500000Y-33500000D02*
X44000000Y-34000000D01*
X40500000Y-33500000D02*
X40000000Y-34000000D01*
X35500000Y-29500000D02*
X36000000Y-30000000D01*
X43500000Y-24500000D02*
X44000000Y-24000000D01*
X40500000Y-24500000D02*
X40000000Y-24000000D01*
X42500000Y-22500000D02*
X43000000Y-22000000D01*
D56*
X24892000Y-14986000D02*
X24511000Y-14605000D01*
X24511000Y-14605000D02*
X23810000Y-14605000D01*
X21910000Y-17145000D02*
X20701000Y-17145000D01*
X20701000Y-17145000D02*
X20574000Y-17272000D01*
D57*
X12954000Y-32766000D02*
X12954000Y-33528000D01*
X12954000Y-32766000D02*
X13013000Y-32825000D01*
X13013000Y-32825000D02*
X12954000Y-32766000D01*
X12192000Y-32766000D02*
X12192000Y-33528000D01*
X11935000Y-27175000D02*
X11684000Y-26924000D01*
X11935000Y-27175000D02*
X12895000Y-27175000D01*
D55*
X7620000Y-40960000D02*
X7620000Y-38100000D01*
X7620000Y-38100000D02*
X12192000Y-33528000D01*
D57*
X11814000Y-29975000D02*
X11811000Y-29972000D01*
X11814000Y-29975000D02*
X12895000Y-29975000D01*
D54*
X14145000Y-23543000D02*
X13970000Y-23368000D01*
X14145000Y-23543000D02*
X14145000Y-24325000D01*
X14145000Y-32825000D02*
X13013000Y-32825000D01*
X13013000Y-32825000D02*
X12954000Y-32766000D01*
D55*
X12192000Y-33528000D02*
X12954000Y-32766000D01*
D56*
X12192000Y-32766000D02*
X12192000Y-33528000D01*
D54*
X43455000Y-68255000D02*
X44394000Y-68255000D01*
X44394000Y-68255000D02*
X44450000Y-68199000D01*
X44450000Y-68199000D02*
X44577000Y-68199000D01*
X44577000Y-68199000D02*
X44958000Y-68580000D01*
X44450000Y-68199000D02*
X44577000Y-68199000D01*
X44394000Y-68255000D02*
X44450000Y-68199000D01*
X44577000Y-68199000D02*
X44958000Y-68580000D01*
X635000Y-56939180D02*
X3385820Y-56939180D01*
X22225000Y-50800000D02*
X22860000Y-51435000D01*
X15875000Y-50800000D02*
X22225000Y-50800000D01*
X15240000Y-51435000D02*
X15875000Y-50800000D01*
X15240000Y-53340000D02*
X15240000Y-51435000D01*
X13335000Y-55245000D02*
X15240000Y-53340000D01*
X5080000Y-55245000D02*
X13335000Y-55245000D01*
X3385820Y-56939180D02*
X5080000Y-55245000D01*
X6035000Y-59690000D02*
X3385820Y-59690000D01*
X3385820Y-59690000D02*
X635000Y-62440820D01*
X6035000Y-59690000D02*
X6035000Y-63820000D01*
X6035000Y-63820000D02*
X7700000Y-65485000D01*
X17145000Y-53129180D02*
X19474180Y-53129180D01*
X19474180Y-53129180D02*
X22860000Y-56515000D01*
X11110000Y-59690000D02*
X16085820Y-59690000D01*
X16085820Y-59690000D02*
X17145000Y-58630820D01*
X17145000Y-58630820D02*
X17145000Y-64930000D01*
X17145000Y-64930000D02*
X17700000Y-65485000D01*
X17390000Y-65175000D02*
X17700000Y-65485000D01*
X41783000Y-68961000D02*
X42545000Y-68961000D01*
X42601000Y-68905000D02*
X43455000Y-68905000D01*
X42601000Y-68905000D02*
X42545000Y-68961000D01*
X43455000Y-70855000D02*
X39950000Y-70855000D01*
X39950000Y-70855000D02*
X38415000Y-72390000D01*
X43455000Y-69555000D02*
X39345000Y-69555000D01*
X39345000Y-69555000D02*
X38415000Y-70485000D01*
D57*
X70584060Y-24765000D02*
X73660000Y-24765000D01*
X75247500Y-26352500D02*
X75247500Y-27685000D01*
X73660000Y-24765000D02*
X75247500Y-26352500D01*
X75882500Y-27685000D02*
X75882500Y-25181560D01*
X75882500Y-25181560D02*
X75465940Y-24765000D01*
X75565000Y-46355000D02*
X76745000Y-47535000D01*
X76745000Y-47588000D02*
X76745000Y-47535000D01*
X75565000Y-40640000D02*
X75565000Y-46355000D01*
X77787500Y-38417500D02*
X77787500Y-37085000D01*
X77787500Y-38417500D02*
X75565000Y-40640000D01*
X79695000Y-45085000D02*
X78420000Y-45085000D01*
X78420000Y-45085000D02*
X78420000Y-45913000D01*
X78420000Y-45913000D02*
X76745000Y-47588000D01*
X76745000Y-47588000D02*
X76745000Y-48895000D01*
D54*
X76517500Y-27685000D02*
X76517500Y-28765500D01*
X76517500Y-28765500D02*
X76504800Y-28778200D01*
X73977500Y-27685000D02*
X73977500Y-28765500D01*
X73977500Y-28765500D02*
X73990200Y-28778200D01*
D57*
X43180000Y-55024020D02*
X43180000Y-57470000D01*
X43180000Y-52925980D02*
X43180000Y-52780980D01*
X43180000Y-52780980D02*
X44000000Y-51960980D01*
X44000000Y-46750000D02*
X44000000Y-51960980D01*
X39750000Y-42000000D02*
X40000000Y-42250000D01*
X40000000Y-42250000D02*
X40000000Y-42750000D01*
X40000000Y-42750000D02*
X44000000Y-46750000D01*
X36500000Y-35500000D02*
X36000000Y-36000000D01*
X39750000Y-41750000D02*
X39750000Y-42000000D01*
X47625000Y-55024020D02*
X47625000Y-57470000D01*
X47000000Y-52300980D02*
X47625000Y-52925980D01*
X47000000Y-45000000D02*
X47000000Y-52300980D01*
X45000000Y-43000000D02*
X47000000Y-45000000D01*
X46500000Y-34500000D02*
X46000000Y-35000000D01*
X48500000Y-23500000D02*
X49000000Y-23000000D01*
X82232500Y-25732500D02*
X82232500Y-27685000D01*
X77250000Y-20750000D02*
X82232500Y-25732500D01*
X54250000Y-20750000D02*
X77250000Y-20750000D01*
X52000000Y-23000000D02*
X54250000Y-20750000D01*
X49000000Y-23000000D02*
X52000000Y-23000000D01*
X49500000Y-23500000D02*
X52250000Y-23500000D01*
X81597500Y-25847500D02*
X81597500Y-27685000D01*
X77000000Y-21250000D02*
X81597500Y-25847500D01*
X54500000Y-21250000D02*
X77000000Y-21250000D01*
X52250000Y-23500000D02*
X54500000Y-21250000D01*
X81500000Y-27587500D02*
X81597500Y-27685000D01*
X48500000Y-25500000D02*
X49000000Y-25000000D01*
X80962500Y-25962500D02*
X80962500Y-27685000D01*
X76750000Y-21750000D02*
X80962500Y-25962500D01*
X54750000Y-21750000D02*
X76750000Y-21750000D01*
X51500000Y-25000000D02*
X54750000Y-21750000D01*
X49000000Y-25000000D02*
X51500000Y-25000000D01*
X81000000Y-27647500D02*
X80962500Y-27685000D01*
X51750000Y-25500000D02*
X49500000Y-25500000D01*
X55000000Y-22250000D02*
X51750000Y-25500000D01*
X77787500Y-23537500D02*
X77787500Y-27685000D01*
X76500000Y-22250000D02*
X55000000Y-22250000D01*
X77787500Y-23537500D02*
X76500000Y-22250000D01*
X49000000Y-26000000D02*
X52000000Y-26000000D01*
X48500000Y-26500000D02*
X49000000Y-26000000D01*
X55250000Y-22750000D02*
X52000000Y-26000000D01*
X76250000Y-22750000D02*
X55250000Y-22750000D01*
X77152500Y-23652500D02*
X76250000Y-22750000D01*
X77152500Y-23652500D02*
X77152500Y-27685000D01*
D58*
X90805000Y-31750000D02*
X89792500Y-31750000D01*
X73656997Y-30317907D02*
X73317100Y-29978010D01*
X75121990Y-31782900D02*
X74472800Y-31133710D01*
X74472800Y-31133710D02*
X74472800Y-30607000D01*
X75822722Y-31771678D02*
X75822722Y-31782900D01*
X78791556Y-31369000D02*
X78282800Y-31369000D01*
X89792500Y-31750000D02*
X89759600Y-31782900D01*
X78282800Y-31369000D02*
X77886919Y-31764881D01*
X77886919Y-31764881D02*
X77886919Y-31782900D01*
X89759600Y-31782900D02*
X79205456Y-31782900D01*
X77886919Y-31782900D02*
X77042201Y-31782900D01*
X77042201Y-31782900D02*
X76653701Y-31394400D01*
X76653701Y-31394400D02*
X76200000Y-31394400D01*
X74472800Y-30607000D02*
X74183707Y-30317907D01*
X76200000Y-31394400D02*
X75822722Y-31771678D01*
X74183707Y-30317907D02*
X73656997Y-30317907D01*
X75822722Y-31782900D02*
X75121990Y-31782900D01*
X79205456Y-31782900D02*
X78791556Y-31369000D01*
X73317100Y-29978010D02*
X73317100Y-28610400D01*
X73317100Y-28610400D02*
X73342500Y-28585000D01*
X73342500Y-28585000D02*
X73342500Y-27685000D01*
D54*
X66548000Y-19558000D02*
X71755000Y-14351000D01*
D57*
X69532500Y-28638500D02*
X69342000Y-28829000D01*
X69532500Y-27685000D02*
X69532500Y-28638500D01*
D54*
X71755000Y-14351000D02*
X74229000Y-14351000D01*
X74229000Y-14351000D02*
X74295000Y-14285000D01*
X80325000Y-17780000D02*
X70231000Y-17780000D01*
D57*
X68897500Y-26606500D02*
X68897500Y-27685000D01*
X68897500Y-26606500D02*
X68453000Y-26162000D01*
D54*
X68453000Y-19558000D02*
X70231000Y-17780000D01*
X80325000Y-17780000D02*
X81595000Y-16510000D01*
X84930000Y-15875000D02*
X82230000Y-15875000D01*
X82230000Y-15875000D02*
X81595000Y-16510000D01*
D57*
X80325000Y-17780000D02*
X81595000Y-16510000D01*
X49500000Y-28500000D02*
X63750000Y-28500000D01*
X66250000Y-29000000D02*
X64250000Y-29000000D01*
X66250000Y-29000000D02*
X66992500Y-28257500D01*
X64250000Y-29000000D02*
X63750000Y-28500000D01*
X66992500Y-27685000D02*
X66992500Y-28257500D01*
X63000000Y-27000000D02*
X64000000Y-26000000D01*
X48000000Y-27000000D02*
X63000000Y-27000000D01*
X47500000Y-27500000D02*
X48000000Y-27000000D01*
X66357500Y-26857500D02*
X65500000Y-26000000D01*
X65500000Y-26000000D02*
X64000000Y-26000000D01*
X66357500Y-26857500D02*
X66357500Y-27685000D01*
X49500000Y-27500000D02*
X63250000Y-27500000D01*
X65722500Y-26972500D02*
X65250000Y-26500000D01*
X65250000Y-26500000D02*
X64250000Y-26500000D01*
X64250000Y-26500000D02*
X63250000Y-27500000D01*
X65722500Y-26972500D02*
X65722500Y-27685000D01*
X65087500Y-27685000D02*
X65065000Y-27685000D01*
X65065000Y-27685000D02*
X64750000Y-28000000D01*
X64750000Y-28000000D02*
X49000000Y-28000000D01*
X49000000Y-28000000D02*
X48500000Y-28500000D01*
X63250000Y-34500000D02*
X49500000Y-34500000D01*
X65000000Y-36250000D02*
X63250000Y-34500000D01*
X65087500Y-36337500D02*
X65000000Y-36250000D01*
X65087500Y-37085000D02*
X65087500Y-36337500D01*
X65087500Y-36337500D02*
X65000000Y-36250000D01*
X65087500Y-37085000D02*
X65087500Y-36587500D01*
X65087500Y-37085000D02*
X65087500Y-36893500D01*
X48000000Y-34000000D02*
X63500000Y-34000000D01*
X65722500Y-36222500D02*
X63500000Y-34000000D01*
X65722500Y-36222500D02*
X65722500Y-37085000D01*
X48000000Y-34000000D02*
X47500000Y-33500000D01*
X64000000Y-33500000D02*
X49500000Y-33500000D01*
X66357500Y-37085000D02*
X66357500Y-35857500D01*
X66357500Y-35857500D02*
X64000000Y-33500000D01*
X64500000Y-33000000D02*
X49000000Y-33000000D01*
X66992500Y-35492500D02*
X64500000Y-33000000D01*
X66992500Y-37085000D02*
X66992500Y-35492500D01*
X49000000Y-33000000D02*
X48500000Y-32500000D01*
X48500000Y-32500000D02*
X48502000Y-32500000D01*
X69532500Y-38594500D02*
X69127000Y-39000000D01*
X69127000Y-39000000D02*
X56250000Y-39000000D01*
X56250000Y-39000000D02*
X52250000Y-35000000D01*
X69532500Y-37085000D02*
X69532500Y-38594500D01*
X49000000Y-35000000D02*
X48500000Y-34500000D01*
X49000000Y-35000000D02*
X52250000Y-35000000D01*
X49500000Y-35500000D02*
X51750000Y-35500000D01*
X70167500Y-38709500D02*
X69377000Y-39500000D01*
X69377000Y-39500000D02*
X55750000Y-39500000D01*
X55750000Y-39500000D02*
X51750000Y-35500000D01*
X70167500Y-38709500D02*
X70167500Y-37085000D01*
X49000000Y-36000000D02*
X51500000Y-36000000D01*
X48500000Y-35500000D02*
X49000000Y-36000000D01*
X70802500Y-39052500D02*
X69855000Y-40000000D01*
X69855000Y-40000000D02*
X55500000Y-40000000D01*
X55500000Y-40000000D02*
X51500000Y-36000000D01*
X70802500Y-39052500D02*
X70802500Y-37085000D01*
X73025000Y-43307000D02*
X73025000Y-46040000D01*
X73025000Y-46040000D02*
X73975000Y-46990000D01*
X72072500Y-37085000D02*
X72072500Y-38925500D01*
X72072500Y-38925500D02*
X70612000Y-40386000D01*
X51377000Y-40500000D02*
X70498000Y-40500000D01*
X70498000Y-40500000D02*
X70612000Y-40386000D01*
X48500000Y-36500000D02*
X48500000Y-37623000D01*
X51377000Y-40500000D02*
X48500000Y-37623000D01*
X73342500Y-37085000D02*
X73342500Y-37909500D01*
X73152000Y-38100000D02*
X73152000Y-39857000D01*
X73342500Y-37909500D02*
X73152000Y-38100000D01*
X51254000Y-41000000D02*
X48000000Y-37746000D01*
X73152000Y-39857000D02*
X72009000Y-41000000D01*
X48000000Y-37746000D02*
X48000000Y-36000000D01*
X72009000Y-41000000D02*
X51254000Y-41000000D01*
X47500000Y-35500000D02*
X48000000Y-36000000D01*
X47500000Y-36500000D02*
X47500000Y-37869000D01*
X74612500Y-39026500D02*
X72139000Y-41500000D01*
X72139000Y-41500000D02*
X51131000Y-41500000D01*
X51131000Y-41500000D02*
X47500000Y-37869000D01*
X74612500Y-39026500D02*
X74612500Y-37085000D01*
X46500000Y-36500000D02*
X46500000Y-37492000D01*
X75247500Y-39014500D02*
X72262000Y-42000000D01*
X72262000Y-42000000D02*
X51008000Y-42000000D01*
X51008000Y-42000000D02*
X46500000Y-37492000D01*
X75247500Y-37085000D02*
X75247500Y-39014500D01*
X46000000Y-36000000D02*
X46000000Y-37615000D01*
X75882500Y-39002500D02*
X72385000Y-42500000D01*
X72385000Y-42500000D02*
X50885000Y-42500000D01*
X50885000Y-42500000D02*
X46000000Y-37615000D01*
X75882500Y-39002500D02*
X75882500Y-37085000D01*
X46000000Y-36000000D02*
X45500000Y-35500000D01*
X45500000Y-36500000D02*
X45500000Y-37738000D01*
X76517500Y-38990500D02*
X72508000Y-43000000D01*
X72508000Y-43000000D02*
X50762000Y-43000000D01*
X50762000Y-43000000D02*
X45500000Y-37738000D01*
X76517500Y-38990500D02*
X76517500Y-37085000D01*
X79057500Y-37085000D02*
X79057500Y-40068500D01*
X82738000Y-41148000D02*
X83820000Y-42230000D01*
X80137000Y-41148000D02*
X82738000Y-41148000D01*
X79057500Y-40068500D02*
X80137000Y-41148000D01*
X65000000Y-32500000D02*
X49500000Y-32500000D01*
X79692500Y-36192500D02*
X79500000Y-36000000D01*
X79500000Y-36000000D02*
X68500000Y-36000000D01*
X68500000Y-36000000D02*
X65000000Y-32500000D01*
X79692500Y-37085000D02*
X79692500Y-36192500D01*
X49500000Y-31500000D02*
X64750000Y-31500000D01*
X80327500Y-36077500D02*
X79750000Y-35500000D01*
X79750000Y-35500000D02*
X68750000Y-35500000D01*
X80327500Y-37085000D02*
X80327500Y-36077500D01*
X68750000Y-35500000D02*
X64750000Y-31500000D01*
X65000000Y-31000000D02*
X48000000Y-31000000D01*
X80962500Y-35962500D02*
X80000000Y-35000000D01*
X80962500Y-37085000D02*
X80962500Y-35962500D01*
X80000000Y-35000000D02*
X69000000Y-35000000D01*
X65000000Y-31000000D02*
X69000000Y-35000000D01*
X48000000Y-31000000D02*
X47500000Y-31500000D01*
X49500000Y-30500000D02*
X65250000Y-30500000D01*
X81597500Y-35847500D02*
X80250000Y-34500000D01*
X80250000Y-34500000D02*
X69250000Y-34500000D01*
X69250000Y-34500000D02*
X65250000Y-30500000D01*
X81597500Y-35847500D02*
X81597500Y-37085000D01*
X65500000Y-30000000D02*
X49000000Y-30000000D01*
X69500000Y-34000000D02*
X65500000Y-30000000D01*
X82232500Y-37085000D02*
X82232500Y-35482500D01*
X82232500Y-35482500D02*
X80750000Y-34000000D01*
X80750000Y-34000000D02*
X69500000Y-34000000D01*
X49000000Y-30000000D02*
X48500000Y-30500000D01*
X50250000Y-44000000D02*
X65250000Y-44000000D01*
X70890000Y-50250000D02*
X72075000Y-51435000D01*
X68500000Y-50250000D02*
X70890000Y-50250000D01*
X66500000Y-48250000D02*
X68500000Y-50250000D01*
X66500000Y-45250000D02*
X66500000Y-48250000D01*
X65250000Y-44000000D02*
X66500000Y-45250000D01*
X44500000Y-38250000D02*
X50250000Y-44000000D01*
X44500000Y-36500000D02*
X44500000Y-38250000D01*
X50500000Y-43500000D02*
X65500000Y-43500000D01*
X68530000Y-49530000D02*
X72075000Y-49530000D01*
X67000000Y-48000000D02*
X68530000Y-49530000D01*
X67000000Y-45000000D02*
X67000000Y-48000000D01*
X65500000Y-43500000D02*
X67000000Y-45000000D01*
X45000000Y-38000000D02*
X50500000Y-43500000D01*
X44500000Y-33500000D02*
X45000000Y-34000000D01*
X45000000Y-34000000D02*
X45000000Y-38000000D01*
D54*
X84930000Y-14605000D02*
X81915000Y-14605000D01*
X81915000Y-14605000D02*
X80645000Y-13335000D01*
X83820000Y-66990000D02*
X81110000Y-66990000D01*
X75245000Y-67945000D02*
X75245000Y-65405000D01*
X78910000Y-66990000D02*
X76830000Y-66990000D01*
X76830000Y-66990000D02*
X75245000Y-65405000D01*
D57*
X12895000Y-28775000D02*
X10341000Y-28775000D01*
X10341000Y-28775000D02*
X9906000Y-29210000D01*
D54*
X6030000Y-30099000D02*
X6477000Y-30099000D01*
X6477000Y-30099000D02*
X6985000Y-29591000D01*
X6985000Y-29591000D02*
X9525000Y-29591000D01*
X9525000Y-29591000D02*
X9906000Y-29210000D01*
D57*
X14945000Y-24325000D02*
X14945000Y-20361000D01*
X20701000Y-14605000D02*
X21910000Y-14605000D01*
X14945000Y-20361000D02*
X20701000Y-14605000D01*
X26035000Y-16960000D02*
X23995000Y-16960000D01*
X23995000Y-16960000D02*
X23810000Y-17145000D01*
X15345000Y-24325000D02*
X15345000Y-20596000D01*
X22540000Y-15875000D02*
X23810000Y-17145000D01*
X20066000Y-15875000D02*
X22540000Y-15875000D01*
X15345000Y-20596000D02*
X20066000Y-15875000D01*
X14545000Y-24325000D02*
X14545000Y-19999000D01*
X14545000Y-19999000D02*
X21336000Y-13208000D01*
X21336000Y-13208000D02*
X24638000Y-13208000D01*
X24638000Y-13208000D02*
X26035000Y-14605000D01*
X26035000Y-14605000D02*
X26035000Y-16060000D01*
X26035000Y-16060000D02*
X26485000Y-16060000D01*
X26485000Y-16060000D02*
X27804000Y-14741000D01*
X27804000Y-14741000D02*
X27804000Y-9712000D01*
X14545000Y-24325000D02*
X14545000Y-25213000D01*
X14545000Y-25213000D02*
X14732000Y-25400000D01*
X52475000Y-57395000D02*
X53355000Y-57395000D01*
X54540000Y-56210000D02*
X54540000Y-53585000D01*
X53355000Y-57395000D02*
X54540000Y-56210000D01*
X43000000Y-35000000D02*
X43500000Y-34500000D01*
X56440000Y-53585000D02*
X56440000Y-52440000D01*
X56440000Y-52440000D02*
X43000000Y-39000000D01*
X43000000Y-39000000D02*
X43000000Y-35000000D01*
X36500000Y-36500000D02*
X36500000Y-37000000D01*
X52475000Y-49225000D02*
X52475000Y-56125000D01*
X45500000Y-42250000D02*
X52475000Y-49225000D01*
X44250000Y-42250000D02*
X45500000Y-42250000D01*
X36500000Y-37000000D02*
X36750000Y-37250000D01*
D54*
X63820000Y-59055000D02*
X63820000Y-57150000D01*
X59530000Y-58420000D02*
X63185000Y-58420000D01*
X63185000Y-58420000D02*
X63820000Y-59055000D01*
D57*
X59775000Y-58665000D02*
X58415000Y-58665000D01*
X58415000Y-58665000D02*
X57750000Y-58000000D01*
X57750000Y-52250000D02*
X57750000Y-58000000D01*
X44000000Y-38500000D02*
X57750000Y-52250000D01*
X44000000Y-36000000D02*
X44000000Y-38500000D01*
X44500000Y-35500000D02*
X44000000Y-36000000D01*
X15612000Y-31106000D02*
X15358000Y-31106000D01*
X15875000Y-31369000D02*
X15612000Y-31106000D01*
X16247000Y-16755000D02*
X16265000Y-16755000D01*
X23308000Y-9712000D02*
X23994000Y-9712000D01*
X16265000Y-16755000D02*
X23308000Y-9712000D01*
X15358000Y-26788000D02*
X13335000Y-24765000D01*
X13335000Y-19667000D02*
X16247000Y-16755000D01*
X13335000Y-24765000D02*
X13335000Y-19667000D01*
X14545000Y-31919000D02*
X14545000Y-32825000D01*
X15358000Y-31106000D02*
X14545000Y-31919000D01*
X15358000Y-26788000D02*
X15358000Y-31106000D01*
X69977000Y-29500000D02*
X70140000Y-29500000D01*
X70140000Y-29500000D02*
X71374000Y-30734000D01*
X79692500Y-27685000D02*
X79692500Y-28892500D01*
X79692500Y-28892500D02*
X78740000Y-29845000D01*
X78740000Y-29845000D02*
X77597000Y-29845000D01*
X49500000Y-29500000D02*
X69977000Y-29500000D01*
X69977000Y-29500000D02*
X70000000Y-29500000D01*
X49255000Y-70855000D02*
X48105000Y-70855000D01*
X45000000Y-46250000D02*
X41000000Y-42250000D01*
X45000000Y-67750000D02*
X45000000Y-46250000D01*
X48105000Y-70855000D02*
X45000000Y-67750000D01*
X41000000Y-36000000D02*
X41000000Y-42250000D01*
X40500000Y-35500000D02*
X41000000Y-36000000D01*
X49255000Y-69555000D02*
X48305000Y-69555000D01*
X46000000Y-67250000D02*
X46000000Y-45750000D01*
X48305000Y-69555000D02*
X46000000Y-67250000D01*
X46000000Y-45750000D02*
X42000000Y-41750000D01*
X42000000Y-36000000D02*
X42000000Y-41750000D01*
X42500000Y-35500000D02*
X42000000Y-36000000D01*
X43455000Y-66305000D02*
X43945000Y-66305000D01*
X43945000Y-66305000D02*
X44500000Y-65750000D01*
X40500000Y-36500000D02*
X40500000Y-42500000D01*
X40500000Y-42500000D02*
X44500000Y-46500000D01*
X44500000Y-46500000D02*
X44500000Y-65750000D01*
X34750000Y-20750000D02*
X19500000Y-20750000D01*
X35500000Y-21500000D02*
X34750000Y-20750000D01*
X17745000Y-22505000D02*
X17745000Y-24325000D01*
X17745000Y-22505000D02*
X19500000Y-20750000D01*
X35000000Y-23000000D02*
X20250000Y-23000000D01*
X35500000Y-23500000D02*
X35000000Y-23000000D01*
X19745000Y-23505000D02*
X20250000Y-23000000D01*
X19745000Y-23505000D02*
X19745000Y-24325000D01*
X34500000Y-24500000D02*
X22000000Y-24500000D01*
X21395000Y-25105000D02*
X22000000Y-24500000D01*
X21395000Y-25575000D02*
X21395000Y-25105000D01*
X31614000Y-10364000D02*
X31614000Y-9712000D01*
X33000000Y-11750000D02*
X31614000Y-10364000D01*
X33000000Y-17500000D02*
X33000000Y-11750000D01*
X35500000Y-26500000D02*
X35000000Y-26000000D01*
X24000000Y-27500000D02*
X34500000Y-27500000D01*
X23675000Y-27175000D02*
X21395000Y-27175000D01*
X23675000Y-27175000D02*
X24000000Y-27500000D01*
X34500000Y-28500000D02*
X23500000Y-28500000D01*
X22975000Y-27975000D02*
X23500000Y-28500000D01*
X22975000Y-27975000D02*
X21395000Y-27975000D01*
X24000000Y-29500000D02*
X34500000Y-29500000D01*
X23525000Y-29975000D02*
X24000000Y-29500000D01*
X23525000Y-29975000D02*
X21395000Y-29975000D01*
X49255000Y-70205000D02*
X48205000Y-70205000D01*
X48205000Y-70205000D02*
X45500000Y-67500000D01*
X45500000Y-46000000D02*
X41500000Y-42000000D01*
X45500000Y-67500000D02*
X45500000Y-46000000D01*
X41500000Y-36500000D02*
X41500000Y-42000000D01*
X35750000Y-19750000D02*
X19000000Y-19750000D01*
X36500000Y-20500000D02*
X35750000Y-19750000D01*
X36500000Y-21500000D02*
X36500000Y-20500000D01*
X16945000Y-21805000D02*
X16945000Y-24325000D01*
X16945000Y-21805000D02*
X19000000Y-19750000D01*
X35250000Y-20250000D02*
X19250000Y-20250000D01*
X17345000Y-24325000D02*
X17345000Y-22155000D01*
X17345000Y-22155000D02*
X19250000Y-20250000D01*
X36000000Y-22000000D02*
X36000000Y-21000000D01*
X36000000Y-21000000D02*
X35250000Y-20250000D01*
X36000000Y-22000000D02*
X36500000Y-22500000D01*
X35000000Y-22000000D02*
X19000000Y-22000000D01*
X18145000Y-22855000D02*
X19000000Y-22000000D01*
X18145000Y-24325000D02*
X18145000Y-22855000D01*
X35000000Y-22000000D02*
X35500000Y-22500000D01*
X20000000Y-22500000D02*
X34500000Y-22500000D01*
X19345000Y-23155000D02*
X20000000Y-22500000D01*
X19345000Y-24325000D02*
X19345000Y-23155000D01*
X21250000Y-23500000D02*
X34500000Y-23500000D01*
X20425000Y-24325000D02*
X21250000Y-23500000D01*
X20145000Y-24325000D02*
X20425000Y-24325000D01*
X23250000Y-25000000D02*
X35000000Y-25000000D01*
X35500000Y-25500000D02*
X35000000Y-25000000D01*
X22275000Y-25975000D02*
X23250000Y-25000000D01*
X22275000Y-25975000D02*
X21395000Y-25975000D01*
X34500000Y-25500000D02*
X23500000Y-25500000D01*
X22625000Y-26375000D02*
X23500000Y-25500000D01*
X21395000Y-26375000D02*
X22625000Y-26375000D01*
X26543000Y-3937000D02*
X25250600Y-3937000D01*
X25250600Y-3937000D02*
X25010000Y-4177600D01*
X25010000Y-4177600D02*
X25010000Y-4860000D01*
X26670000Y-3810000D02*
X26543000Y-3937000D01*
X26670000Y-3429000D02*
X26670000Y-3810000D01*
X26416000Y-3175000D02*
X26670000Y-3429000D01*
X23962600Y-3175000D02*
X26416000Y-3175000D01*
X23740000Y-2600000D02*
X23740000Y-2952400D01*
X23740000Y-2952400D02*
X23962600Y-3175000D01*
X23740000Y-2600000D02*
X23809000Y-2600000D01*
X23740000Y-2600000D02*
X24571000Y-2600000D01*
X24571000Y-2600000D02*
X24765000Y-2794000D01*
X24765000Y-2794000D02*
X27686000Y-2794000D01*
X27686000Y-2794000D02*
X28820000Y-3928000D01*
X28820000Y-3928000D02*
X28820000Y-4860000D01*
X30750000Y-10500000D02*
X30725000Y-10500000D01*
X32250000Y-12000000D02*
X30750000Y-10500000D01*
X32250000Y-17250000D02*
X32250000Y-12000000D01*
X28820000Y-4860000D02*
X28820000Y-4182000D01*
X29201000Y-3801000D02*
X28820000Y-4182000D01*
X30471000Y-3801000D02*
X29201000Y-3801000D01*
X30725000Y-10500000D02*
X30725000Y-4055000D01*
X33750000Y-26500000D02*
X34500000Y-26500000D01*
X33750000Y-26500000D02*
X33500000Y-26250000D01*
X30725000Y-4055000D02*
X30471000Y-3801000D01*
X36000000Y-27000000D02*
X24250000Y-27000000D01*
X36500000Y-27500000D02*
X36000000Y-27000000D01*
X24025000Y-26775000D02*
X21395000Y-26775000D01*
X24025000Y-26775000D02*
X24250000Y-27000000D01*
X35000000Y-28000000D02*
X23750000Y-28000000D01*
X35500000Y-28500000D02*
X35000000Y-28000000D01*
X23325000Y-27575000D02*
X21395000Y-27575000D01*
X23325000Y-27575000D02*
X23750000Y-28000000D01*
X21395000Y-29175000D02*
X22325000Y-29175000D01*
X22325000Y-29175000D02*
X22750000Y-28750000D01*
X37000000Y-26000000D02*
X36500000Y-26500000D01*
X36000000Y-29000000D02*
X23750000Y-29000000D01*
X36500000Y-29500000D02*
X36000000Y-29000000D01*
X23175000Y-29575000D02*
X23750000Y-29000000D01*
X23175000Y-29575000D02*
X21395000Y-29575000D01*
X35000000Y-30000000D02*
X24250000Y-30000000D01*
X35500000Y-30500000D02*
X35000000Y-30000000D01*
X23875000Y-30375000D02*
X24250000Y-30000000D01*
X23875000Y-30375000D02*
X21395000Y-30375000D01*
X24500000Y-30500000D02*
X34500000Y-30500000D01*
X24225000Y-30775000D02*
X24500000Y-30500000D01*
X24225000Y-30775000D02*
X21395000Y-30775000D01*
X24750000Y-31000000D02*
X36000000Y-31000000D01*
X36500000Y-30500000D02*
X36000000Y-31000000D01*
X24575000Y-31175000D02*
X24750000Y-31000000D01*
X24575000Y-31175000D02*
X21395000Y-31175000D01*
X34500000Y-31500000D02*
X25000000Y-31500000D01*
X24925000Y-31575000D02*
X25000000Y-31500000D01*
X24925000Y-31575000D02*
X21395000Y-31575000D01*
X34500000Y-32500000D02*
X25500000Y-32500000D01*
X19745000Y-33995000D02*
X20250000Y-34500000D01*
X20250000Y-34500000D02*
X23500000Y-34500000D01*
X23500000Y-34500000D02*
X25500000Y-32500000D01*
X19745000Y-33995000D02*
X19745000Y-32825000D01*
X35000000Y-32000000D02*
X25250000Y-32000000D01*
X24425000Y-32825000D02*
X25250000Y-32000000D01*
X24425000Y-32825000D02*
X20145000Y-32825000D01*
X35500000Y-32500000D02*
X35000000Y-32000000D01*
X25750000Y-33000000D02*
X36000000Y-33000000D01*
X36500000Y-33500000D02*
X36000000Y-33000000D01*
X19345000Y-34345000D02*
X20000000Y-35000000D01*
X20000000Y-35000000D02*
X23750000Y-35000000D01*
X23750000Y-35000000D02*
X25750000Y-33000000D01*
X19345000Y-34345000D02*
X19345000Y-32825000D01*
X34500000Y-33500000D02*
X26000000Y-33500000D01*
X18145000Y-33895000D02*
X19750000Y-35500000D01*
X19750000Y-35500000D02*
X24000000Y-35500000D01*
X24000000Y-35500000D02*
X26000000Y-33500000D01*
X18145000Y-33895000D02*
X18145000Y-32825000D01*
X25750000Y-34500000D02*
X34500000Y-34500000D01*
X17745000Y-34245000D02*
X19500000Y-36000000D01*
X19500000Y-36000000D02*
X24250000Y-36000000D01*
X24250000Y-36000000D02*
X25750000Y-34500000D01*
X17745000Y-34245000D02*
X17745000Y-32825000D01*
X35000000Y-36000000D02*
X26500000Y-36000000D01*
X35500000Y-35500000D02*
X35000000Y-36000000D01*
X16545000Y-35295000D02*
X18750000Y-37500000D01*
X18750000Y-37500000D02*
X25000000Y-37500000D01*
X25000000Y-37500000D02*
X26500000Y-36000000D01*
X16545000Y-35295000D02*
X16545000Y-32825000D01*
X26250000Y-35500000D02*
X34500000Y-35500000D01*
X16945000Y-34945000D02*
X19000000Y-37000000D01*
X19000000Y-37000000D02*
X24750000Y-37000000D01*
X24750000Y-37000000D02*
X26250000Y-35500000D01*
X16945000Y-34945000D02*
X16945000Y-32825000D01*
X18250000Y-38500000D02*
X37250000Y-38500000D01*
X38000000Y-35000000D02*
X38000000Y-37750000D01*
X37500000Y-34500000D02*
X38000000Y-35000000D01*
X15745000Y-35995000D02*
X18250000Y-38500000D01*
X15745000Y-35995000D02*
X15745000Y-32825000D01*
X37250000Y-38500000D02*
X38000000Y-37750000D01*
X17750000Y-39500000D02*
X37750000Y-39500000D01*
X39000000Y-36000000D02*
X39000000Y-38250000D01*
X38500000Y-35500000D02*
X39000000Y-36000000D01*
X14945000Y-36695000D02*
X17750000Y-39500000D01*
X14945000Y-36695000D02*
X14945000Y-32825000D01*
X37750000Y-39500000D02*
X39000000Y-38250000D01*
X35000000Y-35000000D02*
X26000000Y-35000000D01*
X17345000Y-34595000D02*
X19250000Y-36500000D01*
X19250000Y-36500000D02*
X24500000Y-36500000D01*
X24500000Y-36500000D02*
X26000000Y-35000000D01*
X17345000Y-32825000D02*
X17345000Y-34595000D01*
X35000000Y-35000000D02*
X35500000Y-34500000D01*
X18500000Y-38000000D02*
X37000000Y-38000000D01*
X37500000Y-36500000D02*
X37500000Y-37500000D01*
X16145000Y-35645000D02*
X18500000Y-38000000D01*
X16145000Y-35645000D02*
X16145000Y-32825000D01*
X37000000Y-38000000D02*
X37500000Y-37500000D01*
X18000000Y-39000000D02*
X37500000Y-39000000D01*
X38500000Y-36500000D02*
X38500000Y-38000000D01*
X15345000Y-36345000D02*
X18000000Y-39000000D01*
X15345000Y-36345000D02*
X15345000Y-32825000D01*
X37500000Y-39000000D02*
X38500000Y-38000000D01*
X59775000Y-59935000D02*
X58935000Y-59935000D01*
X58935000Y-59935000D02*
X57250000Y-58250000D01*
X43500000Y-38750000D02*
X43500000Y-36500000D01*
X57250000Y-52500000D02*
X57250000Y-58250000D01*
X43500000Y-38750000D02*
X57250000Y-52500000D01*
D54*
X67437000Y-19558000D02*
X70485000Y-16510000D01*
X70485000Y-16510000D02*
X75885000Y-16510000D01*
X75885000Y-16510000D02*
X75885000Y-15555000D01*
X75885000Y-15555000D02*
X78105000Y-13335000D01*
D57*
X68262500Y-26860500D02*
X67437000Y-26035000D01*
X68262500Y-27685000D02*
X68262500Y-26860500D01*
D54*
X27305000Y-67435000D02*
X27305000Y-59690000D01*
X27305000Y-59690000D02*
X30480000Y-56515000D01*
X27305000Y-69935000D02*
X27305000Y-70848000D01*
X27305000Y-70848000D02*
X26407000Y-71746000D01*
X26407000Y-71746000D02*
X23613000Y-71746000D01*
X23613000Y-71746000D02*
X22724000Y-70857000D01*
X22724000Y-70857000D02*
X22724000Y-67301000D01*
X22724000Y-67301000D02*
X26534000Y-63491000D01*
X26534000Y-63491000D02*
X26534000Y-57921000D01*
X26534000Y-57921000D02*
X30480000Y-53975000D01*
X8180000Y-57395000D02*
X8180000Y-59935000D01*
X9455000Y-57395000D02*
X9455000Y-59935000D01*
D57*
X43500000Y-29500000D02*
X44000000Y-30000000D01*
X43500000Y-27500000D02*
X44000000Y-27000000D01*
X38000000Y-25000000D02*
X38500000Y-25500000D01*
X41000000Y-26000000D02*
X41500000Y-26500000D01*
X43000000Y-32000000D02*
X42500000Y-31500000D01*
X45000000Y-26000000D02*
X44500000Y-26500000D01*
X39000000Y-32000000D02*
X39500000Y-31500000D01*
X39500000Y-28500000D02*
X39000000Y-28000000D01*
X86360000Y-42230000D02*
X86360000Y-40320000D01*
X84455000Y-40555000D02*
X86125000Y-40555000D01*
X86125000Y-40555000D02*
X86360000Y-40320000D01*
X74063500Y-38036500D02*
X74000000Y-38100000D01*
X73977500Y-37085000D02*
X74063500Y-38036500D01*
X80433000Y-40555000D02*
X84455000Y-40555000D01*
X80391000Y-40513000D02*
X80433000Y-40555000D01*
X70264020Y-45085000D02*
X72075000Y-45085000D01*
X72075000Y-46990000D02*
X70264020Y-46990000D01*
X70167500Y-27685000D02*
X70167500Y-26917500D01*
X70167500Y-26917500D02*
X68750000Y-25500000D01*
X62750000Y-26500000D02*
X49500000Y-26500000D01*
X68750000Y-25500000D02*
X63750000Y-25500000D01*
X63750000Y-25500000D02*
X62750000Y-26500000D01*
X73975000Y-45085000D02*
X73975000Y-42987000D01*
X73975000Y-42987000D02*
X73787000Y-42799000D01*
X72707500Y-37085000D02*
X72707500Y-39306500D01*
X72707500Y-39306500D02*
X71628000Y-40386000D01*
D54*
X84930000Y-17145000D02*
X86106000Y-17145000D01*
X86360000Y-16891000D02*
X86360000Y-10795000D01*
X86106000Y-17145000D02*
X86360000Y-16891000D01*
X81595000Y-19050000D02*
X81915000Y-19050000D01*
X81915000Y-19050000D02*
X83820000Y-17145000D01*
X83820000Y-17145000D02*
X84930000Y-17145000D01*
D57*
X81595000Y-19050000D02*
X81788000Y-19050000D01*
X37500000Y-23500000D02*
X37000000Y-23000000D01*
X36830000Y-10420000D02*
X36830000Y-9840000D01*
X35750000Y-11500000D02*
X36830000Y-10420000D01*
X35750000Y-17500000D02*
X35750000Y-11500000D01*
X37710000Y-59845000D02*
X39155000Y-59845000D01*
X35000000Y-37000000D02*
X35500000Y-36500000D01*
X39250000Y-42750000D02*
X39250000Y-42500000D01*
X41250000Y-44750000D02*
X39250000Y-42750000D01*
X41250000Y-57750000D02*
X41250000Y-44750000D01*
X39155000Y-59845000D02*
X41250000Y-57750000D01*
X8750000Y1925000D02*
X8750000Y3000000D01*
X39000000Y-22000000D02*
X39500000Y-22500000D01*
X39000000Y-22000000D02*
X39000000Y3000000D01*
X8750000Y1925000D02*
X8730000Y1905000D01*
X14130000Y-1905000D02*
X15155000Y-1905000D01*
X40500000Y750000D02*
X40750000Y1000000D01*
X40500000Y-21500000D02*
X40500000Y750000D01*
X15155000Y-1905000D02*
X15250000Y-2000000D01*
X14130000Y-635000D02*
X15115000Y-635000D01*
X15115000Y-635000D02*
X15250000Y-500000D01*
X40000000Y-23000000D02*
X40000000Y1500000D01*
X39500000Y-23500000D02*
X40000000Y-23000000D01*
X40000000Y1500000D02*
X40250000Y1750000D01*
X14245000Y750000D02*
X15250000Y750000D01*
X39500000Y2250000D02*
X39750000Y2500000D01*
X39500000Y2250000D02*
X39500000Y-21500000D01*
X14245000Y750000D02*
X14130000Y635000D01*
X42500000Y-6500000D02*
X42500000Y-21500000D01*
X42750000Y-6250000D02*
X42500000Y-6500000D01*
X14145000Y-7000000D02*
X15250000Y-7000000D01*
X14145000Y-7000000D02*
X14130000Y-6985000D01*
X42000000Y-5750000D02*
X42000000Y-23000000D01*
X42250000Y-5500000D02*
X42000000Y-5750000D01*
X41500000Y-23500000D02*
X42000000Y-23000000D01*
X14165000Y-5750000D02*
X15250000Y-5750000D01*
X14165000Y-5750000D02*
X14130000Y-5715000D01*
X41500000Y-21500000D02*
X41500000Y-4601000D01*
X41500000Y-4601000D02*
X41656000Y-4445000D01*
X41529000Y-4572000D02*
X41529000Y-21471000D01*
X41656000Y-4445000D02*
X41529000Y-4572000D01*
X41529000Y-21471000D02*
X41500000Y-21500000D01*
X14130000Y-4445000D02*
X15240000Y-4445000D01*
X8750000Y-4425000D02*
X8750000Y-3500000D01*
X41000000Y-3750000D02*
X41250000Y-3500000D01*
X41000000Y-3750000D02*
X41000000Y-22000000D01*
X41000000Y-22000000D02*
X41500000Y-22500000D01*
X8750000Y-4425000D02*
X8730000Y-4445000D01*
D54*
X36515000Y-72390000D02*
X34925000Y-72390000D01*
X32470000Y-69935000D02*
X29805000Y-69935000D01*
X34925000Y-72390000D02*
X32470000Y-69935000D01*
X36515000Y-70485000D02*
X35814000Y-70485000D01*
X35814000Y-70485000D02*
X32764000Y-67435000D01*
X32764000Y-67435000D02*
X29805000Y-67435000D01*
X63250000Y-19500000D02*
X65590000Y-19500000D01*
X77089000Y399000D02*
X78350000Y1660000D01*
X77089000Y-8001000D02*
X77089000Y399000D01*
X65590000Y-19500000D02*
X77089000Y-8001000D01*
D57*
X48500000Y-21500000D02*
X49000000Y-21000000D01*
X48500000Y-21500000D02*
X48500000Y-21477000D01*
D54*
X75810000Y1660000D02*
X75810000Y1007000D01*
X75810000Y1007000D02*
X74549000Y-254000D01*
X65033000Y-18787000D02*
X65015000Y-18787000D01*
X74549000Y-9271000D02*
X65033000Y-18787000D01*
X74549000Y-254000D02*
X74549000Y-9271000D01*
D57*
X65015000Y-18787000D02*
X74540000Y-9262000D01*
X75810000Y1152000D02*
X74540000Y-118000D01*
X74540000Y-118000D02*
X74540000Y-9262000D01*
X47500000Y-23500000D02*
X48000000Y-23000000D01*
X75810000Y1660000D02*
X75810000Y1152000D01*
D54*
X65015000Y-17644000D02*
X72000000Y-10659000D01*
X72000000Y-10659000D02*
X72000000Y390000D01*
X72000000Y390000D02*
X73270000Y1660000D01*
D57*
X73270000Y1660000D02*
X73270000Y1152000D01*
X47500000Y-25500000D02*
X48000000Y-25000000D01*
D54*
X70730000Y1660000D02*
X69460000Y390000D01*
X69460000Y390000D02*
X69460000Y-11947000D01*
X63999000Y-17408000D02*
X63999000Y-18787000D01*
X69460000Y-11947000D02*
X63999000Y-17408000D01*
D57*
X63999000Y-18787000D02*
X63999000Y-17517000D01*
X63999000Y-17517000D02*
X69460000Y-12056000D01*
X69460000Y-12056000D02*
X69460000Y390000D01*
X45000000Y-23000000D02*
X45500000Y-23500000D01*
X12895000Y-25975000D02*
X2988000Y-25975000D01*
X2159000Y-25146000D02*
X1379000Y-25146000D01*
X2988000Y-25975000D02*
X2159000Y-25146000D01*
X1379000Y-25146000D02*
X880000Y-25645000D01*
X880000Y-28185000D02*
X2690000Y-26375000D01*
X2690000Y-26375000D02*
X12895000Y-26375000D01*
X12895000Y-30775000D02*
X11135000Y-30775000D01*
X1905000Y-34290000D02*
X880000Y-33265000D01*
X7620000Y-34290000D02*
X1905000Y-34290000D01*
X11135000Y-30775000D02*
X7620000Y-34290000D01*
X7874000Y-34671000D02*
X2014000Y-34671000D01*
X2014000Y-34671000D02*
X880000Y-35805000D01*
X12895000Y-31175000D02*
X11370000Y-31175000D01*
X11370000Y-31175000D02*
X7874000Y-34671000D01*
D54*
X-1660000Y-10405000D02*
X-1660000Y-7502000D01*
X6477000Y635000D02*
X8730000Y635000D01*
X-1660000Y-7502000D02*
X6477000Y635000D01*
X880000Y-10405000D02*
X880000Y-6370000D01*
X880000Y-6370000D02*
X6615000Y-635000D01*
X6615000Y-635000D02*
X8730000Y-635000D01*
D57*
X8730000Y-635000D02*
X6615000Y-635000D01*
D54*
X8730000Y-5715000D02*
X7112000Y-5715000D01*
X-399000Y-11684000D02*
X-1660000Y-12945000D01*
X2286000Y-11684000D02*
X-399000Y-11684000D01*
X3810000Y-10160000D02*
X2286000Y-11684000D01*
X3810000Y-9017000D02*
X3810000Y-10160000D01*
X7112000Y-5715000D02*
X3810000Y-9017000D01*
D57*
X-1660000Y-12945000D02*
X-1406000Y-12945000D01*
D54*
X8730000Y-8255000D02*
X7239000Y-8255000D01*
X7239000Y-8255000D02*
X2549000Y-12945000D01*
X2549000Y-12945000D02*
X880000Y-12945000D01*
D57*
X44000000Y-6750000D02*
X44000000Y-22000000D01*
X43500000Y-22500000D02*
X44000000Y-22000000D01*
X47250000Y-3500000D02*
X44000000Y-6750000D01*
X49500000Y-3500000D02*
X47250000Y-3500000D01*
X51000000Y-2000000D02*
X49500000Y-3500000D01*
X51000000Y-750000D02*
X51000000Y-2000000D01*
X51000000Y-750000D02*
X49020000Y1230000D01*
X48935000Y1230000D02*
X49020000Y1230000D01*
X44500000Y-7000000D02*
X44500000Y-21500000D01*
X47500000Y-4000000D02*
X44500000Y-7000000D01*
X49750000Y-4000000D02*
X47500000Y-4000000D01*
X52000000Y-1750000D02*
X49750000Y-4000000D01*
X52000000Y-750000D02*
X52000000Y-1750000D01*
X52000000Y-750000D02*
X53935000Y1185000D01*
X53935000Y1230000D02*
X53935000Y1185000D01*
X43500000Y-6500000D02*
X43500000Y-21500000D01*
X43500000Y-6500000D02*
X48730000Y-1270000D01*
X48935000Y-1270000D02*
X48730000Y-1270000D01*
D58*
X89759600Y-32367100D02*
X89792500Y-32400000D01*
X72732900Y-30219990D02*
X74880010Y-32367100D01*
X74880010Y-32367100D02*
X89759600Y-32367100D01*
X89792500Y-32400000D02*
X90805000Y-32400000D01*
X72707500Y-27685000D02*
X72707500Y-28585000D01*
X72707500Y-28585000D02*
X72732900Y-28610400D01*
X72732900Y-28610400D02*
X72732900Y-30219990D01*
D57*
X18750000Y-19250000D02*
X36500000Y-19250000D01*
X37500000Y-21500000D02*
X37500000Y-20250000D01*
X36500000Y-19250000D02*
X37500000Y-20250000D01*
X16545000Y-21455000D02*
X16545000Y-24325000D01*
X16545000Y-21455000D02*
X18750000Y-19250000D01*
X37000000Y-18250000D02*
X18250000Y-18250000D01*
X37000000Y-18250000D02*
X38500000Y-19750000D01*
X38500000Y-19750000D02*
X38500000Y-21500000D01*
X15745000Y-24325000D02*
X15745000Y-20755000D01*
X15745000Y-20755000D02*
X18250000Y-18250000D01*
X36750000Y-18750000D02*
X18500000Y-18750000D01*
X36750000Y-18750000D02*
X38000000Y-20000000D01*
X16145000Y-24325000D02*
X16145000Y-21105000D01*
X16145000Y-21105000D02*
X18500000Y-18750000D01*
X38000000Y-22000000D02*
X38500000Y-22500000D01*
X38000000Y-22000000D02*
X38000000Y-20000000D01*
D56*
X25960000Y-7060000D02*
X26618000Y-7060000D01*
X26618000Y-7060000D02*
X26670000Y-7112000D01*
X25325000Y-7060000D02*
X25960000Y-7060000D01*
X25273000Y-7112000D02*
X25325000Y-7060000D01*
D54*
X30226000Y-1905000D02*
X30826000Y-1305000D01*
X30826000Y-1305000D02*
X31995000Y-1305000D01*
X35620000Y2930000D02*
X37320000Y2930000D01*
X36205000Y-3500000D02*
X34610000Y-1905000D01*
X37500000Y-3500000D02*
X36205000Y-3500000D01*
X38250000Y-2750000D02*
X37500000Y-3500000D01*
X38250000Y2000000D02*
X38250000Y-2750000D01*
X37320000Y2930000D02*
X38250000Y2000000D01*
D56*
X34610000Y-7051000D02*
X34610000Y-5715000D01*
X34610000Y-7051000D02*
X34671000Y-7112000D01*
X25960000Y-7060000D02*
X25960000Y-8900000D01*
X25960000Y-8900000D02*
X26035000Y-8975000D01*
X29770000Y-7060000D02*
X29770000Y-8900000D01*
X29770000Y-8900000D02*
X29845000Y-8975000D01*
X33580000Y-7060000D02*
X33580000Y-8900000D01*
X33580000Y-8900000D02*
X33655000Y-8975000D01*
X29770000Y-7060000D02*
X29135000Y-7060000D01*
X29135000Y-7060000D02*
X29083000Y-7112000D01*
X34610000Y-1905000D02*
X34610000Y-5715000D01*
X34610000Y-5715000D02*
X34610000Y-6030000D01*
X34610000Y-6030000D02*
X33580000Y-7060000D01*
D57*
X34720000Y1660000D02*
X34662000Y1660000D01*
X34662000Y1660000D02*
X34027000Y2295000D01*
X31995000Y2295000D02*
X34027000Y2295000D01*
X34027000Y2295000D02*
X34085000Y2295000D01*
X34085000Y2295000D02*
X34720000Y2930000D01*
X28529000Y-3039000D02*
X31614000Y-3039000D01*
X31614000Y-3039000D02*
X32630000Y-4055000D01*
X23740000Y-1700000D02*
X26400000Y-1700000D01*
X26400000Y-1700000D02*
X26795000Y-1305000D01*
X32630000Y-4860000D02*
X32630000Y-4055000D01*
X28529000Y-3039000D02*
X26795000Y-1305000D01*
D54*
X27467000Y-1305000D02*
X26795000Y-1305000D01*
D57*
X31680000Y-7060000D02*
X31680000Y-8746000D01*
X31680000Y-8746000D02*
X31614000Y-8812000D01*
D54*
X31680000Y-8746000D02*
X31614000Y-8812000D01*
D57*
X24060000Y-7060000D02*
X24060000Y-8746000D01*
X24060000Y-8746000D02*
X23994000Y-8812000D01*
D54*
X24060000Y-8746000D02*
X23994000Y-8812000D01*
D57*
X27870000Y-7060000D02*
X27870000Y-8746000D01*
X27870000Y-8746000D02*
X27804000Y-8812000D01*
D54*
X27870000Y-8746000D02*
X27804000Y-8812000D01*
D57*
X45000000Y-8068000D02*
X45203000Y-7865000D01*
X45000000Y-22000000D02*
X45000000Y-8068000D01*
X45500000Y-22500000D02*
X45000000Y-22000000D01*
X45500000Y-21500000D02*
X45500000Y-8838000D01*
X45500000Y-8838000D02*
X45711000Y-8627000D01*
X46000000Y-9608000D02*
X46219000Y-9389000D01*
X46000000Y-9608000D02*
X46000000Y-23000000D01*
X46500000Y-23500000D02*
X46000000Y-23000000D01*
X46500000Y-10378000D02*
X46500000Y-21500000D01*
X46500000Y-10378000D02*
X46727000Y-10151000D01*
X47000000Y-12000000D02*
X47000000Y-22000000D01*
X47250000Y-11750000D02*
X47000000Y-12000000D01*
X47500000Y-22500000D02*
X47000000Y-22000000D01*
X47500000Y-12750000D02*
X47500000Y-21500000D01*
X47750000Y-12500000D02*
X47500000Y-12750000D01*
X48000000Y-13500000D02*
X48000000Y-22000000D01*
X48250000Y-13250000D02*
X48000000Y-13500000D01*
X48500000Y-22500000D02*
X48000000Y-22000000D01*
X48641000Y-14224000D02*
X48641000Y-18641000D01*
X48641000Y-18641000D02*
X50750000Y-20750000D01*
X50750000Y-21250000D02*
X50750000Y-20750000D01*
X49500000Y-22500000D02*
X50750000Y-21250000D01*
X49255000Y-67605000D02*
X48105000Y-67605000D01*
X48105000Y-67605000D02*
X46500000Y-66000000D01*
X46500000Y-66000000D02*
X46500000Y-45500000D01*
X46500000Y-45500000D02*
X42500000Y-41500000D01*
X42500000Y-36500000D02*
X42500000Y-41500000D01*
D54*
X38354000Y-57785000D02*
X38354000Y-56261000D01*
X38354000Y-56261000D02*
X38735000Y-55880000D01*
D57*
X40000000Y-35000000D02*
X40000000Y-40000000D01*
X40500000Y-34500000D02*
X40000000Y-35000000D01*
X35380000Y-48870000D02*
X35380000Y-50925000D01*
X38500000Y-45750000D02*
X35380000Y-48870000D01*
X38500000Y-41500000D02*
X38500000Y-45750000D01*
X40000000Y-40000000D02*
X38500000Y-41500000D01*
X24350980Y-46990000D02*
X22540000Y-46990000D01*
X39500000Y-36500000D02*
X39500000Y-39750000D01*
X32260000Y-46990000D02*
X26449020Y-46990000D01*
X39500000Y-39750000D02*
X32260000Y-46990000D01*
X47625000Y-63950000D02*
X47625000Y-66125000D01*
X48455000Y-66955000D02*
X49255000Y-66955000D01*
X47625000Y-66125000D02*
X48455000Y-66955000D01*
X48895000Y-63950000D02*
X47625000Y-63950000D01*
X41910000Y-63950000D02*
X41910000Y-66910000D01*
X42605000Y-67605000D02*
X43455000Y-67605000D01*
X41910000Y-66910000D02*
X42605000Y-67605000D01*
X43180000Y-63950000D02*
X41910000Y-63950000D01*
D54*
G36*
X17382560Y2155000D02*
X17382560Y1655000D01*
X17426838Y1419683D01*
X17565910Y1203559D01*
X17778110Y1058569D01*
X18030000Y1007560D01*
X18618398Y1007560D01*
X18770951Y854741D01*
X18873000Y812366D01*
X18873000Y-7315045D01*
X18863882Y-7315037D01*
X18740542Y-7366000D01*
X18671678Y-7366000D01*
X18630000Y-7357560D01*
X18030000Y-7357560D01*
X17794683Y-7401838D01*
X17578559Y-7540910D01*
X17433569Y-7753110D01*
X17382560Y-8005000D01*
X17382560Y-8505000D01*
X17404763Y-8623000D01*
X13127000Y-8623000D01*
X13127000Y-7886269D01*
X13355000Y-7932440D01*
X14905000Y-7932440D01*
X15001281Y-7914324D01*
X15062242Y-7939637D01*
X15436118Y-7939963D01*
X15588500Y-7877000D01*
X16000000Y-7877000D01*
X16049410Y-7866994D01*
X16091035Y-7838553D01*
X16118315Y-7796159D01*
X16127000Y-7750000D01*
X16127000Y-7338604D01*
X16189637Y-7187758D01*
X16189963Y-6813882D01*
X16127000Y-6661500D01*
X16127000Y-6088604D01*
X16189637Y-5937758D01*
X16189963Y-5563882D01*
X16127000Y-5411500D01*
X16127000Y-4759521D01*
X16179637Y-4632758D01*
X16179963Y-4258882D01*
X16127000Y-4130702D01*
X16127000Y-2338604D01*
X16189637Y-2187758D01*
X16189963Y-1813882D01*
X16127000Y-1661500D01*
X16127000Y-838604D01*
X16189637Y-687758D01*
X16189963Y-313882D01*
X16127000Y-161500D01*
X16127000Y411396D01*
X16189637Y562242D01*
X16189963Y936118D01*
X16127000Y1088500D01*
X16127000Y1250000D01*
X16116994Y1299410D01*
X16088553Y1341035D01*
X16046159Y1368315D01*
X16000000Y1377000D01*
X15952013Y1377000D01*
X15783049Y1546259D01*
X15437758Y1689637D01*
X15063882Y1689963D01*
X14803657Y1582440D01*
X13355000Y1582440D01*
X13127000Y1539539D01*
X13127000Y2373000D01*
X17426706Y2373000D01*
X17382560Y2155000D01*
X17382560Y2155000D01*
G37*
X17382560Y2155000D02*
X17382560Y1655000D01*
X17426838Y1419683D01*
X17565910Y1203559D01*
X17778110Y1058569D01*
X18030000Y1007560D01*
X18618398Y1007560D01*
X18770951Y854741D01*
X18873000Y812366D01*
X18873000Y-7315045D01*
X18863882Y-7315037D01*
X18740542Y-7366000D01*
X18671678Y-7366000D01*
X18630000Y-7357560D01*
X18030000Y-7357560D01*
X17794683Y-7401838D01*
X17578559Y-7540910D01*
X17433569Y-7753110D01*
X17382560Y-8005000D01*
X17382560Y-8505000D01*
X17404763Y-8623000D01*
X13127000Y-8623000D01*
X13127000Y-7886269D01*
X13355000Y-7932440D01*
X14905000Y-7932440D01*
X15001281Y-7914324D01*
X15062242Y-7939637D01*
X15436118Y-7939963D01*
X15588500Y-7877000D01*
X16000000Y-7877000D01*
X16049410Y-7866994D01*
X16091035Y-7838553D01*
X16118315Y-7796159D01*
X16127000Y-7750000D01*
X16127000Y-7338604D01*
X16189637Y-7187758D01*
X16189963Y-6813882D01*
X16127000Y-6661500D01*
X16127000Y-6088604D01*
X16189637Y-5937758D01*
X16189963Y-5563882D01*
X16127000Y-5411500D01*
X16127000Y-4759521D01*
X16179637Y-4632758D01*
X16179963Y-4258882D01*
X16127000Y-4130702D01*
X16127000Y-2338604D01*
X16189637Y-2187758D01*
X16189963Y-1813882D01*
X16127000Y-1661500D01*
X16127000Y-838604D01*
X16189637Y-687758D01*
X16189963Y-313882D01*
X16127000Y-161500D01*
X16127000Y411396D01*
X16189637Y562242D01*
X16189963Y936118D01*
X16127000Y1088500D01*
X16127000Y1250000D01*
X16116994Y1299410D01*
X16088553Y1341035D01*
X16046159Y1368315D01*
X16000000Y1377000D01*
X15952013Y1377000D01*
X15783049Y1546259D01*
X15437758Y1689637D01*
X15063882Y1689963D01*
X14803657Y1582440D01*
X13355000Y1582440D01*
X13127000Y1539539D01*
X13127000Y2373000D01*
X17426706Y2373000D01*
X17382560Y2155000D01*
G36*
X34798000Y-71295D02*
X34747363Y-193242D01*
X34747037Y-567118D01*
X34798000Y-690458D01*
X34798000Y-2413000D01*
X31932654Y-2413000D01*
X31886165Y-2381937D01*
X31614000Y-2327800D01*
X30607000Y-2327800D01*
X30607000Y508000D01*
X34798000Y508000D01*
X34798000Y-71295D01*
X34798000Y-71295D01*
G37*
X34798000Y-71295D02*
X34747363Y-193242D01*
X34747037Y-567118D01*
X34798000Y-690458D01*
X34798000Y-2413000D01*
X31932654Y-2413000D01*
X31886165Y-2381937D01*
X31614000Y-2327800D01*
X30607000Y-2327800D01*
X30607000Y508000D01*
X34798000Y508000D01*
X34798000Y-71295D01*
G36*
X89865283Y-57816277D02*
X89865059Y-58072967D01*
X89988540Y-58371813D01*
X90216984Y-58600657D01*
X90515615Y-58724659D01*
X90721927Y-58724839D01*
X91440000Y-59486431D01*
X91440000Y-65786000D01*
X80784500Y-65786000D01*
X80699460Y-65580187D01*
X80645000Y-65525632D01*
X80645000Y-64471930D01*
X88742675Y-64471930D01*
X88810735Y-64712931D01*
X89330034Y-64897767D01*
X89880538Y-64869805D01*
X90259265Y-64712931D01*
X90327325Y-64471930D01*
X89535000Y-63679605D01*
X88742675Y-64471930D01*
X80645000Y-64471930D01*
X80645000Y-63295034D01*
X88137233Y-63295034D01*
X88165195Y-63845538D01*
X88322069Y-64224265D01*
X88563070Y-64292325D01*
X89355395Y-63500000D01*
X89714605Y-63500000D01*
X90506930Y-64292325D01*
X90747931Y-64224265D01*
X90932767Y-63704966D01*
X90904805Y-63154462D01*
X90747931Y-62775735D01*
X90506930Y-62707675D01*
X89714605Y-63500000D01*
X89355395Y-63500000D01*
X88563070Y-62707675D01*
X88322069Y-62775735D01*
X88137233Y-63295034D01*
X80645000Y-63295034D01*
X80645000Y-62528070D01*
X88742675Y-62528070D01*
X89535000Y-63320395D01*
X90327325Y-62528070D01*
X90259265Y-62287069D01*
X89739966Y-62102233D01*
X89189462Y-62130195D01*
X88810735Y-62287069D01*
X88742675Y-62528070D01*
X80645000Y-62528070D01*
X80645000Y-61244253D01*
X80717540Y-61419813D01*
X80945984Y-61648657D01*
X81244615Y-61772659D01*
X81567967Y-61772941D01*
X81866813Y-61649460D01*
X82095657Y-61421016D01*
X82146814Y-61297817D01*
X82331678Y-61112952D01*
X83350000Y-61112952D01*
X83538253Y-61077530D01*
X83711153Y-60966272D01*
X83827145Y-60796512D01*
X83867952Y-60595000D01*
X83867952Y-59939247D01*
X88276212Y-59939247D01*
X88467414Y-60401991D01*
X88821146Y-60756342D01*
X89283557Y-60948351D01*
X89784247Y-60948788D01*
X90246991Y-60757586D01*
X90601342Y-60403854D01*
X90793351Y-59941443D01*
X90793788Y-59440753D01*
X90602586Y-58978009D01*
X90248854Y-58623658D01*
X89786443Y-58431649D01*
X89285753Y-58431212D01*
X88823009Y-58622414D01*
X88468658Y-58976146D01*
X88276649Y-59438557D01*
X88276212Y-59939247D01*
X83867952Y-59939247D01*
X83867952Y-59595000D01*
X83832530Y-59406747D01*
X83721272Y-59233847D01*
X83551512Y-59117855D01*
X83350000Y-59077048D01*
X83333611Y-59077048D01*
X83239460Y-58849187D01*
X83011016Y-58620343D01*
X82712385Y-58496341D01*
X82389033Y-58496059D01*
X82124285Y-58605451D01*
X84484286Y-56184937D01*
X84488967Y-56184941D01*
X84787813Y-56061460D01*
X85016657Y-55833016D01*
X85140659Y-55534385D01*
X85140679Y-55511714D01*
X85524550Y-55118000D01*
X87321193Y-55118000D01*
X89865283Y-57816277D01*
X89865283Y-57816277D01*
G37*
X89865283Y-57816277D02*
X89865059Y-58072967D01*
X89988540Y-58371813D01*
X90216984Y-58600657D01*
X90515615Y-58724659D01*
X90721927Y-58724839D01*
X91440000Y-59486431D01*
X91440000Y-65786000D01*
X80784500Y-65786000D01*
X80699460Y-65580187D01*
X80645000Y-65525632D01*
X80645000Y-64471930D01*
X88742675Y-64471930D01*
X88810735Y-64712931D01*
X89330034Y-64897767D01*
X89880538Y-64869805D01*
X90259265Y-64712931D01*
X90327325Y-64471930D01*
X89535000Y-63679605D01*
X88742675Y-64471930D01*
X80645000Y-64471930D01*
X80645000Y-63295034D01*
X88137233Y-63295034D01*
X88165195Y-63845538D01*
X88322069Y-64224265D01*
X88563070Y-64292325D01*
X89355395Y-63500000D01*
X89714605Y-63500000D01*
X90506930Y-64292325D01*
X90747931Y-64224265D01*
X90932767Y-63704966D01*
X90904805Y-63154462D01*
X90747931Y-62775735D01*
X90506930Y-62707675D01*
X89714605Y-63500000D01*
X89355395Y-63500000D01*
X88563070Y-62707675D01*
X88322069Y-62775735D01*
X88137233Y-63295034D01*
X80645000Y-63295034D01*
X80645000Y-62528070D01*
X88742675Y-62528070D01*
X89535000Y-63320395D01*
X90327325Y-62528070D01*
X90259265Y-62287069D01*
X89739966Y-62102233D01*
X89189462Y-62130195D01*
X88810735Y-62287069D01*
X88742675Y-62528070D01*
X80645000Y-62528070D01*
X80645000Y-61244253D01*
X80717540Y-61419813D01*
X80945984Y-61648657D01*
X81244615Y-61772659D01*
X81567967Y-61772941D01*
X81866813Y-61649460D01*
X82095657Y-61421016D01*
X82146814Y-61297817D01*
X82331678Y-61112952D01*
X83350000Y-61112952D01*
X83538253Y-61077530D01*
X83711153Y-60966272D01*
X83827145Y-60796512D01*
X83867952Y-60595000D01*
X83867952Y-59939247D01*
X88276212Y-59939247D01*
X88467414Y-60401991D01*
X88821146Y-60756342D01*
X89283557Y-60948351D01*
X89784247Y-60948788D01*
X90246991Y-60757586D01*
X90601342Y-60403854D01*
X90793351Y-59941443D01*
X90793788Y-59440753D01*
X90602586Y-58978009D01*
X90248854Y-58623658D01*
X89786443Y-58431649D01*
X89285753Y-58431212D01*
X88823009Y-58622414D01*
X88468658Y-58976146D01*
X88276649Y-59438557D01*
X88276212Y-59939247D01*
X83867952Y-59939247D01*
X83867952Y-59595000D01*
X83832530Y-59406747D01*
X83721272Y-59233847D01*
X83551512Y-59117855D01*
X83350000Y-59077048D01*
X83333611Y-59077048D01*
X83239460Y-58849187D01*
X83011016Y-58620343D01*
X82712385Y-58496341D01*
X82389033Y-58496059D01*
X82124285Y-58605451D01*
X84484286Y-56184937D01*
X84488967Y-56184941D01*
X84787813Y-56061460D01*
X85016657Y-55833016D01*
X85140659Y-55534385D01*
X85140679Y-55511714D01*
X85524550Y-55118000D01*
X87321193Y-55118000D01*
X89865283Y-57816277D01*
G36*
X79756000Y-65265500D02*
X79725747Y-65278000D01*
X79700266Y-65278000D01*
X79641512Y-65237855D01*
X79440000Y-65197048D01*
X78380000Y-65197048D01*
X78191747Y-65232470D01*
X78120991Y-65278000D01*
X77978000Y-65278000D01*
X77799463Y-65313513D01*
X76581000Y-64205820D01*
X76581000Y-55124579D01*
X76634657Y-55071016D01*
X76758659Y-54772385D01*
X76758941Y-54449033D01*
X76635460Y-54150187D01*
X76581000Y-54095632D01*
X76581000Y-52578000D01*
X79756000Y-52578000D01*
X79756000Y-65265500D01*
X79756000Y-65265500D01*
G37*
X79756000Y-65265500D02*
X79725747Y-65278000D01*
X79700266Y-65278000D01*
X79641512Y-65237855D01*
X79440000Y-65197048D01*
X78380000Y-65197048D01*
X78191747Y-65232470D01*
X78120991Y-65278000D01*
X77978000Y-65278000D01*
X77799463Y-65313513D01*
X76581000Y-64205820D01*
X76581000Y-55124579D01*
X76634657Y-55071016D01*
X76758659Y-54772385D01*
X76758941Y-54449033D01*
X76635460Y-54150187D01*
X76581000Y-54095632D01*
X76581000Y-52578000D01*
X79756000Y-52578000D01*
X79756000Y-65265500D01*
G36*
X60071000Y-67183000D02*
X54991000Y-67183000D01*
X54991000Y-63119000D01*
X60071000Y-63119000D01*
X60071000Y-67183000D01*
X60071000Y-67183000D01*
G37*
X60071000Y-67183000D02*
X54991000Y-67183000D01*
X54991000Y-63119000D01*
X60071000Y-63119000D01*
X60071000Y-67183000D01*
G36*
X53975000Y-65532000D02*
X52451000Y-65532000D01*
X52451000Y-62865000D01*
X53975000Y-62865000D01*
X53975000Y-65532000D01*
X53975000Y-65532000D01*
G37*
X53975000Y-65532000D02*
X52451000Y-65532000D01*
X52451000Y-62865000D01*
X53975000Y-62865000D01*
X53975000Y-65532000D01*
G36*
X9525000Y-54610000D02*
X6731000Y-54610000D01*
X6731000Y-52451000D01*
X9525000Y-52451000D01*
X9525000Y-54610000D01*
X9525000Y-54610000D01*
G37*
X9525000Y-54610000D02*
X6731000Y-54610000D01*
X6731000Y-52451000D01*
X9525000Y-52451000D01*
X9525000Y-54610000D01*
G36*
X12827000Y-51689000D02*
X6096000Y-51689000D01*
X6046590Y-51699006D01*
X6004965Y-51727447D01*
X5977685Y-51769841D01*
X5969000Y-51816000D01*
X5969000Y-54610000D01*
X5080000Y-54610000D01*
X4836995Y-54658336D01*
X4719267Y-54737000D01*
X4699000Y-54737000D01*
X4699000Y-49911000D01*
X8128000Y-49911000D01*
X8177410Y-49900994D01*
X8200830Y-49888042D01*
X10708033Y-48133000D01*
X12827000Y-48133000D01*
X12827000Y-51689000D01*
X12827000Y-51689000D01*
G37*
X12827000Y-51689000D02*
X6096000Y-51689000D01*
X6046590Y-51699006D01*
X6004965Y-51727447D01*
X5977685Y-51769841D01*
X5969000Y-51816000D01*
X5969000Y-54610000D01*
X5080000Y-54610000D01*
X4836995Y-54658336D01*
X4719267Y-54737000D01*
X4699000Y-54737000D01*
X4699000Y-49911000D01*
X8128000Y-49911000D01*
X8177410Y-49900994D01*
X8200830Y-49888042D01*
X10708033Y-48133000D01*
X12827000Y-48133000D01*
X12827000Y-51689000D01*
G36*
X10070197Y-43523803D02*
X10112211Y-43551666D01*
X10160000Y-43561000D01*
X12573000Y-43561000D01*
X12573000Y-45339000D01*
X10160000Y-45339000D01*
X10110590Y-45349006D01*
X10086183Y-45362656D01*
X8341301Y-46609000D01*
X5969000Y-46609000D01*
X5969000Y-42291000D01*
X8837394Y-42291000D01*
X10070197Y-43523803D01*
X10070197Y-43523803D01*
G37*
X10070197Y-43523803D02*
X10112211Y-43551666D01*
X10160000Y-43561000D01*
X12573000Y-43561000D01*
X12573000Y-45339000D01*
X10160000Y-45339000D01*
X10110590Y-45349006D01*
X10086183Y-45362656D01*
X8341301Y-46609000D01*
X5969000Y-46609000D01*
X5969000Y-42291000D01*
X8837394Y-42291000D01*
X10070197Y-43523803D01*
G36*
X73533000Y-54325614D02*
X73482341Y-54447615D01*
X73482059Y-54770967D01*
X73533000Y-54894253D01*
X73533000Y-61849000D01*
X68707000Y-61849000D01*
X68707000Y-53721000D01*
X73533000Y-53721000D01*
X73533000Y-54325614D01*
X73533000Y-54325614D01*
G37*
X73533000Y-54325614D02*
X73482341Y-54447615D01*
X73482059Y-54770967D01*
X73533000Y-54894253D01*
X73533000Y-61849000D01*
X68707000Y-61849000D01*
X68707000Y-53721000D01*
X73533000Y-53721000D01*
X73533000Y-54325614D01*
G36*
X70993000Y-51358788D02*
X70993000Y-52705000D01*
X68072000Y-52705000D01*
X68072000Y-51054000D01*
X70688212Y-51054000D01*
X70993000Y-51358788D01*
X70993000Y-51358788D01*
G37*
X70993000Y-51358788D02*
X70993000Y-52705000D01*
X68072000Y-52705000D01*
X68072000Y-51054000D01*
X70688212Y-51054000D01*
X70993000Y-51358788D01*
G36*
X85321536Y-41880000D02*
X85321536Y-42580000D01*
X85348103Y-42721190D01*
X85431546Y-42850865D01*
X85558866Y-42937859D01*
X85710000Y-42968464D01*
X87010000Y-42968464D01*
X87151190Y-42941897D01*
X87280865Y-42858454D01*
X87367859Y-42731134D01*
X87398464Y-42580000D01*
X87398464Y-41880000D01*
X87380212Y-41783000D01*
X91567000Y-41783000D01*
X91567000Y-47528459D01*
X91434415Y-47439868D01*
X91078137Y-47369000D01*
X90531863Y-47369000D01*
X90175585Y-47439868D01*
X89873547Y-47641684D01*
X89671731Y-47943722D01*
X89600863Y-48300000D01*
X89633320Y-48463174D01*
X89526184Y-48463081D01*
X89274033Y-48567268D01*
X89080946Y-48760018D01*
X88976319Y-49011987D01*
X88976081Y-49284816D01*
X89051208Y-49466636D01*
X88976319Y-49646987D01*
X88976081Y-49919816D01*
X89080268Y-50171967D01*
X89273018Y-50365054D01*
X89524987Y-50469681D01*
X89764095Y-50469890D01*
X89765920Y-50479588D01*
X89741536Y-50600000D01*
X89741536Y-51000000D01*
X89765920Y-51129588D01*
X89741536Y-51250000D01*
X89741536Y-51650000D01*
X89768103Y-51791190D01*
X89851546Y-51920865D01*
X89978866Y-52007859D01*
X90130000Y-52038464D01*
X91480000Y-52038464D01*
X91567000Y-52022094D01*
X91567000Y-52528459D01*
X91434415Y-52439868D01*
X91078137Y-52369000D01*
X90531863Y-52369000D01*
X90175585Y-52439868D01*
X89873547Y-52641684D01*
X89671731Y-52943722D01*
X89600863Y-53300000D01*
X89671731Y-53656278D01*
X89873547Y-53958316D01*
X90175585Y-54160132D01*
X90521808Y-54229000D01*
X85217000Y-54229000D01*
X85217000Y-50133464D01*
X85295000Y-50133464D01*
X85436190Y-50106897D01*
X85565865Y-50023454D01*
X85652859Y-49896134D01*
X85683464Y-49745000D01*
X85683464Y-49707875D01*
X85733816Y-49707919D01*
X85985967Y-49603732D01*
X86179054Y-49410982D01*
X86283681Y-49159013D01*
X86283919Y-48886184D01*
X86179732Y-48634033D01*
X85986982Y-48440946D01*
X85735013Y-48336319D01*
X85683464Y-48336274D01*
X85683464Y-48045000D01*
X85656897Y-47903810D01*
X85573454Y-47774135D01*
X85446134Y-47687141D01*
X85295000Y-47656536D01*
X85217000Y-47656536D01*
X85217000Y-43780000D01*
X85321536Y-43780000D01*
X85321536Y-44480000D01*
X85348103Y-44621190D01*
X85431546Y-44750865D01*
X85558866Y-44837859D01*
X85674284Y-44861231D01*
X85674081Y-45093816D01*
X85778268Y-45345967D01*
X85971018Y-45539054D01*
X86222987Y-45643681D01*
X86495816Y-45643919D01*
X86747967Y-45539732D01*
X86941054Y-45346982D01*
X87045681Y-45095013D01*
X87045793Y-44966816D01*
X89865081Y-44966816D01*
X89969268Y-45218967D01*
X90162018Y-45412054D01*
X90413987Y-45516681D01*
X90686816Y-45516919D01*
X90938967Y-45412732D01*
X91132054Y-45219982D01*
X91236681Y-44968013D01*
X91236919Y-44695184D01*
X91132732Y-44443033D01*
X90939982Y-44249946D01*
X90688013Y-44145319D01*
X90415184Y-44145081D01*
X90163033Y-44249268D01*
X89969946Y-44442018D01*
X89865319Y-44693987D01*
X89865081Y-44966816D01*
X87045793Y-44966816D01*
X87045885Y-44861712D01*
X87151190Y-44841897D01*
X87280865Y-44758454D01*
X87367859Y-44631134D01*
X87398464Y-44480000D01*
X87398464Y-43780000D01*
X87371897Y-43638810D01*
X87288454Y-43509135D01*
X87161134Y-43422141D01*
X87010000Y-43391536D01*
X85710000Y-43391536D01*
X85568810Y-43418103D01*
X85439135Y-43501546D01*
X85352141Y-43628866D01*
X85321536Y-43780000D01*
X85217000Y-43780000D01*
X85217000Y-41783000D01*
X85341179Y-41783000D01*
X85321536Y-41880000D01*
X85321536Y-41880000D01*
G37*
X85321536Y-41880000D02*
X85321536Y-42580000D01*
X85348103Y-42721190D01*
X85431546Y-42850865D01*
X85558866Y-42937859D01*
X85710000Y-42968464D01*
X87010000Y-42968464D01*
X87151190Y-42941897D01*
X87280865Y-42858454D01*
X87367859Y-42731134D01*
X87398464Y-42580000D01*
X87398464Y-41880000D01*
X87380212Y-41783000D01*
X91567000Y-41783000D01*
X91567000Y-47528459D01*
X91434415Y-47439868D01*
X91078137Y-47369000D01*
X90531863Y-47369000D01*
X90175585Y-47439868D01*
X89873547Y-47641684D01*
X89671731Y-47943722D01*
X89600863Y-48300000D01*
X89633320Y-48463174D01*
X89526184Y-48463081D01*
X89274033Y-48567268D01*
X89080946Y-48760018D01*
X88976319Y-49011987D01*
X88976081Y-49284816D01*
X89051208Y-49466636D01*
X88976319Y-49646987D01*
X88976081Y-49919816D01*
X89080268Y-50171967D01*
X89273018Y-50365054D01*
X89524987Y-50469681D01*
X89764095Y-50469890D01*
X89765920Y-50479588D01*
X89741536Y-50600000D01*
X89741536Y-51000000D01*
X89765920Y-51129588D01*
X89741536Y-51250000D01*
X89741536Y-51650000D01*
X89768103Y-51791190D01*
X89851546Y-51920865D01*
X89978866Y-52007859D01*
X90130000Y-52038464D01*
X91480000Y-52038464D01*
X91567000Y-52022094D01*
X91567000Y-52528459D01*
X91434415Y-52439868D01*
X91078137Y-52369000D01*
X90531863Y-52369000D01*
X90175585Y-52439868D01*
X89873547Y-52641684D01*
X89671731Y-52943722D01*
X89600863Y-53300000D01*
X89671731Y-53656278D01*
X89873547Y-53958316D01*
X90175585Y-54160132D01*
X90521808Y-54229000D01*
X85217000Y-54229000D01*
X85217000Y-50133464D01*
X85295000Y-50133464D01*
X85436190Y-50106897D01*
X85565865Y-50023454D01*
X85652859Y-49896134D01*
X85683464Y-49745000D01*
X85683464Y-49707875D01*
X85733816Y-49707919D01*
X85985967Y-49603732D01*
X86179054Y-49410982D01*
X86283681Y-49159013D01*
X86283919Y-48886184D01*
X86179732Y-48634033D01*
X85986982Y-48440946D01*
X85735013Y-48336319D01*
X85683464Y-48336274D01*
X85683464Y-48045000D01*
X85656897Y-47903810D01*
X85573454Y-47774135D01*
X85446134Y-47687141D01*
X85295000Y-47656536D01*
X85217000Y-47656536D01*
X85217000Y-43780000D01*
X85321536Y-43780000D01*
X85321536Y-44480000D01*
X85348103Y-44621190D01*
X85431546Y-44750865D01*
X85558866Y-44837859D01*
X85674284Y-44861231D01*
X85674081Y-45093816D01*
X85778268Y-45345967D01*
X85971018Y-45539054D01*
X86222987Y-45643681D01*
X86495816Y-45643919D01*
X86747967Y-45539732D01*
X86941054Y-45346982D01*
X87045681Y-45095013D01*
X87045793Y-44966816D01*
X89865081Y-44966816D01*
X89969268Y-45218967D01*
X90162018Y-45412054D01*
X90413987Y-45516681D01*
X90686816Y-45516919D01*
X90938967Y-45412732D01*
X91132054Y-45219982D01*
X91236681Y-44968013D01*
X91236919Y-44695184D01*
X91132732Y-44443033D01*
X90939982Y-44249946D01*
X90688013Y-44145319D01*
X90415184Y-44145081D01*
X90163033Y-44249268D01*
X89969946Y-44442018D01*
X89865319Y-44693987D01*
X89865081Y-44966816D01*
X87045793Y-44966816D01*
X87045885Y-44861712D01*
X87151190Y-44841897D01*
X87280865Y-44758454D01*
X87367859Y-44631134D01*
X87398464Y-44480000D01*
X87398464Y-43780000D01*
X87371897Y-43638810D01*
X87288454Y-43509135D01*
X87161134Y-43422141D01*
X87010000Y-43391536D01*
X85710000Y-43391536D01*
X85568810Y-43418103D01*
X85439135Y-43501546D01*
X85352141Y-43628866D01*
X85321536Y-43780000D01*
X85217000Y-43780000D01*
X85217000Y-41783000D01*
X85341179Y-41783000D01*
X85321536Y-41880000D01*
G36*
X93853000Y-33999178D02*
X93780903Y-33969241D01*
X93231507Y-33968761D01*
X92723749Y-34178563D01*
X92334928Y-34566705D01*
X92124241Y-35074097D01*
X92123761Y-35623493D01*
X92333563Y-36131251D01*
X92721705Y-36520072D01*
X93229097Y-36730759D01*
X93778493Y-36731239D01*
X93853000Y-36700453D01*
X93853000Y-40890940D01*
X88711472Y-40768523D01*
X87351413Y-38913897D01*
X87314125Y-38879969D01*
X87249000Y-38862000D01*
X85471000Y-38862000D01*
X85471000Y-37975104D01*
X85587987Y-38023681D01*
X85860816Y-38023919D01*
X86112967Y-37919732D01*
X86306054Y-37726982D01*
X86410681Y-37475013D01*
X86410706Y-37446135D01*
X86493967Y-37411732D01*
X86687054Y-37218982D01*
X86791681Y-36967013D01*
X86791919Y-36694184D01*
X86687732Y-36442033D01*
X86494982Y-36248946D01*
X86454732Y-36232233D01*
X87847652Y-34250000D01*
X89600863Y-34250000D01*
X89671731Y-34606278D01*
X89873547Y-34908316D01*
X90175585Y-35110132D01*
X90531863Y-35181000D01*
X91078137Y-35181000D01*
X91434415Y-35110132D01*
X91736453Y-34908316D01*
X91938269Y-34606278D01*
X92009137Y-34250000D01*
X91938269Y-33893722D01*
X91736453Y-33591684D01*
X91434415Y-33389868D01*
X91078137Y-33319000D01*
X90531863Y-33319000D01*
X90175585Y-33389868D01*
X89873547Y-33591684D01*
X89671731Y-33893722D01*
X89600863Y-34250000D01*
X87847652Y-34250000D01*
X88076052Y-33924970D01*
X88084054Y-33916982D01*
X88087505Y-33908672D01*
X88711977Y-33020000D01*
X93853000Y-33020000D01*
X93853000Y-33999178D01*
X93853000Y-33999178D01*
G37*
X93853000Y-33999178D02*
X93780903Y-33969241D01*
X93231507Y-33968761D01*
X92723749Y-34178563D01*
X92334928Y-34566705D01*
X92124241Y-35074097D01*
X92123761Y-35623493D01*
X92333563Y-36131251D01*
X92721705Y-36520072D01*
X93229097Y-36730759D01*
X93778493Y-36731239D01*
X93853000Y-36700453D01*
X93853000Y-40890940D01*
X88711472Y-40768523D01*
X87351413Y-38913897D01*
X87314125Y-38879969D01*
X87249000Y-38862000D01*
X85471000Y-38862000D01*
X85471000Y-37975104D01*
X85587987Y-38023681D01*
X85860816Y-38023919D01*
X86112967Y-37919732D01*
X86306054Y-37726982D01*
X86410681Y-37475013D01*
X86410706Y-37446135D01*
X86493967Y-37411732D01*
X86687054Y-37218982D01*
X86791681Y-36967013D01*
X86791919Y-36694184D01*
X86687732Y-36442033D01*
X86494982Y-36248946D01*
X86454732Y-36232233D01*
X87847652Y-34250000D01*
X89600863Y-34250000D01*
X89671731Y-34606278D01*
X89873547Y-34908316D01*
X90175585Y-35110132D01*
X90531863Y-35181000D01*
X91078137Y-35181000D01*
X91434415Y-35110132D01*
X91736453Y-34908316D01*
X91938269Y-34606278D01*
X92009137Y-34250000D01*
X91938269Y-33893722D01*
X91736453Y-33591684D01*
X91434415Y-33389868D01*
X91078137Y-33319000D01*
X90531863Y-33319000D01*
X90175585Y-33389868D01*
X89873547Y-33591684D01*
X89671731Y-33893722D01*
X89600863Y-34250000D01*
X87847652Y-34250000D01*
X88076052Y-33924970D01*
X88084054Y-33916982D01*
X88087505Y-33908672D01*
X88711977Y-33020000D01*
X93853000Y-33020000D01*
X93853000Y-33999178D01*
G36*
X67502367Y-71054628D02*
X67502369Y-71054631D01*
X67745460Y-71217059D01*
X67996791Y-71384993D01*
X68580000Y-71501001D01*
X68580005Y-71501000D01*
X83947000Y-71501000D01*
X84530210Y-71384992D01*
X85024631Y-71054631D01*
X86233000Y-69846262D01*
X86233000Y-74168000D01*
X51435000Y-74168000D01*
X51435000Y-69655118D01*
X53797037Y-69655118D01*
X53939812Y-70000659D01*
X54203951Y-70265259D01*
X54549242Y-70408637D01*
X54633867Y-70408711D01*
X54828110Y-70541431D01*
X55080000Y-70592440D01*
X56680000Y-70592440D01*
X56915317Y-70548162D01*
X57131441Y-70409090D01*
X57131574Y-70408895D01*
X57209118Y-70408963D01*
X57554659Y-70266188D01*
X57819259Y-70002049D01*
X57962637Y-69656758D01*
X57962963Y-69282882D01*
X57820188Y-68937341D01*
X57556049Y-68672741D01*
X57210758Y-68529363D01*
X57167105Y-68529325D01*
X57144090Y-68493559D01*
X56931890Y-68348569D01*
X56680000Y-68297560D01*
X55080000Y-68297560D01*
X54844683Y-68341838D01*
X54628559Y-68480910D01*
X54595649Y-68529076D01*
X54550882Y-68529037D01*
X54205341Y-68671812D01*
X53940741Y-68935951D01*
X53797363Y-69281242D01*
X53797037Y-69655118D01*
X51435000Y-69655118D01*
X51435000Y-68072000D01*
X64519738Y-68072000D01*
X67502367Y-71054628D01*
X67502367Y-71054628D01*
G37*
X67502367Y-71054628D02*
X67502369Y-71054631D01*
X67745460Y-71217059D01*
X67996791Y-71384993D01*
X68580000Y-71501001D01*
X68580005Y-71501000D01*
X83947000Y-71501000D01*
X84530210Y-71384992D01*
X85024631Y-71054631D01*
X86233000Y-69846262D01*
X86233000Y-74168000D01*
X51435000Y-74168000D01*
X51435000Y-69655118D01*
X53797037Y-69655118D01*
X53939812Y-70000659D01*
X54203951Y-70265259D01*
X54549242Y-70408637D01*
X54633867Y-70408711D01*
X54828110Y-70541431D01*
X55080000Y-70592440D01*
X56680000Y-70592440D01*
X56915317Y-70548162D01*
X57131441Y-70409090D01*
X57131574Y-70408895D01*
X57209118Y-70408963D01*
X57554659Y-70266188D01*
X57819259Y-70002049D01*
X57962637Y-69656758D01*
X57962963Y-69282882D01*
X57820188Y-68937341D01*
X57556049Y-68672741D01*
X57210758Y-68529363D01*
X57167105Y-68529325D01*
X57144090Y-68493559D01*
X56931890Y-68348569D01*
X56680000Y-68297560D01*
X55080000Y-68297560D01*
X54844683Y-68341838D01*
X54628559Y-68480910D01*
X54595649Y-68529076D01*
X54550882Y-68529037D01*
X54205341Y-68671812D01*
X53940741Y-68935951D01*
X53797363Y-69281242D01*
X53797037Y-69655118D01*
X51435000Y-69655118D01*
X51435000Y-68072000D01*
X64519738Y-68072000D01*
X67502367Y-71054628D01*
G36*
X3683000Y-55564370D02*
X3070190Y-56177180D01*
X2082540Y-56177180D01*
X2082540Y-55139590D01*
X2038262Y-54904273D01*
X1899190Y-54688149D01*
X1686990Y-54543159D01*
X1435100Y-54492150D01*
X-165100Y-54492150D01*
X-400417Y-54536428D01*
X-616541Y-54675500D01*
X-761531Y-54887700D01*
X-812540Y-55139590D01*
X-812540Y-58738770D01*
X-768262Y-58974087D01*
X-629190Y-59190211D01*
X-416990Y-59335201D01*
X-165100Y-59386210D01*
X1435100Y-59386210D01*
X1670417Y-59341932D01*
X1886541Y-59202860D01*
X2031531Y-58990660D01*
X2082540Y-58738770D01*
X2082540Y-57701180D01*
X3385820Y-57701180D01*
X3677425Y-57643176D01*
X3683000Y-57639451D01*
X3683000Y-58928000D01*
X3385820Y-58928000D01*
X3094215Y-58986004D01*
X2847005Y-59151185D01*
X1845254Y-60152936D01*
X1686990Y-60044799D01*
X1435100Y-59993790D01*
X-165100Y-59993790D01*
X-400417Y-60038068D01*
X-616541Y-60177140D01*
X-761531Y-60389340D01*
X-812540Y-60641230D01*
X-812540Y-64240410D01*
X-768262Y-64475727D01*
X-629190Y-64691851D01*
X-416990Y-64836841D01*
X-165100Y-64887850D01*
X1435100Y-64887850D01*
X1670417Y-64843572D01*
X1886541Y-64704500D01*
X2031531Y-64492300D01*
X2082540Y-64240410D01*
X2082540Y-62070910D01*
X3683000Y-60470450D01*
X3683000Y-65913000D01*
X-4290000Y-65913000D01*
X-4290000Y-42672000D01*
X3683000Y-42672000D01*
X3683000Y-55564370D01*
X3683000Y-55564370D01*
G37*
X3683000Y-55564370D02*
X3070190Y-56177180D01*
X2082540Y-56177180D01*
X2082540Y-55139590D01*
X2038262Y-54904273D01*
X1899190Y-54688149D01*
X1686990Y-54543159D01*
X1435100Y-54492150D01*
X-165100Y-54492150D01*
X-400417Y-54536428D01*
X-616541Y-54675500D01*
X-761531Y-54887700D01*
X-812540Y-55139590D01*
X-812540Y-58738770D01*
X-768262Y-58974087D01*
X-629190Y-59190211D01*
X-416990Y-59335201D01*
X-165100Y-59386210D01*
X1435100Y-59386210D01*
X1670417Y-59341932D01*
X1886541Y-59202860D01*
X2031531Y-58990660D01*
X2082540Y-58738770D01*
X2082540Y-57701180D01*
X3385820Y-57701180D01*
X3677425Y-57643176D01*
X3683000Y-57639451D01*
X3683000Y-58928000D01*
X3385820Y-58928000D01*
X3094215Y-58986004D01*
X2847005Y-59151185D01*
X1845254Y-60152936D01*
X1686990Y-60044799D01*
X1435100Y-59993790D01*
X-165100Y-59993790D01*
X-400417Y-60038068D01*
X-616541Y-60177140D01*
X-761531Y-60389340D01*
X-812540Y-60641230D01*
X-812540Y-64240410D01*
X-768262Y-64475727D01*
X-629190Y-64691851D01*
X-416990Y-64836841D01*
X-165100Y-64887850D01*
X1435100Y-64887850D01*
X1670417Y-64843572D01*
X1886541Y-64704500D01*
X2031531Y-64492300D01*
X2082540Y-64240410D01*
X2082540Y-62070910D01*
X3683000Y-60470450D01*
X3683000Y-65913000D01*
X-4290000Y-65913000D01*
X-4290000Y-42672000D01*
X3683000Y-42672000D01*
X3683000Y-55564370D01*
G36*
X21336000Y-1397000D02*
X19685000Y-1397000D01*
X19685000Y0D01*
X21336000Y0D01*
X21336000Y-1397000D01*
X21336000Y-1397000D01*
G37*
X21336000Y-1397000D02*
X19685000Y-1397000D01*
X19685000Y0D01*
X21336000Y0D01*
X21336000Y-1397000D01*
G36*
X13589000Y-33959389D02*
X13582033Y-33962268D01*
X13508172Y-34036000D01*
X11811000Y-34036000D01*
X11811000Y-32385000D01*
X13589000Y-32385000D01*
X13589000Y-33959389D01*
X13589000Y-33959389D01*
G37*
X13589000Y-33959389D02*
X13582033Y-33962268D01*
X13508172Y-34036000D01*
X11811000Y-34036000D01*
X11811000Y-32385000D01*
X13589000Y-32385000D01*
X13589000Y-33959389D01*
G36*
X76695300Y-23841878D02*
X76695300Y-26696536D01*
X76339700Y-26696536D01*
X76339700Y-25491651D01*
X76424679Y-25406820D01*
X76597313Y-24991071D01*
X76597706Y-24540904D01*
X76425798Y-24124854D01*
X76107760Y-23806261D01*
X75692011Y-23633627D01*
X75241844Y-23633234D01*
X74825794Y-23805142D01*
X74507201Y-24123180D01*
X74334567Y-24538929D01*
X74334345Y-24792767D01*
X73983289Y-24441711D01*
X73834963Y-24342602D01*
X73660000Y-24307800D01*
X71619510Y-24307800D01*
X71543918Y-24124854D01*
X71225880Y-23806261D01*
X70810131Y-23633627D01*
X70359964Y-23633234D01*
X69943914Y-23805142D01*
X69625321Y-24123180D01*
X69452687Y-24538929D01*
X69452294Y-24989096D01*
X69624202Y-25405146D01*
X69942240Y-25723739D01*
X70357989Y-25896373D01*
X70808156Y-25896766D01*
X71224206Y-25724858D01*
X71542799Y-25406820D01*
X71619460Y-25222200D01*
X73470622Y-25222200D01*
X74784836Y-26536414D01*
X74712500Y-26608750D01*
X74712500Y-26797000D01*
X74512500Y-26797000D01*
X74512500Y-26608750D01*
X74353750Y-26450000D01*
X74286190Y-26450000D01*
X74052801Y-26546673D01*
X73902939Y-26696536D01*
X73777500Y-26696536D01*
X73655688Y-26719457D01*
X73542500Y-26696536D01*
X73142500Y-26696536D01*
X73020688Y-26719457D01*
X72907500Y-26696536D01*
X72782061Y-26696536D01*
X72632199Y-26546673D01*
X72398810Y-26450000D01*
X72331250Y-26450000D01*
X72172500Y-26608750D01*
X72172500Y-26797000D01*
X71972500Y-26797000D01*
X71972500Y-26608750D01*
X71813750Y-26450000D01*
X71746190Y-26450000D01*
X71512801Y-26546673D01*
X71437500Y-26621974D01*
X71362199Y-26546673D01*
X71128810Y-26450000D01*
X71061250Y-26450000D01*
X70902500Y-26608750D01*
X70902500Y-26797000D01*
X70702500Y-26797000D01*
X70702500Y-26608750D01*
X70543750Y-26450000D01*
X70476190Y-26450000D01*
X70384541Y-26487963D01*
X69215000Y-25318422D01*
X69215000Y-23207200D01*
X76060622Y-23207200D01*
X76695300Y-23841878D01*
X76695300Y-23841878D01*
G37*
X76695300Y-23841878D02*
X76695300Y-26696536D01*
X76339700Y-26696536D01*
X76339700Y-25491651D01*
X76424679Y-25406820D01*
X76597313Y-24991071D01*
X76597706Y-24540904D01*
X76425798Y-24124854D01*
X76107760Y-23806261D01*
X75692011Y-23633627D01*
X75241844Y-23633234D01*
X74825794Y-23805142D01*
X74507201Y-24123180D01*
X74334567Y-24538929D01*
X74334345Y-24792767D01*
X73983289Y-24441711D01*
X73834963Y-24342602D01*
X73660000Y-24307800D01*
X71619510Y-24307800D01*
X71543918Y-24124854D01*
X71225880Y-23806261D01*
X70810131Y-23633627D01*
X70359964Y-23633234D01*
X69943914Y-23805142D01*
X69625321Y-24123180D01*
X69452687Y-24538929D01*
X69452294Y-24989096D01*
X69624202Y-25405146D01*
X69942240Y-25723739D01*
X70357989Y-25896373D01*
X70808156Y-25896766D01*
X71224206Y-25724858D01*
X71542799Y-25406820D01*
X71619460Y-25222200D01*
X73470622Y-25222200D01*
X74784836Y-26536414D01*
X74712500Y-26608750D01*
X74712500Y-26797000D01*
X74512500Y-26797000D01*
X74512500Y-26608750D01*
X74353750Y-26450000D01*
X74286190Y-26450000D01*
X74052801Y-26546673D01*
X73902939Y-26696536D01*
X73777500Y-26696536D01*
X73655688Y-26719457D01*
X73542500Y-26696536D01*
X73142500Y-26696536D01*
X73020688Y-26719457D01*
X72907500Y-26696536D01*
X72782061Y-26696536D01*
X72632199Y-26546673D01*
X72398810Y-26450000D01*
X72331250Y-26450000D01*
X72172500Y-26608750D01*
X72172500Y-26797000D01*
X71972500Y-26797000D01*
X71972500Y-26608750D01*
X71813750Y-26450000D01*
X71746190Y-26450000D01*
X71512801Y-26546673D01*
X71437500Y-26621974D01*
X71362199Y-26546673D01*
X71128810Y-26450000D01*
X71061250Y-26450000D01*
X70902500Y-26608750D01*
X70902500Y-26797000D01*
X70702500Y-26797000D01*
X70702500Y-26608750D01*
X70543750Y-26450000D01*
X70476190Y-26450000D01*
X70384541Y-26487963D01*
X69215000Y-25318422D01*
X69215000Y-23207200D01*
X76060622Y-23207200D01*
X76695300Y-23841878D01*
M02*
