%FSLAX45Y45*%
G04 Gerber Fmt 4.5, Leading zero omitted, Abs format (unit mm)*
G04 Created by KiCad (PCBNEW (2015-10-06 BZR 6248, Git 20a3e23)-product) date 2015-10-8 0:39:20*
%MOMM*%
G01*
G04 APERTURE LIST*
%ADD10C,0.127000*%
%ADD11C,0.150000*%
%ADD12C,0.200000*%
%ADD13C,0.300000*%
G04 APERTURE END LIST*
D10*
D11*
X0Y500000D02*
G75*
G03X-500000Y0I0J-500000D01*
G01*
X9500000Y0D02*
G75*
G03X9000000Y500000I-500000J0D01*
G01*
X9000000Y-7500000D02*
G75*
G03X9500000Y-7000000I0J500000D01*
G01*
X-500000Y-7000000D02*
G75*
G03X0Y-7500000I500000J0D01*
G01*
X-500000Y-7000000D02*
X-500000Y0D01*
X9000000Y-7500000D02*
X0Y-7500000D01*
X9500000Y0D02*
X9500000Y-7000000D01*
X0Y500000D02*
X9000000Y500000D01*
D12*
X695000Y-6973500D02*
X845000Y-7123500D01*
X845000Y-6973500D02*
X695000Y-7123500D01*
X695000Y-7223500D02*
X845000Y-7373500D01*
X845000Y-7223500D02*
X695000Y-7373500D01*
X1195000Y-6473500D02*
X1345000Y-6623500D01*
X1345000Y-6473500D02*
X1195000Y-6623500D01*
X1695000Y-6973500D02*
X1845000Y-7123500D01*
X1845000Y-6973500D02*
X1695000Y-7123500D01*
X1695000Y-7223500D02*
X1845000Y-7373500D01*
X1845000Y-7223500D02*
X1695000Y-7373500D01*
X160000Y0D02*
G75*
G03X160000Y0I-160000J0D01*
G01*
X160000Y-7000000D02*
G75*
G03X160000Y-7000000I-160000J0D01*
G01*
X9160000Y0D02*
G75*
G03X9160000Y0I-160000J0D01*
G01*
X9160000Y-7000000D02*
G75*
G03X9160000Y-7000000I-160000J0D01*
G01*
D13*
X-236071Y-7973214D02*
X-236071Y-7673214D01*
X-164643Y-7673214D01*
X-121786Y-7687500D01*
X-93214Y-7716071D01*
X-78929Y-7744643D01*
X-64643Y-7801786D01*
X-64643Y-7844643D01*
X-78929Y-7901786D01*
X-93214Y-7930357D01*
X-121786Y-7958929D01*
X-164643Y-7973214D01*
X-236071Y-7973214D01*
X63928Y-7973214D02*
X63928Y-7773214D01*
X63928Y-7830357D02*
X78214Y-7801786D01*
X92500Y-7787500D01*
X121071Y-7773214D01*
X149643Y-7773214D01*
X249643Y-7973214D02*
X249643Y-7773214D01*
X249643Y-7673214D02*
X235357Y-7687500D01*
X249643Y-7701786D01*
X263929Y-7687500D01*
X249643Y-7673214D01*
X249643Y-7701786D01*
X435357Y-7973214D02*
X406786Y-7958929D01*
X392500Y-7930357D01*
X392500Y-7673214D01*
X592500Y-7973214D02*
X563929Y-7958929D01*
X549643Y-7930357D01*
X549643Y-7673214D01*
X935357Y-7973214D02*
X935357Y-7673214D01*
X1035357Y-7887500D01*
X1135357Y-7673214D01*
X1135357Y-7973214D01*
X1406786Y-7973214D02*
X1406786Y-7816071D01*
X1392500Y-7787500D01*
X1363929Y-7773214D01*
X1306786Y-7773214D01*
X1278214Y-7787500D01*
X1406786Y-7958929D02*
X1378214Y-7973214D01*
X1306786Y-7973214D01*
X1278214Y-7958929D01*
X1263929Y-7930357D01*
X1263929Y-7901786D01*
X1278214Y-7873214D01*
X1306786Y-7858929D01*
X1378214Y-7858929D01*
X1406786Y-7844643D01*
X1549643Y-7773214D02*
X1549643Y-8073214D01*
X1549643Y-7787500D02*
X1578214Y-7773214D01*
X1635357Y-7773214D01*
X1663928Y-7787500D01*
X1678214Y-7801786D01*
X1692500Y-7830357D01*
X1692500Y-7916071D01*
X1678214Y-7944643D01*
X1663928Y-7958929D01*
X1635357Y-7973214D01*
X1578214Y-7973214D01*
X1549643Y-7958929D01*
X1821071Y-7944643D02*
X1835357Y-7958929D01*
X1821071Y-7973214D01*
X1806786Y-7958929D01*
X1821071Y-7944643D01*
X1821071Y-7973214D01*
X1821071Y-7787500D02*
X1835357Y-7801786D01*
X1821071Y-7816071D01*
X1806786Y-7801786D01*
X1821071Y-7787500D01*
X1821071Y-7816071D01*
X-657500Y-8392500D02*
X-507500Y-8542500D01*
X-507500Y-8392500D02*
X-657500Y-8542500D01*
X-78929Y-8603214D02*
X-250357Y-8603214D01*
X-164643Y-8603214D02*
X-164643Y-8303214D01*
X-193214Y-8346071D01*
X-221786Y-8374643D01*
X-250357Y-8388929D01*
X49643Y-8574643D02*
X63928Y-8588929D01*
X49643Y-8603214D01*
X35357Y-8588929D01*
X49643Y-8574643D01*
X49643Y-8603214D01*
X335357Y-8303214D02*
X192500Y-8303214D01*
X178214Y-8446072D01*
X192500Y-8431786D01*
X221071Y-8417500D01*
X292500Y-8417500D01*
X321071Y-8431786D01*
X335357Y-8446072D01*
X349643Y-8474643D01*
X349643Y-8546072D01*
X335357Y-8574643D01*
X321071Y-8588929D01*
X292500Y-8603214D01*
X221071Y-8603214D01*
X192500Y-8588929D01*
X178214Y-8574643D01*
X535357Y-8303214D02*
X563929Y-8303214D01*
X592500Y-8317500D01*
X606786Y-8331786D01*
X621071Y-8360357D01*
X635357Y-8417500D01*
X635357Y-8488929D01*
X621071Y-8546072D01*
X606786Y-8574643D01*
X592500Y-8588929D01*
X563929Y-8603214D01*
X535357Y-8603214D01*
X506786Y-8588929D01*
X492500Y-8574643D01*
X478214Y-8546072D01*
X463928Y-8488929D01*
X463928Y-8417500D01*
X478214Y-8360357D01*
X492500Y-8331786D01*
X506786Y-8317500D01*
X535357Y-8303214D01*
X763928Y-8603214D02*
X763928Y-8403214D01*
X763928Y-8431786D02*
X778214Y-8417500D01*
X806786Y-8403214D01*
X849643Y-8403214D01*
X878214Y-8417500D01*
X892500Y-8446072D01*
X892500Y-8603214D01*
X892500Y-8446072D02*
X906786Y-8417500D01*
X935357Y-8403214D01*
X978214Y-8403214D01*
X1006786Y-8417500D01*
X1021071Y-8446072D01*
X1021071Y-8603214D01*
X1163929Y-8603214D02*
X1163929Y-8403214D01*
X1163929Y-8431786D02*
X1178214Y-8417500D01*
X1206786Y-8403214D01*
X1249643Y-8403214D01*
X1278214Y-8417500D01*
X1292500Y-8446072D01*
X1292500Y-8603214D01*
X1292500Y-8446072D02*
X1306786Y-8417500D01*
X1335357Y-8403214D01*
X1378214Y-8403214D01*
X1406786Y-8417500D01*
X1421071Y-8446072D01*
X1421071Y-8603214D01*
X2006786Y-8288929D02*
X1749643Y-8674643D01*
X2392500Y-8303214D02*
X2421071Y-8303214D01*
X2449643Y-8317500D01*
X2463928Y-8331786D01*
X2478214Y-8360357D01*
X2492500Y-8417500D01*
X2492500Y-8488929D01*
X2478214Y-8546072D01*
X2463928Y-8574643D01*
X2449643Y-8588929D01*
X2421071Y-8603214D01*
X2392500Y-8603214D01*
X2363928Y-8588929D01*
X2349643Y-8574643D01*
X2335357Y-8546072D01*
X2321071Y-8488929D01*
X2321071Y-8417500D01*
X2335357Y-8360357D01*
X2349643Y-8331786D01*
X2363928Y-8317500D01*
X2392500Y-8303214D01*
X2621071Y-8574643D02*
X2635357Y-8588929D01*
X2621071Y-8603214D01*
X2606786Y-8588929D01*
X2621071Y-8574643D01*
X2621071Y-8603214D01*
X2821071Y-8303214D02*
X2849643Y-8303214D01*
X2878214Y-8317500D01*
X2892500Y-8331786D01*
X2906785Y-8360357D01*
X2921071Y-8417500D01*
X2921071Y-8488929D01*
X2906785Y-8546072D01*
X2892500Y-8574643D01*
X2878214Y-8588929D01*
X2849643Y-8603214D01*
X2821071Y-8603214D01*
X2792500Y-8588929D01*
X2778214Y-8574643D01*
X2763928Y-8546072D01*
X2749643Y-8488929D01*
X2749643Y-8417500D01*
X2763928Y-8360357D01*
X2778214Y-8331786D01*
X2792500Y-8317500D01*
X2821071Y-8303214D01*
X3192500Y-8303214D02*
X3049643Y-8303214D01*
X3035357Y-8446072D01*
X3049643Y-8431786D01*
X3078214Y-8417500D01*
X3149643Y-8417500D01*
X3178214Y-8431786D01*
X3192500Y-8446072D01*
X3206785Y-8474643D01*
X3206785Y-8546072D01*
X3192500Y-8574643D01*
X3178214Y-8588929D01*
X3149643Y-8603214D01*
X3078214Y-8603214D01*
X3049643Y-8588929D01*
X3035357Y-8574643D01*
X3349643Y-8603214D02*
X3406785Y-8603214D01*
X3435357Y-8588929D01*
X3449643Y-8574643D01*
X3478214Y-8531786D01*
X3492500Y-8474643D01*
X3492500Y-8360357D01*
X3478214Y-8331786D01*
X3463928Y-8317500D01*
X3435357Y-8303214D01*
X3378214Y-8303214D01*
X3349643Y-8317500D01*
X3335357Y-8331786D01*
X3321071Y-8360357D01*
X3321071Y-8431786D01*
X3335357Y-8460357D01*
X3349643Y-8474643D01*
X3378214Y-8488929D01*
X3435357Y-8488929D01*
X3463928Y-8474643D01*
X3478214Y-8460357D01*
X3492500Y-8431786D01*
X3606786Y-8303214D02*
X3606786Y-8360357D01*
X3721071Y-8303214D02*
X3721071Y-8360357D01*
X4163928Y-8717500D02*
X4149643Y-8703214D01*
X4121071Y-8660357D01*
X4106785Y-8631786D01*
X4092500Y-8588929D01*
X4078214Y-8517500D01*
X4078214Y-8460357D01*
X4092500Y-8388929D01*
X4106785Y-8346071D01*
X4121071Y-8317500D01*
X4149643Y-8274643D01*
X4163928Y-8260357D01*
X4421071Y-8303214D02*
X4278214Y-8303214D01*
X4263928Y-8446072D01*
X4278214Y-8431786D01*
X4306786Y-8417500D01*
X4378214Y-8417500D01*
X4406786Y-8431786D01*
X4421071Y-8446072D01*
X4435357Y-8474643D01*
X4435357Y-8546072D01*
X4421071Y-8574643D01*
X4406786Y-8588929D01*
X4378214Y-8603214D01*
X4306786Y-8603214D01*
X4278214Y-8588929D01*
X4263928Y-8574643D01*
X4792500Y-8603214D02*
X4792500Y-8303214D01*
X4921071Y-8603214D02*
X4921071Y-8446072D01*
X4906786Y-8417500D01*
X4878214Y-8403214D01*
X4835357Y-8403214D01*
X4806786Y-8417500D01*
X4792500Y-8431786D01*
X5106786Y-8603214D02*
X5078214Y-8588929D01*
X5063928Y-8574643D01*
X5049643Y-8546072D01*
X5049643Y-8460357D01*
X5063928Y-8431786D01*
X5078214Y-8417500D01*
X5106786Y-8403214D01*
X5149643Y-8403214D01*
X5178214Y-8417500D01*
X5192500Y-8431786D01*
X5206786Y-8460357D01*
X5206786Y-8546072D01*
X5192500Y-8574643D01*
X5178214Y-8588929D01*
X5149643Y-8603214D01*
X5106786Y-8603214D01*
X5378214Y-8603214D02*
X5349643Y-8588929D01*
X5335357Y-8560357D01*
X5335357Y-8303214D01*
X5606786Y-8588929D02*
X5578214Y-8603214D01*
X5521071Y-8603214D01*
X5492500Y-8588929D01*
X5478214Y-8560357D01*
X5478214Y-8446072D01*
X5492500Y-8417500D01*
X5521071Y-8403214D01*
X5578214Y-8403214D01*
X5606786Y-8417500D01*
X5621071Y-8446072D01*
X5621071Y-8474643D01*
X5478214Y-8503214D01*
X5735357Y-8588929D02*
X5763928Y-8603214D01*
X5821071Y-8603214D01*
X5849643Y-8588929D01*
X5863928Y-8560357D01*
X5863928Y-8546072D01*
X5849643Y-8517500D01*
X5821071Y-8503214D01*
X5778214Y-8503214D01*
X5749643Y-8488929D01*
X5735357Y-8460357D01*
X5735357Y-8446072D01*
X5749643Y-8417500D01*
X5778214Y-8403214D01*
X5821071Y-8403214D01*
X5849643Y-8417500D01*
X5963928Y-8717500D02*
X5978214Y-8703214D01*
X6006786Y-8660357D01*
X6021071Y-8631786D01*
X6035357Y-8588929D01*
X6049643Y-8517500D01*
X6049643Y-8460357D01*
X6035357Y-8388929D01*
X6021071Y-8346071D01*
X6006786Y-8317500D01*
X5978214Y-8274643D01*
X5963928Y-8260357D01*
X-507500Y-8863500D02*
G75*
G03X-507500Y-8863500I-160000J0D01*
G01*
X-264643Y-8699214D02*
X-78929Y-8699214D01*
X-178929Y-8813500D01*
X-136072Y-8813500D01*
X-107500Y-8827786D01*
X-93214Y-8842072D01*
X-78929Y-8870643D01*
X-78929Y-8942072D01*
X-93214Y-8970643D01*
X-107500Y-8984929D01*
X-136072Y-8999214D01*
X-221786Y-8999214D01*
X-250357Y-8984929D01*
X-264643Y-8970643D01*
X49643Y-8970643D02*
X63928Y-8984929D01*
X49643Y-8999214D01*
X35357Y-8984929D01*
X49643Y-8970643D01*
X49643Y-8999214D01*
X178214Y-8727786D02*
X192500Y-8713500D01*
X221071Y-8699214D01*
X292500Y-8699214D01*
X321071Y-8713500D01*
X335357Y-8727786D01*
X349643Y-8756357D01*
X349643Y-8784929D01*
X335357Y-8827786D01*
X163928Y-8999214D01*
X349643Y-8999214D01*
X535357Y-8699214D02*
X563929Y-8699214D01*
X592500Y-8713500D01*
X606786Y-8727786D01*
X621071Y-8756357D01*
X635357Y-8813500D01*
X635357Y-8884929D01*
X621071Y-8942072D01*
X606786Y-8970643D01*
X592500Y-8984929D01*
X563929Y-8999214D01*
X535357Y-8999214D01*
X506786Y-8984929D01*
X492500Y-8970643D01*
X478214Y-8942072D01*
X463928Y-8884929D01*
X463928Y-8813500D01*
X478214Y-8756357D01*
X492500Y-8727786D01*
X506786Y-8713500D01*
X535357Y-8699214D01*
X763928Y-8999214D02*
X763928Y-8799214D01*
X763928Y-8827786D02*
X778214Y-8813500D01*
X806786Y-8799214D01*
X849643Y-8799214D01*
X878214Y-8813500D01*
X892500Y-8842072D01*
X892500Y-8999214D01*
X892500Y-8842072D02*
X906786Y-8813500D01*
X935357Y-8799214D01*
X978214Y-8799214D01*
X1006786Y-8813500D01*
X1021071Y-8842072D01*
X1021071Y-8999214D01*
X1163929Y-8999214D02*
X1163929Y-8799214D01*
X1163929Y-8827786D02*
X1178214Y-8813500D01*
X1206786Y-8799214D01*
X1249643Y-8799214D01*
X1278214Y-8813500D01*
X1292500Y-8842072D01*
X1292500Y-8999214D01*
X1292500Y-8842072D02*
X1306786Y-8813500D01*
X1335357Y-8799214D01*
X1378214Y-8799214D01*
X1406786Y-8813500D01*
X1421071Y-8842072D01*
X1421071Y-8999214D01*
X2006786Y-8684929D02*
X1749643Y-9070643D01*
X2392500Y-8699214D02*
X2421071Y-8699214D01*
X2449643Y-8713500D01*
X2463928Y-8727786D01*
X2478214Y-8756357D01*
X2492500Y-8813500D01*
X2492500Y-8884929D01*
X2478214Y-8942072D01*
X2463928Y-8970643D01*
X2449643Y-8984929D01*
X2421071Y-8999214D01*
X2392500Y-8999214D01*
X2363928Y-8984929D01*
X2349643Y-8970643D01*
X2335357Y-8942072D01*
X2321071Y-8884929D01*
X2321071Y-8813500D01*
X2335357Y-8756357D01*
X2349643Y-8727786D01*
X2363928Y-8713500D01*
X2392500Y-8699214D01*
X2621071Y-8970643D02*
X2635357Y-8984929D01*
X2621071Y-8999214D01*
X2606786Y-8984929D01*
X2621071Y-8970643D01*
X2621071Y-8999214D01*
X2921071Y-8999214D02*
X2749643Y-8999214D01*
X2835357Y-8999214D02*
X2835357Y-8699214D01*
X2806785Y-8742072D01*
X2778214Y-8770643D01*
X2749643Y-8784929D01*
X3035357Y-8727786D02*
X3049643Y-8713500D01*
X3078214Y-8699214D01*
X3149643Y-8699214D01*
X3178214Y-8713500D01*
X3192500Y-8727786D01*
X3206785Y-8756357D01*
X3206785Y-8784929D01*
X3192500Y-8827786D01*
X3021071Y-8999214D01*
X3206785Y-8999214D01*
X3463928Y-8699214D02*
X3406785Y-8699214D01*
X3378214Y-8713500D01*
X3363928Y-8727786D01*
X3335357Y-8770643D01*
X3321071Y-8827786D01*
X3321071Y-8942072D01*
X3335357Y-8970643D01*
X3349643Y-8984929D01*
X3378214Y-8999214D01*
X3435357Y-8999214D01*
X3463928Y-8984929D01*
X3478214Y-8970643D01*
X3492500Y-8942072D01*
X3492500Y-8870643D01*
X3478214Y-8842072D01*
X3463928Y-8827786D01*
X3435357Y-8813500D01*
X3378214Y-8813500D01*
X3349643Y-8827786D01*
X3335357Y-8842072D01*
X3321071Y-8870643D01*
X3606786Y-8699214D02*
X3606786Y-8756357D01*
X3721071Y-8699214D02*
X3721071Y-8756357D01*
X4163928Y-9113500D02*
X4149643Y-9099214D01*
X4121071Y-9056357D01*
X4106785Y-9027786D01*
X4092500Y-8984929D01*
X4078214Y-8913500D01*
X4078214Y-8856357D01*
X4092500Y-8784929D01*
X4106785Y-8742072D01*
X4121071Y-8713500D01*
X4149643Y-8670643D01*
X4163928Y-8656357D01*
X4406786Y-8799214D02*
X4406786Y-8999214D01*
X4335357Y-8684929D02*
X4263928Y-8899214D01*
X4449643Y-8899214D01*
X4792500Y-8999214D02*
X4792500Y-8699214D01*
X4921071Y-8999214D02*
X4921071Y-8842072D01*
X4906786Y-8813500D01*
X4878214Y-8799214D01*
X4835357Y-8799214D01*
X4806786Y-8813500D01*
X4792500Y-8827786D01*
X5106786Y-8999214D02*
X5078214Y-8984929D01*
X5063928Y-8970643D01*
X5049643Y-8942072D01*
X5049643Y-8856357D01*
X5063928Y-8827786D01*
X5078214Y-8813500D01*
X5106786Y-8799214D01*
X5149643Y-8799214D01*
X5178214Y-8813500D01*
X5192500Y-8827786D01*
X5206786Y-8856357D01*
X5206786Y-8942072D01*
X5192500Y-8970643D01*
X5178214Y-8984929D01*
X5149643Y-8999214D01*
X5106786Y-8999214D01*
X5378214Y-8999214D02*
X5349643Y-8984929D01*
X5335357Y-8956357D01*
X5335357Y-8699214D01*
X5606786Y-8984929D02*
X5578214Y-8999214D01*
X5521071Y-8999214D01*
X5492500Y-8984929D01*
X5478214Y-8956357D01*
X5478214Y-8842072D01*
X5492500Y-8813500D01*
X5521071Y-8799214D01*
X5578214Y-8799214D01*
X5606786Y-8813500D01*
X5621071Y-8842072D01*
X5621071Y-8870643D01*
X5478214Y-8899214D01*
X5735357Y-8984929D02*
X5763928Y-8999214D01*
X5821071Y-8999214D01*
X5849643Y-8984929D01*
X5863928Y-8956357D01*
X5863928Y-8942072D01*
X5849643Y-8913500D01*
X5821071Y-8899214D01*
X5778214Y-8899214D01*
X5749643Y-8884929D01*
X5735357Y-8856357D01*
X5735357Y-8842072D01*
X5749643Y-8813500D01*
X5778214Y-8799214D01*
X5821071Y-8799214D01*
X5849643Y-8813500D01*
X5963928Y-9113500D02*
X5978214Y-9099214D01*
X6006786Y-9056357D01*
X6021071Y-9027786D01*
X6035357Y-8984929D01*
X6049643Y-8913500D01*
X6049643Y-8856357D01*
X6035357Y-8784929D01*
X6021071Y-8742072D01*
X6006786Y-8713500D01*
X5978214Y-8670643D01*
X5963928Y-8656357D01*
M02*
