G04 #@! TF.FileFunction,Legend,Top*
%FSLAX46Y46*%
G04 Gerber Fmt 4.6, Leading zero omitted, Abs format (unit mm)*
G04 Created by KiCad (PCBNEW (2015-10-06 BZR 6248, Git 20a3e23)-product) date 2015-10-8 0:39:17*
%MOMM*%
G01*
G04 APERTURE LIST*
%ADD10C,0.100000*%
%ADD11C,0.152400*%
%ADD12C,0.300000*%
%ADD13C,0.150000*%
%ADD14C,1.901140*%
%ADD15C,0.600000*%
%ADD16R,2.000000X1.400000*%
%ADD17R,1.400000X2.000000*%
%ADD18R,1.598880X1.598880*%
%ADD19R,0.800000X1.600000*%
%ADD20R,1.100000X1.700000*%
%ADD21R,1.700000X1.100000*%
%ADD22C,1.900000*%
%ADD23C,3.400000*%
%ADD24R,2.200000X3.400000*%
%ADD25R,1.900000X2.800000*%
%ADD26R,2.127200X2.127200*%
%ADD27O,2.127200X2.127200*%
%ADD28R,1.460000X1.050000*%
%ADD29R,2.432000X4.057600*%
%ADD30R,2.432000X1.416000*%
%ADD31R,4.057600X2.432000*%
%ADD32R,1.416000X2.432000*%
%ADD33R,1.600000X0.640000*%
%ADD34R,0.640000X1.600000*%
%ADD35R,2.100000X1.050000*%
%ADD36R,1.050000X1.460000*%
%ADD37O,2.000000X2.000000*%
%ADD38R,1.950000X1.000000*%
%ADD39R,2.432000X2.432000*%
%ADD40O,2.432000X2.432000*%
%ADD41C,2.600000*%
%ADD42O,3.100000X4.900000*%
%ADD43C,2.400000*%
%ADD44R,2.100000X1.900000*%
%ADD45R,1.900000X2.100000*%
%ADD46C,3.600000*%
%ADD47R,1.000000X0.900000*%
%ADD48R,0.900000X1.000000*%
%ADD49R,1.000000X0.800000*%
%ADD50R,0.800000X1.000000*%
%ADD51R,2.000200X3.999180*%
%ADD52R,2.899360X2.701240*%
%ADD53R,1.400000X0.800000*%
%ADD54R,1.750000X0.800000*%
%ADD55O,2.000000X1.500000*%
G04 APERTURE END LIST*
D10*
D11*
X32001667Y-58873332D02*
X32001667Y-58739999D01*
X32035000Y-58673332D01*
X32101667Y-58606665D01*
X32235000Y-58573332D01*
X32468333Y-58573332D01*
X32601667Y-58606665D01*
X32668333Y-58673332D01*
X32701667Y-58739999D01*
X32701667Y-58873332D01*
X32668333Y-58939999D01*
X32601667Y-59006665D01*
X32468333Y-59039999D01*
X32235000Y-59039999D01*
X32101667Y-59006665D01*
X32035000Y-58939999D01*
X32001667Y-58873332D01*
X32235000Y-58273332D02*
X32935000Y-58273332D01*
X32268333Y-58273332D02*
X32235000Y-58206666D01*
X32235000Y-58073332D01*
X32268333Y-58006666D01*
X32301667Y-57973332D01*
X32368333Y-57939999D01*
X32568333Y-57939999D01*
X32635000Y-57973332D01*
X32668333Y-58006666D01*
X32701667Y-58073332D01*
X32701667Y-58206666D01*
X32668333Y-58273332D01*
X32235000Y-57739999D02*
X32235000Y-57473333D01*
X32001667Y-57639999D02*
X32601667Y-57639999D01*
X32668333Y-57606666D01*
X32701667Y-57539999D01*
X32701667Y-57473333D01*
X32701667Y-57239999D02*
X32235000Y-57239999D01*
X32001667Y-57239999D02*
X32035000Y-57273333D01*
X32068333Y-57239999D01*
X32035000Y-57206666D01*
X32001667Y-57239999D01*
X32068333Y-57239999D01*
X32701667Y-56806666D02*
X32668333Y-56873333D01*
X32635000Y-56906666D01*
X32568333Y-56940000D01*
X32368333Y-56940000D01*
X32301667Y-56906666D01*
X32268333Y-56873333D01*
X32235000Y-56806666D01*
X32235000Y-56706666D01*
X32268333Y-56640000D01*
X32301667Y-56606666D01*
X32368333Y-56573333D01*
X32568333Y-56573333D01*
X32635000Y-56606666D01*
X32668333Y-56640000D01*
X32701667Y-56706666D01*
X32701667Y-56806666D01*
X32235000Y-56273333D02*
X32701667Y-56273333D01*
X32301667Y-56273333D02*
X32268333Y-56240000D01*
X32235000Y-56173333D01*
X32235000Y-56073333D01*
X32268333Y-56006667D01*
X32335000Y-55973333D01*
X32701667Y-55973333D01*
X32701667Y-55340000D02*
X32335000Y-55340000D01*
X32268333Y-55373334D01*
X32235000Y-55440000D01*
X32235000Y-55573334D01*
X32268333Y-55640000D01*
X32668333Y-55340000D02*
X32701667Y-55406667D01*
X32701667Y-55573334D01*
X32668333Y-55640000D01*
X32601667Y-55673334D01*
X32535000Y-55673334D01*
X32468333Y-55640000D01*
X32435000Y-55573334D01*
X32435000Y-55406667D01*
X32401667Y-55340000D01*
X32701667Y-54906667D02*
X32668333Y-54973334D01*
X32601667Y-55006667D01*
X32001667Y-55006667D01*
X32635000Y-53706667D02*
X32668333Y-53740001D01*
X32701667Y-53840001D01*
X32701667Y-53906667D01*
X32668333Y-54006667D01*
X32601667Y-54073334D01*
X32535000Y-54106667D01*
X32401667Y-54140001D01*
X32301667Y-54140001D01*
X32168333Y-54106667D01*
X32101667Y-54073334D01*
X32035000Y-54006667D01*
X32001667Y-53906667D01*
X32001667Y-53840001D01*
X32035000Y-53740001D01*
X32068333Y-53706667D01*
X32701667Y-53306667D02*
X32668333Y-53373334D01*
X32601667Y-53406667D01*
X32001667Y-53406667D01*
X32701667Y-53040000D02*
X32001667Y-53040000D01*
X32435000Y-52973334D02*
X32701667Y-52773334D01*
X32235000Y-52773334D02*
X32501667Y-53040000D01*
X32235000Y-52040000D02*
X32235000Y-51773334D01*
X32701667Y-51940000D02*
X32101667Y-51940000D01*
X32035000Y-51906667D01*
X32001667Y-51840000D01*
X32001667Y-51773334D01*
X32701667Y-51440000D02*
X32668333Y-51506667D01*
X32635000Y-51540000D01*
X32568333Y-51573334D01*
X32368333Y-51573334D01*
X32301667Y-51540000D01*
X32268333Y-51506667D01*
X32235000Y-51440000D01*
X32235000Y-51340000D01*
X32268333Y-51273334D01*
X32301667Y-51240000D01*
X32368333Y-51206667D01*
X32568333Y-51206667D01*
X32635000Y-51240000D01*
X32668333Y-51273334D01*
X32701667Y-51340000D01*
X32701667Y-51440000D01*
X32701667Y-50906667D02*
X32235000Y-50906667D01*
X32368333Y-50906667D02*
X32301667Y-50873334D01*
X32268333Y-50840001D01*
X32235000Y-50773334D01*
X32235000Y-50706667D01*
X32335000Y-49706668D02*
X32335000Y-49940001D01*
X32701667Y-49940001D02*
X32001667Y-49940001D01*
X32001667Y-49606668D01*
X32701667Y-49340001D02*
X32001667Y-49340001D01*
X32001667Y-49073335D01*
X32035000Y-49006668D01*
X32068333Y-48973335D01*
X32135000Y-48940001D01*
X32235000Y-48940001D01*
X32301667Y-48973335D01*
X32335000Y-49006668D01*
X32368333Y-49073335D01*
X32368333Y-49340001D01*
X32035000Y-48273335D02*
X32001667Y-48340001D01*
X32001667Y-48440001D01*
X32035000Y-48540001D01*
X32101667Y-48606668D01*
X32168333Y-48640001D01*
X32301667Y-48673335D01*
X32401667Y-48673335D01*
X32535000Y-48640001D01*
X32601667Y-48606668D01*
X32668333Y-48540001D01*
X32701667Y-48440001D01*
X32701667Y-48373335D01*
X32668333Y-48273335D01*
X32635000Y-48240001D01*
X32401667Y-48240001D01*
X32401667Y-48373335D01*
X32501667Y-47973335D02*
X32501667Y-47640001D01*
X32701667Y-48040001D02*
X32001667Y-47806668D01*
X32701667Y-47573335D01*
X5196667Y-73681665D02*
X5196667Y-73348331D01*
X5396667Y-73748331D02*
X4696667Y-73514998D01*
X5396667Y-73281665D01*
X4930000Y-72748331D02*
X5396667Y-72748331D01*
X4930000Y-73048331D02*
X5296667Y-73048331D01*
X5363333Y-73014998D01*
X5396667Y-72948331D01*
X5396667Y-72848331D01*
X5363333Y-72781665D01*
X5330000Y-72748331D01*
X5396667Y-72114998D02*
X4696667Y-72114998D01*
X5363333Y-72114998D02*
X5396667Y-72181665D01*
X5396667Y-72314998D01*
X5363333Y-72381665D01*
X5330000Y-72414998D01*
X5263333Y-72448332D01*
X5063333Y-72448332D01*
X4996667Y-72414998D01*
X4963333Y-72381665D01*
X4930000Y-72314998D01*
X4930000Y-72181665D01*
X4963333Y-72114998D01*
X5396667Y-71781665D02*
X4930000Y-71781665D01*
X4696667Y-71781665D02*
X4730000Y-71814999D01*
X4763333Y-71781665D01*
X4730000Y-71748332D01*
X4696667Y-71781665D01*
X4763333Y-71781665D01*
X5396667Y-71348332D02*
X5363333Y-71414999D01*
X5330000Y-71448332D01*
X5263333Y-71481666D01*
X5063333Y-71481666D01*
X4996667Y-71448332D01*
X4963333Y-71414999D01*
X4930000Y-71348332D01*
X4930000Y-71248332D01*
X4963333Y-71181666D01*
X4996667Y-71148332D01*
X5063333Y-71114999D01*
X5263333Y-71114999D01*
X5330000Y-71148332D01*
X5363333Y-71181666D01*
X5396667Y-71248332D01*
X5396667Y-71348332D01*
X4696667Y-70148333D02*
X4696667Y-70015000D01*
X4730000Y-69948333D01*
X4796667Y-69881666D01*
X4930000Y-69848333D01*
X5163333Y-69848333D01*
X5296667Y-69881666D01*
X5363333Y-69948333D01*
X5396667Y-70015000D01*
X5396667Y-70148333D01*
X5363333Y-70215000D01*
X5296667Y-70281666D01*
X5163333Y-70315000D01*
X4930000Y-70315000D01*
X4796667Y-70281666D01*
X4730000Y-70215000D01*
X4696667Y-70148333D01*
X4930000Y-69248333D02*
X5396667Y-69248333D01*
X4930000Y-69548333D02*
X5296667Y-69548333D01*
X5363333Y-69515000D01*
X5396667Y-69448333D01*
X5396667Y-69348333D01*
X5363333Y-69281667D01*
X5330000Y-69248333D01*
X4930000Y-69015000D02*
X4930000Y-68748334D01*
X4696667Y-68915000D02*
X5296667Y-68915000D01*
X5363333Y-68881667D01*
X5396667Y-68815000D01*
X5396667Y-68748334D01*
X4696667Y-68048334D02*
X4696667Y-67615001D01*
X4963333Y-67848334D01*
X4963333Y-67748334D01*
X4996667Y-67681667D01*
X5030000Y-67648334D01*
X5096667Y-67615001D01*
X5263333Y-67615001D01*
X5330000Y-67648334D01*
X5363333Y-67681667D01*
X5396667Y-67748334D01*
X5396667Y-67948334D01*
X5363333Y-68015001D01*
X5330000Y-68048334D01*
X5330000Y-67315000D02*
X5363333Y-67281667D01*
X5396667Y-67315000D01*
X5363333Y-67348334D01*
X5330000Y-67315000D01*
X5396667Y-67315000D01*
X4696667Y-66648334D02*
X4696667Y-66981667D01*
X5030000Y-67015001D01*
X4996667Y-66981667D01*
X4963333Y-66915001D01*
X4963333Y-66748334D01*
X4996667Y-66681667D01*
X5030000Y-66648334D01*
X5096667Y-66615001D01*
X5263333Y-66615001D01*
X5330000Y-66648334D01*
X5363333Y-66681667D01*
X5396667Y-66748334D01*
X5396667Y-66915001D01*
X5363333Y-66981667D01*
X5330000Y-67015001D01*
X5396667Y-66315000D02*
X4930000Y-66315000D01*
X4996667Y-66315000D02*
X4963333Y-66281667D01*
X4930000Y-66215000D01*
X4930000Y-66115000D01*
X4963333Y-66048334D01*
X5030000Y-66015000D01*
X5396667Y-66015000D01*
X5030000Y-66015000D02*
X4963333Y-65981667D01*
X4930000Y-65915000D01*
X4930000Y-65815000D01*
X4963333Y-65748334D01*
X5030000Y-65715000D01*
X5396667Y-65715000D01*
X5396667Y-65381667D02*
X4930000Y-65381667D01*
X4996667Y-65381667D02*
X4963333Y-65348334D01*
X4930000Y-65281667D01*
X4930000Y-65181667D01*
X4963333Y-65115001D01*
X5030000Y-65081667D01*
X5396667Y-65081667D01*
X5030000Y-65081667D02*
X4963333Y-65048334D01*
X4930000Y-64981667D01*
X4930000Y-64881667D01*
X4963333Y-64815001D01*
X5030000Y-64781667D01*
X5396667Y-64781667D01*
X19936667Y-71031666D02*
X20636667Y-70798333D01*
X19936667Y-70565000D01*
X20636667Y-70231666D02*
X20603333Y-70298333D01*
X20570000Y-70331666D01*
X20503333Y-70365000D01*
X20303333Y-70365000D01*
X20236667Y-70331666D01*
X20203333Y-70298333D01*
X20170000Y-70231666D01*
X20170000Y-70131666D01*
X20203333Y-70065000D01*
X20236667Y-70031666D01*
X20303333Y-69998333D01*
X20503333Y-69998333D01*
X20570000Y-70031666D01*
X20603333Y-70065000D01*
X20636667Y-70131666D01*
X20636667Y-70231666D01*
X20636667Y-69598333D02*
X20603333Y-69665000D01*
X20536667Y-69698333D01*
X19936667Y-69698333D01*
X20170000Y-69031666D02*
X20636667Y-69031666D01*
X20170000Y-69331666D02*
X20536667Y-69331666D01*
X20603333Y-69298333D01*
X20636667Y-69231666D01*
X20636667Y-69131666D01*
X20603333Y-69065000D01*
X20570000Y-69031666D01*
X20636667Y-68698333D02*
X20170000Y-68698333D01*
X20236667Y-68698333D02*
X20203333Y-68665000D01*
X20170000Y-68598333D01*
X20170000Y-68498333D01*
X20203333Y-68431667D01*
X20270000Y-68398333D01*
X20636667Y-68398333D01*
X20270000Y-68398333D02*
X20203333Y-68365000D01*
X20170000Y-68298333D01*
X20170000Y-68198333D01*
X20203333Y-68131667D01*
X20270000Y-68098333D01*
X20636667Y-68098333D01*
X20603333Y-67498334D02*
X20636667Y-67565000D01*
X20636667Y-67698334D01*
X20603333Y-67765000D01*
X20536667Y-67798334D01*
X20270000Y-67798334D01*
X20203333Y-67765000D01*
X20170000Y-67698334D01*
X20170000Y-67565000D01*
X20203333Y-67498334D01*
X20270000Y-67465000D01*
X20336667Y-67465000D01*
X20403333Y-67798334D01*
X3493333Y-10033335D02*
X3826667Y-9800001D01*
X3493333Y-9633335D02*
X4193333Y-9633335D01*
X4193333Y-9900001D01*
X4160000Y-9966668D01*
X4126667Y-10000001D01*
X4060000Y-10033335D01*
X3960000Y-10033335D01*
X3893333Y-10000001D01*
X3860000Y-9966668D01*
X3826667Y-9900001D01*
X3826667Y-9633335D01*
X3860000Y-10566668D02*
X3860000Y-10333335D01*
X3493333Y-10333335D02*
X4193333Y-10333335D01*
X4193333Y-10666668D01*
X3493333Y-11466668D02*
X4193333Y-11466668D01*
X3960000Y-11800001D02*
X3493333Y-11800001D01*
X3893333Y-11800001D02*
X3926667Y-11833334D01*
X3960000Y-11900001D01*
X3960000Y-12000001D01*
X3926667Y-12066667D01*
X3860000Y-12100001D01*
X3493333Y-12100001D01*
X3960000Y-12333334D02*
X3960000Y-12600000D01*
X4193333Y-12433334D02*
X3593333Y-12433334D01*
X3526667Y-12466667D01*
X3493333Y-12533334D01*
X3493333Y-12600000D01*
X3526667Y-13100000D02*
X3493333Y-13033334D01*
X3493333Y-12900000D01*
X3526667Y-12833334D01*
X3593333Y-12800000D01*
X3860000Y-12800000D01*
X3926667Y-12833334D01*
X3960000Y-12900000D01*
X3960000Y-13033334D01*
X3926667Y-13100000D01*
X3860000Y-13133334D01*
X3793333Y-13133334D01*
X3726667Y-12800000D01*
X3493333Y-13433334D02*
X3960000Y-13433334D01*
X3826667Y-13433334D02*
X3893333Y-13466667D01*
X3926667Y-13500000D01*
X3960000Y-13566667D01*
X3960000Y-13633334D01*
X3960000Y-13766667D02*
X3960000Y-14033333D01*
X3493333Y-13866667D02*
X4093333Y-13866667D01*
X4160000Y-13900000D01*
X4193333Y-13966667D01*
X4193333Y-14033333D01*
X3493333Y-14566667D02*
X3860000Y-14566667D01*
X3926667Y-14533333D01*
X3960000Y-14466667D01*
X3960000Y-14333333D01*
X3926667Y-14266667D01*
X3526667Y-14566667D02*
X3493333Y-14500000D01*
X3493333Y-14333333D01*
X3526667Y-14266667D01*
X3593333Y-14233333D01*
X3660000Y-14233333D01*
X3726667Y-14266667D01*
X3760000Y-14333333D01*
X3760000Y-14500000D01*
X3793333Y-14566667D01*
X3526667Y-15200000D02*
X3493333Y-15133333D01*
X3493333Y-15000000D01*
X3526667Y-14933333D01*
X3560000Y-14900000D01*
X3626667Y-14866666D01*
X3826667Y-14866666D01*
X3893333Y-14900000D01*
X3926667Y-14933333D01*
X3960000Y-15000000D01*
X3960000Y-15133333D01*
X3926667Y-15200000D01*
X3526667Y-15766666D02*
X3493333Y-15700000D01*
X3493333Y-15566666D01*
X3526667Y-15500000D01*
X3593333Y-15466666D01*
X3860000Y-15466666D01*
X3926667Y-15500000D01*
X3960000Y-15566666D01*
X3960000Y-15700000D01*
X3926667Y-15766666D01*
X3860000Y-15800000D01*
X3793333Y-15800000D01*
X3726667Y-15466666D01*
X94296667Y-60319999D02*
X93596667Y-60319999D01*
X93596667Y-60053333D01*
X93630000Y-59986666D01*
X93663333Y-59953333D01*
X93730000Y-59919999D01*
X93830000Y-59919999D01*
X93896667Y-59953333D01*
X93930000Y-59986666D01*
X93963333Y-60053333D01*
X93963333Y-60319999D01*
X93596667Y-59686666D02*
X94296667Y-59519999D01*
X93796667Y-59386666D01*
X94296667Y-59253333D01*
X93596667Y-59086666D01*
X93596667Y-58286666D02*
X94163333Y-58286666D01*
X94230000Y-58253333D01*
X94263333Y-58220000D01*
X94296667Y-58153333D01*
X94296667Y-58020000D01*
X94263333Y-57953333D01*
X94230000Y-57920000D01*
X94163333Y-57886666D01*
X93596667Y-57886666D01*
X94263333Y-57586667D02*
X94296667Y-57486667D01*
X94296667Y-57320000D01*
X94263333Y-57253333D01*
X94230000Y-57220000D01*
X94163333Y-57186667D01*
X94096667Y-57186667D01*
X94030000Y-57220000D01*
X93996667Y-57253333D01*
X93963333Y-57320000D01*
X93930000Y-57453333D01*
X93896667Y-57520000D01*
X93863333Y-57553333D01*
X93796667Y-57586667D01*
X93730000Y-57586667D01*
X93663333Y-57553333D01*
X93630000Y-57520000D01*
X93596667Y-57453333D01*
X93596667Y-57286667D01*
X93630000Y-57186667D01*
X93930000Y-56653333D02*
X93963333Y-56553333D01*
X93996667Y-56520000D01*
X94063333Y-56486666D01*
X94163333Y-56486666D01*
X94230000Y-56520000D01*
X94263333Y-56553333D01*
X94296667Y-56620000D01*
X94296667Y-56886666D01*
X93596667Y-56886666D01*
X93596667Y-56653333D01*
X93630000Y-56586666D01*
X93663333Y-56553333D01*
X93730000Y-56520000D01*
X93796667Y-56520000D01*
X93863333Y-56553333D01*
X93896667Y-56586666D01*
X93930000Y-56653333D01*
X93930000Y-56886666D01*
X94296667Y-25193332D02*
X93596667Y-25193332D01*
X93596667Y-25026666D01*
X93630000Y-24926666D01*
X93696667Y-24859999D01*
X93763333Y-24826666D01*
X93896667Y-24793332D01*
X93996667Y-24793332D01*
X94130000Y-24826666D01*
X94196667Y-24859999D01*
X94263333Y-24926666D01*
X94296667Y-25026666D01*
X94296667Y-25193332D01*
X94296667Y-24193332D02*
X93930000Y-24193332D01*
X93863333Y-24226666D01*
X93830000Y-24293332D01*
X93830000Y-24426666D01*
X93863333Y-24493332D01*
X94263333Y-24193332D02*
X94296667Y-24259999D01*
X94296667Y-24426666D01*
X94263333Y-24493332D01*
X94196667Y-24526666D01*
X94130000Y-24526666D01*
X94063333Y-24493332D01*
X94030000Y-24426666D01*
X94030000Y-24259999D01*
X93996667Y-24193332D01*
X93830000Y-23959999D02*
X93830000Y-23693333D01*
X93596667Y-23859999D02*
X94196667Y-23859999D01*
X94263333Y-23826666D01*
X94296667Y-23759999D01*
X94296667Y-23693333D01*
X94296667Y-23159999D02*
X93930000Y-23159999D01*
X93863333Y-23193333D01*
X93830000Y-23259999D01*
X93830000Y-23393333D01*
X93863333Y-23459999D01*
X94263333Y-23159999D02*
X94296667Y-23226666D01*
X94296667Y-23393333D01*
X94263333Y-23459999D01*
X94196667Y-23493333D01*
X94130000Y-23493333D01*
X94063333Y-23459999D01*
X94030000Y-23393333D01*
X94030000Y-23226666D01*
X93996667Y-23159999D01*
X93596667Y-22293333D02*
X94163333Y-22293333D01*
X94230000Y-22260000D01*
X94263333Y-22226667D01*
X94296667Y-22160000D01*
X94296667Y-22026667D01*
X94263333Y-21960000D01*
X94230000Y-21926667D01*
X94163333Y-21893333D01*
X93596667Y-21893333D01*
X94263333Y-21593334D02*
X94296667Y-21493334D01*
X94296667Y-21326667D01*
X94263333Y-21260000D01*
X94230000Y-21226667D01*
X94163333Y-21193334D01*
X94096667Y-21193334D01*
X94030000Y-21226667D01*
X93996667Y-21260000D01*
X93963333Y-21326667D01*
X93930000Y-21460000D01*
X93896667Y-21526667D01*
X93863333Y-21560000D01*
X93796667Y-21593334D01*
X93730000Y-21593334D01*
X93663333Y-21560000D01*
X93630000Y-21526667D01*
X93596667Y-21460000D01*
X93596667Y-21293334D01*
X93630000Y-21193334D01*
X93930000Y-20660000D02*
X93963333Y-20560000D01*
X93996667Y-20526667D01*
X94063333Y-20493333D01*
X94163333Y-20493333D01*
X94230000Y-20526667D01*
X94263333Y-20560000D01*
X94296667Y-20626667D01*
X94296667Y-20893333D01*
X93596667Y-20893333D01*
X93596667Y-20660000D01*
X93630000Y-20593333D01*
X93663333Y-20560000D01*
X93730000Y-20526667D01*
X93796667Y-20526667D01*
X93863333Y-20560000D01*
X93896667Y-20593333D01*
X93930000Y-20660000D01*
X93930000Y-20893333D01*
D12*
X71714287Y-72821429D02*
X71785716Y-72750000D01*
X71928573Y-72678571D01*
X72285716Y-72678571D01*
X72428573Y-72750000D01*
X72500002Y-72821429D01*
X72571430Y-72964286D01*
X72571430Y-73107143D01*
X72500002Y-73321429D01*
X71642859Y-74178571D01*
X72571430Y-74178571D01*
X73500001Y-72678571D02*
X73642858Y-72678571D01*
X73785715Y-72750000D01*
X73857144Y-72821429D01*
X73928573Y-72964286D01*
X74000001Y-73250000D01*
X74000001Y-73607143D01*
X73928573Y-73892857D01*
X73857144Y-74035714D01*
X73785715Y-74107143D01*
X73642858Y-74178571D01*
X73500001Y-74178571D01*
X73357144Y-74107143D01*
X73285715Y-74035714D01*
X73214287Y-73892857D01*
X73142858Y-73607143D01*
X73142858Y-73250000D01*
X73214287Y-72964286D01*
X73285715Y-72821429D01*
X73357144Y-72750000D01*
X73500001Y-72678571D01*
X75428572Y-74178571D02*
X74571429Y-74178571D01*
X75000001Y-74178571D02*
X75000001Y-72678571D01*
X74857144Y-72892857D01*
X74714286Y-73035714D01*
X74571429Y-73107143D01*
X76785715Y-72678571D02*
X76071429Y-72678571D01*
X76000000Y-73392857D01*
X76071429Y-73321429D01*
X76214286Y-73250000D01*
X76571429Y-73250000D01*
X76714286Y-73321429D01*
X76785715Y-73392857D01*
X76857143Y-73535714D01*
X76857143Y-73892857D01*
X76785715Y-74035714D01*
X76714286Y-74107143D01*
X76571429Y-74178571D01*
X76214286Y-74178571D01*
X76071429Y-74107143D01*
X76000000Y-74035714D01*
X77500000Y-73607143D02*
X78642857Y-73607143D01*
X80142857Y-74178571D02*
X79285714Y-74178571D01*
X79714286Y-74178571D02*
X79714286Y-72678571D01*
X79571429Y-72892857D01*
X79428571Y-73035714D01*
X79285714Y-73107143D01*
X81071428Y-72678571D02*
X81214285Y-72678571D01*
X81357142Y-72750000D01*
X81428571Y-72821429D01*
X81500000Y-72964286D01*
X81571428Y-73250000D01*
X81571428Y-73607143D01*
X81500000Y-73892857D01*
X81428571Y-74035714D01*
X81357142Y-74107143D01*
X81214285Y-74178571D01*
X81071428Y-74178571D01*
X80928571Y-74107143D01*
X80857142Y-74035714D01*
X80785714Y-73892857D01*
X80714285Y-73607143D01*
X80714285Y-73250000D01*
X80785714Y-72964286D01*
X80857142Y-72821429D01*
X80928571Y-72750000D01*
X81071428Y-72678571D01*
X82214285Y-73607143D02*
X83357142Y-73607143D01*
X84357142Y-72678571D02*
X84499999Y-72678571D01*
X84642856Y-72750000D01*
X84714285Y-72821429D01*
X84785714Y-72964286D01*
X84857142Y-73250000D01*
X84857142Y-73607143D01*
X84785714Y-73892857D01*
X84714285Y-74035714D01*
X84642856Y-74107143D01*
X84499999Y-74178571D01*
X84357142Y-74178571D01*
X84214285Y-74107143D01*
X84142856Y-74035714D01*
X84071428Y-73892857D01*
X83999999Y-73607143D01*
X83999999Y-73250000D01*
X84071428Y-72964286D01*
X84142856Y-72821429D01*
X84214285Y-72750000D01*
X84357142Y-72678571D01*
X85714285Y-73321429D02*
X85571427Y-73250000D01*
X85499999Y-73178571D01*
X85428570Y-73035714D01*
X85428570Y-72964286D01*
X85499999Y-72821429D01*
X85571427Y-72750000D01*
X85714285Y-72678571D01*
X85999999Y-72678571D01*
X86142856Y-72750000D01*
X86214285Y-72821429D01*
X86285713Y-72964286D01*
X86285713Y-73035714D01*
X86214285Y-73178571D01*
X86142856Y-73250000D01*
X85999999Y-73321429D01*
X85714285Y-73321429D01*
X85571427Y-73392857D01*
X85499999Y-73464286D01*
X85428570Y-73607143D01*
X85428570Y-73892857D01*
X85499999Y-74035714D01*
X85571427Y-74107143D01*
X85714285Y-74178571D01*
X85999999Y-74178571D01*
X86142856Y-74107143D01*
X86214285Y-74035714D01*
X86285713Y-73892857D01*
X86285713Y-73607143D01*
X86214285Y-73464286D01*
X86142856Y-73392857D01*
X85999999Y-73321429D01*
D11*
X22816668Y-45566667D02*
X22816668Y-44866667D01*
X22983334Y-44866667D01*
X23083334Y-44900000D01*
X23150001Y-44966667D01*
X23183334Y-45033333D01*
X23216668Y-45166667D01*
X23216668Y-45266667D01*
X23183334Y-45400000D01*
X23150001Y-45466667D01*
X23083334Y-45533333D01*
X22983334Y-45566667D01*
X22816668Y-45566667D01*
X23516668Y-45200000D02*
X23750001Y-45200000D01*
X23850001Y-45566667D02*
X23516668Y-45566667D01*
X23516668Y-44866667D01*
X23850001Y-44866667D01*
X24383334Y-45200000D02*
X24483334Y-45233333D01*
X24516667Y-45266667D01*
X24550001Y-45333333D01*
X24550001Y-45433333D01*
X24516667Y-45500000D01*
X24483334Y-45533333D01*
X24416667Y-45566667D01*
X24150001Y-45566667D01*
X24150001Y-44866667D01*
X24383334Y-44866667D01*
X24450001Y-44900000D01*
X24483334Y-44933333D01*
X24516667Y-45000000D01*
X24516667Y-45066667D01*
X24483334Y-45133333D01*
X24450001Y-45166667D01*
X24383334Y-45200000D01*
X24150001Y-45200000D01*
X24850001Y-44866667D02*
X24850001Y-45433333D01*
X24883334Y-45500000D01*
X24916667Y-45533333D01*
X24983334Y-45566667D01*
X25116667Y-45566667D01*
X25183334Y-45533333D01*
X25216667Y-45500000D01*
X25250001Y-45433333D01*
X25250001Y-44866667D01*
X25950000Y-44900000D02*
X25883334Y-44866667D01*
X25783334Y-44866667D01*
X25683334Y-44900000D01*
X25616667Y-44966667D01*
X25583334Y-45033333D01*
X25550000Y-45166667D01*
X25550000Y-45266667D01*
X25583334Y-45400000D01*
X25616667Y-45466667D01*
X25683334Y-45533333D01*
X25783334Y-45566667D01*
X25850000Y-45566667D01*
X25950000Y-45533333D01*
X25983334Y-45500000D01*
X25983334Y-45266667D01*
X25850000Y-45266667D01*
X26716667Y-44866667D02*
X27116667Y-44866667D01*
X26916667Y-45566667D02*
X26916667Y-44866667D01*
X27650000Y-44866667D02*
X27516666Y-44866667D01*
X27450000Y-44900000D01*
X27416666Y-44933333D01*
X27350000Y-45033333D01*
X27316666Y-45166667D01*
X27316666Y-45433333D01*
X27350000Y-45500000D01*
X27383333Y-45533333D01*
X27450000Y-45566667D01*
X27583333Y-45566667D01*
X27650000Y-45533333D01*
X27683333Y-45500000D01*
X27716666Y-45433333D01*
X27716666Y-45266667D01*
X27683333Y-45200000D01*
X27650000Y-45166667D01*
X27583333Y-45133333D01*
X27450000Y-45133333D01*
X27383333Y-45166667D01*
X27350000Y-45200000D01*
X27316666Y-45266667D01*
X49037857Y-9169514D02*
X49228333Y-9836181D01*
X49418810Y-9359990D01*
X49609286Y-9836181D01*
X49799762Y-9169514D01*
X50085476Y-9169514D02*
X50275952Y-9836181D01*
X50466429Y-9359990D01*
X50656905Y-9836181D01*
X50847381Y-9169514D01*
X51133095Y-9169514D02*
X51323571Y-9836181D01*
X51514048Y-9359990D01*
X51704524Y-9836181D01*
X51895000Y-9169514D01*
X52275952Y-9740943D02*
X52323571Y-9788562D01*
X52275952Y-9836181D01*
X52228333Y-9788562D01*
X52275952Y-9740943D01*
X52275952Y-9836181D01*
X52704523Y-9788562D02*
X52799761Y-9836181D01*
X52990237Y-9836181D01*
X53085476Y-9788562D01*
X53133095Y-9693324D01*
X53133095Y-9645705D01*
X53085476Y-9550467D01*
X52990237Y-9502848D01*
X52847380Y-9502848D01*
X52752142Y-9455229D01*
X52704523Y-9359990D01*
X52704523Y-9312371D01*
X52752142Y-9217133D01*
X52847380Y-9169514D01*
X52990237Y-9169514D01*
X53085476Y-9217133D01*
X53990238Y-9169514D02*
X53990238Y-10169514D01*
X53990238Y-9788562D02*
X53895000Y-9836181D01*
X53704523Y-9836181D01*
X53609285Y-9788562D01*
X53561666Y-9740943D01*
X53514047Y-9645705D01*
X53514047Y-9359990D01*
X53561666Y-9264752D01*
X53609285Y-9217133D01*
X53704523Y-9169514D01*
X53895000Y-9169514D01*
X53990238Y-9217133D01*
X54895000Y-9169514D02*
X54895000Y-9836181D01*
X54466428Y-9169514D02*
X54466428Y-9693324D01*
X54514047Y-9788562D01*
X54609285Y-9836181D01*
X54752143Y-9836181D01*
X54847381Y-9788562D01*
X54895000Y-9740943D01*
X55371190Y-9836181D02*
X55371190Y-9169514D01*
X55371190Y-8836181D02*
X55323571Y-8883800D01*
X55371190Y-8931419D01*
X55418809Y-8883800D01*
X55371190Y-8836181D01*
X55371190Y-8931419D01*
X55847380Y-9836181D02*
X55847380Y-9169514D01*
X55847380Y-9359990D02*
X55894999Y-9264752D01*
X55942618Y-9217133D01*
X56037856Y-9169514D01*
X56133095Y-9169514D01*
X56466428Y-9836181D02*
X56466428Y-9169514D01*
X56466428Y-9359990D02*
X56514047Y-9264752D01*
X56561666Y-9217133D01*
X56656904Y-9169514D01*
X56752143Y-9169514D01*
X57466429Y-9788562D02*
X57371191Y-9836181D01*
X57180714Y-9836181D01*
X57085476Y-9788562D01*
X57037857Y-9693324D01*
X57037857Y-9312371D01*
X57085476Y-9217133D01*
X57180714Y-9169514D01*
X57371191Y-9169514D01*
X57466429Y-9217133D01*
X57514048Y-9312371D01*
X57514048Y-9407610D01*
X57037857Y-9502848D01*
X58085476Y-9836181D02*
X57990238Y-9788562D01*
X57942619Y-9693324D01*
X57942619Y-8836181D01*
X58466429Y-9455229D02*
X59228334Y-9455229D01*
X60085477Y-9788562D02*
X59990239Y-9836181D01*
X59799762Y-9836181D01*
X59704524Y-9788562D01*
X59656905Y-9693324D01*
X59656905Y-9312371D01*
X59704524Y-9217133D01*
X59799762Y-9169514D01*
X59990239Y-9169514D01*
X60085477Y-9217133D01*
X60133096Y-9312371D01*
X60133096Y-9407610D01*
X59656905Y-9502848D01*
X60704524Y-9836181D02*
X60609286Y-9788562D01*
X60561667Y-9693324D01*
X60561667Y-8836181D01*
X61466430Y-9788562D02*
X61371192Y-9836181D01*
X61180715Y-9836181D01*
X61085477Y-9788562D01*
X61037858Y-9693324D01*
X61037858Y-9312371D01*
X61085477Y-9217133D01*
X61180715Y-9169514D01*
X61371192Y-9169514D01*
X61466430Y-9217133D01*
X61514049Y-9312371D01*
X61514049Y-9407610D01*
X61037858Y-9502848D01*
X62371192Y-9788562D02*
X62275954Y-9836181D01*
X62085477Y-9836181D01*
X61990239Y-9788562D01*
X61942620Y-9740943D01*
X61895001Y-9645705D01*
X61895001Y-9359990D01*
X61942620Y-9264752D01*
X61990239Y-9217133D01*
X62085477Y-9169514D01*
X62275954Y-9169514D01*
X62371192Y-9217133D01*
X62656906Y-9169514D02*
X63037858Y-9169514D01*
X62799763Y-8836181D02*
X62799763Y-9693324D01*
X62847382Y-9788562D01*
X62942620Y-9836181D01*
X63037858Y-9836181D01*
X63371192Y-9836181D02*
X63371192Y-9169514D01*
X63371192Y-9359990D02*
X63418811Y-9264752D01*
X63466430Y-9217133D01*
X63561668Y-9169514D01*
X63656907Y-9169514D01*
X64133097Y-9836181D02*
X64037859Y-9788562D01*
X63990240Y-9740943D01*
X63942621Y-9645705D01*
X63942621Y-9359990D01*
X63990240Y-9264752D01*
X64037859Y-9217133D01*
X64133097Y-9169514D01*
X64275955Y-9169514D01*
X64371193Y-9217133D01*
X64418812Y-9264752D01*
X64466431Y-9359990D01*
X64466431Y-9645705D01*
X64418812Y-9740943D01*
X64371193Y-9788562D01*
X64275955Y-9836181D01*
X64133097Y-9836181D01*
X64895002Y-9169514D02*
X64895002Y-9836181D01*
X64895002Y-9264752D02*
X64942621Y-9217133D01*
X65037859Y-9169514D01*
X65180717Y-9169514D01*
X65275955Y-9217133D01*
X65323574Y-9312371D01*
X65323574Y-9836181D01*
X65799764Y-9836181D02*
X65799764Y-9169514D01*
X65799764Y-8836181D02*
X65752145Y-8883800D01*
X65799764Y-8931419D01*
X65847383Y-8883800D01*
X65799764Y-8836181D01*
X65799764Y-8931419D01*
X66704526Y-9788562D02*
X66609288Y-9836181D01*
X66418811Y-9836181D01*
X66323573Y-9788562D01*
X66275954Y-9740943D01*
X66228335Y-9645705D01*
X66228335Y-9359990D01*
X66275954Y-9264752D01*
X66323573Y-9217133D01*
X66418811Y-9169514D01*
X66609288Y-9169514D01*
X66704526Y-9217133D01*
X67085478Y-9788562D02*
X67180716Y-9836181D01*
X67371192Y-9836181D01*
X67466431Y-9788562D01*
X67514050Y-9693324D01*
X67514050Y-9645705D01*
X67466431Y-9550467D01*
X67371192Y-9502848D01*
X67228335Y-9502848D01*
X67133097Y-9455229D01*
X67085478Y-9359990D01*
X67085478Y-9312371D01*
X67133097Y-9217133D01*
X67228335Y-9169514D01*
X67371192Y-9169514D01*
X67466431Y-9217133D01*
X67942621Y-9740943D02*
X67990240Y-9788562D01*
X67942621Y-9836181D01*
X67895002Y-9788562D01*
X67942621Y-9740943D01*
X67942621Y-9836181D01*
X68847383Y-9788562D02*
X68752145Y-9836181D01*
X68561668Y-9836181D01*
X68466430Y-9788562D01*
X68418811Y-9740943D01*
X68371192Y-9645705D01*
X68371192Y-9359990D01*
X68418811Y-9264752D01*
X68466430Y-9217133D01*
X68561668Y-9169514D01*
X68752145Y-9169514D01*
X68847383Y-9217133D01*
X69418811Y-9836181D02*
X69323573Y-9788562D01*
X69275954Y-9740943D01*
X69228335Y-9645705D01*
X69228335Y-9359990D01*
X69275954Y-9264752D01*
X69323573Y-9217133D01*
X69418811Y-9169514D01*
X69561669Y-9169514D01*
X69656907Y-9217133D01*
X69704526Y-9264752D01*
X69752145Y-9359990D01*
X69752145Y-9645705D01*
X69704526Y-9740943D01*
X69656907Y-9788562D01*
X69561669Y-9836181D01*
X69418811Y-9836181D01*
X70180716Y-9836181D02*
X70180716Y-9169514D01*
X70180716Y-9264752D02*
X70228335Y-9217133D01*
X70323573Y-9169514D01*
X70466431Y-9169514D01*
X70561669Y-9217133D01*
X70609288Y-9312371D01*
X70609288Y-9836181D01*
X70609288Y-9312371D02*
X70656907Y-9217133D01*
X70752145Y-9169514D01*
X70895002Y-9169514D01*
X70990240Y-9217133D01*
X71037859Y-9312371D01*
X71037859Y-9836181D01*
X49704524Y-11293343D02*
X49656905Y-11340962D01*
X49514048Y-11388581D01*
X49418810Y-11388581D01*
X49275952Y-11340962D01*
X49180714Y-11245724D01*
X49133095Y-11150486D01*
X49085476Y-10960010D01*
X49085476Y-10817152D01*
X49133095Y-10626676D01*
X49180714Y-10531438D01*
X49275952Y-10436200D01*
X49418810Y-10388581D01*
X49514048Y-10388581D01*
X49656905Y-10436200D01*
X49704524Y-10483819D01*
X50133095Y-11388581D02*
X50133095Y-10721914D01*
X50133095Y-10912390D02*
X50180714Y-10817152D01*
X50228333Y-10769533D01*
X50323571Y-10721914D01*
X50418810Y-10721914D01*
X51133096Y-11340962D02*
X51037858Y-11388581D01*
X50847381Y-11388581D01*
X50752143Y-11340962D01*
X50704524Y-11245724D01*
X50704524Y-10864771D01*
X50752143Y-10769533D01*
X50847381Y-10721914D01*
X51037858Y-10721914D01*
X51133096Y-10769533D01*
X51180715Y-10864771D01*
X51180715Y-10960010D01*
X50704524Y-11055248D01*
X52037858Y-11388581D02*
X52037858Y-10864771D01*
X51990239Y-10769533D01*
X51895001Y-10721914D01*
X51704524Y-10721914D01*
X51609286Y-10769533D01*
X52037858Y-11340962D02*
X51942620Y-11388581D01*
X51704524Y-11388581D01*
X51609286Y-11340962D01*
X51561667Y-11245724D01*
X51561667Y-11150486D01*
X51609286Y-11055248D01*
X51704524Y-11007629D01*
X51942620Y-11007629D01*
X52037858Y-10960010D01*
X52371191Y-10721914D02*
X52752143Y-10721914D01*
X52514048Y-10388581D02*
X52514048Y-11245724D01*
X52561667Y-11340962D01*
X52656905Y-11388581D01*
X52752143Y-11388581D01*
X53466430Y-11340962D02*
X53371192Y-11388581D01*
X53180715Y-11388581D01*
X53085477Y-11340962D01*
X53037858Y-11245724D01*
X53037858Y-10864771D01*
X53085477Y-10769533D01*
X53180715Y-10721914D01*
X53371192Y-10721914D01*
X53466430Y-10769533D01*
X53514049Y-10864771D01*
X53514049Y-10960010D01*
X53037858Y-11055248D01*
X54371192Y-11388581D02*
X54371192Y-10388581D01*
X54371192Y-11340962D02*
X54275954Y-11388581D01*
X54085477Y-11388581D01*
X53990239Y-11340962D01*
X53942620Y-11293343D01*
X53895001Y-11198105D01*
X53895001Y-10912390D01*
X53942620Y-10817152D01*
X53990239Y-10769533D01*
X54085477Y-10721914D01*
X54275954Y-10721914D01*
X54371192Y-10769533D01*
X55514049Y-10721914D02*
X55704525Y-11388581D01*
X55895002Y-10912390D01*
X56085478Y-11388581D01*
X56275954Y-10721914D01*
X56656906Y-11388581D02*
X56656906Y-10721914D01*
X56656906Y-10388581D02*
X56609287Y-10436200D01*
X56656906Y-10483819D01*
X56704525Y-10436200D01*
X56656906Y-10388581D01*
X56656906Y-10483819D01*
X56990239Y-10721914D02*
X57371191Y-10721914D01*
X57133096Y-10388581D02*
X57133096Y-11245724D01*
X57180715Y-11340962D01*
X57275953Y-11388581D01*
X57371191Y-11388581D01*
X57704525Y-11388581D02*
X57704525Y-10388581D01*
X58133097Y-11388581D02*
X58133097Y-10864771D01*
X58085478Y-10769533D01*
X57990240Y-10721914D01*
X57847382Y-10721914D01*
X57752144Y-10769533D01*
X57704525Y-10817152D01*
X59371192Y-11388581D02*
X59371192Y-10388581D01*
X59942621Y-11388581D02*
X59514049Y-10817152D01*
X59942621Y-10388581D02*
X59371192Y-10960010D01*
X60371192Y-11388581D02*
X60371192Y-10721914D01*
X60371192Y-10388581D02*
X60323573Y-10436200D01*
X60371192Y-10483819D01*
X60418811Y-10436200D01*
X60371192Y-10388581D01*
X60371192Y-10483819D01*
X61418811Y-11293343D02*
X61371192Y-11340962D01*
X61228335Y-11388581D01*
X61133097Y-11388581D01*
X60990239Y-11340962D01*
X60895001Y-11245724D01*
X60847382Y-11150486D01*
X60799763Y-10960010D01*
X60799763Y-10817152D01*
X60847382Y-10626676D01*
X60895001Y-10531438D01*
X60990239Y-10436200D01*
X61133097Y-10388581D01*
X61228335Y-10388581D01*
X61371192Y-10436200D01*
X61418811Y-10483819D01*
X62275954Y-11388581D02*
X62275954Y-10864771D01*
X62228335Y-10769533D01*
X62133097Y-10721914D01*
X61942620Y-10721914D01*
X61847382Y-10769533D01*
X62275954Y-11340962D02*
X62180716Y-11388581D01*
X61942620Y-11388581D01*
X61847382Y-11340962D01*
X61799763Y-11245724D01*
X61799763Y-11150486D01*
X61847382Y-11055248D01*
X61942620Y-11007629D01*
X62180716Y-11007629D01*
X62275954Y-10960010D01*
X63180716Y-11388581D02*
X63180716Y-10388581D01*
X63180716Y-11340962D02*
X63085478Y-11388581D01*
X62895001Y-11388581D01*
X62799763Y-11340962D01*
X62752144Y-11293343D01*
X62704525Y-11198105D01*
X62704525Y-10912390D01*
X62752144Y-10817152D01*
X62799763Y-10769533D01*
X62895001Y-10721914D01*
X63085478Y-10721914D01*
X63180716Y-10769533D01*
X61316668Y-45316667D02*
X61316668Y-44616667D01*
X61483334Y-44616667D01*
X61583334Y-44650000D01*
X61650001Y-44716667D01*
X61683334Y-44783333D01*
X61716668Y-44916667D01*
X61716668Y-45016667D01*
X61683334Y-45150000D01*
X61650001Y-45216667D01*
X61583334Y-45283333D01*
X61483334Y-45316667D01*
X61316668Y-45316667D01*
X62283334Y-45283333D02*
X62216668Y-45316667D01*
X62083334Y-45316667D01*
X62016668Y-45283333D01*
X61983334Y-45216667D01*
X61983334Y-44950000D01*
X62016668Y-44883333D01*
X62083334Y-44850000D01*
X62216668Y-44850000D01*
X62283334Y-44883333D01*
X62316668Y-44950000D01*
X62316668Y-45016667D01*
X61983334Y-45083333D01*
X62616668Y-45316667D02*
X62616668Y-44616667D01*
X62616668Y-44883333D02*
X62683334Y-44850000D01*
X62816668Y-44850000D01*
X62883334Y-44883333D01*
X62916668Y-44916667D01*
X62950001Y-44983333D01*
X62950001Y-45183333D01*
X62916668Y-45250000D01*
X62883334Y-45283333D01*
X62816668Y-45316667D01*
X62683334Y-45316667D01*
X62616668Y-45283333D01*
X63550001Y-44850000D02*
X63550001Y-45316667D01*
X63250001Y-44850000D02*
X63250001Y-45216667D01*
X63283334Y-45283333D01*
X63350001Y-45316667D01*
X63450001Y-45316667D01*
X63516667Y-45283333D01*
X63550001Y-45250000D01*
X64183334Y-44850000D02*
X64183334Y-45416667D01*
X64150000Y-45483333D01*
X64116667Y-45516667D01*
X64050000Y-45550000D01*
X63950000Y-45550000D01*
X63883334Y-45516667D01*
X64183334Y-45283333D02*
X64116667Y-45316667D01*
X63983334Y-45316667D01*
X63916667Y-45283333D01*
X63883334Y-45250000D01*
X63850000Y-45183333D01*
X63850000Y-44983333D01*
X63883334Y-44916667D01*
X63916667Y-44883333D01*
X63983334Y-44850000D01*
X64116667Y-44850000D01*
X64183334Y-44883333D01*
X65050000Y-45316667D02*
X65050000Y-44616667D01*
X65316666Y-44616667D01*
X65383333Y-44650000D01*
X65416666Y-44683333D01*
X65450000Y-44750000D01*
X65450000Y-44850000D01*
X65416666Y-44916667D01*
X65383333Y-44950000D01*
X65316666Y-44983333D01*
X65050000Y-44983333D01*
X65716666Y-45116667D02*
X66050000Y-45116667D01*
X65650000Y-45316667D02*
X65883333Y-44616667D01*
X66116666Y-45316667D01*
X66716666Y-45316667D02*
X66316666Y-45316667D01*
X66516666Y-45316667D02*
X66516666Y-44616667D01*
X66450000Y-44716667D01*
X66383333Y-44783333D01*
X66316666Y-44816667D01*
X34690334Y-11492667D02*
X34690334Y-10792667D01*
X34690334Y-11126000D02*
X35090334Y-11126000D01*
X35090334Y-11492667D02*
X35090334Y-10792667D01*
X35390333Y-11459333D02*
X35490333Y-11492667D01*
X35657000Y-11492667D01*
X35723667Y-11459333D01*
X35757000Y-11426000D01*
X35790333Y-11359333D01*
X35790333Y-11292667D01*
X35757000Y-11226000D01*
X35723667Y-11192667D01*
X35657000Y-11159333D01*
X35523667Y-11126000D01*
X35457000Y-11092667D01*
X35423667Y-11059333D01*
X35390333Y-10992667D01*
X35390333Y-10926000D01*
X35423667Y-10859333D01*
X35457000Y-10826000D01*
X35523667Y-10792667D01*
X35690333Y-10792667D01*
X35790333Y-10826000D01*
X36023667Y-10792667D02*
X36190334Y-11492667D01*
X36323667Y-10992667D01*
X36457000Y-11492667D01*
X36623667Y-10792667D01*
X36857000Y-11292667D02*
X37190334Y-11292667D01*
X36790334Y-11492667D02*
X37023667Y-10792667D01*
X37257000Y-11492667D01*
X37490334Y-11492667D02*
X37490334Y-10792667D01*
X37757000Y-10792667D01*
X37823667Y-10826000D01*
X37857000Y-10859333D01*
X37890334Y-10926000D01*
X37890334Y-11026000D01*
X37857000Y-11092667D01*
X37823667Y-11126000D01*
X37757000Y-11159333D01*
X37490334Y-11159333D01*
X38190334Y-11126000D02*
X38423667Y-11126000D01*
X38523667Y-11492667D02*
X38190334Y-11492667D01*
X38190334Y-10792667D01*
X38523667Y-10792667D01*
X38823667Y-11492667D02*
X38823667Y-10792667D01*
X39223667Y-11492667D01*
X39223667Y-10792667D01*
X27654667Y-17334667D02*
X27254667Y-17334667D01*
X27454667Y-17334667D02*
X27454667Y-16634667D01*
X27388001Y-16734667D01*
X27321334Y-16801333D01*
X27254667Y-16834667D01*
X27954668Y-17268000D02*
X27988001Y-17301333D01*
X27954668Y-17334667D01*
X27921334Y-17301333D01*
X27954668Y-17268000D01*
X27954668Y-17334667D01*
X27954668Y-16901333D02*
X27988001Y-16934667D01*
X27954668Y-16968000D01*
X27921334Y-16934667D01*
X27954668Y-16901333D01*
X27954668Y-16968000D01*
X28288001Y-17334667D02*
X28288001Y-16634667D01*
X28521334Y-17134667D01*
X28754667Y-16634667D01*
X28754667Y-17334667D01*
X29388001Y-16868000D02*
X29388001Y-17334667D01*
X29088001Y-16868000D02*
X29088001Y-17234667D01*
X29121334Y-17301333D01*
X29188001Y-17334667D01*
X29288001Y-17334667D01*
X29354667Y-17301333D01*
X29388001Y-17268000D01*
X29654667Y-17334667D02*
X30021334Y-16868000D01*
X29654667Y-16868000D02*
X30021334Y-17334667D01*
X30788000Y-17134667D02*
X31121334Y-17134667D01*
X30721334Y-17334667D02*
X30954667Y-16634667D01*
X31188000Y-17334667D01*
X31421334Y-17334667D02*
X31421334Y-16634667D01*
X31588000Y-16634667D01*
X31688000Y-16668000D01*
X31754667Y-16734667D01*
X31788000Y-16801333D01*
X31821334Y-16934667D01*
X31821334Y-17034667D01*
X31788000Y-17168000D01*
X31754667Y-17234667D01*
X31688000Y-17301333D01*
X31588000Y-17334667D01*
X31421334Y-17334667D01*
X32521334Y-17268000D02*
X32488000Y-17301333D01*
X32388000Y-17334667D01*
X32321334Y-17334667D01*
X32221334Y-17301333D01*
X32154667Y-17234667D01*
X32121334Y-17168000D01*
X32088000Y-17034667D01*
X32088000Y-16934667D01*
X32121334Y-16801333D01*
X32154667Y-16734667D01*
X32221334Y-16668000D01*
X32321334Y-16634667D01*
X32388000Y-16634667D01*
X32488000Y-16668000D01*
X32521334Y-16701333D01*
X33454667Y-17334667D02*
X33388000Y-17301333D01*
X33354667Y-17268000D01*
X33321333Y-17201333D01*
X33321333Y-17001333D01*
X33354667Y-16934667D01*
X33388000Y-16901333D01*
X33454667Y-16868000D01*
X33554667Y-16868000D01*
X33621333Y-16901333D01*
X33654667Y-16934667D01*
X33688000Y-17001333D01*
X33688000Y-17201333D01*
X33654667Y-17268000D01*
X33621333Y-17301333D01*
X33554667Y-17334667D01*
X33454667Y-17334667D01*
X34288000Y-16868000D02*
X34288000Y-17334667D01*
X33988000Y-16868000D02*
X33988000Y-17234667D01*
X34021333Y-17301333D01*
X34088000Y-17334667D01*
X34188000Y-17334667D01*
X34254666Y-17301333D01*
X34288000Y-17268000D01*
X34521333Y-16868000D02*
X34787999Y-16868000D01*
X34621333Y-16634667D02*
X34621333Y-17234667D01*
X34654666Y-17301333D01*
X34721333Y-17334667D01*
X34787999Y-17334667D01*
X21910467Y-1598999D02*
X21910467Y-1532332D01*
X21943800Y-1465666D01*
X21977133Y-1432332D01*
X22043800Y-1398999D01*
X22177133Y-1365666D01*
X22343800Y-1365666D01*
X22477133Y-1398999D01*
X22543800Y-1432332D01*
X22577133Y-1465666D01*
X22610467Y-1532332D01*
X22610467Y-1598999D01*
X22577133Y-1665666D01*
X22543800Y-1698999D01*
X22477133Y-1732332D01*
X22343800Y-1765666D01*
X22177133Y-1765666D01*
X22043800Y-1732332D01*
X21977133Y-1698999D01*
X21943800Y-1665666D01*
X21910467Y-1598999D01*
X22543800Y-1065665D02*
X22577133Y-1032332D01*
X22610467Y-1065665D01*
X22577133Y-1098999D01*
X22543800Y-1065665D01*
X22610467Y-1065665D01*
X22177133Y-1065665D02*
X22210467Y-1032332D01*
X22243800Y-1065665D01*
X22210467Y-1098999D01*
X22177133Y-1065665D01*
X22243800Y-1065665D01*
X21910467Y-198999D02*
X22477133Y-198999D01*
X22543800Y-165666D01*
X22577133Y-132333D01*
X22610467Y-65666D01*
X22610467Y67667D01*
X22577133Y134334D01*
X22543800Y167667D01*
X22477133Y201001D01*
X21910467Y201001D01*
X22577133Y501000D02*
X22610467Y567667D01*
X22610467Y701000D01*
X22577133Y767667D01*
X22510467Y801000D01*
X22477133Y801000D01*
X22410467Y767667D01*
X22377133Y701000D01*
X22377133Y601000D01*
X22343800Y534334D01*
X22277133Y501000D01*
X22243800Y501000D01*
X22177133Y534334D01*
X22143800Y601000D01*
X22143800Y701000D01*
X22177133Y767667D01*
X22577133Y1367667D02*
X22610467Y1301001D01*
X22610467Y1167667D01*
X22577133Y1101001D01*
X22510467Y1067667D01*
X22243800Y1067667D01*
X22177133Y1101001D01*
X22143800Y1167667D01*
X22143800Y1301001D01*
X22177133Y1367667D01*
X22243800Y1401001D01*
X22310467Y1401001D01*
X22377133Y1067667D01*
X22243800Y2467667D02*
X22243800Y2234334D01*
X22610467Y2234334D02*
X21910467Y2234334D01*
X21910467Y2567667D01*
X22610467Y2834334D02*
X21910467Y2834334D01*
X21910467Y3101000D01*
X21943800Y3167667D01*
X21977133Y3201000D01*
X22043800Y3234334D01*
X22143800Y3234334D01*
X22210467Y3201000D01*
X22243800Y3167667D01*
X22277133Y3101000D01*
X22277133Y2834334D01*
X21943800Y3901000D02*
X21910467Y3834334D01*
X21910467Y3734334D01*
X21943800Y3634334D01*
X22010467Y3567667D01*
X22077133Y3534334D01*
X22210467Y3501000D01*
X22310467Y3501000D01*
X22443800Y3534334D01*
X22510467Y3567667D01*
X22577133Y3634334D01*
X22610467Y3734334D01*
X22610467Y3801000D01*
X22577133Y3901000D01*
X22543800Y3934334D01*
X22310467Y3934334D01*
X22310467Y3801000D01*
X22410467Y4201000D02*
X22410467Y4534334D01*
X22610467Y4134334D02*
X21910467Y4367667D01*
X22610467Y4601000D01*
X23742867Y-782333D02*
X23376200Y-782333D01*
X23309533Y-815667D01*
X23276200Y-882333D01*
X23276200Y-1015667D01*
X23309533Y-1082333D01*
X23709533Y-782333D02*
X23742867Y-849000D01*
X23742867Y-1015667D01*
X23709533Y-1082333D01*
X23642867Y-1115667D01*
X23576200Y-1115667D01*
X23509533Y-1082333D01*
X23476200Y-1015667D01*
X23476200Y-849000D01*
X23442867Y-782333D01*
X23709533Y-482334D02*
X23742867Y-415667D01*
X23742867Y-282334D01*
X23709533Y-215667D01*
X23642867Y-182334D01*
X23609533Y-182334D01*
X23542867Y-215667D01*
X23509533Y-282334D01*
X23509533Y-382334D01*
X23476200Y-449000D01*
X23409533Y-482334D01*
X23376200Y-482334D01*
X23309533Y-449000D01*
X23276200Y-382334D01*
X23276200Y-282334D01*
X23309533Y-215667D01*
X23542867Y617666D02*
X23542867Y951000D01*
X23742867Y551000D02*
X23042867Y784333D01*
X23742867Y1017666D01*
X23742867Y1251000D02*
X23042867Y1251000D01*
X23042867Y1417666D01*
X23076200Y1517666D01*
X23142867Y1584333D01*
X23209533Y1617666D01*
X23342867Y1651000D01*
X23442867Y1651000D01*
X23576200Y1617666D01*
X23642867Y1584333D01*
X23709533Y1517666D01*
X23742867Y1417666D01*
X23742867Y1251000D01*
X23676200Y2351000D02*
X23709533Y2317666D01*
X23742867Y2217666D01*
X23742867Y2151000D01*
X23709533Y2051000D01*
X23642867Y1984333D01*
X23576200Y1951000D01*
X23442867Y1917666D01*
X23342867Y1917666D01*
X23209533Y1951000D01*
X23142867Y1984333D01*
X23076200Y2051000D01*
X23042867Y2151000D01*
X23042867Y2217666D01*
X23076200Y2317666D01*
X23109533Y2351000D01*
X23709533Y3484333D02*
X23742867Y3417666D01*
X23742867Y3284333D01*
X23709533Y3217666D01*
X23676200Y3184333D01*
X23609533Y3150999D01*
X23409533Y3150999D01*
X23342867Y3184333D01*
X23309533Y3217666D01*
X23276200Y3284333D01*
X23276200Y3417666D01*
X23309533Y3484333D01*
X23742867Y3884333D02*
X23709533Y3817666D01*
X23642867Y3784333D01*
X23042867Y3784333D01*
X23742867Y4151000D02*
X23042867Y4151000D01*
X23476200Y4217666D02*
X23742867Y4417666D01*
X23276200Y4417666D02*
X23542867Y4151000D01*
X36782381Y2452619D02*
X36877620Y2452619D01*
X36972858Y2405000D01*
X37020477Y2357381D01*
X37068096Y2262143D01*
X37115715Y2071667D01*
X37115715Y1833571D01*
X37068096Y1643095D01*
X37020477Y1547857D01*
X36972858Y1500238D01*
X36877620Y1452619D01*
X36782381Y1452619D01*
X36687143Y1500238D01*
X36639524Y1547857D01*
X36591905Y1643095D01*
X36544286Y1833571D01*
X36544286Y2071667D01*
X36591905Y2262143D01*
X36639524Y2357381D01*
X36687143Y2405000D01*
X36782381Y2452619D01*
X37115715Y2722619D02*
X36544286Y2722619D01*
X36830000Y2722619D02*
X36830000Y3722619D01*
X36734762Y3579762D01*
X36639524Y3484524D01*
X36544286Y3436905D01*
X40606667Y-63116667D02*
X40673334Y-63116667D01*
X40740000Y-63150000D01*
X40773334Y-63183333D01*
X40806667Y-63250000D01*
X40840000Y-63383333D01*
X40840000Y-63550000D01*
X40806667Y-63683333D01*
X40773334Y-63750000D01*
X40740000Y-63783333D01*
X40673334Y-63816667D01*
X40606667Y-63816667D01*
X40540000Y-63783333D01*
X40506667Y-63750000D01*
X40473334Y-63683333D01*
X40440000Y-63550000D01*
X40440000Y-63383333D01*
X40473334Y-63250000D01*
X40506667Y-63183333D01*
X40540000Y-63150000D01*
X40606667Y-63116667D01*
X51000000Y-63816667D02*
X50600000Y-63816667D01*
X50800000Y-63816667D02*
X50800000Y-63116667D01*
X50733334Y-63216667D01*
X50666667Y-63283333D01*
X50600000Y-63316667D01*
X49846667Y-55208332D02*
X49146667Y-55208332D01*
X49146667Y-55041666D01*
X49180000Y-54941666D01*
X49246667Y-54874999D01*
X49313333Y-54841666D01*
X49446667Y-54808332D01*
X49546667Y-54808332D01*
X49680000Y-54841666D01*
X49746667Y-54874999D01*
X49813333Y-54941666D01*
X49846667Y-55041666D01*
X49846667Y-55208332D01*
X49146667Y-54374999D02*
X49146667Y-54241666D01*
X49180000Y-54174999D01*
X49246667Y-54108332D01*
X49380000Y-54074999D01*
X49613333Y-54074999D01*
X49746667Y-54108332D01*
X49813333Y-54174999D01*
X49846667Y-54241666D01*
X49846667Y-54374999D01*
X49813333Y-54441666D01*
X49746667Y-54508332D01*
X49613333Y-54541666D01*
X49380000Y-54541666D01*
X49246667Y-54508332D01*
X49180000Y-54441666D01*
X49146667Y-54374999D01*
X49846667Y-53774999D02*
X49146667Y-53774999D01*
X49846667Y-53374999D01*
X49146667Y-53374999D01*
X49480000Y-53041666D02*
X49480000Y-52808333D01*
X49846667Y-52708333D02*
X49846667Y-53041666D01*
X49146667Y-53041666D01*
X49146667Y-52708333D01*
X41591667Y-55391665D02*
X40891667Y-55391665D01*
X41591667Y-55058332D02*
X40891667Y-55058332D01*
X41591667Y-54658332D01*
X40891667Y-54658332D01*
X41591667Y-54324999D02*
X40891667Y-54324999D01*
X40891667Y-54091666D02*
X40891667Y-53691666D01*
X41591667Y-53891666D02*
X40891667Y-53891666D01*
X41658333Y-53625000D02*
X41658333Y-53091667D01*
X41225000Y-52691667D02*
X41258333Y-52591667D01*
X41291667Y-52558334D01*
X41358333Y-52525000D01*
X41458333Y-52525000D01*
X41525000Y-52558334D01*
X41558333Y-52591667D01*
X41591667Y-52658334D01*
X41591667Y-52925000D01*
X40891667Y-52925000D01*
X40891667Y-52691667D01*
X40925000Y-52625000D01*
X40958333Y-52591667D01*
X41025000Y-52558334D01*
X41091667Y-52558334D01*
X41158333Y-52591667D01*
X41191667Y-52625000D01*
X41225000Y-52691667D01*
X41225000Y-52925000D01*
X47860000Y-61911667D02*
X47460000Y-61911667D01*
X47660000Y-61911667D02*
X47660000Y-61211667D01*
X47593334Y-61311667D01*
X47526667Y-61378333D01*
X47460000Y-61411667D01*
X48826667Y-61211667D02*
X48893334Y-61211667D01*
X48960000Y-61245000D01*
X48993334Y-61278333D01*
X49026667Y-61345000D01*
X49060000Y-61478333D01*
X49060000Y-61645000D01*
X49026667Y-61778333D01*
X48993334Y-61845000D01*
X48960000Y-61878333D01*
X48893334Y-61911667D01*
X48826667Y-61911667D01*
X48760000Y-61878333D01*
X48726667Y-61845000D01*
X48693334Y-61778333D01*
X48660000Y-61645000D01*
X48660000Y-61478333D01*
X48693334Y-61345000D01*
X48726667Y-61278333D01*
X48760000Y-61245000D01*
X48826667Y-61211667D01*
X41911667Y-61211667D02*
X41978334Y-61211667D01*
X42045000Y-61245000D01*
X42078334Y-61278333D01*
X42111667Y-61345000D01*
X42145000Y-61478333D01*
X42145000Y-61645000D01*
X42111667Y-61778333D01*
X42078334Y-61845000D01*
X42045000Y-61878333D01*
X41978334Y-61911667D01*
X41911667Y-61911667D01*
X41845000Y-61878333D01*
X41811667Y-61845000D01*
X41778334Y-61778333D01*
X41745000Y-61645000D01*
X41745000Y-61478333D01*
X41778334Y-61345000D01*
X41811667Y-61278333D01*
X41845000Y-61245000D01*
X41911667Y-61211667D01*
X43345000Y-61911667D02*
X42945000Y-61911667D01*
X43145000Y-61911667D02*
X43145000Y-61211667D01*
X43078334Y-61311667D01*
X43011667Y-61378333D01*
X42945000Y-61411667D01*
X45142666Y3999667D02*
X45142666Y3299667D01*
X44876000Y3299667D01*
X44809333Y3333000D01*
X44776000Y3366333D01*
X44742666Y3433000D01*
X44742666Y3533000D01*
X44776000Y3599667D01*
X44809333Y3633000D01*
X44876000Y3666333D01*
X45142666Y3666333D01*
X44142666Y3533000D02*
X44142666Y3999667D01*
X44442666Y3533000D02*
X44442666Y3899667D01*
X44409333Y3966333D01*
X44342666Y3999667D01*
X44242666Y3999667D01*
X44176000Y3966333D01*
X44142666Y3933000D01*
X43842667Y3966333D02*
X43776000Y3999667D01*
X43642667Y3999667D01*
X43576000Y3966333D01*
X43542667Y3899667D01*
X43542667Y3866333D01*
X43576000Y3799667D01*
X43642667Y3766333D01*
X43742667Y3766333D01*
X43809333Y3733000D01*
X43842667Y3666333D01*
X43842667Y3633000D01*
X43809333Y3566333D01*
X43742667Y3533000D01*
X43642667Y3533000D01*
X43576000Y3566333D01*
X43242666Y3999667D02*
X43242666Y3299667D01*
X42942666Y3999667D02*
X42942666Y3633000D01*
X42976000Y3566333D01*
X43042666Y3533000D01*
X43142666Y3533000D01*
X43209333Y3566333D01*
X43242666Y3599667D01*
X42309333Y3999667D02*
X42309333Y3633000D01*
X42342667Y3566333D01*
X42409333Y3533000D01*
X42542667Y3533000D01*
X42609333Y3566333D01*
X42309333Y3966333D02*
X42376000Y3999667D01*
X42542667Y3999667D01*
X42609333Y3966333D01*
X42642667Y3899667D01*
X42642667Y3833000D01*
X42609333Y3766333D01*
X42542667Y3733000D01*
X42376000Y3733000D01*
X42309333Y3699667D01*
X41976000Y3999667D02*
X41976000Y3299667D01*
X41976000Y3566333D02*
X41909334Y3533000D01*
X41776000Y3533000D01*
X41709334Y3566333D01*
X41676000Y3599667D01*
X41642667Y3666333D01*
X41642667Y3866333D01*
X41676000Y3933000D01*
X41709334Y3966333D01*
X41776000Y3999667D01*
X41909334Y3999667D01*
X41976000Y3966333D01*
X41242667Y3999667D02*
X41309334Y3966333D01*
X41342667Y3899667D01*
X41342667Y3299667D01*
X40709334Y3966333D02*
X40776000Y3999667D01*
X40909334Y3999667D01*
X40976000Y3966333D01*
X41009334Y3899667D01*
X41009334Y3633000D01*
X40976000Y3566333D01*
X40909334Y3533000D01*
X40776000Y3533000D01*
X40709334Y3566333D01*
X40676000Y3633000D01*
X40676000Y3699667D01*
X41009334Y3766333D01*
D12*
X19748572Y-73132143D02*
X20891429Y-73132143D01*
X33718572Y-73132143D02*
X34861429Y-73132143D01*
X34290000Y-73703571D02*
X34290000Y-72560714D01*
D11*
X34860667Y-65552333D02*
X34527333Y-65785667D01*
X34860667Y-65952333D02*
X34160667Y-65952333D01*
X34160667Y-65685667D01*
X34194000Y-65619000D01*
X34227333Y-65585667D01*
X34294000Y-65552333D01*
X34394000Y-65552333D01*
X34460667Y-65585667D01*
X34494000Y-65619000D01*
X34527333Y-65685667D01*
X34527333Y-65952333D01*
X34827333Y-64985667D02*
X34860667Y-65052333D01*
X34860667Y-65185667D01*
X34827333Y-65252333D01*
X34760667Y-65285667D01*
X34494000Y-65285667D01*
X34427333Y-65252333D01*
X34394000Y-65185667D01*
X34394000Y-65052333D01*
X34427333Y-64985667D01*
X34494000Y-64952333D01*
X34560667Y-64952333D01*
X34627333Y-65285667D01*
X34827333Y-64685667D02*
X34860667Y-64619000D01*
X34860667Y-64485667D01*
X34827333Y-64419000D01*
X34760667Y-64385667D01*
X34727333Y-64385667D01*
X34660667Y-64419000D01*
X34627333Y-64485667D01*
X34627333Y-64585667D01*
X34594000Y-64652333D01*
X34527333Y-64685667D01*
X34494000Y-64685667D01*
X34427333Y-64652333D01*
X34394000Y-64585667D01*
X34394000Y-64485667D01*
X34427333Y-64419000D01*
X34827333Y-63819000D02*
X34860667Y-63885666D01*
X34860667Y-64019000D01*
X34827333Y-64085666D01*
X34760667Y-64119000D01*
X34494000Y-64119000D01*
X34427333Y-64085666D01*
X34394000Y-64019000D01*
X34394000Y-63885666D01*
X34427333Y-63819000D01*
X34494000Y-63785666D01*
X34560667Y-63785666D01*
X34627333Y-64119000D01*
X34394000Y-63585666D02*
X34394000Y-63319000D01*
X34160667Y-63485666D02*
X34760667Y-63485666D01*
X34827333Y-63452333D01*
X34860667Y-63385666D01*
X34860667Y-63319000D01*
X34494000Y-62319000D02*
X34494000Y-62552333D01*
X34860667Y-62552333D02*
X34160667Y-62552333D01*
X34160667Y-62219000D01*
X34860667Y-61952333D02*
X34160667Y-61952333D01*
X34160667Y-61685667D01*
X34194000Y-61619000D01*
X34227333Y-61585667D01*
X34294000Y-61552333D01*
X34394000Y-61552333D01*
X34460667Y-61585667D01*
X34494000Y-61619000D01*
X34527333Y-61685667D01*
X34527333Y-61952333D01*
X34194000Y-60885667D02*
X34160667Y-60952333D01*
X34160667Y-61052333D01*
X34194000Y-61152333D01*
X34260667Y-61219000D01*
X34327333Y-61252333D01*
X34460667Y-61285667D01*
X34560667Y-61285667D01*
X34694000Y-61252333D01*
X34760667Y-61219000D01*
X34827333Y-61152333D01*
X34860667Y-61052333D01*
X34860667Y-60985667D01*
X34827333Y-60885667D01*
X34794000Y-60852333D01*
X34560667Y-60852333D01*
X34560667Y-60985667D01*
X34660667Y-60585667D02*
X34660667Y-60252333D01*
X34860667Y-60652333D02*
X34160667Y-60419000D01*
X34860667Y-60185667D01*
X6475001Y-38986667D02*
X6908334Y-38986667D01*
X6675001Y-39253333D01*
X6775001Y-39253333D01*
X6841668Y-39286667D01*
X6875001Y-39320000D01*
X6908334Y-39386667D01*
X6908334Y-39553333D01*
X6875001Y-39620000D01*
X6841668Y-39653333D01*
X6775001Y-39686667D01*
X6575001Y-39686667D01*
X6508334Y-39653333D01*
X6475001Y-39620000D01*
X7208335Y-39620000D02*
X7241668Y-39653333D01*
X7208335Y-39686667D01*
X7175001Y-39653333D01*
X7208335Y-39620000D01*
X7208335Y-39686667D01*
X7475001Y-38986667D02*
X7908334Y-38986667D01*
X7675001Y-39253333D01*
X7775001Y-39253333D01*
X7841668Y-39286667D01*
X7875001Y-39320000D01*
X7908334Y-39386667D01*
X7908334Y-39553333D01*
X7875001Y-39620000D01*
X7841668Y-39653333D01*
X7775001Y-39686667D01*
X7575001Y-39686667D01*
X7508334Y-39653333D01*
X7475001Y-39620000D01*
X8108335Y-38986667D02*
X8341668Y-39686667D01*
X8575001Y-38986667D01*
X9308334Y-39486667D02*
X9641668Y-39486667D01*
X9241668Y-39686667D02*
X9475001Y-38986667D01*
X9708334Y-39686667D01*
X9941668Y-39220000D02*
X9941668Y-39686667D01*
X9941668Y-39286667D02*
X9975001Y-39253333D01*
X10041668Y-39220000D01*
X10141668Y-39220000D01*
X10208334Y-39253333D01*
X10241668Y-39320000D01*
X10241668Y-39686667D01*
X10875001Y-39686667D02*
X10875001Y-39320000D01*
X10841667Y-39253333D01*
X10775001Y-39220000D01*
X10641667Y-39220000D01*
X10575001Y-39253333D01*
X10875001Y-39653333D02*
X10808334Y-39686667D01*
X10641667Y-39686667D01*
X10575001Y-39653333D01*
X10541667Y-39586667D01*
X10541667Y-39520000D01*
X10575001Y-39453333D01*
X10641667Y-39420000D01*
X10808334Y-39420000D01*
X10875001Y-39386667D01*
X11308334Y-39686667D02*
X11241667Y-39653333D01*
X11208334Y-39586667D01*
X11208334Y-38986667D01*
X11675001Y-39686667D02*
X11608334Y-39653333D01*
X11575001Y-39620000D01*
X11541667Y-39553333D01*
X11541667Y-39353333D01*
X11575001Y-39286667D01*
X11608334Y-39253333D01*
X11675001Y-39220000D01*
X11775001Y-39220000D01*
X11841667Y-39253333D01*
X11875001Y-39286667D01*
X11908334Y-39353333D01*
X11908334Y-39553333D01*
X11875001Y-39620000D01*
X11841667Y-39653333D01*
X11775001Y-39686667D01*
X11675001Y-39686667D01*
X12508334Y-39220000D02*
X12508334Y-39786667D01*
X12475000Y-39853333D01*
X12441667Y-39886667D01*
X12375000Y-39920000D01*
X12275000Y-39920000D01*
X12208334Y-39886667D01*
X12508334Y-39653333D02*
X12441667Y-39686667D01*
X12308334Y-39686667D01*
X12241667Y-39653333D01*
X12208334Y-39620000D01*
X12175000Y-39553333D01*
X12175000Y-39353333D01*
X12208334Y-39286667D01*
X12241667Y-39253333D01*
X12308334Y-39220000D01*
X12441667Y-39220000D01*
X12508334Y-39253333D01*
X57005667Y-62481667D02*
X57439000Y-62481667D01*
X57205667Y-62748333D01*
X57305667Y-62748333D01*
X57372334Y-62781667D01*
X57405667Y-62815000D01*
X57439000Y-62881667D01*
X57439000Y-63048333D01*
X57405667Y-63115000D01*
X57372334Y-63148333D01*
X57305667Y-63181667D01*
X57105667Y-63181667D01*
X57039000Y-63148333D01*
X57005667Y-63115000D01*
X57739001Y-63115000D02*
X57772334Y-63148333D01*
X57739001Y-63181667D01*
X57705667Y-63148333D01*
X57739001Y-63115000D01*
X57739001Y-63181667D01*
X58005667Y-62481667D02*
X58439000Y-62481667D01*
X58205667Y-62748333D01*
X58305667Y-62748333D01*
X58372334Y-62781667D01*
X58405667Y-62815000D01*
X58439000Y-62881667D01*
X58439000Y-63048333D01*
X58405667Y-63115000D01*
X58372334Y-63148333D01*
X58305667Y-63181667D01*
X58105667Y-63181667D01*
X58039000Y-63148333D01*
X58005667Y-63115000D01*
X58639001Y-62481667D02*
X58872334Y-63181667D01*
X59105667Y-62481667D01*
X69758000Y-58609667D02*
X69358000Y-58609667D01*
X69558000Y-58609667D02*
X69558000Y-57909667D01*
X69491334Y-58009667D01*
X69424667Y-58076333D01*
X69358000Y-58109667D01*
X70058001Y-58543000D02*
X70091334Y-58576333D01*
X70058001Y-58609667D01*
X70024667Y-58576333D01*
X70058001Y-58543000D01*
X70058001Y-58609667D01*
X70358000Y-57976333D02*
X70391334Y-57943000D01*
X70458000Y-57909667D01*
X70624667Y-57909667D01*
X70691334Y-57943000D01*
X70724667Y-57976333D01*
X70758000Y-58043000D01*
X70758000Y-58109667D01*
X70724667Y-58209667D01*
X70324667Y-58609667D01*
X70758000Y-58609667D01*
X70958001Y-57909667D02*
X71191334Y-58609667D01*
X71424667Y-57909667D01*
X68416667Y-48684267D02*
X68416667Y-47984267D01*
X68650000Y-48484267D01*
X68883333Y-47984267D01*
X68883333Y-48684267D01*
X69350000Y-47984267D02*
X69416667Y-47984267D01*
X69483333Y-48017600D01*
X69516667Y-48050933D01*
X69550000Y-48117600D01*
X69583333Y-48250933D01*
X69583333Y-48417600D01*
X69550000Y-48550933D01*
X69516667Y-48617600D01*
X69483333Y-48650933D01*
X69416667Y-48684267D01*
X69350000Y-48684267D01*
X69283333Y-48650933D01*
X69250000Y-48617600D01*
X69216667Y-48550933D01*
X69183333Y-48417600D01*
X69183333Y-48250933D01*
X69216667Y-48117600D01*
X69250000Y-48050933D01*
X69283333Y-48017600D01*
X69350000Y-47984267D01*
X69883334Y-48617600D02*
X69916667Y-48650933D01*
X69883334Y-48684267D01*
X69850000Y-48650933D01*
X69883334Y-48617600D01*
X69883334Y-48684267D01*
X69883334Y-48250933D02*
X69916667Y-48284267D01*
X69883334Y-48317600D01*
X69850000Y-48284267D01*
X69883334Y-48250933D01*
X69883334Y-48317600D01*
X70883333Y-47984267D02*
X70950000Y-47984267D01*
X71016666Y-48017600D01*
X71050000Y-48050933D01*
X71083333Y-48117600D01*
X71116666Y-48250933D01*
X71116666Y-48417600D01*
X71083333Y-48550933D01*
X71050000Y-48617600D01*
X71016666Y-48650933D01*
X70950000Y-48684267D01*
X70883333Y-48684267D01*
X70816666Y-48650933D01*
X70783333Y-48617600D01*
X70750000Y-48550933D01*
X70716666Y-48417600D01*
X70716666Y-48250933D01*
X70750000Y-48117600D01*
X70783333Y-48050933D01*
X70816666Y-48017600D01*
X70883333Y-47984267D01*
X68416667Y-49816667D02*
X68416667Y-49116667D01*
X68650000Y-49616667D01*
X68883333Y-49116667D01*
X68883333Y-49816667D01*
X69583333Y-49816667D02*
X69183333Y-49816667D01*
X69383333Y-49816667D02*
X69383333Y-49116667D01*
X69316667Y-49216667D01*
X69250000Y-49283333D01*
X69183333Y-49316667D01*
X69883334Y-49750000D02*
X69916667Y-49783333D01*
X69883334Y-49816667D01*
X69850000Y-49783333D01*
X69883334Y-49750000D01*
X69883334Y-49816667D01*
X69883334Y-49383333D02*
X69916667Y-49416667D01*
X69883334Y-49450000D01*
X69850000Y-49416667D01*
X69883334Y-49383333D01*
X69883334Y-49450000D01*
X71116666Y-49816667D02*
X70716666Y-49816667D01*
X70916666Y-49816667D02*
X70916666Y-49116667D01*
X70850000Y-49216667D01*
X70783333Y-49283333D01*
X70716666Y-49316667D01*
X68383333Y-50915733D02*
X68483333Y-50949067D01*
X68650000Y-50949067D01*
X68716667Y-50915733D01*
X68750000Y-50882400D01*
X68783333Y-50815733D01*
X68783333Y-50749067D01*
X68750000Y-50682400D01*
X68716667Y-50649067D01*
X68650000Y-50615733D01*
X68516667Y-50582400D01*
X68450000Y-50549067D01*
X68416667Y-50515733D01*
X68383333Y-50449067D01*
X68383333Y-50382400D01*
X68416667Y-50315733D01*
X68450000Y-50282400D01*
X68516667Y-50249067D01*
X68683333Y-50249067D01*
X68783333Y-50282400D01*
X69083334Y-50949067D02*
X69083334Y-50249067D01*
X69350000Y-50249067D01*
X69416667Y-50282400D01*
X69450000Y-50315733D01*
X69483334Y-50382400D01*
X69483334Y-50482400D01*
X69450000Y-50549067D01*
X69416667Y-50582400D01*
X69350000Y-50615733D01*
X69083334Y-50615733D01*
X69783334Y-50949067D02*
X69783334Y-50249067D01*
X62283334Y-47066667D02*
X62283334Y-46366667D01*
X62616667Y-47066667D02*
X62616667Y-46366667D01*
X63016667Y-47066667D01*
X63016667Y-46366667D01*
X63250000Y-46366667D02*
X63650000Y-46366667D01*
X63450000Y-47066667D02*
X63450000Y-46366667D01*
X64016666Y-46366667D02*
X64083333Y-46366667D01*
X64149999Y-46400000D01*
X64183333Y-46433333D01*
X64216666Y-46500000D01*
X64249999Y-46633333D01*
X64249999Y-46800000D01*
X64216666Y-46933333D01*
X64183333Y-47000000D01*
X64149999Y-47033333D01*
X64083333Y-47066667D01*
X64016666Y-47066667D01*
X63949999Y-47033333D01*
X63916666Y-47000000D01*
X63883333Y-46933333D01*
X63849999Y-46800000D01*
X63849999Y-46633333D01*
X63883333Y-46500000D01*
X63916666Y-46433333D01*
X63949999Y-46400000D01*
X64016666Y-46366667D01*
X65083333Y-47066667D02*
X65083333Y-46366667D01*
X65349999Y-46366667D01*
X65416666Y-46400000D01*
X65449999Y-46433333D01*
X65483333Y-46500000D01*
X65483333Y-46600000D01*
X65449999Y-46666667D01*
X65416666Y-46700000D01*
X65349999Y-46733333D01*
X65083333Y-46733333D01*
X65749999Y-46866667D02*
X66083333Y-46866667D01*
X65683333Y-47066667D02*
X65916666Y-46366667D01*
X66149999Y-47066667D01*
X66516666Y-46366667D02*
X66583333Y-46366667D01*
X66649999Y-46400000D01*
X66683333Y-46433333D01*
X66716666Y-46500000D01*
X66749999Y-46633333D01*
X66749999Y-46800000D01*
X66716666Y-46933333D01*
X66683333Y-47000000D01*
X66649999Y-47033333D01*
X66583333Y-47066667D01*
X66516666Y-47066667D01*
X66449999Y-47033333D01*
X66416666Y-47000000D01*
X66383333Y-46933333D01*
X66349999Y-46800000D01*
X66349999Y-46633333D01*
X66383333Y-46500000D01*
X66416666Y-46433333D01*
X66449999Y-46400000D01*
X66516666Y-46366667D01*
X76767000Y-43369667D02*
X76533666Y-43036333D01*
X76367000Y-43369667D02*
X76367000Y-42669667D01*
X76633666Y-42669667D01*
X76700333Y-42703000D01*
X76733666Y-42736333D01*
X76767000Y-42803000D01*
X76767000Y-42903000D01*
X76733666Y-42969667D01*
X76700333Y-43003000D01*
X76633666Y-43036333D01*
X76367000Y-43036333D01*
X77333666Y-43336333D02*
X77267000Y-43369667D01*
X77133666Y-43369667D01*
X77067000Y-43336333D01*
X77033666Y-43269667D01*
X77033666Y-43003000D01*
X77067000Y-42936333D01*
X77133666Y-42903000D01*
X77267000Y-42903000D01*
X77333666Y-42936333D01*
X77367000Y-43003000D01*
X77367000Y-43069667D01*
X77033666Y-43136333D01*
X77633666Y-43336333D02*
X77700333Y-43369667D01*
X77833666Y-43369667D01*
X77900333Y-43336333D01*
X77933666Y-43269667D01*
X77933666Y-43236333D01*
X77900333Y-43169667D01*
X77833666Y-43136333D01*
X77733666Y-43136333D01*
X77667000Y-43103000D01*
X77633666Y-43036333D01*
X77633666Y-43003000D01*
X77667000Y-42936333D01*
X77733666Y-42903000D01*
X77833666Y-42903000D01*
X77900333Y-42936333D01*
X78500333Y-43336333D02*
X78433667Y-43369667D01*
X78300333Y-43369667D01*
X78233667Y-43336333D01*
X78200333Y-43269667D01*
X78200333Y-43003000D01*
X78233667Y-42936333D01*
X78300333Y-42903000D01*
X78433667Y-42903000D01*
X78500333Y-42936333D01*
X78533667Y-43003000D01*
X78533667Y-43069667D01*
X78200333Y-43136333D01*
X78733667Y-42903000D02*
X79000333Y-42903000D01*
X78833667Y-42669667D02*
X78833667Y-43269667D01*
X78867000Y-43336333D01*
X78933667Y-43369667D01*
X79000333Y-43369667D01*
X80000333Y-43003000D02*
X79767000Y-43003000D01*
X79767000Y-43369667D02*
X79767000Y-42669667D01*
X80100333Y-42669667D01*
X80300333Y-42669667D02*
X80767000Y-43369667D01*
X80767000Y-42669667D02*
X80300333Y-43369667D01*
X81000333Y-42736333D02*
X81033667Y-42703000D01*
X81100333Y-42669667D01*
X81267000Y-42669667D01*
X81333667Y-42703000D01*
X81367000Y-42736333D01*
X81400333Y-42803000D01*
X81400333Y-42869667D01*
X81367000Y-42969667D01*
X80967000Y-43369667D01*
X81400333Y-43369667D01*
X93095467Y-44551667D02*
X93095467Y-44951667D01*
X93095467Y-44751667D02*
X92395467Y-44751667D01*
X92495467Y-44818333D01*
X92562133Y-44885000D01*
X92595467Y-44951667D01*
X93028800Y-44251666D02*
X93062133Y-44218333D01*
X93095467Y-44251666D01*
X93062133Y-44285000D01*
X93028800Y-44251666D01*
X93095467Y-44251666D01*
X92662133Y-44251666D02*
X92695467Y-44218333D01*
X92728800Y-44251666D01*
X92695467Y-44285000D01*
X92662133Y-44251666D01*
X92728800Y-44251666D01*
X92395467Y-43585000D02*
X92395467Y-43918333D01*
X92728800Y-43951667D01*
X92695467Y-43918333D01*
X92662133Y-43851667D01*
X92662133Y-43685000D01*
X92695467Y-43618333D01*
X92728800Y-43585000D01*
X92795467Y-43551667D01*
X92962133Y-43551667D01*
X93028800Y-43585000D01*
X93062133Y-43618333D01*
X93095467Y-43685000D01*
X93095467Y-43851667D01*
X93062133Y-43918333D01*
X93028800Y-43951667D01*
X92395467Y-43118333D02*
X92395467Y-43051666D01*
X92428800Y-42985000D01*
X92462133Y-42951666D01*
X92528800Y-42918333D01*
X92662133Y-42885000D01*
X92828800Y-42885000D01*
X92962133Y-42918333D01*
X93028800Y-42951666D01*
X93062133Y-42985000D01*
X93095467Y-43051666D01*
X93095467Y-43118333D01*
X93062133Y-43185000D01*
X93028800Y-43218333D01*
X92962133Y-43251666D01*
X92828800Y-43285000D01*
X92662133Y-43285000D01*
X92528800Y-43251666D01*
X92462133Y-43218333D01*
X92428800Y-43185000D01*
X92395467Y-43118333D01*
X92395467Y-42451666D02*
X92395467Y-42384999D01*
X92428800Y-42318333D01*
X92462133Y-42284999D01*
X92528800Y-42251666D01*
X92662133Y-42218333D01*
X92828800Y-42218333D01*
X92962133Y-42251666D01*
X93028800Y-42284999D01*
X93062133Y-42318333D01*
X93095467Y-42384999D01*
X93095467Y-42451666D01*
X93062133Y-42518333D01*
X93028800Y-42551666D01*
X92962133Y-42584999D01*
X92828800Y-42618333D01*
X92662133Y-42618333D01*
X92528800Y-42584999D01*
X92462133Y-42551666D01*
X92428800Y-42518333D01*
X92395467Y-42451666D01*
X93095467Y-41918332D02*
X92628800Y-41918332D01*
X92695467Y-41918332D02*
X92662133Y-41884999D01*
X92628800Y-41818332D01*
X92628800Y-41718332D01*
X92662133Y-41651666D01*
X92728800Y-41618332D01*
X93095467Y-41618332D01*
X92728800Y-41618332D02*
X92662133Y-41584999D01*
X92628800Y-41518332D01*
X92628800Y-41418332D01*
X92662133Y-41351666D01*
X92728800Y-41318332D01*
X93095467Y-41318332D01*
X92895467Y-41018333D02*
X92895467Y-40684999D01*
X93095467Y-41084999D02*
X92395467Y-40851666D01*
X93095467Y-40618333D01*
X93095467Y-39851666D02*
X92395467Y-39851666D01*
X92395467Y-39585000D01*
X92428800Y-39518333D01*
X92462133Y-39485000D01*
X92528800Y-39451666D01*
X92628800Y-39451666D01*
X92695467Y-39485000D01*
X92728800Y-39518333D01*
X92762133Y-39585000D01*
X92762133Y-39851666D01*
X92395467Y-39218333D02*
X93095467Y-39051666D01*
X92595467Y-38918333D01*
X93095467Y-38785000D01*
X92395467Y-38618333D01*
X93527867Y-44785000D02*
X93527867Y-44718333D01*
X93561200Y-44651667D01*
X93594533Y-44618333D01*
X93661200Y-44585000D01*
X93794533Y-44551667D01*
X93961200Y-44551667D01*
X94094533Y-44585000D01*
X94161200Y-44618333D01*
X94194533Y-44651667D01*
X94227867Y-44718333D01*
X94227867Y-44785000D01*
X94194533Y-44851667D01*
X94161200Y-44885000D01*
X94094533Y-44918333D01*
X93961200Y-44951667D01*
X93794533Y-44951667D01*
X93661200Y-44918333D01*
X93594533Y-44885000D01*
X93561200Y-44851667D01*
X93527867Y-44785000D01*
X94161200Y-44251666D02*
X94194533Y-44218333D01*
X94227867Y-44251666D01*
X94194533Y-44285000D01*
X94161200Y-44251666D01*
X94227867Y-44251666D01*
X93794533Y-44251666D02*
X93827867Y-44218333D01*
X93861200Y-44251666D01*
X93827867Y-44285000D01*
X93794533Y-44251666D01*
X93861200Y-44251666D01*
X93861200Y-43918333D02*
X93861200Y-43685000D01*
X94227867Y-43585000D02*
X94227867Y-43918333D01*
X93527867Y-43918333D01*
X93527867Y-43585000D01*
X94227867Y-43351667D02*
X93761200Y-42985000D01*
X93761200Y-43351667D02*
X94227867Y-42985000D01*
X93761200Y-42818333D02*
X93761200Y-42551667D01*
X93527867Y-42718333D02*
X94127867Y-42718333D01*
X94194533Y-42685000D01*
X94227867Y-42618333D01*
X94227867Y-42551667D01*
X94227867Y-41785000D02*
X93527867Y-41785000D01*
X93527867Y-41518334D01*
X93561200Y-41451667D01*
X93594533Y-41418334D01*
X93661200Y-41385000D01*
X93761200Y-41385000D01*
X93827867Y-41418334D01*
X93861200Y-41451667D01*
X93894533Y-41518334D01*
X93894533Y-41785000D01*
X93527867Y-41151667D02*
X94227867Y-40985000D01*
X93727867Y-40851667D01*
X94227867Y-40718334D01*
X93527867Y-40551667D01*
X86980000Y-7871667D02*
X87146667Y-8571667D01*
X87280000Y-8071667D01*
X87413333Y-8571667D01*
X87580000Y-7871667D01*
X87846667Y-8571667D02*
X87846667Y-7871667D01*
X88113333Y-7871667D01*
X88180000Y-7905000D01*
X88213333Y-7938333D01*
X88246667Y-8005000D01*
X88246667Y-8105000D01*
X88213333Y-8171667D01*
X88180000Y-8205000D01*
X88113333Y-8238333D01*
X87846667Y-8238333D01*
X78525000Y-11078333D02*
X78625000Y-11111667D01*
X78791667Y-11111667D01*
X78858334Y-11078333D01*
X78891667Y-11045000D01*
X78925000Y-10978333D01*
X78925000Y-10911667D01*
X78891667Y-10845000D01*
X78858334Y-10811667D01*
X78791667Y-10778333D01*
X78658334Y-10745000D01*
X78591667Y-10711667D01*
X78558334Y-10678333D01*
X78525000Y-10611667D01*
X78525000Y-10545000D01*
X78558334Y-10478333D01*
X78591667Y-10445000D01*
X78658334Y-10411667D01*
X78825000Y-10411667D01*
X78925000Y-10445000D01*
X79225001Y-11111667D02*
X79225001Y-10411667D01*
X79391667Y-10411667D01*
X79491667Y-10445000D01*
X79558334Y-10511667D01*
X79591667Y-10578333D01*
X79625001Y-10711667D01*
X79625001Y-10811667D01*
X79591667Y-10945000D01*
X79558334Y-11011667D01*
X79491667Y-11078333D01*
X79391667Y-11111667D01*
X79225001Y-11111667D01*
X79891667Y-10911667D02*
X80225001Y-10911667D01*
X79825001Y-11111667D02*
X80058334Y-10411667D01*
X80291667Y-11111667D01*
D12*
X49590715Y-7663571D02*
X48876429Y-7663571D01*
X48876429Y-6163571D01*
X50947858Y-7520714D02*
X50876429Y-7592143D01*
X50662143Y-7663571D01*
X50519286Y-7663571D01*
X50305001Y-7592143D01*
X50162143Y-7449286D01*
X50090715Y-7306429D01*
X50019286Y-7020714D01*
X50019286Y-6806429D01*
X50090715Y-6520714D01*
X50162143Y-6377857D01*
X50305001Y-6235000D01*
X50519286Y-6163571D01*
X50662143Y-6163571D01*
X50876429Y-6235000D01*
X50947858Y-6306429D01*
X51519286Y-7592143D02*
X51733572Y-7663571D01*
X52090715Y-7663571D01*
X52233572Y-7592143D01*
X52305001Y-7520714D01*
X52376429Y-7377857D01*
X52376429Y-7235000D01*
X52305001Y-7092143D01*
X52233572Y-7020714D01*
X52090715Y-6949286D01*
X51805001Y-6877857D01*
X51662143Y-6806429D01*
X51590715Y-6735000D01*
X51519286Y-6592143D01*
X51519286Y-6449286D01*
X51590715Y-6306429D01*
X51662143Y-6235000D01*
X51805001Y-6163571D01*
X52162143Y-6163571D01*
X52376429Y-6235000D01*
X53019286Y-7663571D02*
X53019286Y-6163571D01*
X53376429Y-6163571D01*
X53590714Y-6235000D01*
X53733572Y-6377857D01*
X53805000Y-6520714D01*
X53876429Y-6806429D01*
X53876429Y-7020714D01*
X53805000Y-7306429D01*
X53733572Y-7449286D01*
X53590714Y-7592143D01*
X53376429Y-7663571D01*
X53019286Y-7663571D01*
X55376429Y-7663571D02*
X54876429Y-6949286D01*
X54519286Y-7663571D02*
X54519286Y-6163571D01*
X55090714Y-6163571D01*
X55233572Y-6235000D01*
X55305000Y-6306429D01*
X55376429Y-6449286D01*
X55376429Y-6663571D01*
X55305000Y-6806429D01*
X55233572Y-6877857D01*
X55090714Y-6949286D01*
X54519286Y-6949286D01*
X57162143Y-7663571D02*
X57162143Y-6163571D01*
X57662143Y-7235000D01*
X58162143Y-6163571D01*
X58162143Y-7663571D01*
X59519286Y-7663571D02*
X59519286Y-6877857D01*
X59447857Y-6735000D01*
X59305000Y-6663571D01*
X59019286Y-6663571D01*
X58876429Y-6735000D01*
X59519286Y-7592143D02*
X59376429Y-7663571D01*
X59019286Y-7663571D01*
X58876429Y-7592143D01*
X58805000Y-7449286D01*
X58805000Y-7306429D01*
X58876429Y-7163571D01*
X59019286Y-7092143D01*
X59376429Y-7092143D01*
X59519286Y-7020714D01*
X60233572Y-7663571D02*
X60233572Y-6663571D01*
X60233572Y-6163571D02*
X60162143Y-6235000D01*
X60233572Y-6306429D01*
X60305000Y-6235000D01*
X60233572Y-6163571D01*
X60233572Y-6306429D01*
X60947858Y-6663571D02*
X60947858Y-7663571D01*
X60947858Y-6806429D02*
X61019286Y-6735000D01*
X61162144Y-6663571D01*
X61376429Y-6663571D01*
X61519286Y-6735000D01*
X61590715Y-6877857D01*
X61590715Y-7663571D01*
X63947858Y-6877857D02*
X64162144Y-6949286D01*
X64233572Y-7020714D01*
X64305001Y-7163571D01*
X64305001Y-7377857D01*
X64233572Y-7520714D01*
X64162144Y-7592143D01*
X64019286Y-7663571D01*
X63447858Y-7663571D01*
X63447858Y-6163571D01*
X63947858Y-6163571D01*
X64090715Y-6235000D01*
X64162144Y-6306429D01*
X64233572Y-6449286D01*
X64233572Y-6592143D01*
X64162144Y-6735000D01*
X64090715Y-6806429D01*
X63947858Y-6877857D01*
X63447858Y-6877857D01*
X65162144Y-7663571D02*
X65019286Y-7592143D01*
X64947858Y-7520714D01*
X64876429Y-7377857D01*
X64876429Y-6949286D01*
X64947858Y-6806429D01*
X65019286Y-6735000D01*
X65162144Y-6663571D01*
X65376429Y-6663571D01*
X65519286Y-6735000D01*
X65590715Y-6806429D01*
X65662144Y-6949286D01*
X65662144Y-7377857D01*
X65590715Y-7520714D01*
X65519286Y-7592143D01*
X65376429Y-7663571D01*
X65162144Y-7663571D01*
X66947858Y-7663571D02*
X66947858Y-6877857D01*
X66876429Y-6735000D01*
X66733572Y-6663571D01*
X66447858Y-6663571D01*
X66305001Y-6735000D01*
X66947858Y-7592143D02*
X66805001Y-7663571D01*
X66447858Y-7663571D01*
X66305001Y-7592143D01*
X66233572Y-7449286D01*
X66233572Y-7306429D01*
X66305001Y-7163571D01*
X66447858Y-7092143D01*
X66805001Y-7092143D01*
X66947858Y-7020714D01*
X67662144Y-7663571D02*
X67662144Y-6663571D01*
X67662144Y-6949286D02*
X67733572Y-6806429D01*
X67805001Y-6735000D01*
X67947858Y-6663571D01*
X68090715Y-6663571D01*
X69233572Y-7663571D02*
X69233572Y-6163571D01*
X69233572Y-7592143D02*
X69090715Y-7663571D01*
X68805001Y-7663571D01*
X68662143Y-7592143D01*
X68590715Y-7520714D01*
X68519286Y-7377857D01*
X68519286Y-6949286D01*
X68590715Y-6806429D01*
X68662143Y-6735000D01*
X68805001Y-6663571D01*
X69090715Y-6663571D01*
X69233572Y-6735000D01*
D13*
X33300000Y-21500000D02*
X34500000Y-20300000D01*
X33300000Y-21100000D02*
X34100000Y-20300000D01*
X50700000Y-20300000D02*
X50700000Y-37700000D01*
X50700000Y-37700000D02*
X33300000Y-37700000D01*
X33300000Y-37700000D02*
X33300000Y-20300000D01*
X33300000Y-20300000D02*
X50700000Y-20300000D01*
X70875000Y-63230000D02*
X70875000Y-61230000D01*
X68825000Y-61230000D02*
X68825000Y-63230000D01*
X74660000Y-53585000D02*
X72660000Y-53585000D01*
X72660000Y-55635000D02*
X74660000Y-55635000D01*
X12455000Y-53070000D02*
X12455000Y-51070000D01*
X10405000Y-51070000D02*
X10405000Y-53070000D01*
X10405000Y-42180000D02*
X10405000Y-44180000D01*
X12455000Y-44180000D02*
X12455000Y-42180000D01*
X56905000Y-68945000D02*
X56905000Y-66945000D01*
X54855000Y-66945000D02*
X54855000Y-68945000D01*
X42430000Y-52375000D02*
X42430000Y-55075000D01*
X43930000Y-52375000D02*
X43930000Y-55075000D01*
X43030000Y-53875000D02*
X43280000Y-53875000D01*
X43280000Y-53875000D02*
X43130000Y-53725000D01*
X43530000Y-53625000D02*
X42830000Y-53625000D01*
X43180000Y-53975000D02*
X43180000Y-54325000D01*
X43180000Y-53625000D02*
X43530000Y-53975000D01*
X43530000Y-53975000D02*
X42830000Y-53975000D01*
X42830000Y-53975000D02*
X43180000Y-53625000D01*
X46875000Y-52375000D02*
X46875000Y-55075000D01*
X48375000Y-52375000D02*
X48375000Y-55075000D01*
X47475000Y-53875000D02*
X47725000Y-53875000D01*
X47725000Y-53875000D02*
X47575000Y-53725000D01*
X47975000Y-53625000D02*
X47275000Y-53625000D01*
X47625000Y-53975000D02*
X47625000Y-54325000D01*
X47625000Y-53625000D02*
X47975000Y-53975000D01*
X47975000Y-53975000D02*
X47275000Y-53975000D01*
X47275000Y-53975000D02*
X47625000Y-53625000D01*
X83010000Y-28510000D02*
X82657500Y-28510000D01*
X83010000Y-36260000D02*
X82657500Y-36260000D01*
X64310000Y-36260000D02*
X64662500Y-36260000D01*
X64310000Y-28510000D02*
X64662500Y-28510000D01*
X83010000Y-28510000D02*
X83010000Y-36260000D01*
X64310000Y-28510000D02*
X64310000Y-36260000D01*
X82657500Y-28510000D02*
X82657500Y-27085000D01*
X5750000Y-53100000D02*
X6950000Y-53100000D01*
X6950000Y-54850000D02*
X5750000Y-54850000D01*
X85485000Y-55210000D02*
X85485000Y-54010000D01*
X87235000Y-54010000D02*
X87235000Y-55210000D01*
X18700000Y-74985000D02*
X18700000Y-62485000D01*
X18700000Y-62485000D02*
X6700000Y-62485000D01*
X6700000Y-62485000D02*
X6700000Y-74985000D01*
X78105000Y-58420000D02*
G75*
G03X74295000Y-58420000I-1905000J-1905000D01*
G01*
X74295000Y-62230000D02*
G75*
G03X78105000Y-62230000I1905000J1905000D01*
G01*
X79350000Y-63475000D02*
X79350000Y-61825000D01*
X79350000Y-57175000D02*
X79350000Y-58825000D01*
X73050000Y-63475000D02*
X73050000Y-61825000D01*
X73050000Y-57175000D02*
X73050000Y-58825000D01*
X73050000Y-57175000D02*
X79350000Y-57175000D01*
X73050000Y-63475000D02*
X79350000Y-63475000D01*
X64380000Y2930000D02*
X82160000Y2930000D01*
X79620000Y-2150000D02*
X64380000Y-2150000D01*
X64380000Y2930000D02*
X64380000Y-2150000D01*
X82160000Y2930000D02*
X82160000Y390000D01*
X80890000Y-2430000D02*
X82440000Y-2430000D01*
X82160000Y390000D02*
X79620000Y390000D01*
X79620000Y390000D02*
X79620000Y-2150000D01*
X82440000Y-2430000D02*
X82440000Y-880000D01*
X84695000Y-65440000D02*
X84695000Y-66640000D01*
X82945000Y-66640000D02*
X82945000Y-65440000D01*
X74895000Y-66280000D02*
X73695000Y-66280000D01*
X73695000Y-64530000D02*
X74895000Y-64530000D01*
X73695000Y-67070000D02*
X74895000Y-67070000D01*
X74895000Y-68820000D02*
X73695000Y-68820000D01*
X4480000Y-29224000D02*
X5680000Y-29224000D01*
X5680000Y-30974000D02*
X4480000Y-30974000D01*
X22260000Y-13730000D02*
X23460000Y-13730000D01*
X23460000Y-15480000D02*
X22260000Y-15480000D01*
X23460000Y-18020000D02*
X22260000Y-18020000D01*
X22260000Y-16270000D02*
X23460000Y-16270000D01*
X56090000Y-54460000D02*
X54890000Y-54460000D01*
X54890000Y-52710000D02*
X56090000Y-52710000D01*
X42305000Y-59020000D02*
X42305000Y-57820000D01*
X44055000Y-57820000D02*
X44055000Y-59020000D01*
X72425000Y-48655000D02*
X73625000Y-48655000D01*
X73625000Y-50405000D02*
X72425000Y-50405000D01*
X65370000Y-58025000D02*
X64170000Y-58025000D01*
X64170000Y-56275000D02*
X65370000Y-56275000D01*
X64170000Y-58180000D02*
X65370000Y-58180000D01*
X65370000Y-59930000D02*
X64170000Y-59930000D01*
X72425000Y-50560000D02*
X73625000Y-50560000D01*
X73625000Y-52310000D02*
X72425000Y-52310000D01*
X48500000Y-57820000D02*
X48500000Y-59020000D01*
X46750000Y-59020000D02*
X46750000Y-57820000D01*
X78070000Y-45960000D02*
X76870000Y-45960000D01*
X76870000Y-44210000D02*
X78070000Y-44210000D01*
X84695000Y-42580000D02*
X84695000Y-43780000D01*
X82945000Y-43780000D02*
X82945000Y-42580000D01*
X75170000Y-12735000D02*
X75170000Y-13935000D01*
X73420000Y-13935000D02*
X73420000Y-12735000D01*
X87235000Y-38770000D02*
X87235000Y-39970000D01*
X85485000Y-39970000D02*
X85485000Y-38770000D01*
X80045000Y-18175000D02*
X81245000Y-18175000D01*
X81245000Y-19925000D02*
X80045000Y-19925000D01*
X81245000Y-17385000D02*
X80045000Y-17385000D01*
X80045000Y-15635000D02*
X81245000Y-15635000D01*
X76235000Y-15635000D02*
X77435000Y-15635000D01*
X77435000Y-17385000D02*
X76235000Y-17385000D01*
X79810000Y-64340000D02*
G75*
G03X79810000Y-64340000I-100000J0D01*
G01*
X80260000Y-64590000D02*
X79760000Y-64590000D01*
X80260000Y-67490000D02*
X80260000Y-64590000D01*
X79760000Y-67490000D02*
X80260000Y-67490000D01*
X79760000Y-64590000D02*
X79760000Y-67490000D01*
X5334000Y-51816000D02*
X8382000Y-51816000D01*
X8382000Y-51816000D02*
X8382000Y-44704000D01*
X8382000Y-44704000D02*
X5334000Y-44704000D01*
X2286000Y-51816000D02*
X1524000Y-51816000D01*
X1524000Y-51816000D02*
X-762000Y-50292000D01*
X-762000Y-50292000D02*
X-762000Y-46228000D01*
X-762000Y-46228000D02*
X1524000Y-44704000D01*
X1524000Y-44704000D02*
X2286000Y-44704000D01*
X65151000Y-67056000D02*
X65151000Y-64008000D01*
X65151000Y-64008000D02*
X58039000Y-64008000D01*
X58039000Y-64008000D02*
X58039000Y-67056000D01*
X65151000Y-70104000D02*
X65151000Y-70866000D01*
X65151000Y-70866000D02*
X63627000Y-73152000D01*
X63627000Y-73152000D02*
X59563000Y-73152000D01*
X59563000Y-73152000D02*
X58039000Y-70866000D01*
X58039000Y-70866000D02*
X58039000Y-70104000D01*
X13520000Y-24950000D02*
X13520000Y-25230000D01*
X20770000Y-24950000D02*
X20770000Y-25230000D01*
X20770000Y-32200000D02*
X20770000Y-31920000D01*
X13520000Y-32200000D02*
X13520000Y-31920000D01*
X13520000Y-24950000D02*
X13800000Y-24950000D01*
X13520000Y-32200000D02*
X13800000Y-32200000D01*
X20770000Y-32200000D02*
X20490000Y-32200000D01*
X20770000Y-24950000D02*
X20490000Y-24950000D01*
X13520000Y-25230000D02*
X12295000Y-25230000D01*
X53130000Y-55030000D02*
X53130000Y-55330000D01*
X58630000Y-55030000D02*
X58630000Y-55330000D01*
X58630000Y-60540000D02*
X58630000Y-60240000D01*
X53130000Y-60540000D02*
X53130000Y-60240000D01*
X53130000Y-55030000D02*
X58630000Y-55030000D01*
X53130000Y-60540000D02*
X58630000Y-60540000D01*
X53130000Y-55330000D02*
X51380000Y-55330000D01*
X26810000Y-5660000D02*
G75*
G03X26810000Y-5660000I-100000J0D01*
G01*
X26460000Y-6210000D02*
X26460000Y-5710000D01*
X23560000Y-6210000D02*
X26460000Y-6210000D01*
X23560000Y-5710000D02*
X23560000Y-6210000D01*
X26460000Y-5710000D02*
X23560000Y-5710000D01*
X30620000Y-5660000D02*
G75*
G03X30620000Y-5660000I-100000J0D01*
G01*
X30270000Y-6210000D02*
X30270000Y-5710000D01*
X27370000Y-6210000D02*
X30270000Y-6210000D01*
X27370000Y-5710000D02*
X27370000Y-6210000D01*
X30270000Y-5710000D02*
X27370000Y-5710000D01*
X34430000Y-5660000D02*
G75*
G03X34430000Y-5660000I-100000J0D01*
G01*
X34080000Y-6210000D02*
X34080000Y-5710000D01*
X31180000Y-6210000D02*
X34080000Y-6210000D01*
X31180000Y-5710000D02*
X31180000Y-6210000D01*
X34080000Y-5710000D02*
X31180000Y-5710000D01*
X22995000Y-49140000D02*
X22995000Y-50410000D01*
X30345000Y-49140000D02*
X30345000Y-50410000D01*
X30345000Y-61350000D02*
X30345000Y-60080000D01*
X22995000Y-61350000D02*
X22995000Y-60080000D01*
X22995000Y-49140000D02*
X30345000Y-49140000D01*
X22995000Y-61350000D02*
X30345000Y-61350000D01*
X22995000Y-50410000D02*
X22060000Y-50410000D01*
X89705000Y-19085000D02*
X89705000Y-18940000D01*
X85555000Y-19085000D02*
X85555000Y-18940000D01*
X85555000Y-13935000D02*
X85555000Y-14080000D01*
X89705000Y-13935000D02*
X89705000Y-14080000D01*
X89705000Y-19085000D02*
X85555000Y-19085000D01*
X89705000Y-13935000D02*
X85555000Y-13935000D01*
X89705000Y-18940000D02*
X91105000Y-18940000D01*
X6385000Y-56275000D02*
X7585000Y-56275000D01*
X7585000Y-58025000D02*
X6385000Y-58025000D01*
X10760000Y-58025000D02*
X9560000Y-58025000D01*
X9560000Y-56275000D02*
X10760000Y-56275000D01*
X20685000Y-2150000D02*
X18685000Y-2150000D01*
X18685000Y-4200000D02*
X20685000Y-4200000D01*
X70815000Y-44335000D02*
X68115000Y-44335000D01*
X70815000Y-45835000D02*
X68115000Y-45835000D01*
X69315000Y-44935000D02*
X69315000Y-45185000D01*
X69315000Y-45185000D02*
X69465000Y-45035000D01*
X69565000Y-45435000D02*
X69565000Y-44735000D01*
X69215000Y-45085000D02*
X68865000Y-45085000D01*
X69565000Y-45085000D02*
X69215000Y-45435000D01*
X69215000Y-45435000D02*
X69215000Y-44735000D01*
X69215000Y-44735000D02*
X69565000Y-45085000D01*
X70815000Y-46240000D02*
X68115000Y-46240000D01*
X70815000Y-47740000D02*
X68115000Y-47740000D01*
X69315000Y-46840000D02*
X69315000Y-47090000D01*
X69315000Y-47090000D02*
X69465000Y-46940000D01*
X69565000Y-47340000D02*
X69565000Y-46640000D01*
X69215000Y-46990000D02*
X68865000Y-46990000D01*
X69565000Y-46990000D02*
X69215000Y-47340000D01*
X69215000Y-47340000D02*
X69215000Y-46640000D01*
X69215000Y-46640000D02*
X69565000Y-46990000D01*
X18450000Y240000D02*
X19650000Y240000D01*
X19650000Y-1510000D02*
X18450000Y-1510000D01*
X87235000Y-42580000D02*
X87235000Y-43780000D01*
X85485000Y-43780000D02*
X85485000Y-42580000D01*
X73625000Y-45960000D02*
X72425000Y-45960000D01*
X72425000Y-44210000D02*
X73625000Y-44210000D01*
X73625000Y-47865000D02*
X72425000Y-47865000D01*
X72425000Y-46115000D02*
X73625000Y-46115000D01*
X35955000Y-9490000D02*
X35955000Y-8290000D01*
X37705000Y-8290000D02*
X37705000Y-9490000D01*
X9355000Y2575000D02*
X9355000Y2430000D01*
X13505000Y2575000D02*
X13505000Y2430000D01*
X13505000Y-2575000D02*
X13505000Y-2430000D01*
X9355000Y-2575000D02*
X9355000Y-2430000D01*
X9355000Y2575000D02*
X13505000Y2575000D01*
X9355000Y-2575000D02*
X13505000Y-2575000D01*
X9355000Y2430000D02*
X7955000Y2430000D01*
X13505000Y-8925000D02*
X13505000Y-8780000D01*
X9355000Y-8925000D02*
X9355000Y-8780000D01*
X9355000Y-3775000D02*
X9355000Y-3920000D01*
X13505000Y-3775000D02*
X13505000Y-3920000D01*
X13505000Y-8925000D02*
X9355000Y-8925000D01*
X13505000Y-3775000D02*
X9355000Y-3775000D01*
X13505000Y-8780000D02*
X14905000Y-8780000D01*
X79375000Y-14605000D02*
X76835000Y-14605000D01*
X82195000Y-14885000D02*
X80645000Y-14885000D01*
X79375000Y-14605000D02*
X79375000Y-12065000D01*
X80645000Y-11785000D02*
X82195000Y-11785000D01*
X82195000Y-11785000D02*
X82195000Y-14885000D01*
X79375000Y-12065000D02*
X76835000Y-12065000D01*
X76835000Y-12065000D02*
X76835000Y-14605000D01*
X91440000Y-41275000D02*
X91440000Y-43815000D01*
X91720000Y-38455000D02*
X91720000Y-40005000D01*
X91440000Y-41275000D02*
X88900000Y-41275000D01*
X88620000Y-40005000D02*
X88620000Y-38455000D01*
X88620000Y-38455000D02*
X91720000Y-38455000D01*
X88900000Y-41275000D02*
X88900000Y-43815000D01*
X88900000Y-43815000D02*
X91440000Y-43815000D01*
X87630000Y-12065000D02*
X85090000Y-12065000D01*
X90450000Y-12345000D02*
X88900000Y-12345000D01*
X87630000Y-12065000D02*
X87630000Y-9525000D01*
X88900000Y-9245000D02*
X90450000Y-9245000D01*
X90450000Y-9245000D02*
X90450000Y-12345000D01*
X87630000Y-9525000D02*
X85090000Y-9525000D01*
X85090000Y-9525000D02*
X85090000Y-12065000D01*
X45585000Y-2720000D02*
X57285000Y-2720000D01*
X57285000Y5030000D02*
X57285000Y2830000D01*
X45585000Y5030000D02*
X45585000Y2830000D01*
X45585000Y5030000D02*
X57285000Y5030000D01*
X21905000Y-74935000D02*
X21905000Y-65835000D01*
X21905000Y-65835000D02*
X32705000Y-65835000D01*
X32705000Y-74935000D02*
X32705000Y-65835000D01*
X21905000Y-74935000D02*
X32705000Y-74935000D01*
X39315000Y-60500000D02*
X37865000Y-60500000D01*
X39315000Y-66500000D02*
X37865000Y-66500000D01*
X38015220Y-62260110D02*
X38015220Y-64760110D01*
X38015220Y-64760110D02*
X36915220Y-64760110D01*
X36915220Y-64760110D02*
X36915220Y-62260110D01*
X36915220Y-62260110D02*
X38015220Y-62260110D01*
X36665220Y-62010110D02*
X36665220Y-65010110D01*
X38265220Y-62010110D02*
X38265220Y-65010110D01*
X38265220Y-65010110D02*
X36665220Y-65010110D01*
X38265220Y-62010110D02*
X36665220Y-62010110D01*
X35615000Y-60500000D02*
X35615000Y-66500000D01*
X39315000Y-60500000D02*
X39315000Y-66500000D01*
X37065000Y-60500000D02*
X35615000Y-60500000D01*
X37065000Y-66500000D02*
X35615000Y-66500000D01*
X83645000Y-50745000D02*
X83645000Y-49295000D01*
X77645000Y-50745000D02*
X77645000Y-49295000D01*
X81884890Y-49445220D02*
X79384890Y-49445220D01*
X79384890Y-49445220D02*
X79384890Y-48345220D01*
X79384890Y-48345220D02*
X81884890Y-48345220D01*
X81884890Y-48345220D02*
X81884890Y-49445220D01*
X82134890Y-48095220D02*
X79134890Y-48095220D01*
X82134890Y-49695220D02*
X79134890Y-49695220D01*
X79134890Y-49695220D02*
X79134890Y-48095220D01*
X82134890Y-49695220D02*
X82134890Y-48095220D01*
X83645000Y-47045000D02*
X77645000Y-47045000D01*
X83645000Y-50745000D02*
X77645000Y-50745000D01*
X83645000Y-48495000D02*
X83645000Y-47045000D01*
X77645000Y-48495000D02*
X77645000Y-47045000D01*
X93300000Y-70000000D02*
G75*
G03X93300000Y-70000000I-3300000J0D01*
G01*
X3300000Y-70000000D02*
G75*
G03X3300000Y-70000000I-3300000J0D01*
G01*
X3300000Y0D02*
G75*
G03X3300000Y0I-3300000J0D01*
G01*
X93300000Y0D02*
G75*
G03X93300000Y0I-3300000J0D01*
G01*
X12305000Y-47025000D02*
X12305000Y-48225000D01*
X10555000Y-48225000D02*
X10555000Y-47025000D01*
X65370000Y-62470000D02*
X64170000Y-62470000D01*
X64170000Y-60720000D02*
X65370000Y-60720000D01*
X4480000Y-27192000D02*
X5680000Y-27192000D01*
X5680000Y-28942000D02*
X4480000Y-28942000D01*
X36160000Y-875000D02*
X34960000Y-875000D01*
X34960000Y875000D02*
X36160000Y875000D01*
X38065000Y-73265000D02*
X36865000Y-73265000D01*
X36865000Y-71515000D02*
X38065000Y-71515000D01*
X38065000Y-71360000D02*
X36865000Y-71360000D01*
X36865000Y-69610000D02*
X38065000Y-69610000D01*
X7585000Y-60565000D02*
X6385000Y-60565000D01*
X6385000Y-58815000D02*
X7585000Y-58815000D01*
X9560000Y-58815000D02*
X10760000Y-58815000D01*
X10760000Y-60565000D02*
X9560000Y-60565000D01*
X81245000Y-45960000D02*
X80045000Y-45960000D01*
X80045000Y-44210000D02*
X81245000Y-44210000D01*
X8005000Y-28161000D02*
X8505000Y-28161000D01*
X8505000Y-27211000D02*
X8005000Y-27211000D01*
X8005000Y-30701000D02*
X8505000Y-30701000D01*
X8505000Y-29751000D02*
X8005000Y-29751000D01*
X8005000Y-29431000D02*
X8505000Y-29431000D01*
X8505000Y-28481000D02*
X8005000Y-28481000D01*
X30320000Y-9775000D02*
X30320000Y-9275000D01*
X29370000Y-9275000D02*
X29370000Y-9775000D01*
X26510000Y-9775000D02*
X26510000Y-9275000D01*
X25560000Y-9275000D02*
X25560000Y-9775000D01*
X34130000Y-9775000D02*
X34130000Y-9275000D01*
X33180000Y-9275000D02*
X33180000Y-9775000D01*
X18030000Y2380000D02*
X17530000Y2380000D01*
X17530000Y1430000D02*
X18030000Y1430000D01*
X18030000Y-7780000D02*
X17530000Y-7780000D01*
X17530000Y-8730000D02*
X18030000Y-8730000D01*
X86110000Y-20795000D02*
X86610000Y-20795000D01*
X86610000Y-19845000D02*
X86110000Y-19845000D01*
X83980000Y-39755000D02*
X83980000Y-40255000D01*
X84930000Y-40255000D02*
X84930000Y-39755000D01*
X34960000Y-1030000D02*
X36160000Y-1030000D01*
X36160000Y-2780000D02*
X34960000Y-2780000D01*
X26560000Y-16760000D02*
X26560000Y-16260000D01*
X25510000Y-16260000D02*
X25510000Y-16760000D01*
X35420000Y3455000D02*
X34920000Y3455000D01*
X34920000Y2405000D02*
X35420000Y2405000D01*
X35420000Y2185000D02*
X34920000Y2185000D01*
X34920000Y1135000D02*
X35420000Y1135000D01*
X24265000Y-2400000D02*
X24265000Y-1900000D01*
X23215000Y-1900000D02*
X23215000Y-2400000D01*
X32139000Y-9512000D02*
X32139000Y-9012000D01*
X31089000Y-9012000D02*
X31089000Y-9512000D01*
X24519000Y-9512000D02*
X24519000Y-9012000D01*
X23469000Y-9012000D02*
X23469000Y-9512000D01*
X28329000Y-9512000D02*
X28329000Y-9012000D01*
X27279000Y-9012000D02*
X27279000Y-9512000D01*
X-127000Y-62611000D02*
X1397000Y-62611000D01*
X1778000Y-62484000D02*
X-508000Y-62484000D01*
X-762000Y-62357000D02*
X2032000Y-62357000D01*
X2286000Y-62230000D02*
X-1016000Y-62230000D01*
X-1143000Y-62103000D02*
X2413000Y-62103000D01*
X-2667000Y-62992000D02*
X3937000Y-62992000D01*
X3937000Y-62992000D02*
X3937000Y-57150000D01*
X3937000Y-57150000D02*
X3175000Y-56388000D01*
X3175000Y-56388000D02*
X-1905000Y-56388000D01*
X-1905000Y-56388000D02*
X-2667000Y-57150000D01*
X-2667000Y-57150000D02*
X-2667000Y-62992000D01*
X635000Y-57531000D02*
X635000Y-58293000D01*
X254000Y-57912000D02*
X1016000Y-57912000D01*
X3683000Y-59690000D02*
G75*
G03X3683000Y-59690000I-3048000J0D01*
G01*
X16383000Y-58801000D02*
X17907000Y-58801000D01*
X18288000Y-58674000D02*
X16002000Y-58674000D01*
X15748000Y-58547000D02*
X18542000Y-58547000D01*
X18796000Y-58420000D02*
X15494000Y-58420000D01*
X15367000Y-58293000D02*
X18923000Y-58293000D01*
X13843000Y-59182000D02*
X20447000Y-59182000D01*
X20447000Y-59182000D02*
X20447000Y-53340000D01*
X20447000Y-53340000D02*
X19685000Y-52578000D01*
X19685000Y-52578000D02*
X14605000Y-52578000D01*
X14605000Y-52578000D02*
X13843000Y-53340000D01*
X13843000Y-53340000D02*
X13843000Y-59182000D01*
X17145000Y-53721000D02*
X17145000Y-54483000D01*
X16764000Y-54102000D02*
X17526000Y-54102000D01*
X20193000Y-55880000D02*
G75*
G03X20193000Y-55880000I-3048000J0D01*
G01*
X78338680Y-55775000D02*
X78338680Y-55575200D01*
X78795720Y-55725000D02*
X78795720Y-55576000D01*
X82941160Y-55775000D02*
X82941160Y-55626000D01*
X78343760Y-52175000D02*
X78343760Y-52324000D01*
X78795720Y-52175000D02*
X78795720Y-52324000D01*
X82946240Y-52175000D02*
X82946240Y-52324000D01*
X78795720Y-55923980D02*
X78795720Y-55725860D01*
X78795720Y-51976020D02*
X78795720Y-52174140D01*
X82941160Y-55971440D02*
X82941160Y-55773320D01*
X78338680Y-55971440D02*
X82941160Y-55971440D01*
X78338680Y-55971440D02*
X78338680Y-55773320D01*
X78343760Y-51976020D02*
X78343760Y-52174140D01*
X78343760Y-51976020D02*
X82946240Y-51976020D01*
X82946240Y-51976020D02*
X82946240Y-52174140D01*
X68975000Y-53940000D02*
X68975000Y-52740000D01*
X70725000Y-52740000D02*
X70725000Y-53940000D01*
X6745000Y-42510000D02*
X6745000Y-41310000D01*
X8495000Y-41310000D02*
X8495000Y-42510000D01*
X55210000Y-65010000D02*
X54010000Y-65010000D01*
X54010000Y-63260000D02*
X55210000Y-63260000D01*
X27000000Y-46240000D02*
X24300000Y-46240000D01*
X27000000Y-47740000D02*
X24300000Y-47740000D01*
X25500000Y-46840000D02*
X25500000Y-47090000D01*
X25500000Y-47090000D02*
X25650000Y-46940000D01*
X25750000Y-47340000D02*
X25750000Y-46640000D01*
X25400000Y-46990000D02*
X25050000Y-46990000D01*
X25750000Y-46990000D02*
X25400000Y-47340000D01*
X25400000Y-47340000D02*
X25400000Y-46640000D01*
X25400000Y-46640000D02*
X25750000Y-46990000D01*
X20990000Y-46115000D02*
X22190000Y-46115000D01*
X22190000Y-47865000D02*
X20990000Y-47865000D01*
X48150000Y-63750000D02*
X48150000Y-63250000D01*
X47100000Y-63250000D02*
X47100000Y-63750000D01*
X43705000Y-63750000D02*
X43705000Y-63250000D01*
X42655000Y-63250000D02*
X42655000Y-63750000D01*
X49420000Y-63750000D02*
X49420000Y-63250000D01*
X48370000Y-63250000D02*
X48370000Y-63750000D01*
X42435000Y-63750000D02*
X42435000Y-63250000D01*
X41385000Y-63250000D02*
X41385000Y-63750000D01*
X48680000Y-71305000D02*
X48680000Y-71280000D01*
X44030000Y-71305000D02*
X44030000Y-71280000D01*
X44030000Y-65855000D02*
X44030000Y-65880000D01*
X48680000Y-65855000D02*
X48680000Y-65880000D01*
X48680000Y-71305000D02*
X44030000Y-71305000D01*
X48680000Y-65855000D02*
X44030000Y-65855000D01*
X48680000Y-71280000D02*
X49755000Y-71280000D01*
X-2930000Y-9135000D02*
X-2930000Y-42155000D01*
X2150000Y-11675000D02*
X2150000Y-42155000D01*
X-2930000Y-42155000D02*
X2150000Y-42155000D01*
X-2930000Y-9135000D02*
X-390000Y-9135000D01*
X2430000Y-10405000D02*
X2430000Y-8855000D01*
X-390000Y-9135000D02*
X-390000Y-11675000D01*
X-390000Y-11675000D02*
X2150000Y-11675000D01*
X2430000Y-8855000D02*
X880000Y-8855000D01*
X89705000Y-55600000D02*
X89705000Y-46000000D01*
X89705000Y-46000000D02*
X95005000Y-46000000D01*
X95005000Y-46000000D02*
X95005000Y-55600000D01*
X95005000Y-55600000D02*
X89705000Y-55600000D01*
X89705000Y-36550000D02*
X89705000Y-26950000D01*
X89705000Y-26950000D02*
X95005000Y-26950000D01*
X95005000Y-26950000D02*
X95005000Y-36550000D01*
X95005000Y-36550000D02*
X89705000Y-36550000D01*
X39435000Y-54080000D02*
X39935000Y-54080000D01*
X37235000Y-56980000D02*
X37235000Y-57480000D01*
X39435000Y-54080000D02*
X39435000Y-52880000D01*
X38435000Y-54080000D02*
X38435000Y-52880000D01*
X36635000Y-56980000D02*
X37235000Y-56980000D01*
X36635000Y-55980000D02*
X37235000Y-55980000D01*
X34435000Y-54080000D02*
X34435000Y-52880000D01*
X35435000Y-52880000D02*
X35435000Y-54080000D01*
X36635000Y-49980000D02*
X37235000Y-49980000D01*
X36635000Y-50980000D02*
X37235000Y-50980000D01*
X29950000Y3240000D02*
X29950000Y3740000D01*
X32850000Y1040000D02*
X33350000Y1040000D01*
X29950000Y3240000D02*
X28750000Y3240000D01*
X29950000Y2240000D02*
X28750000Y2240000D01*
X32850000Y440000D02*
X32850000Y1040000D01*
X31850000Y440000D02*
X31850000Y1040000D01*
X29950000Y-1760000D02*
X28750000Y-1760000D01*
X28750000Y-760000D02*
X29950000Y-760000D01*
X25850000Y440000D02*
X25850000Y1040000D01*
X26850000Y440000D02*
X26850000Y1040000D01*
X81525000Y-60595000D02*
X81525000Y-62595000D01*
X83575000Y-62595000D02*
X83575000Y-60595000D01*
X65935860Y-53459380D02*
X64909700Y-53459380D01*
X65410080Y-54010560D02*
X65410080Y-52959000D01*
X68135500Y-51435000D02*
G75*
G03X68135500Y-51435000I-4000500J0D01*
G01*
X87510620Y-63395860D02*
X87510620Y-62369700D01*
X86959440Y-62870080D02*
X88011000Y-62870080D01*
X93535500Y-61595000D02*
G75*
G03X93535500Y-61595000I-4000500J0D01*
G01*
X77133095Y-57727381D02*
X77133095Y-56727381D01*
X77704524Y-57727381D02*
X77275952Y-57155952D01*
X77704524Y-56727381D02*
X77133095Y-57298810D01*
X83406905Y-57341667D02*
X83883096Y-57341667D01*
X83311667Y-57627381D02*
X83645000Y-56627381D01*
X83978334Y-57627381D01*
%LPC*%
D14*
X70584060Y-24765000D03*
X75465940Y-24765000D03*
D15*
X34500000Y-21500000D03*
X35500000Y-21500000D03*
X36500000Y-21500000D03*
X37500000Y-21500000D03*
X38500000Y-21500000D03*
X39500000Y-21500000D03*
X40500000Y-21500000D03*
X41500000Y-21500000D03*
X42500000Y-21500000D03*
X43500000Y-21500000D03*
X44500000Y-21500000D03*
X45500000Y-21500000D03*
X46500000Y-21500000D03*
X47500000Y-21500000D03*
X48500000Y-21500000D03*
X49500000Y-21500000D03*
X34500000Y-22500000D03*
X34500000Y-23500000D03*
X34500000Y-24500000D03*
X34500000Y-25500000D03*
X34500000Y-26500000D03*
X34500000Y-27500000D03*
X34500000Y-28500000D03*
X34500000Y-29500000D03*
X49500000Y-22500000D03*
X48500000Y-22500000D03*
X47500000Y-22500000D03*
X46500000Y-22500000D03*
X45500000Y-22500000D03*
X44500000Y-22500000D03*
X43500000Y-22500000D03*
X42500000Y-22500000D03*
X41500000Y-22500000D03*
X40500000Y-22500000D03*
X39500000Y-22500000D03*
X38500000Y-22500000D03*
X35500000Y-22500000D03*
X36500000Y-22500000D03*
X37500000Y-22500000D03*
X35500000Y-23500000D03*
X36500000Y-23500000D03*
X37500000Y-23500000D03*
X38500000Y-23500000D03*
X39500000Y-23500000D03*
X40500000Y-23500000D03*
X41500000Y-23500000D03*
X42500000Y-23500000D03*
X35500000Y-24500000D03*
X36500000Y-24500000D03*
X37500000Y-24500000D03*
X38500000Y-24500000D03*
X39500000Y-24500000D03*
X40500000Y-24500000D03*
X41500000Y-24500000D03*
X42500000Y-24500000D03*
X35500000Y-25500000D03*
X36500000Y-25500000D03*
X37500000Y-25500000D03*
X43500000Y-23500000D03*
X43500000Y-24500000D03*
X44500000Y-23500000D03*
X44500000Y-24500000D03*
X45500000Y-24500000D03*
X45500000Y-23500000D03*
X46500000Y-23500000D03*
X47500000Y-23500000D03*
X47500000Y-24500000D03*
X46500000Y-24500000D03*
X48500000Y-23500000D03*
X48500000Y-24500000D03*
X49500000Y-24500000D03*
X49500000Y-23500000D03*
X46500000Y-25500000D03*
X46500000Y-26500000D03*
X46500000Y-27500000D03*
X47500000Y-27500000D03*
X47500000Y-26500000D03*
X47500000Y-25500000D03*
X48500000Y-25500000D03*
X48500000Y-26500000D03*
X48500000Y-27500000D03*
X49500000Y-27500000D03*
X49500000Y-26500000D03*
X49500000Y-25500000D03*
X35500000Y-26500000D03*
X36500000Y-26500000D03*
X37500000Y-26500000D03*
X37500000Y-27500000D03*
X36500000Y-27500000D03*
X35500000Y-27500000D03*
X35500000Y-28500000D03*
X36500000Y-28500000D03*
X37500000Y-28500000D03*
X37500000Y-29500000D03*
X36500000Y-29500000D03*
X35500000Y-29500000D03*
X34500000Y-30500000D03*
X35500000Y-30500000D03*
X36500000Y-30500000D03*
X37500000Y-30500000D03*
X37500000Y-31500000D03*
X36500000Y-31500000D03*
X35500000Y-31500000D03*
X34500000Y-31500000D03*
X34500000Y-32500000D03*
X35500000Y-32500000D03*
X36500000Y-32500000D03*
X37500000Y-32500000D03*
X37500000Y-33500000D03*
X37500000Y-34500000D03*
X37500000Y-35500000D03*
X36500000Y-35500000D03*
X36500000Y-34500000D03*
X36500000Y-33500000D03*
X35500000Y-33500000D03*
X35500000Y-34500000D03*
X35500000Y-35500000D03*
X34500000Y-33500000D03*
X34500000Y-34500000D03*
X34500000Y-35500000D03*
X34500000Y-36500000D03*
X35500000Y-36500000D03*
X36500000Y-36500000D03*
X37500000Y-36500000D03*
X41500000Y-25500000D03*
X40500000Y-25500000D03*
X39500000Y-25500000D03*
X38500000Y-25500000D03*
X38500000Y-26500000D03*
X39500000Y-26500000D03*
X40500000Y-26500000D03*
X41500000Y-26500000D03*
X38500000Y-27500000D03*
X39500000Y-27500000D03*
X40500000Y-27500000D03*
X41500000Y-27500000D03*
X38500000Y-28500000D03*
X39500000Y-28500000D03*
X40500000Y-28500000D03*
X41500000Y-28500000D03*
X38500000Y-29500000D03*
X39500000Y-29500000D03*
X40500000Y-29500000D03*
X41500000Y-29500000D03*
X38500000Y-30500000D03*
X39500000Y-30500000D03*
X40500000Y-30500000D03*
X41500000Y-30500000D03*
X38500000Y-31500000D03*
X39500000Y-31500000D03*
X40500000Y-31500000D03*
X41500000Y-31500000D03*
X38500000Y-32500000D03*
X39500000Y-32500000D03*
X40500000Y-32500000D03*
X38500000Y-34500000D03*
X39500000Y-34500000D03*
X38500000Y-35500000D03*
X39500000Y-35500000D03*
X38500000Y-36500000D03*
X39500000Y-36500000D03*
X41500000Y-32500000D03*
X38500000Y-33500000D03*
X39500000Y-33500000D03*
X40500000Y-33500000D03*
X44500000Y-34500000D03*
X43500000Y-34500000D03*
X42500000Y-34500000D03*
X41500000Y-34500000D03*
X40500000Y-34500000D03*
X40500000Y-35500000D03*
X41500000Y-35500000D03*
X42500000Y-35500000D03*
X43500000Y-35500000D03*
X44500000Y-35500000D03*
X40500000Y-36500000D03*
X41500000Y-36500000D03*
X42500000Y-36500000D03*
X43500000Y-36500000D03*
X44500000Y-36500000D03*
X41500000Y-33500000D03*
X42500000Y-25500000D03*
X43500000Y-25500000D03*
X44500000Y-25500000D03*
X45500000Y-25500000D03*
X45500000Y-34500000D03*
X42500000Y-26500000D03*
X43500000Y-26500000D03*
X44500000Y-26500000D03*
X45500000Y-26500000D03*
X42500000Y-29500000D03*
X45500000Y-27500000D03*
X44500000Y-27500000D03*
X43500000Y-27500000D03*
X42500000Y-27500000D03*
X45500000Y-35500000D03*
X45500000Y-36500000D03*
X42500000Y-28500000D03*
X43500000Y-28500000D03*
X44500000Y-28500000D03*
X45500000Y-28500000D03*
X43500000Y-29500000D03*
X44500000Y-29500000D03*
X45500000Y-29500000D03*
X46500000Y-28500000D03*
X46500000Y-29500000D03*
X46500000Y-30500000D03*
X46500000Y-31500000D03*
X46500000Y-32500000D03*
X46500000Y-33500000D03*
X46500000Y-34500000D03*
X46500000Y-35500000D03*
X46500000Y-36500000D03*
X42500000Y-33500000D03*
X42500000Y-32500000D03*
X42500000Y-31500000D03*
X42500000Y-30500000D03*
X43500000Y-30500000D03*
X43500000Y-31500000D03*
X43500000Y-32500000D03*
X43500000Y-33500000D03*
X47500000Y-36500000D03*
X47500000Y-35500000D03*
X47500000Y-34500000D03*
X47500000Y-33500000D03*
X47500000Y-32500000D03*
X47500000Y-31500000D03*
X47500000Y-30500000D03*
X47500000Y-29500000D03*
X47500000Y-28500000D03*
X48500000Y-28500000D03*
X48500000Y-29500000D03*
X48500000Y-30500000D03*
X48500000Y-31500000D03*
X48500000Y-32500000D03*
X48500000Y-33500000D03*
X48500000Y-34500000D03*
X48500000Y-35500000D03*
X48500000Y-36500000D03*
X44500000Y-33500000D03*
X44500000Y-32500000D03*
X44500000Y-31500000D03*
X44500000Y-30500000D03*
X45500000Y-30500000D03*
X45500000Y-31500000D03*
X45500000Y-32500000D03*
X45500000Y-33500000D03*
X49500000Y-36500000D03*
X49500000Y-35500000D03*
X49500000Y-34500000D03*
X49500000Y-33500000D03*
X49500000Y-32500000D03*
X49500000Y-31500000D03*
X49500000Y-30500000D03*
X49500000Y-29500000D03*
X49500000Y-28500000D03*
D16*
X69850000Y-60730000D03*
X69850000Y-63730000D03*
D17*
X72160000Y-54610000D03*
X75160000Y-54610000D03*
D16*
X11430000Y-50570000D03*
X11430000Y-53570000D03*
X11430000Y-44680000D03*
X11430000Y-41680000D03*
X55880000Y-66445000D03*
X55880000Y-69445000D03*
D18*
X43180000Y-55024020D03*
X43180000Y-52925980D03*
X47625000Y-55024020D03*
X47625000Y-52925980D03*
D19*
X82232500Y-27685000D03*
X81597500Y-27685000D03*
X80962500Y-27685000D03*
X80327500Y-27685000D03*
X79692500Y-27685000D03*
X79057500Y-27685000D03*
X78422500Y-27685000D03*
X77787500Y-27685000D03*
X77152500Y-27685000D03*
X76517500Y-27685000D03*
X75882500Y-27685000D03*
X75247500Y-27685000D03*
X74612500Y-27685000D03*
X73977500Y-27685000D03*
X73342500Y-27685000D03*
X72707500Y-27685000D03*
X72072500Y-27685000D03*
X71437500Y-27685000D03*
X70802500Y-27685000D03*
X70167500Y-27685000D03*
X69532500Y-27685000D03*
X68897500Y-27685000D03*
X68262500Y-27685000D03*
X67627500Y-27685000D03*
X66992500Y-27685000D03*
X66357500Y-27685000D03*
X65722500Y-27685000D03*
X65087500Y-27685000D03*
X65087500Y-37085000D03*
X65722500Y-37085000D03*
X66357500Y-37085000D03*
X66992500Y-37085000D03*
X67627500Y-37085000D03*
X68262500Y-37085000D03*
X68897500Y-37085000D03*
X69532500Y-37085000D03*
X70167500Y-37085000D03*
X70802500Y-37085000D03*
X71437500Y-37085000D03*
X72072500Y-37085000D03*
X72707500Y-37085000D03*
X73342500Y-37085000D03*
X73977500Y-37085000D03*
X74612500Y-37085000D03*
X75247500Y-37085000D03*
X75882500Y-37085000D03*
X76517500Y-37085000D03*
X77152500Y-37085000D03*
X77787500Y-37085000D03*
X78422500Y-37085000D03*
X79057500Y-37085000D03*
X79692500Y-37085000D03*
X80327500Y-37085000D03*
X80962500Y-37085000D03*
X81597500Y-37085000D03*
X82232500Y-37085000D03*
D20*
X7300000Y-53975000D03*
X5400000Y-53975000D03*
D21*
X86360000Y-53660000D03*
X86360000Y-55560000D03*
D22*
X12700000Y-65485000D03*
X7700000Y-72985000D03*
X17700000Y-72985000D03*
X17700000Y-70485000D03*
D23*
X12700000Y-70485000D03*
D24*
X17700000Y-65485000D03*
X7700000Y-65485000D03*
X15200000Y-65485000D03*
X10200000Y-65485000D03*
D22*
X7700000Y-70485000D03*
D25*
X73450000Y-60325000D03*
X78950000Y-60325000D03*
D26*
X80890000Y-880000D03*
D27*
X80890000Y1660000D03*
X78350000Y-880000D03*
X78350000Y1660000D03*
X75810000Y-880000D03*
X75810000Y1660000D03*
X73270000Y-880000D03*
X73270000Y1660000D03*
X70730000Y-880000D03*
X70730000Y1660000D03*
X68190000Y-880000D03*
X68190000Y1660000D03*
X65650000Y-880000D03*
X65650000Y1660000D03*
D21*
X83820000Y-66990000D03*
X83820000Y-65090000D03*
D20*
X73345000Y-65405000D03*
X75245000Y-65405000D03*
X75245000Y-67945000D03*
X73345000Y-67945000D03*
X6030000Y-30099000D03*
X4130000Y-30099000D03*
X23810000Y-14605000D03*
X21910000Y-14605000D03*
X21910000Y-17145000D03*
X23810000Y-17145000D03*
X54540000Y-53585000D03*
X56440000Y-53585000D03*
D21*
X43180000Y-57470000D03*
X43180000Y-59370000D03*
D20*
X73975000Y-49530000D03*
X72075000Y-49530000D03*
X63820000Y-57150000D03*
X65720000Y-57150000D03*
X65720000Y-59055000D03*
X63820000Y-59055000D03*
X73975000Y-51435000D03*
X72075000Y-51435000D03*
D21*
X47625000Y-59370000D03*
X47625000Y-57470000D03*
D20*
X76520000Y-45085000D03*
X78420000Y-45085000D03*
D21*
X83820000Y-44130000D03*
X83820000Y-42230000D03*
X74295000Y-14285000D03*
X74295000Y-12385000D03*
X86360000Y-40320000D03*
X86360000Y-38420000D03*
D20*
X81595000Y-19050000D03*
X79695000Y-19050000D03*
X79695000Y-16510000D03*
X81595000Y-16510000D03*
X77785000Y-16510000D03*
X75885000Y-16510000D03*
D28*
X78910000Y-65090000D03*
X78910000Y-66040000D03*
X78910000Y-66990000D03*
X81110000Y-66990000D03*
X81110000Y-65090000D03*
D29*
X508000Y-48260000D03*
D30*
X7112000Y-48260000D03*
X7112000Y-45974000D03*
X7112000Y-50546000D03*
D31*
X61595000Y-71882000D03*
D32*
X61595000Y-65278000D03*
X59309000Y-65278000D03*
X63881000Y-65278000D03*
D33*
X12895000Y-25575000D03*
X12895000Y-25975000D03*
X12895000Y-26375000D03*
X12895000Y-26775000D03*
X12895000Y-27175000D03*
X12895000Y-27575000D03*
X12895000Y-27975000D03*
X12895000Y-28375000D03*
X12895000Y-28775000D03*
X12895000Y-29175000D03*
X12895000Y-29575000D03*
X12895000Y-29975000D03*
X12895000Y-30375000D03*
X12895000Y-30775000D03*
X12895000Y-31175000D03*
X12895000Y-31575000D03*
D34*
X14145000Y-32825000D03*
X14545000Y-32825000D03*
X14945000Y-32825000D03*
X15345000Y-32825000D03*
X15745000Y-32825000D03*
X16145000Y-32825000D03*
X16545000Y-32825000D03*
X16945000Y-32825000D03*
X17345000Y-32825000D03*
X17745000Y-32825000D03*
X18145000Y-32825000D03*
X18545000Y-32825000D03*
X18945000Y-32825000D03*
X19345000Y-32825000D03*
X19745000Y-32825000D03*
X20145000Y-32825000D03*
D33*
X21395000Y-31575000D03*
X21395000Y-31175000D03*
X21395000Y-30775000D03*
X21395000Y-30375000D03*
X21395000Y-29975000D03*
X21395000Y-29575000D03*
X21395000Y-29175000D03*
X21395000Y-28775000D03*
X21395000Y-28375000D03*
X21395000Y-27975000D03*
X21395000Y-27575000D03*
X21395000Y-27175000D03*
X21395000Y-26775000D03*
X21395000Y-26375000D03*
X21395000Y-25975000D03*
X21395000Y-25575000D03*
D34*
X20145000Y-24325000D03*
X19745000Y-24325000D03*
X19345000Y-24325000D03*
X18945000Y-24325000D03*
X18545000Y-24325000D03*
X18145000Y-24325000D03*
X17745000Y-24325000D03*
X17345000Y-24325000D03*
X16945000Y-24325000D03*
X16545000Y-24325000D03*
X16145000Y-24325000D03*
X15745000Y-24325000D03*
X15345000Y-24325000D03*
X14945000Y-24325000D03*
X14545000Y-24325000D03*
X14145000Y-24325000D03*
D35*
X52230000Y-55880000D03*
X52230000Y-57150000D03*
X52230000Y-58420000D03*
X52230000Y-59690000D03*
X59530000Y-59690000D03*
X59530000Y-58420000D03*
X59530000Y-57150000D03*
X59530000Y-55880000D03*
D36*
X25960000Y-4860000D03*
X25010000Y-4860000D03*
X24060000Y-4860000D03*
X24060000Y-7060000D03*
X25960000Y-7060000D03*
X29770000Y-4860000D03*
X28820000Y-4860000D03*
X27870000Y-4860000D03*
X27870000Y-7060000D03*
X29770000Y-7060000D03*
X33580000Y-4860000D03*
X32630000Y-4860000D03*
X31680000Y-4860000D03*
X31680000Y-7060000D03*
X33580000Y-7060000D03*
D37*
X22860000Y-51435000D03*
X22860000Y-53975000D03*
X22860000Y-56515000D03*
X22860000Y-59055000D03*
X30480000Y-59055000D03*
X30480000Y-56515000D03*
X30480000Y-53975000D03*
X30480000Y-51435000D03*
D38*
X90330000Y-18415000D03*
X90330000Y-17145000D03*
X90330000Y-15875000D03*
X90330000Y-14605000D03*
X84930000Y-14605000D03*
X84930000Y-15875000D03*
X84930000Y-17145000D03*
X84930000Y-18415000D03*
D20*
X7935000Y-57150000D03*
X6035000Y-57150000D03*
X9210000Y-57150000D03*
X11110000Y-57150000D03*
D17*
X18185000Y-3175000D03*
X21185000Y-3175000D03*
D18*
X68165980Y-45085000D03*
X70264020Y-45085000D03*
X68165980Y-46990000D03*
X70264020Y-46990000D03*
D20*
X20000000Y-635000D03*
X18100000Y-635000D03*
D21*
X86360000Y-44130000D03*
X86360000Y-42230000D03*
D20*
X72075000Y-45085000D03*
X73975000Y-45085000D03*
X72075000Y-46990000D03*
X73975000Y-46990000D03*
D21*
X36830000Y-7940000D03*
X36830000Y-9840000D03*
D38*
X8730000Y1905000D03*
X8730000Y635000D03*
X8730000Y-635000D03*
X8730000Y-1905000D03*
X14130000Y-1905000D03*
X14130000Y-635000D03*
X14130000Y635000D03*
X14130000Y1905000D03*
X14130000Y-8255000D03*
X14130000Y-6985000D03*
X14130000Y-5715000D03*
X14130000Y-4445000D03*
X8730000Y-4445000D03*
X8730000Y-5715000D03*
X8730000Y-6985000D03*
X8730000Y-8255000D03*
D39*
X80645000Y-13335000D03*
D40*
X78105000Y-13335000D03*
D39*
X90170000Y-40005000D03*
D40*
X90170000Y-42545000D03*
D39*
X88900000Y-10795000D03*
D40*
X86360000Y-10795000D03*
D41*
X51435000Y1230000D03*
X48935000Y1230000D03*
X53935000Y1230000D03*
X48935000Y-1270000D03*
X53935000Y-1270000D03*
D42*
X45585000Y-20000D03*
X57285000Y-20000D03*
D43*
X27305000Y-67435000D03*
X27305000Y-69935000D03*
X29805000Y-69935000D03*
X24805000Y-69935000D03*
X24805000Y-67435000D03*
X29805000Y-67435000D03*
D23*
X32055000Y-64135000D03*
X22555000Y-64135000D03*
D44*
X37465000Y-59600000D03*
X37465000Y-67400000D03*
D45*
X84545000Y-48895000D03*
X76745000Y-48895000D03*
D46*
X90000000Y-70000000D03*
X0Y-70000000D03*
X0Y0D03*
X90000000Y0D03*
D21*
X11430000Y-48575000D03*
X11430000Y-46675000D03*
D20*
X63820000Y-61595000D03*
X65720000Y-61595000D03*
X6030000Y-28067000D03*
X4130000Y-28067000D03*
X34610000Y0D03*
X36510000Y0D03*
X36515000Y-72390000D03*
X38415000Y-72390000D03*
X36515000Y-70485000D03*
X38415000Y-70485000D03*
X6035000Y-59690000D03*
X7935000Y-59690000D03*
X11110000Y-59690000D03*
X9210000Y-59690000D03*
X79695000Y-45085000D03*
X81595000Y-45085000D03*
D47*
X8805000Y-27686000D03*
X7705000Y-27686000D03*
X8805000Y-30226000D03*
X7705000Y-30226000D03*
X8805000Y-28956000D03*
X7705000Y-28956000D03*
D48*
X29845000Y-8975000D03*
X29845000Y-10075000D03*
X26035000Y-8975000D03*
X26035000Y-10075000D03*
X33655000Y-8975000D03*
X33655000Y-10075000D03*
D47*
X17230000Y1905000D03*
X18330000Y1905000D03*
X17230000Y-8255000D03*
X18330000Y-8255000D03*
X86910000Y-20320000D03*
X85810000Y-20320000D03*
D48*
X84455000Y-40555000D03*
X84455000Y-39455000D03*
D20*
X36510000Y-1905000D03*
X34610000Y-1905000D03*
D49*
X26035000Y-16060000D03*
X26035000Y-16960000D03*
D50*
X34720000Y2930000D03*
X35620000Y2930000D03*
X34720000Y1660000D03*
X35620000Y1660000D03*
D49*
X23740000Y-1700000D03*
X23740000Y-2600000D03*
X31614000Y-8812000D03*
X31614000Y-9712000D03*
X23994000Y-8812000D03*
X23994000Y-9712000D03*
X27804000Y-8812000D03*
X27804000Y-9712000D03*
D51*
X635000Y-56939180D03*
X635000Y-62440820D03*
X17145000Y-53129180D03*
X17145000Y-58630820D03*
D52*
X78496160Y-53975000D03*
X82793840Y-53975000D03*
D21*
X69850000Y-52390000D03*
X69850000Y-54290000D03*
X7620000Y-40960000D03*
X7620000Y-42860000D03*
D20*
X53660000Y-64135000D03*
X55560000Y-64135000D03*
D18*
X24350980Y-46990000D03*
X26449020Y-46990000D03*
D20*
X22540000Y-46990000D03*
X20640000Y-46990000D03*
D49*
X47625000Y-63050000D03*
X47625000Y-63950000D03*
X43180000Y-63050000D03*
X43180000Y-63950000D03*
X48895000Y-63050000D03*
X48895000Y-63950000D03*
X41910000Y-63050000D03*
X41910000Y-63950000D03*
D53*
X49255000Y-70855000D03*
X49255000Y-70205000D03*
X49255000Y-69555000D03*
X49255000Y-68905000D03*
X49255000Y-68255000D03*
X49255000Y-67605000D03*
X49255000Y-66955000D03*
X49255000Y-66305000D03*
X43455000Y-66305000D03*
X43455000Y-66955000D03*
X43455000Y-67605000D03*
X43455000Y-68255000D03*
X43455000Y-68905000D03*
X43455000Y-69555000D03*
X43455000Y-70205000D03*
X43455000Y-70855000D03*
D26*
X880000Y-10405000D03*
D27*
X-1660000Y-10405000D03*
X880000Y-12945000D03*
X-1660000Y-12945000D03*
X880000Y-15485000D03*
X-1660000Y-15485000D03*
X880000Y-18025000D03*
X-1660000Y-18025000D03*
X880000Y-20565000D03*
X-1660000Y-20565000D03*
X880000Y-23105000D03*
X-1660000Y-23105000D03*
X880000Y-25645000D03*
X-1660000Y-25645000D03*
X880000Y-28185000D03*
X-1660000Y-28185000D03*
X880000Y-30725000D03*
X-1660000Y-30725000D03*
X880000Y-33265000D03*
X-1660000Y-33265000D03*
X880000Y-35805000D03*
X-1660000Y-35805000D03*
X880000Y-38345000D03*
X-1660000Y-38345000D03*
X880000Y-40885000D03*
X-1660000Y-40885000D03*
D54*
X90805000Y-52100000D03*
X90805000Y-51450000D03*
X90805000Y-50800000D03*
X90805000Y-50150000D03*
X90805000Y-49500000D03*
D55*
X90805000Y-53300000D03*
X90805000Y-48300000D03*
D43*
X93505000Y-54400000D03*
X93505000Y-47200000D03*
D54*
X90805000Y-33050000D03*
X90805000Y-32400000D03*
X90805000Y-31750000D03*
X90805000Y-31100000D03*
X90805000Y-30450000D03*
D55*
X90805000Y-34250000D03*
X90805000Y-29250000D03*
D43*
X93505000Y-35350000D03*
X93505000Y-28150000D03*
D10*
G36*
X40135000Y-57580000D02*
X37335000Y-57580000D01*
X37335000Y-54180000D01*
X40135000Y-54180000D01*
X40135000Y-57580000D01*
X40135000Y-57580000D01*
G37*
G36*
X40135000Y-52780000D02*
X37335000Y-52780000D01*
X37335000Y-49380000D01*
X40135000Y-49380000D01*
X40135000Y-52780000D01*
X40135000Y-52780000D01*
G37*
G36*
X36535000Y-52780000D02*
X33735000Y-52780000D01*
X33735000Y-49380000D01*
X36535000Y-49380000D01*
X36535000Y-52780000D01*
X36535000Y-52780000D01*
G37*
G36*
X36535000Y-57580000D02*
X33735000Y-57580000D01*
X33735000Y-54180000D01*
X36535000Y-54180000D01*
X36535000Y-57580000D01*
X36535000Y-57580000D01*
G37*
G36*
X33450000Y3940000D02*
X33450000Y1140000D01*
X30050000Y1140000D01*
X30050000Y3940000D01*
X33450000Y3940000D01*
X33450000Y3940000D01*
G37*
G36*
X28650000Y3940000D02*
X28650000Y1140000D01*
X25250000Y1140000D01*
X25250000Y3940000D01*
X28650000Y3940000D01*
X28650000Y3940000D01*
G37*
G36*
X28650000Y340000D02*
X28650000Y-2460000D01*
X25250000Y-2460000D01*
X25250000Y340000D01*
X28650000Y340000D01*
X28650000Y340000D01*
G37*
G36*
X33450000Y340000D02*
X33450000Y-2460000D01*
X30050000Y-2460000D01*
X30050000Y340000D01*
X33450000Y340000D01*
X33450000Y340000D01*
G37*
D16*
X82550000Y-63095000D03*
X82550000Y-60095000D03*
D14*
X62230000Y-51435000D03*
X66040000Y-51435000D03*
X89535000Y-59690000D03*
X89535000Y-63500000D03*
M02*
