M48
;DRILL file {KiCad (2015-10-06 BZR 6248, Git 20a3e23)-product} date 2015-10-8 0:39:19
;FORMAT={3:3/ absolute / metric / suppress trailing zeros}
FMAT,2
METRIC,LZ
T1C0.300
T2C0.350
T3C0.800
T4C0.800
T5C0.900
T6C1.016
T7C1.200
T8C1.300
T9C1.500
T10C2.000
T11C2.500
%
G90
G05
M71
T1
X003556Y-028067
X003556Y-030099
X005842Y-04826
X006858Y-028892
X007112Y-027051
X007366Y-006985
X007366Y-030925
X007493Y-001905
X008382Y-04826
X008509Y-052832
X008509Y-053594
X008509Y-054356
X00875Y003
X00875Y-0035
X009271Y-026924
X009271Y-052832
X009271Y-053594
X009271Y-054356
X009525Y-027686
X010287Y-029718
X010414Y-041656
X010414Y-046736
X010414Y-052832
X011049Y-036576
X01143Y-040894
X01143Y-052832
X011557Y-037084
X011684Y-026924
X011811Y-029972
X011938Y-0254
X012192Y-032766
X012192Y-033528
X012446Y-041656
X012446Y-046736
X012573Y-022352
X012573Y-037084
X012573Y-053594
X012954Y-032766
X012954Y-033528
X013081Y-036576
X01397Y-023368
X01397Y-026797
X01397Y-03048
X01397Y-031496
X01397Y-034544
X014478Y-029845
X014732Y-0254
X01524Y-004445
X01525Y00075
X01525Y-0005
X01525Y-002
X01525Y-00575
X01525Y-007
X015875Y-031369
X018034Y-027559
X018034Y-029591
X018288Y-0254
X018415Y-03175
X018796Y-023241
X01905Y-008255
X01905Y-0254
X01905Y-027051
X01905Y-030099
X019177Y-03175
X019304Y001651
X0195Y-04675
X02032Y-028194
X02032Y-028956
X02032Y-029845
X020574Y-017272
X021Y-0005
X021Y-00125
X021082Y-032258
X022098Y-00254
X022098Y-00381
X02275Y-02875
X02325Y-0045
X024892Y-014986
X025273Y-007112
X026035Y-010922
X0262Y-0374
X02667Y-007112
X027Y-0045
X0278Y-0366
X0278Y-0374
X028448Y00381
X028448Y001397
X029Y-02625
X029083Y-002032
X029083Y-007112
X029845Y-011049
X030226Y-001905
X0305Y-02625
X031Y-0405
X031496Y-00381
X03175Y-0405
X03225Y-01725
X0325Y-02625
X0325Y-0405
X033Y-0175
X033147Y-05588
X03325Y-0405
X0335Y-02625
X033655Y-011049
X0337Y-0214
X034Y-037
X034036Y-057658
X034671Y-007112
X035Y-024
X035Y-026
X035Y-034
X035Y-037
X035687Y-000381
X03575Y-0175
X036Y-024
X036Y-028
X036Y-03
X036Y-032
X036Y-035
X036Y-036
X03625Y0015
X036576Y-057785
X03675Y-00725
X03675Y-03725
X037Y-022
X037Y-023
X037Y-024
X037Y-026
X037Y-027
X037Y-03
X037Y-031
X037Y-036
X037338Y-001651
X037338Y-00254
X037465Y-000381
X0378Y-0182
X038Y-025
X038354Y-057785
X0384Y-0188
X039Y003
X039Y-028
X039Y-03
X039Y-032
X039Y-034
X039Y-035
X03925Y-0425
X039497Y-073279
X03975Y0025
X03975Y-04175
X039751Y-066421
X04Y-024
X04Y-026
X04Y-027
X04Y-028
X04Y-03
X04Y-031
X04Y-034
X04025Y00175
X040259Y-050673
X040259Y-057785
X04064Y-067056
X04075Y001
X041Y-023
X041Y-026
X041Y-027
X041Y-028
X041Y-03
X041Y-031
X041Y-035
X04125Y-0035
X041656Y-004445
X041783Y-068961
X041783Y-073279
X04191Y-062611
X042Y-024
X042Y-025
X042Y-032
X042Y-034
X04225Y-0055
X042291Y-059436
X042545Y-068961
X042545Y-071628
X04275Y-00625
X043Y-022
X043Y-027
X043Y-028
X043Y-029
X043Y-03
X043Y-031
X043Y-032
X04318Y-062611
X043942Y-072263
X044Y-023
X044Y-024
X044Y-027
X044Y-03
X044Y-031
X044Y-032
X044Y-034
X044Y-035
X04425Y-04225
X044323Y-070231
X04445Y-067056
X04445Y-068199
X044958Y-06858
X045Y-023
X045Y-026
X045Y-029
X045Y-043
X045203Y-007865
X045711Y-008627
X046Y-024
X046Y-026
X046Y-034
X046Y-035
X046219Y-009389
X046228Y-072263
X046727Y-010151
X046863Y-06731
X047Y-023
X047Y-026
X047Y-027
X047Y-029
X047Y-03
X047Y-035
X047Y-036
X04725Y-01175
X047625Y-062611
X04775Y-0125
X04775Y-0455
X048Y-023
X048Y-025
X048Y-028
X048Y-032
X048Y-033
X04825Y-01325
X04825Y-047
X0485Y-049
X048514Y-059436
X048641Y-014224
X048895Y-062611
X049Y-021
X049Y-024
X049Y-029
X049Y-032
X04925Y-04825
X04975Y-038
X05Y-021
X05Y-037
X050038Y-066294
X050419Y-068072
X050419Y-069088
X050419Y-071501
X051054Y-05842
X051054Y-05969
X0513Y-0243
X0515Y-0375
X0515Y-0395
X0525Y-0395
X052959Y-063373
X052959Y-064135
X052959Y-064897
X053Y-0385
X05325Y-02575
X0535Y-03525
X053594Y-05842
X053594Y-063119
X053594Y-065151
X05425Y-02475
X05425Y-03525
X0545Y-03625
X054737Y-069469
X05575Y-0375
X056Y-02475
X05675Y-02575
X057023Y-069469
X05775Y-03525
X05775Y-036
X05775Y-037
X05775Y-03775
X061Y-05575
X061Y-057
X061595Y-063881
X061595Y-066548
X06325Y-0195
X063999Y-018787
X065015Y-017644
X065015Y-018787
X065786Y-062484
X065913Y-038354
X066294Y-05715
X066294Y-059055
X066294Y-061595
X066548Y-019558
X066802Y-030353
X067437Y-019558
X067437Y-026035
X067564Y-030988
X067564Y-036068
X067691Y-028702
X068072Y-044069
X068199Y-030099
X068199Y-0381
X068326Y-051435
X068326Y-052324
X068453Y-019558
X068453Y-026162
X068707Y-063754
X068961Y-0381
X069088Y-051435
X069342Y-028829
X06985Y-051435
X06985Y-062865
X06985Y-064516
X070231Y-028829
X070231Y-032131
X070485Y-018415
X070612Y-026416
X070612Y-040386
X070612Y-051435
X070866Y-031369
X070866Y-052324
X070993Y-063754
X07112Y-028829
X071374Y-030734
X071374Y-038227
X071628Y-040386
X072009Y-028829
X072009Y-029718
X072644Y-067945
X073025Y-043307
X0737Y-0391
X073787Y-042799
X07399Y-028778
X074Y-0381
X074295Y-05461
X07475Y-0495
X074778Y-028778
X075184Y-053467
X075184Y-055753
X0755Y-01225
X075565Y-018415
X075946Y-05461
X076454Y-029845
X076505Y-028778
X076581Y-043942
X077216Y-038227
X077597Y-029845
X077851Y-066167
X078232Y-028829
X078359Y-038227
X07874Y-01651
X078994Y-01905
X078994Y-028829
X08001Y-06604
X080391Y-040513
X080518Y-028829
X080645Y-029845
X080645Y-038227
X08128Y-052578
X08128Y-053975
X08128Y-055372
X081407Y-043942
X081407Y-059309
X081407Y-060071
X081407Y-06096
X082169Y-021844
X08255Y-059309
X082804Y-024384
X082804Y-025273
X082804Y-052578
X082804Y-055372
X082931Y-02286
X083693Y-03937
X08382Y-018415
X08382Y-044958
X084328Y-052578
X084328Y-053975
X084328Y-055372
X085598Y-049022
X085725Y-037338
X086106Y-03683
X08636Y-044958
X087503Y-02032
X087503Y-033528
X088773Y-023876
X089662Y-030861
X089662Y-049149
X089662Y-049784
X089789Y-030226
X09017Y-024384
X090551Y-010795
X090551Y-044831
X090678Y-057912
X091567Y-018415
X091694Y-014605
X091948Y-030226
X091948Y-030861
X091948Y-049149
X091948Y-049784
T2
X00508Y-05715
X012065Y-05715
X0254Y-051435
X025527Y-059055
X027305Y-053975
X037465Y-06604
T3
X02286Y-051435
X02286Y-053975
X02286Y-056515
X02286Y-059055
X03048Y-051435
X03048Y-053975
X03048Y-056515
X03048Y-059055
T4
X06223Y-051435
X06604Y-051435
X070584Y-024765
X075466Y-024765
X089535Y-05969
X089535Y-0635
T5
X090805Y-02925
X090805Y-03425
X090805Y-0483
X090805Y-0533
T6
X-00166Y-010405
X-00166Y-012945
X-00166Y-015485
X-00166Y-018025
X-00166Y-020565
X-00166Y-023105
X-00166Y-025645
X-00166Y-028185
X-00166Y-030725
X-00166Y-033265
X-00166Y-035805
X-00166Y-038345
X-00166Y-040885
X00088Y-010405
X00088Y-012945
X00088Y-015485
X00088Y-018025
X00088Y-020565
X00088Y-023105
X00088Y-025645
X00088Y-028185
X00088Y-030725
X00088Y-033265
X00088Y-035805
X00088Y-038345
X00088Y-040885
X06565Y00166
X06565Y-00088
X06819Y00166
X06819Y-00088
X07073Y00166
X07073Y-00088
X07327Y00166
X07327Y-00088
X07581Y00166
X07581Y-00088
X078105Y-013335
X07835Y00166
X07835Y-00088
X080645Y-013335
X08089Y00166
X08089Y-00088
X08636Y-010795
X0889Y-010795
X09017Y-040005
X09017Y-042545
T7
X024805Y-067435
X024805Y-069935
X027305Y-067435
X027305Y-069935
X029805Y-067435
X029805Y-069935
X093505Y-02815
X093505Y-03535
X093505Y-0472
X093505Y-0544
T8
X048935Y00123
X048935Y-00127
X051435Y00123
X053935Y00123
X053935Y-00127
T9
X0077Y-065485
X0102Y-065485
X0127Y-070485
X0152Y-065485
X0177Y-065485
T10
X022555Y-064135
X032055Y-064135
T11
X045585Y-00002
X057285Y-00002
T0
M30
