G04 #@! TF.FileFunction,Copper,L4,Bot,Signal*
%FSLAX46Y46*%
G04 Gerber Fmt 4.6, Leading zero omitted, Abs format (unit mm)*
G04 Created by KiCad (PCBNEW (2015-10-06 BZR 6248, Git 20a3e23)-product) date 2015-10-8 0:39:17*
%MOMM*%
G01*
G04 APERTURE LIST*
%ADD10C,0.100000*%
%ADD11C,1.501140*%
%ADD12R,1.600000X1.000000*%
%ADD13R,1.000000X1.600000*%
%ADD14R,1.800860X2.499360*%
%ADD15R,1.300000X0.700000*%
%ADD16R,0.700000X1.300000*%
%ADD17C,3.000000*%
%ADD18R,1.800000X3.000000*%
%ADD19R,1.727200X1.727200*%
%ADD20O,1.727200X1.727200*%
%ADD21O,1.600000X1.600000*%
%ADD22R,2.032000X2.032000*%
%ADD23O,2.032000X2.032000*%
%ADD24C,2.200000*%
%ADD25O,2.700000X4.500000*%
%ADD26C,2.000000*%
%ADD27R,0.600000X0.500000*%
%ADD28R,0.500000X0.600000*%
%ADD29R,0.600000X0.400000*%
%ADD30R,0.400000X0.600000*%
%ADD31O,1.600000X1.100000*%
%ADD32C,0.609600*%
%ADD33C,0.711200*%
%ADD34C,1.778000*%
%ADD35C,1.270000*%
%ADD36C,0.254000*%
%ADD37C,0.508000*%
%ADD38C,0.152400*%
%ADD39C,1.016000*%
G04 APERTURE END LIST*
D10*
D11*
X70584060Y-24765000D03*
X75465940Y-24765000D03*
D12*
X45085000Y-69239000D03*
X45085000Y-72239000D03*
D13*
X25170000Y-53975000D03*
X28170000Y-53975000D03*
D12*
X40640000Y-70255000D03*
X40640000Y-73255000D03*
X87630000Y-23900000D03*
X87630000Y-26900000D03*
D14*
X86995000Y-42638980D03*
X86995000Y-38641020D03*
D15*
X40640000Y-68260000D03*
X40640000Y-66360000D03*
D16*
X82230000Y-22860000D03*
X80330000Y-22860000D03*
D17*
X12700000Y-70485000D03*
D18*
X17700000Y-65485000D03*
X7700000Y-65485000D03*
X15200000Y-65485000D03*
X10200000Y-65485000D03*
D19*
X80890000Y-880000D03*
D20*
X80890000Y1660000D03*
X78350000Y-880000D03*
X78350000Y1660000D03*
X75810000Y-880000D03*
X75810000Y1660000D03*
X73270000Y-880000D03*
X73270000Y1660000D03*
X70730000Y-880000D03*
X70730000Y1660000D03*
X68190000Y-880000D03*
X68190000Y1660000D03*
X65650000Y-880000D03*
X65650000Y1660000D03*
D15*
X90170000Y-25085000D03*
X90170000Y-26985000D03*
D21*
X22860000Y-51435000D03*
X22860000Y-53975000D03*
X22860000Y-56515000D03*
X22860000Y-59055000D03*
X30480000Y-59055000D03*
X30480000Y-56515000D03*
X30480000Y-53975000D03*
X30480000Y-51435000D03*
D12*
X89535000Y-58015000D03*
X89535000Y-55015000D03*
D15*
X32250000Y-39700000D03*
X32250000Y-37800000D03*
X89535000Y-44770000D03*
X89535000Y-46670000D03*
D22*
X80645000Y-13335000D03*
D23*
X78105000Y-13335000D03*
D22*
X90170000Y-40005000D03*
D23*
X90170000Y-42545000D03*
D22*
X88900000Y-10795000D03*
D23*
X86360000Y-10795000D03*
D24*
X51435000Y1230000D03*
X48935000Y1230000D03*
X53935000Y1230000D03*
X48935000Y-1270000D03*
X53935000Y-1270000D03*
D25*
X45585000Y-20000D03*
X57285000Y-20000D03*
D26*
X27305000Y-67435000D03*
X27305000Y-69935000D03*
X29805000Y-69935000D03*
X24805000Y-69935000D03*
X24805000Y-67435000D03*
X29805000Y-67435000D03*
D17*
X32055000Y-64135000D03*
X22555000Y-64135000D03*
D15*
X52000000Y-38300000D03*
X52000000Y-40200000D03*
D16*
X55050000Y-35250000D03*
X56950000Y-35250000D03*
X55050000Y-37250000D03*
X56950000Y-37250000D03*
D15*
X39000000Y-23200000D03*
X39000000Y-21300000D03*
X7620000Y-28006000D03*
X7620000Y-29906000D03*
X48250000Y-46300000D03*
X48250000Y-48200000D03*
X12065000Y-34610000D03*
X12065000Y-36510000D03*
X19050000Y-27625000D03*
X19050000Y-29525000D03*
D16*
X28255000Y-51435000D03*
X26355000Y-51435000D03*
X26355000Y-59055000D03*
X28255000Y-59055000D03*
D15*
X70485000Y-21270000D03*
X70485000Y-19370000D03*
X75565000Y-21270000D03*
X75565000Y-19370000D03*
D16*
X54050000Y-25750000D03*
X55950000Y-25750000D03*
X31700000Y-26250000D03*
X29800000Y-26250000D03*
X80330000Y-24765000D03*
X82230000Y-24765000D03*
X68265000Y-31115000D03*
X70165000Y-31115000D03*
D27*
X40050000Y-29000000D03*
X38950000Y-29000000D03*
D28*
X38000000Y-32950000D03*
X38000000Y-34050000D03*
X45000000Y-25050000D03*
X45000000Y-23950000D03*
X45000000Y-30950000D03*
X45000000Y-32050000D03*
D27*
X44950000Y-27000000D03*
X46050000Y-27000000D03*
D28*
X42000000Y-29700000D03*
X42000000Y-30800000D03*
X41000000Y-25050000D03*
X41000000Y-23950000D03*
D27*
X43450000Y-29000000D03*
X44550000Y-29000000D03*
D28*
X39000000Y-27050000D03*
X39000000Y-25950000D03*
X42000000Y-28050000D03*
X42000000Y-26950000D03*
X9525000Y-28406000D03*
X9525000Y-29506000D03*
D27*
X47700000Y-27000000D03*
X48800000Y-27000000D03*
D28*
X48000000Y-30050000D03*
X48000000Y-28950000D03*
D27*
X37950000Y-36000000D03*
X39050000Y-36000000D03*
D28*
X37000000Y-27950000D03*
X37000000Y-29050000D03*
D27*
X52747000Y-58420000D03*
X51647000Y-58420000D03*
D28*
X13208000Y-23410000D03*
X13208000Y-22310000D03*
D27*
X10964000Y-26924000D03*
X9864000Y-26924000D03*
X12785000Y-29845000D03*
X13885000Y-29845000D03*
D28*
X13970000Y-32851000D03*
X13970000Y-33951000D03*
D27*
X19219000Y-24765000D03*
X18119000Y-24765000D03*
X19897000Y-31750000D03*
X20997000Y-31750000D03*
D28*
X21209000Y-28406000D03*
X21209000Y-29506000D03*
D27*
X29887000Y-1397000D03*
X28787000Y-1397000D03*
X45170000Y-67691000D03*
X46270000Y-67691000D03*
D28*
X42545000Y-69935000D03*
X42545000Y-71035000D03*
X50419000Y-69808000D03*
X50419000Y-70908000D03*
D27*
X71416000Y-28194000D03*
X70316000Y-28194000D03*
X67606000Y-38100000D03*
X66506000Y-38100000D03*
X73956000Y-29337000D03*
X72856000Y-29337000D03*
D28*
X66675000Y-28660000D03*
X66675000Y-29760000D03*
D27*
X78952000Y-29464000D03*
X80052000Y-29464000D03*
D28*
X75819000Y-28787000D03*
X75819000Y-29887000D03*
D27*
X71967000Y-38989000D03*
X73067000Y-38989000D03*
D28*
X47000000Y-23950000D03*
X47000000Y-25050000D03*
X37000000Y-20800000D03*
X37000000Y-19700000D03*
D27*
X49700000Y-24000000D03*
X50800000Y-24000000D03*
D28*
X47750000Y-36050000D03*
X47750000Y-34950000D03*
X47250000Y-33050000D03*
X47250000Y-31950000D03*
X35000000Y-34950000D03*
X35000000Y-36050000D03*
X35000000Y-23050000D03*
X35000000Y-21950000D03*
X43000000Y-32950000D03*
X43000000Y-34050000D03*
D27*
X37050000Y-25000000D03*
X35950000Y-25000000D03*
X41050000Y-32000000D03*
X39950000Y-32000000D03*
D28*
X43000000Y-25550000D03*
X43000000Y-24450000D03*
D27*
X36050000Y-31000000D03*
X34950000Y-31000000D03*
X78952000Y-38227000D03*
X80052000Y-38227000D03*
D29*
X15240000Y-30665000D03*
X15240000Y-31565000D03*
X15240000Y-25585000D03*
X15240000Y-26485000D03*
D28*
X33655000Y-57065000D03*
X33655000Y-55965000D03*
D30*
X38920000Y-57785000D03*
X39820000Y-57785000D03*
X37915000Y-57785000D03*
X37015000Y-57785000D03*
D19*
X880000Y-10405000D03*
D20*
X-1660000Y-10405000D03*
X880000Y-12945000D03*
X-1660000Y-12945000D03*
X880000Y-15485000D03*
X-1660000Y-15485000D03*
X880000Y-18025000D03*
X-1660000Y-18025000D03*
X880000Y-20565000D03*
X-1660000Y-20565000D03*
X880000Y-23105000D03*
X-1660000Y-23105000D03*
X880000Y-25645000D03*
X-1660000Y-25645000D03*
X880000Y-28185000D03*
X-1660000Y-28185000D03*
X880000Y-30725000D03*
X-1660000Y-30725000D03*
X880000Y-33265000D03*
X-1660000Y-33265000D03*
X880000Y-35805000D03*
X-1660000Y-35805000D03*
X880000Y-38345000D03*
X-1660000Y-38345000D03*
X880000Y-40885000D03*
X-1660000Y-40885000D03*
D31*
X90805000Y-53300000D03*
X90805000Y-48300000D03*
D26*
X93505000Y-54400000D03*
X93505000Y-47200000D03*
D31*
X90805000Y-34250000D03*
X90805000Y-29250000D03*
D26*
X93505000Y-35350000D03*
X93505000Y-28150000D03*
D11*
X62230000Y-51435000D03*
X66040000Y-51435000D03*
X89535000Y-59690000D03*
X89535000Y-63500000D03*
D13*
X30000000Y-37000000D03*
X27000000Y-37000000D03*
D32*
X9271000Y-54356000D03*
X9271000Y-53594000D03*
X9271000Y-52832000D03*
X8509000Y-52832000D03*
X8509000Y-53594000D03*
X8509000Y-54356000D03*
X87503000Y-20320000D03*
X80645000Y-29845000D03*
X78232000Y-28829000D03*
X80518000Y-28829000D03*
X72009000Y-28829000D03*
X72009000Y-29718000D03*
X70231000Y-28829000D03*
X65913000Y-38354000D03*
X68961000Y-38100000D03*
X80645000Y-38227000D03*
X81407000Y-60960000D03*
X82550000Y-59309000D03*
X81407000Y-59309000D03*
X81407000Y-60071000D03*
X75946000Y-54610000D03*
X74295000Y-54610000D03*
X69850000Y-64516000D03*
X69850000Y-62865000D03*
X53594000Y-58420000D03*
X50419000Y-71501000D03*
X11430000Y-40894000D03*
X10414000Y-52832000D03*
X21082000Y-32258000D03*
X18415000Y-31750000D03*
X20320000Y-29845000D03*
X20320000Y-28956000D03*
X18288000Y-25400000D03*
X18796000Y-23241000D03*
X13970000Y-26797000D03*
X9271000Y-26924000D03*
X14478000Y-29845000D03*
X11938000Y-25400000D03*
X12573000Y-22352000D03*
X13970000Y-31496000D03*
X13970000Y-34544000D03*
X7366000Y-30924500D03*
X27800000Y-37400000D03*
X27800000Y-36600000D03*
X26200000Y-37400000D03*
X49000000Y-32000000D03*
X12573000Y-37084000D03*
X11557000Y-37084000D03*
X75500000Y-12250000D03*
X74750000Y-49500000D03*
X66294000Y-59055000D03*
X81280000Y-55372000D03*
X81280000Y-52578000D03*
X84328000Y-55372000D03*
X84328000Y-52578000D03*
X87503000Y-33528000D03*
X76454000Y-29845000D03*
X74777600Y-28778200D03*
X89662000Y-49784000D03*
X89662000Y-49149000D03*
X91948000Y-49784000D03*
X91948000Y-49149000D03*
X29083000Y-2032000D03*
X78994000Y-19050000D03*
X89662000Y-30861000D03*
X89789000Y-30226000D03*
X91948000Y-30861000D03*
X91948000Y-30226000D03*
X48000000Y-32000000D03*
X42000000Y-34000000D03*
X43000000Y-31000000D03*
X40000000Y-31000000D03*
X39000000Y-34000000D03*
X48895000Y-62611000D03*
X41910000Y-62611000D03*
X50038000Y-66294000D03*
X44323000Y-70231000D03*
X44450000Y-67056000D03*
X70485000Y-18415000D03*
X75565000Y-18415000D03*
X45000000Y-29000000D03*
X86106000Y-36830000D03*
X85725000Y-37338000D03*
X90678000Y-57912000D03*
X90551000Y-44831000D03*
X90170000Y-24384000D03*
X88773000Y-23876000D03*
X3556000Y-30099000D03*
X3556000Y-28067000D03*
X7112000Y-27051000D03*
X6858000Y-28892500D03*
X47000000Y-29000000D03*
X73700000Y-39100000D03*
X37800000Y-18200000D03*
X38400000Y-18800000D03*
X36000000Y-32000000D03*
X37000000Y-30000000D03*
X28448000Y1397000D03*
X28448000Y3810000D03*
X36250000Y1500000D03*
X36750000Y-7250000D03*
X48500000Y-49000000D03*
X49250000Y-48250000D03*
X30500000Y-26250000D03*
X29000000Y-26250000D03*
X56750000Y-25750000D03*
X56000000Y-24750000D03*
X51300000Y-24300000D03*
X42000000Y-24000000D03*
X37000000Y-24000000D03*
X36000000Y-24000000D03*
X33700000Y-21400000D03*
X34000000Y-37000000D03*
X36000000Y-35000000D03*
X47000000Y-35000000D03*
X42000000Y-25000000D03*
X41000000Y-23000000D03*
X47000000Y-26000000D03*
X44000000Y-35000000D03*
X46000000Y-24000000D03*
X46000000Y-26000000D03*
X39000000Y-35000000D03*
X52500000Y-39500000D03*
X51500000Y-39500000D03*
X57750000Y-37750000D03*
X57750000Y-37000000D03*
X57750000Y-36000000D03*
X57750000Y-35250000D03*
X44000000Y-32000000D03*
X40000000Y-26000000D03*
X39000000Y-30000000D03*
X41000000Y-27000000D03*
X75184000Y-55753000D03*
X75184000Y-53467000D03*
X68707000Y-63754000D03*
X70993000Y-63754000D03*
X19050000Y-30099000D03*
X18034000Y-29591000D03*
X13970000Y-30480000D03*
X11049000Y-36576000D03*
X13081000Y-36576000D03*
X12446000Y-41656000D03*
X10414000Y-41656000D03*
X12446000Y-46736000D03*
X10414000Y-46736000D03*
X5842000Y-48260000D03*
X8382000Y-48260000D03*
X11430000Y-52832000D03*
X12573000Y-53594000D03*
X54737000Y-69469000D03*
X57023000Y-69469000D03*
X65786000Y-62484000D03*
X66294000Y-61595000D03*
X61595000Y-66548000D03*
X61595000Y-63881000D03*
X85598000Y-49022000D03*
X81280000Y-53975000D03*
X82804000Y-55372000D03*
X84328000Y-53975000D03*
X82804000Y-52578000D03*
X72644000Y-67945000D03*
X80010000Y-66040000D03*
X77851000Y-66167000D03*
X70612000Y-26416000D03*
X77216000Y-38227000D03*
X67564000Y-36068000D03*
X66802000Y-30353000D03*
X82804000Y-24384000D03*
X82804000Y-25273000D03*
X70231000Y-32131000D03*
X70866000Y-31369000D03*
X40259000Y-50673000D03*
X33147000Y-55880000D03*
X36576000Y-57785000D03*
X42545000Y-71628000D03*
X46863000Y-67310000D03*
X46228000Y-72263000D03*
X43942000Y-72263000D03*
X39497000Y-73279000D03*
X41783000Y-73279000D03*
X51054000Y-59690000D03*
X50419000Y-68072000D03*
D33*
X37465000Y-66040000D03*
X25400000Y-51435000D03*
X27305000Y-53975000D03*
X25527000Y-59055000D03*
X12065000Y-57150000D03*
X5080000Y-57150000D03*
D32*
X31496000Y-3810000D03*
X27000000Y-4500000D03*
X23250000Y-4500000D03*
X29845000Y-11049000D03*
X33655000Y-11049000D03*
X26035000Y-10922000D03*
X35687000Y-381000D03*
X37465000Y-381000D03*
X19304000Y1651000D03*
X19050000Y-8255000D03*
X7493000Y-1905000D03*
X7366000Y-6985000D03*
X22098000Y-2540000D03*
X22098000Y-3810000D03*
X91694000Y-14605000D03*
X83693000Y-39370000D03*
X86360000Y-44958000D03*
X81407000Y-43942000D03*
X50000000Y-37000000D03*
X50000000Y-21000000D03*
X46000000Y-34000000D03*
X42000000Y-32000000D03*
X41000000Y-30000000D03*
X40000000Y-28000000D03*
X48000000Y-28000000D03*
X36000000Y-28000000D03*
X44000000Y-23000000D03*
X43000000Y-28000000D03*
X43000000Y-30000000D03*
X41000000Y-31000000D03*
X43000000Y-29000000D03*
X53000000Y-38500000D03*
X51500000Y-37500000D03*
X55750000Y-37500000D03*
X54500000Y-36250000D03*
X54250000Y-35250000D03*
X53500000Y-35250000D03*
X44000000Y-31000000D03*
X40000000Y-27000000D03*
X43000000Y-27000000D03*
X40000000Y-30000000D03*
X41000000Y-28000000D03*
X70866000Y-52324000D03*
X70612000Y-51435000D03*
X68326000Y-51435000D03*
X69088000Y-51435000D03*
X68326000Y-52324000D03*
X69850000Y-51435000D03*
X9525000Y-27686000D03*
X10287000Y-29718000D03*
X83820000Y-18415000D03*
X78994000Y-28829000D03*
X71120000Y-28829000D03*
X68199000Y-38100000D03*
X78359000Y-38227000D03*
X51054000Y-58420000D03*
X50419000Y-69088000D03*
X19177000Y-31750000D03*
X20320000Y-28194000D03*
X66294000Y-57150000D03*
X78740000Y-16510000D03*
X90551000Y-10795000D03*
X19500000Y-46750000D03*
X47625000Y-62611000D03*
X43180000Y-62611000D03*
X68072000Y-44069000D03*
X61000000Y-57000000D03*
X61000000Y-55750000D03*
X49750000Y-38000000D03*
X49000000Y-29000000D03*
X47000000Y-30000000D03*
X31000000Y-40500000D03*
X31750000Y-40500000D03*
X32500000Y-40500000D03*
X33250000Y-40500000D03*
X37000000Y-22000000D03*
X37000000Y-31000000D03*
X21000000Y-1250000D03*
X21000000Y-500000D03*
X48250000Y-47000000D03*
X47750000Y-45500000D03*
X32500000Y-26250000D03*
X54250000Y-24750000D03*
X53250000Y-25750000D03*
X49000000Y-24000000D03*
X35000000Y-24000000D03*
X35000000Y-34000000D03*
X37000000Y-36000000D03*
X47000000Y-36000000D03*
X47000000Y-23000000D03*
X48000000Y-33000000D03*
X47000000Y-27000000D03*
X37000000Y-27000000D03*
X19050000Y-27051000D03*
X18034000Y-27559000D03*
X19050000Y-25400000D03*
X52959000Y-64897000D03*
X52959000Y-63373000D03*
X53594000Y-65151000D03*
X52959000Y-64135000D03*
X53594000Y-63119000D03*
X48514000Y-59436000D03*
X42291000Y-59436000D03*
X71374000Y-38227000D03*
X67691000Y-28702000D03*
X82931000Y-22860000D03*
X82169000Y-21844000D03*
X67564000Y-30988000D03*
X68199000Y-30099000D03*
X34036000Y-57658000D03*
X40259000Y-57785000D03*
X40640000Y-67056000D03*
X39751000Y-66421000D03*
X37338000Y-1651000D03*
X37338000Y-2540000D03*
X91567000Y-18415000D03*
X83820000Y-44958000D03*
X76581000Y-43942000D03*
X41000000Y-35000000D03*
X44000000Y-34000000D03*
X40000000Y-34000000D03*
X36000000Y-30000000D03*
X44000000Y-24000000D03*
X40000000Y-24000000D03*
X43000000Y-22000000D03*
X24892000Y-14986000D03*
X20574000Y-17272000D03*
X12954000Y-33528000D03*
X12954000Y-32766000D03*
X12192000Y-33528000D03*
X11684000Y-26924000D03*
X11811000Y-29972000D03*
X13970000Y-23368000D03*
X12192000Y-32766000D03*
X44450000Y-68199000D03*
X44958000Y-68580000D03*
X42545000Y-68961000D03*
X41783000Y-68961000D03*
X76504800Y-28778200D03*
X73990200Y-28778200D03*
X39750000Y-41750000D03*
X36000000Y-36000000D03*
X45000000Y-43000000D03*
X46000000Y-35000000D03*
X66548000Y-19558000D03*
X69342000Y-28829000D03*
X68453000Y-19558000D03*
X68453000Y-26162000D03*
X70612000Y-40386000D03*
X73025000Y-43307000D03*
X14732000Y-25400000D03*
X44250000Y-42250000D03*
X36750000Y-37250000D03*
X15875000Y-31369000D03*
X71374000Y-30734000D03*
X77597000Y-29845000D03*
X33000000Y-17500000D03*
X35000000Y-26000000D03*
X32250000Y-17250000D03*
X33500000Y-26250000D03*
X22750000Y-28750000D03*
X37000000Y-26000000D03*
X67437000Y-26035000D03*
X67437000Y-19558000D03*
X44000000Y-30000000D03*
X44000000Y-27000000D03*
X38000000Y-25000000D03*
X41000000Y-26000000D03*
X43000000Y-32000000D03*
X45000000Y-26000000D03*
X39000000Y-32000000D03*
X39000000Y-28000000D03*
X74000000Y-38100000D03*
X80391000Y-40513000D03*
X73787000Y-42799000D03*
X71628000Y-40386000D03*
X37000000Y-23000000D03*
X35750000Y-17500000D03*
X35000000Y-37000000D03*
X39250000Y-42500000D03*
X39000000Y3000000D03*
X8750000Y3000000D03*
X40750000Y1000000D03*
X15250000Y-2000000D03*
X15250000Y-500000D03*
X40250000Y1750000D03*
X39750000Y2500000D03*
X15250000Y750000D03*
X42750000Y-6250000D03*
X15250000Y-7000000D03*
X42250000Y-5500000D03*
X15250000Y-5750000D03*
X41656000Y-4445000D03*
X15240000Y-4445000D03*
X41250000Y-3500000D03*
X8750000Y-3500000D03*
X63250000Y-19500000D03*
X49000000Y-21000000D03*
X48000000Y-23000000D03*
X65015000Y-18787000D03*
X65015000Y-17644000D03*
X48000000Y-25000000D03*
X63999000Y-18787000D03*
X45000000Y-23000000D03*
X26670000Y-7112000D03*
X25273000Y-7112000D03*
X30226000Y-1905000D03*
X34671000Y-7112000D03*
X29083000Y-7112000D03*
X45203000Y-7865000D03*
X45711000Y-8627000D03*
X46219000Y-9389000D03*
X46727000Y-10151000D03*
X47250000Y-11750000D03*
X47750000Y-12500000D03*
X48250000Y-13250000D03*
X48641000Y-14224000D03*
X38354000Y-57785000D03*
D34*
X89535000Y-63500000D02*
X77089000Y-63500000D01*
X77089000Y-63500000D02*
X67691000Y-54102000D01*
X67691000Y-54102000D02*
X61849000Y-54102000D01*
X61849000Y-54102000D02*
X58447000Y-50700000D01*
X58447000Y-50700000D02*
X43500000Y-50700000D01*
X43500000Y-50700000D02*
X41568000Y-48768000D01*
X41568000Y-48768000D02*
X17272000Y-48768000D01*
X17272000Y-48768000D02*
X12192000Y-43688000D01*
X12192000Y-43688000D02*
X3683000Y-43688000D01*
X3683000Y-43688000D02*
X880000Y-40885000D01*
X-1660000Y-40885000D02*
X-1660000Y-42282000D01*
X-1660000Y-42282000D02*
X-254000Y-43688000D01*
X-254000Y-43688000D02*
X5588000Y-43688000D01*
X67691000Y-54102000D02*
X77089000Y-63500000D01*
X61849000Y-54102000D02*
X67691000Y-54102000D01*
X17272000Y-48768000D02*
X12192000Y-43688000D01*
X12192000Y-43688000D02*
X5588000Y-43688000D01*
X5588000Y-43688000D02*
X3683000Y-43688000D01*
X19177000Y-61214000D02*
X61087000Y-61214000D01*
X61087000Y-61214000D02*
X71247000Y-71374000D01*
X89535000Y-64389000D02*
X82550000Y-71374000D01*
X89535000Y-63500000D02*
X89535000Y-64389000D01*
X82550000Y-71374000D02*
X71247000Y-71374000D01*
X3683000Y-43688000D02*
X880000Y-40885000D01*
X10541000Y-55626000D02*
X8509000Y-53594000D01*
X19177000Y-61214000D02*
X13589000Y-55626000D01*
X13589000Y-55626000D02*
X10541000Y-55626000D01*
D35*
X3683000Y-43688000D02*
X880000Y-40885000D01*
D36*
X8509000Y-53594000D02*
X9271000Y-54356000D01*
X9271000Y-53594000D02*
X9271000Y-52832000D01*
X8509000Y-52832000D02*
X8509000Y-53594000D01*
X7937500Y-54165500D02*
X8509000Y-53594000D01*
X8064500Y-53403500D02*
X8064500Y-53657500D01*
D35*
X8064500Y-53657500D02*
X8001000Y-53594000D01*
D37*
X80052000Y-29464000D02*
X80264000Y-29464000D01*
X80264000Y-29464000D02*
X80645000Y-29845000D01*
X72856000Y-29337000D02*
X72771000Y-29337000D01*
X72771000Y-29337000D02*
X72390000Y-29718000D01*
X72390000Y-29718000D02*
X72009000Y-29718000D01*
X70231000Y-28829000D02*
X70231000Y-28279000D01*
X70231000Y-28279000D02*
X70316000Y-28194000D01*
X66506000Y-38100000D02*
X66167000Y-38100000D01*
X66167000Y-38100000D02*
X65913000Y-38354000D01*
X80052000Y-38227000D02*
X80645000Y-38227000D01*
X52747000Y-58420000D02*
X53594000Y-58420000D01*
X50419000Y-70908000D02*
X50419000Y-71501000D01*
X20997000Y-31750000D02*
X20997000Y-32173000D01*
X20997000Y-32173000D02*
X21082000Y-32258000D01*
X21209000Y-29506000D02*
X21167000Y-29506000D01*
X21167000Y-29506000D02*
X20828000Y-29845000D01*
X20828000Y-29845000D02*
X20320000Y-29845000D01*
X18119000Y-24765000D02*
X18119000Y-25231000D01*
X18119000Y-25231000D02*
X18288000Y-25400000D01*
X9864000Y-26924000D02*
X9271000Y-26924000D01*
X13885000Y-29845000D02*
X14478000Y-29845000D01*
X13208000Y-22310000D02*
X12615000Y-22310000D01*
X12615000Y-22310000D02*
X12573000Y-22352000D01*
X13970000Y-33951000D02*
X13970000Y-34544000D01*
X27000000Y-37000000D02*
X27400000Y-37000000D01*
X27400000Y-37000000D02*
X27800000Y-37400000D01*
X27000000Y-37000000D02*
X27400000Y-37000000D01*
X27400000Y-37000000D02*
X27800000Y-36600000D01*
X27000000Y-37000000D02*
X26600000Y-37000000D01*
X26600000Y-37000000D02*
X26200000Y-37400000D01*
X12065000Y-36510000D02*
X12065000Y-36576000D01*
X12065000Y-36576000D02*
X12573000Y-37084000D01*
X12065000Y-36510000D02*
X12065000Y-36576000D01*
X12065000Y-36576000D02*
X11557000Y-37084000D01*
X75819000Y-29887000D02*
X76412000Y-29887000D01*
X76412000Y-29887000D02*
X76454000Y-29845000D01*
D36*
X28787000Y-1397000D02*
X28787000Y-1736000D01*
X28787000Y-1736000D02*
X29083000Y-2032000D01*
D37*
X47250000Y-31950000D02*
X47950000Y-31950000D01*
X47950000Y-31950000D02*
X48000000Y-32000000D01*
X43000000Y-34050000D02*
X42050000Y-34050000D01*
X42050000Y-34050000D02*
X42000000Y-34000000D01*
X42200000Y-31000000D02*
X43000000Y-31000000D01*
X42200000Y-31000000D02*
X42000000Y-30800000D01*
X39950000Y-32000000D02*
X39950000Y-31050000D01*
X39950000Y-31050000D02*
X40000000Y-31000000D01*
X38950000Y-34050000D02*
X39000000Y-34000000D01*
X38000000Y-34050000D02*
X38950000Y-34050000D01*
D36*
X70485000Y-19370000D02*
X70485000Y-18415000D01*
X75565000Y-19370000D02*
X75565000Y-18415000D01*
D38*
X45000000Y-29000000D02*
X44550000Y-29000000D01*
D37*
X86995000Y-38641020D02*
X86995000Y-37719000D01*
X86995000Y-37719000D02*
X86106000Y-36830000D01*
X86995000Y-38641020D02*
X86995000Y-38608000D01*
X86995000Y-38608000D02*
X85725000Y-37338000D01*
D36*
X89535000Y-58015000D02*
X90575000Y-58015000D01*
X90575000Y-58015000D02*
X90678000Y-57912000D01*
X89535000Y-44770000D02*
X90490000Y-44770000D01*
X90490000Y-44770000D02*
X90551000Y-44831000D01*
X90170000Y-25085000D02*
X90170000Y-24384000D01*
X88749000Y-23900000D02*
X88773000Y-23876000D01*
X87630000Y-23900000D02*
X88749000Y-23900000D01*
X90170000Y-25085000D02*
X90170000Y-24892000D01*
X89535000Y-44770000D02*
X89982000Y-44770000D01*
D37*
X48000000Y-28950000D02*
X47050000Y-28950000D01*
X47050000Y-28950000D02*
X47000000Y-29000000D01*
D36*
X73067000Y-38989000D02*
X73589000Y-38989000D01*
X73589000Y-38989000D02*
X73700000Y-39100000D01*
D37*
X37000000Y-19700000D02*
X37000000Y-19000000D01*
X37000000Y-19000000D02*
X37800000Y-18200000D01*
X39000000Y-21300000D02*
X39000000Y-19400000D01*
X39000000Y-19400000D02*
X38400000Y-18800000D01*
X34950000Y-31000000D02*
X34950000Y-31700000D01*
X35250000Y-32000000D02*
X36000000Y-32000000D01*
X34950000Y-31700000D02*
X35250000Y-32000000D01*
X37000000Y-29050000D02*
X37000000Y-30000000D01*
X48250000Y-48200000D02*
X48250000Y-48750000D01*
X48250000Y-48750000D02*
X48500000Y-49000000D01*
X48250000Y-48200000D02*
X49200000Y-48200000D01*
X49200000Y-48200000D02*
X49250000Y-48250000D01*
X29800000Y-26250000D02*
X30500000Y-26250000D01*
X29800000Y-26250000D02*
X29000000Y-26250000D01*
X55950000Y-25750000D02*
X56750000Y-25750000D01*
X55950000Y-25750000D02*
X55950000Y-24800000D01*
X55950000Y-24800000D02*
X56000000Y-24750000D01*
X50800000Y-24000000D02*
X51000000Y-24000000D01*
X51000000Y-24000000D02*
X51300000Y-24300000D01*
X41000000Y-23950000D02*
X41950000Y-23950000D01*
X41950000Y-23950000D02*
X42000000Y-24000000D01*
X35950000Y-25000000D02*
X35950000Y-24050000D01*
X35950000Y-24050000D02*
X36000000Y-24000000D01*
X35000000Y-21950000D02*
X34250000Y-21950000D01*
X34250000Y-21950000D02*
X33700000Y-21400000D01*
X34000000Y-37000000D02*
X34000000Y-36500000D01*
X34500000Y-36000000D02*
X34750000Y-36000000D01*
X34000000Y-36500000D02*
X34500000Y-36000000D01*
X34750000Y-36000000D02*
X35000000Y-36050000D01*
X39050000Y-36000000D02*
X39050000Y-35050000D01*
X39050000Y-35050000D02*
X39000000Y-35000000D01*
X47750000Y-34950000D02*
X47050000Y-34950000D01*
X47050000Y-34950000D02*
X47000000Y-35000000D01*
X43000000Y-24450000D02*
X42550000Y-24450000D01*
X42550000Y-24450000D02*
X42000000Y-25000000D01*
X47000000Y-25050000D02*
X47000000Y-26000000D01*
X48800000Y-27000000D02*
X48800000Y-27200000D01*
X48800000Y-27200000D02*
X48000000Y-28000000D01*
X45000000Y-23950000D02*
X45950000Y-23950000D01*
X45950000Y-23950000D02*
X46000000Y-24000000D01*
X46050000Y-27000000D02*
X46050000Y-26050000D01*
X46050000Y-26050000D02*
X46000000Y-26000000D01*
X52000000Y-40200000D02*
X52000000Y-40000000D01*
X52000000Y-40000000D02*
X52500000Y-39500000D01*
X52000000Y-40000000D02*
X51500000Y-39500000D01*
X56950000Y-37250000D02*
X57250000Y-37250000D01*
X57250000Y-37250000D02*
X57750000Y-37750000D01*
X56950000Y-37250000D02*
X57500000Y-37250000D01*
X57500000Y-37250000D02*
X57750000Y-37000000D01*
X56950000Y-35250000D02*
X57000000Y-35250000D01*
X57000000Y-35250000D02*
X57750000Y-36000000D01*
X56950000Y-35250000D02*
X57750000Y-35250000D01*
X45000000Y-32050000D02*
X44050000Y-32050000D01*
X44050000Y-32050000D02*
X44000000Y-32000000D01*
X39000000Y-25950000D02*
X39950000Y-25950000D01*
X39950000Y-25950000D02*
X40000000Y-26000000D01*
X38950000Y-29000000D02*
X38950000Y-29950000D01*
X38950000Y-29950000D02*
X39000000Y-30000000D01*
X42000000Y-26950000D02*
X41050000Y-26950000D01*
X41050000Y-26950000D02*
X41000000Y-27000000D01*
X19050000Y-29525000D02*
X19050000Y-30099000D01*
X19050000Y-29525000D02*
X18100000Y-29525000D01*
X18100000Y-29525000D02*
X18034000Y-29591000D01*
X12065000Y-36510000D02*
X11115000Y-36510000D01*
X11115000Y-36510000D02*
X11049000Y-36576000D01*
X12065000Y-36510000D02*
X13015000Y-36510000D01*
X13015000Y-36510000D02*
X13081000Y-36576000D01*
D36*
X66675000Y-29760000D02*
X66675000Y-30226000D01*
X66675000Y-30226000D02*
X66802000Y-30353000D01*
D37*
X82230000Y-24765000D02*
X82423000Y-24765000D01*
X82423000Y-24765000D02*
X82804000Y-24384000D01*
X82230000Y-24765000D02*
X82296000Y-24765000D01*
X82296000Y-24765000D02*
X82804000Y-25273000D01*
X70165000Y-31115000D02*
X70165000Y-32065000D01*
X70165000Y-32065000D02*
X70231000Y-32131000D01*
X70165000Y-31115000D02*
X70612000Y-31115000D01*
X70612000Y-31115000D02*
X70866000Y-31369000D01*
D36*
X33655000Y-55965000D02*
X33232000Y-55965000D01*
X33232000Y-55965000D02*
X33147000Y-55880000D01*
X37015000Y-57785000D02*
X36576000Y-57785000D01*
X42545000Y-71035000D02*
X42545000Y-71628000D01*
X46270000Y-67691000D02*
X46482000Y-67691000D01*
X46482000Y-67691000D02*
X46863000Y-67310000D01*
X45085000Y-72239000D02*
X46204000Y-72239000D01*
X46204000Y-72239000D02*
X46228000Y-72263000D01*
X45085000Y-72239000D02*
X43966000Y-72239000D01*
X43966000Y-72239000D02*
X43942000Y-72263000D01*
X40640000Y-73255000D02*
X39521000Y-73255000D01*
X39521000Y-73255000D02*
X39497000Y-73279000D01*
X40640000Y-73255000D02*
X41759000Y-73255000D01*
X41759000Y-73255000D02*
X41783000Y-73279000D01*
D37*
X26355000Y-51435000D02*
X25400000Y-51435000D01*
X28170000Y-53975000D02*
X27305000Y-53975000D01*
X26355000Y-59055000D02*
X25527000Y-59055000D01*
X43000000Y-30000000D02*
X42300000Y-30000000D01*
X42300000Y-30000000D02*
X42000000Y-29700000D01*
X41050000Y-32000000D02*
X41050000Y-31050000D01*
X41050000Y-31050000D02*
X41000000Y-31000000D01*
D38*
X43000000Y-29000000D02*
X43450000Y-29000000D01*
D37*
X43000000Y-25550000D02*
X43000000Y-27000000D01*
X52000000Y-38300000D02*
X52800000Y-38300000D01*
X52800000Y-38300000D02*
X53000000Y-38500000D01*
X52000000Y-38300000D02*
X52000000Y-38000000D01*
X52000000Y-38000000D02*
X51500000Y-37500000D01*
X55050000Y-37250000D02*
X55500000Y-37250000D01*
X55500000Y-37250000D02*
X55750000Y-37500000D01*
X55050000Y-37250000D02*
X55050000Y-36800000D01*
X55050000Y-36800000D02*
X54500000Y-36250000D01*
X55050000Y-35250000D02*
X54250000Y-35250000D01*
X55050000Y-35250000D02*
X53500000Y-35250000D01*
X45000000Y-30950000D02*
X44050000Y-30950000D01*
X44050000Y-30950000D02*
X44000000Y-31000000D01*
X39050000Y-27000000D02*
X40000000Y-27000000D01*
X39050000Y-27000000D02*
X39000000Y-27050000D01*
X40050000Y-29000000D02*
X40050000Y-29950000D01*
X40050000Y-29950000D02*
X40000000Y-30000000D01*
X42000000Y-28050000D02*
X41050000Y-28050000D01*
X41050000Y-28050000D02*
X41000000Y-28000000D01*
X9525000Y-27686000D02*
X9525000Y-28406000D01*
X7620000Y-28006000D02*
X9125000Y-28006000D01*
X9125000Y-28006000D02*
X9525000Y-28406000D01*
D38*
X9525000Y-28406000D02*
X9525000Y-27686000D01*
D37*
X9525000Y-29506000D02*
X10075000Y-29506000D01*
X10075000Y-29506000D02*
X10287000Y-29718000D01*
X7620000Y-29906000D02*
X9125000Y-29906000D01*
X9125000Y-29906000D02*
X9525000Y-29506000D01*
X78952000Y-29464000D02*
X78952000Y-28871000D01*
X78952000Y-28871000D02*
X78994000Y-28829000D01*
X71120000Y-28829000D02*
X71120000Y-28490000D01*
X71120000Y-28490000D02*
X71416000Y-28194000D01*
D36*
X71501000Y-28152000D02*
X71543000Y-28194000D01*
D37*
X67606000Y-38100000D02*
X68199000Y-38100000D01*
X78952000Y-38227000D02*
X78359000Y-38227000D01*
X51647000Y-58420000D02*
X51054000Y-58420000D01*
X50419000Y-69808000D02*
X50419000Y-69088000D01*
X19897000Y-31750000D02*
X19177000Y-31750000D01*
X21209000Y-28406000D02*
X21040000Y-28406000D01*
X21040000Y-28406000D02*
X20828000Y-28194000D01*
X20828000Y-28194000D02*
X20320000Y-28194000D01*
X49750000Y-38000000D02*
X49250000Y-37500000D01*
X48250000Y-33000000D02*
X49250000Y-34000000D01*
X49250000Y-34000000D02*
X49250000Y-37500000D01*
X48250000Y-33000000D02*
X48000000Y-33000000D01*
X48000000Y-30050000D02*
X47050000Y-30050000D01*
X47050000Y-30050000D02*
X47000000Y-30000000D01*
X32250000Y-39700000D02*
X31800000Y-39700000D01*
X31800000Y-39700000D02*
X31000000Y-40500000D01*
X32250000Y-39700000D02*
X32200000Y-39700000D01*
X32200000Y-39700000D02*
X31750000Y-40500000D01*
X32250000Y-39700000D02*
X32450000Y-40450000D01*
X32450000Y-40450000D02*
X32500000Y-40500000D01*
X32250000Y-39700000D02*
X32800000Y-39700000D01*
X32800000Y-39700000D02*
X33250000Y-40500000D01*
X37000000Y-20800000D02*
X37000000Y-22000000D01*
X36050000Y-31000000D02*
X37000000Y-31000000D01*
X48250000Y-46300000D02*
X48250000Y-47000000D01*
X48250000Y-46300000D02*
X48250000Y-46000000D01*
X48250000Y-46000000D02*
X47750000Y-45500000D01*
X31700000Y-26250000D02*
X32500000Y-26250000D01*
X54050000Y-25750000D02*
X54050000Y-24950000D01*
X54050000Y-24950000D02*
X54250000Y-24750000D01*
X54050000Y-25750000D02*
X53250000Y-25750000D01*
X49700000Y-24000000D02*
X49000000Y-24000000D01*
X35000000Y-23050000D02*
X35000000Y-24000000D01*
X35000000Y-34950000D02*
X35000000Y-34000000D01*
X37950000Y-36000000D02*
X37000000Y-36000000D01*
X47750000Y-36050000D02*
X47050000Y-36050000D01*
X47050000Y-36050000D02*
X47000000Y-36000000D01*
X47000000Y-23950000D02*
X47000000Y-23000000D01*
X47950000Y-33050000D02*
X48000000Y-33000000D01*
X47950000Y-33050000D02*
X47250000Y-33050000D01*
X47700000Y-27000000D02*
X47000000Y-27000000D01*
X37000000Y-27950000D02*
X37000000Y-27000000D01*
X19050000Y-27625000D02*
X19050000Y-27051000D01*
X19050000Y-27625000D02*
X18100000Y-27625000D01*
X18100000Y-27625000D02*
X18034000Y-27559000D01*
X19219000Y-24765000D02*
X19219000Y-25231000D01*
X19219000Y-25231000D02*
X19050000Y-25400000D01*
D36*
X71967000Y-38989000D02*
X71967000Y-38820000D01*
X71967000Y-38820000D02*
X71374000Y-38227000D01*
X66675000Y-28660000D02*
X67649000Y-28660000D01*
X67649000Y-28660000D02*
X67691000Y-28702000D01*
D37*
X82230000Y-22860000D02*
X82931000Y-22860000D01*
X82230000Y-22860000D02*
X82230000Y-21905000D01*
X82230000Y-21905000D02*
X82169000Y-21844000D01*
X68265000Y-31115000D02*
X67691000Y-31115000D01*
X67691000Y-31115000D02*
X67564000Y-30988000D01*
X68265000Y-31115000D02*
X68265000Y-30165000D01*
X68265000Y-30165000D02*
X68199000Y-30099000D01*
D36*
X33655000Y-57065000D02*
X33655000Y-57277000D01*
X33655000Y-57277000D02*
X34036000Y-57658000D01*
X39820000Y-57785000D02*
X40259000Y-57785000D01*
X40640000Y-66360000D02*
X40640000Y-67056000D01*
X40640000Y-66360000D02*
X39812000Y-66360000D01*
X39812000Y-66360000D02*
X39751000Y-66421000D01*
D37*
X25170000Y-53975000D02*
X22860000Y-53975000D01*
X20574000Y-17272000D02*
X22606000Y-17272000D01*
X22606000Y-17272000D02*
X24892000Y-14986000D01*
X20574000Y-17272000D02*
X18288000Y-17272000D01*
X18288000Y-17272000D02*
X14224000Y-21336000D01*
X14224000Y-21336000D02*
X14224000Y-22352000D01*
D34*
X880000Y-30725000D02*
X1515000Y-30725000D01*
X1515000Y-30725000D02*
X4064000Y-33274000D01*
X4064000Y-33274000D02*
X10668000Y-33274000D01*
D38*
X12192000Y-32766000D02*
X12954000Y-32766000D01*
D37*
X12404000Y-26543000D02*
X12065000Y-26543000D01*
X12065000Y-26543000D02*
X11684000Y-26924000D01*
X12658000Y-29972000D02*
X11811000Y-29972000D01*
X12658000Y-29972000D02*
X12785000Y-29845000D01*
X13335000Y-23453000D02*
X13885000Y-23453000D01*
X13885000Y-23453000D02*
X13970000Y-23368000D01*
X28255000Y-51435000D02*
X30480000Y-51435000D01*
D36*
X41783000Y-68961000D02*
X42545000Y-68961000D01*
X70584060Y-24765000D02*
X70584060Y-21369060D01*
X70584060Y-21369060D02*
X70485000Y-21270000D01*
X75565000Y-21270000D02*
X75565000Y-24665940D01*
X75565000Y-24665940D02*
X75465940Y-24765000D01*
D38*
X37750000Y-41750000D02*
X39750000Y-41750000D01*
X36000000Y-40000000D02*
X37750000Y-41750000D01*
X36000000Y-36000000D02*
X36000000Y-40000000D01*
X46000000Y-35000000D02*
X45000000Y-36000000D01*
X45000000Y-36000000D02*
X45000000Y-43000000D01*
X69342000Y-28829000D02*
X66548000Y-26035000D01*
X66548000Y-19558000D02*
X66548000Y-26035000D01*
X68453000Y-19558000D02*
X68453000Y-26162000D01*
X70636000Y-40386000D02*
X73037000Y-42787000D01*
X70612000Y-40386000D02*
X70636000Y-40386000D01*
X73037000Y-43295000D02*
X73025000Y-43307000D01*
X73037000Y-42787000D02*
X73037000Y-43295000D01*
X14917000Y-25585000D02*
X15240000Y-25585000D01*
X14732000Y-25400000D02*
X14917000Y-25585000D01*
X43000000Y-41000000D02*
X44250000Y-42250000D01*
X38250000Y-41000000D02*
X43000000Y-41000000D01*
X36750000Y-39500000D02*
X38250000Y-41000000D01*
X36750000Y-37250000D02*
X36750000Y-39500000D01*
X15240000Y-26485000D02*
X15240000Y-30665000D01*
X15240000Y-31565000D02*
X15679000Y-31565000D01*
X15679000Y-31565000D02*
X15875000Y-31369000D01*
X71374000Y-30734000D02*
X71501000Y-30861000D01*
X71501000Y-30861000D02*
X72644000Y-30861000D01*
X72517000Y-30861000D02*
X72644000Y-30861000D01*
X77597000Y-29845000D02*
X76581000Y-30861000D01*
X76581000Y-30861000D02*
X72644000Y-30861000D01*
X35000000Y-26000000D02*
X33000000Y-24000000D01*
X33000000Y-24000000D02*
X33000000Y-17500000D01*
X33500000Y-26250000D02*
X33500000Y-25250000D01*
X32250000Y-24000000D02*
X32250000Y-17250000D01*
X33500000Y-25250000D02*
X32250000Y-24000000D01*
X22750000Y-28750000D02*
X34250000Y-28750000D01*
X34250000Y-28750000D02*
X37000000Y-26000000D01*
X67437000Y-19558000D02*
X67437000Y-26035000D01*
D37*
X44000000Y-27000000D02*
X44950000Y-27000000D01*
D39*
X37750000Y-32500000D02*
X37250000Y-32500000D01*
X32250000Y-34250000D02*
X32250000Y-37800000D01*
X33500000Y-33000000D02*
X32250000Y-34250000D01*
X36750000Y-33000000D02*
X33500000Y-33000000D01*
X37250000Y-32500000D02*
X36750000Y-33000000D01*
D37*
X38000000Y-25000000D02*
X39000000Y-24000000D01*
X39000000Y-24000000D02*
X39000000Y-23200000D01*
X37050000Y-25000000D02*
X38000000Y-25000000D01*
X41000000Y-25050000D02*
X41000000Y-26000000D01*
X40950000Y-25950000D02*
X41000000Y-26000000D01*
X43000000Y-32950000D02*
X43000000Y-32000000D01*
X45000000Y-25050000D02*
X45000000Y-26000000D01*
X39000000Y-32950000D02*
X39000000Y-32000000D01*
D38*
X74000000Y-38100000D02*
X74041000Y-38100000D01*
X74041000Y-38100000D02*
X76454000Y-40513000D01*
X76454000Y-40513000D02*
X80391000Y-40513000D01*
D39*
X86995000Y-42638980D02*
X90076020Y-42638980D01*
X90076020Y-42638980D02*
X90170000Y-42545000D01*
D38*
X71628000Y-40640000D02*
X71628000Y-40386000D01*
X73787000Y-42799000D02*
X71628000Y-40640000D01*
X37000000Y-23000000D02*
X35750000Y-21750000D01*
X35750000Y-21750000D02*
X35750000Y-17500000D01*
X35000000Y-37000000D02*
X35000000Y-40500000D01*
X35000000Y-40500000D02*
X37000000Y-42500000D01*
X37000000Y-42500000D02*
X39250000Y-42500000D01*
X39000000Y3000000D02*
X8750000Y3000000D01*
X15250000Y-2000000D02*
X17500000Y250000D01*
X40000000Y250000D02*
X17500000Y250000D01*
X40750000Y1000000D02*
X40000000Y250000D01*
X15250000Y-500000D02*
X16500000Y750000D01*
X39250000Y750000D02*
X16500000Y750000D01*
X40250000Y1750000D02*
X39250000Y750000D01*
X15250000Y750000D02*
X16750000Y2250000D01*
X39500000Y2250000D02*
X16750000Y2250000D01*
X39750000Y2500000D02*
X39500000Y2250000D01*
X16000000Y-6250000D02*
X42750000Y-6250000D01*
X15250000Y-7000000D02*
X16000000Y-6250000D01*
X15250000Y-5750000D02*
X42000000Y-5750000D01*
X42000000Y-5750000D02*
X42250000Y-5500000D01*
X15240000Y-4445000D02*
X15240000Y-4490000D01*
X40851000Y-5250000D02*
X41656000Y-4445000D01*
X16000000Y-5250000D02*
X40851000Y-5250000D01*
X15240000Y-4490000D02*
X16000000Y-5250000D01*
X32004000Y-3175000D02*
X9075000Y-3175000D01*
X32329000Y-3500000D02*
X32004000Y-3175000D01*
X41250000Y-3500000D02*
X32329000Y-3500000D01*
X9075000Y-3175000D02*
X8750000Y-3500000D01*
X61000000Y-21750000D02*
X63250000Y-19500000D01*
X49250000Y-21750000D02*
X61000000Y-21750000D01*
X49000000Y-21000000D02*
X49000000Y-21250000D01*
X49000000Y-21250000D02*
X49250000Y-21750000D01*
X48000000Y-23000000D02*
X62199000Y-23000000D01*
X65015000Y-20184000D02*
X65015000Y-18787000D01*
X62199000Y-23000000D02*
X65015000Y-20184000D01*
X53500000Y-23750000D02*
X62465000Y-23750000D01*
X65904000Y-18533000D02*
X65015000Y-17644000D01*
X65904000Y-20311000D02*
X65904000Y-18533000D01*
X62465000Y-23750000D02*
X65904000Y-20311000D01*
X52250000Y-25000000D02*
X53500000Y-23750000D01*
X48000000Y-25000000D02*
X52250000Y-25000000D01*
X63999000Y-18787000D02*
X63999000Y-20057000D01*
X61806000Y-22250000D02*
X63999000Y-20057000D01*
X45000000Y-23000000D02*
X46000000Y-23000000D01*
X46750000Y-22250000D02*
X61806000Y-22250000D01*
X46000000Y-23000000D02*
X46750000Y-22250000D01*
D37*
X28255000Y-59055000D02*
X30480000Y-59055000D01*
X26670000Y-7112000D02*
X25908000Y-7112000D01*
X29083000Y-7112000D02*
X25908000Y-7112000D01*
X25908000Y-7112000D02*
X25273000Y-7112000D01*
D36*
X29887000Y-1397000D02*
X29887000Y-1566000D01*
X29887000Y-1566000D02*
X30226000Y-1905000D01*
D37*
X29083000Y-7112000D02*
X34671000Y-7112000D01*
D38*
X880000Y-15485000D02*
X1896000Y-15485000D01*
X1896000Y-15485000D02*
X3674000Y-17263000D01*
X11548000Y-17263000D02*
X3674000Y-17263000D01*
X45203000Y-7865000D02*
X20946000Y-7865000D01*
X20946000Y-7865000D02*
X11548000Y-17263000D01*
X-1660000Y-15485000D02*
X-390000Y-16755000D01*
X-390000Y-16755000D02*
X1515000Y-16755000D01*
X1515000Y-16755000D02*
X2658000Y-17898000D01*
X11675000Y-17898000D02*
X2658000Y-17898000D01*
X20946000Y-8627000D02*
X45711000Y-8627000D01*
X20946000Y-8627000D02*
X11675000Y-17898000D01*
X880000Y-18025000D02*
X1896000Y-18025000D01*
X46219000Y-9389000D02*
X20946000Y-9389000D01*
X11929000Y-18406000D02*
X2277000Y-18406000D01*
X20946000Y-9389000D02*
X11929000Y-18406000D01*
X1896000Y-18025000D02*
X2277000Y-18406000D01*
X-1660000Y-18025000D02*
X-390000Y-19295000D01*
X20946000Y-10151000D02*
X12183000Y-18914000D01*
X12183000Y-18914000D02*
X2531000Y-18914000D01*
X46727000Y-10151000D02*
X20946000Y-10151000D01*
X2150000Y-19295000D02*
X2531000Y-18914000D01*
X-390000Y-19295000D02*
X2150000Y-19295000D01*
X20184000Y-11675000D02*
X47175000Y-11675000D01*
X47175000Y-11675000D02*
X47250000Y-11750000D01*
X880000Y-20565000D02*
X1769000Y-20565000D01*
X2912000Y-19422000D02*
X12437000Y-19422000D01*
X1769000Y-20565000D02*
X2912000Y-19422000D01*
X20184000Y-11675000D02*
X12437000Y-19422000D01*
X20311000Y-12437000D02*
X47687000Y-12437000D01*
X47687000Y-12437000D02*
X47750000Y-12500000D01*
X-1660000Y-20565000D02*
X-1406000Y-20565000D01*
X-1406000Y-20565000D02*
X-136000Y-21835000D01*
X-136000Y-21835000D02*
X2023000Y-21835000D01*
X2023000Y-21835000D02*
X3801000Y-20057000D01*
X3801000Y-20057000D02*
X12691000Y-20057000D01*
X20311000Y-12437000D02*
X12691000Y-20057000D01*
X20438000Y-13326000D02*
X48174000Y-13326000D01*
X48174000Y-13326000D02*
X48250000Y-13250000D01*
X880000Y-23105000D02*
X1769000Y-23105000D01*
X20438000Y-13326000D02*
X13199000Y-20565000D01*
X13199000Y-20565000D02*
X4309000Y-20565000D01*
X1769000Y-23105000D02*
X4309000Y-20565000D01*
X48632000Y-14215000D02*
X48641000Y-14224000D01*
X-517000Y-24375000D02*
X-1660000Y-23232000D01*
X-517000Y-24375000D02*
X1896000Y-24375000D01*
X1896000Y-24375000D02*
X5071000Y-21200000D01*
X5071000Y-21200000D02*
X13199000Y-21200000D01*
X20184000Y-14215000D02*
X13199000Y-21200000D01*
X48632000Y-14215000D02*
X20184000Y-14215000D01*
X-1660000Y-23105000D02*
X-1660000Y-23232000D01*
D36*
X38920000Y-57785000D02*
X38354000Y-57785000D01*
X38354000Y-57785000D02*
X37915000Y-57785000D01*
G36*
X42074197Y-68669803D02*
X42116211Y-68697666D01*
X42164000Y-68707000D01*
X42799000Y-68707000D01*
X42799000Y-70217858D01*
X42795000Y-70217048D01*
X42295000Y-70217048D01*
X42106747Y-70252470D01*
X41933847Y-70363728D01*
X41817855Y-70533488D01*
X41777048Y-70735000D01*
X41777048Y-70739000D01*
X40005000Y-70739000D01*
X40005000Y-67945000D01*
X41349394Y-67945000D01*
X42074197Y-68669803D01*
X42074197Y-68669803D01*
G37*
X42074197Y-68669803D02*
X42116211Y-68697666D01*
X42164000Y-68707000D01*
X42799000Y-68707000D01*
X42799000Y-70217858D01*
X42795000Y-70217048D01*
X42295000Y-70217048D01*
X42106747Y-70252470D01*
X41933847Y-70363728D01*
X41817855Y-70533488D01*
X41777048Y-70735000D01*
X41777048Y-70739000D01*
X40005000Y-70739000D01*
X40005000Y-67945000D01*
X41349394Y-67945000D01*
X42074197Y-68669803D01*
G36*
X45452048Y-67941000D02*
X45487470Y-68129253D01*
X45598728Y-68302153D01*
X45768488Y-68418145D01*
X45847000Y-68434044D01*
X45847000Y-69723000D01*
X44964357Y-69723000D01*
X44784016Y-69542343D01*
X44485385Y-69418341D01*
X44323000Y-69418199D01*
X44323000Y-67868690D01*
X44610967Y-67868941D01*
X44909813Y-67745460D01*
X45091591Y-67564000D01*
X45452048Y-67564000D01*
X45452048Y-67941000D01*
X45452048Y-67941000D01*
G37*
X45452048Y-67941000D02*
X45487470Y-68129253D01*
X45598728Y-68302153D01*
X45768488Y-68418145D01*
X45847000Y-68434044D01*
X45847000Y-69723000D01*
X44964357Y-69723000D01*
X44784016Y-69542343D01*
X44485385Y-69418341D01*
X44323000Y-69418199D01*
X44323000Y-67868690D01*
X44610967Y-67868941D01*
X44909813Y-67745460D01*
X45091591Y-67564000D01*
X45452048Y-67564000D01*
X45452048Y-67941000D01*
G36*
X9525000Y-54864000D02*
X6731000Y-54864000D01*
X6731000Y-52451000D01*
X9525000Y-52451000D01*
X9525000Y-54864000D01*
X9525000Y-54864000D01*
G37*
X9525000Y-54864000D02*
X6731000Y-54864000D01*
X6731000Y-52451000D01*
X9525000Y-52451000D01*
X9525000Y-54864000D01*
G36*
X55873000Y-38873000D02*
X52778332Y-38873000D01*
X52637013Y-38814319D01*
X52364184Y-38814081D01*
X52221590Y-38873000D01*
X51778332Y-38873000D01*
X51637013Y-38814319D01*
X51364184Y-38814081D01*
X51221590Y-38873000D01*
X50627000Y-38873000D01*
X50627000Y-37799401D01*
X53341749Y-34837857D01*
X53552606Y-34627000D01*
X55873000Y-34627000D01*
X55873000Y-38873000D01*
X55873000Y-38873000D01*
G37*
X55873000Y-38873000D02*
X52778332Y-38873000D01*
X52637013Y-38814319D01*
X52364184Y-38814081D01*
X52221590Y-38873000D01*
X51778332Y-38873000D01*
X51637013Y-38814319D01*
X51364184Y-38814081D01*
X51221590Y-38873000D01*
X50627000Y-38873000D01*
X50627000Y-37799401D01*
X53341749Y-34837857D01*
X53552606Y-34627000D01*
X55873000Y-34627000D01*
X55873000Y-38873000D01*
G36*
X58123000Y-38373000D02*
X56627000Y-38373000D01*
X56627000Y-34627000D01*
X58123000Y-34627000D01*
X58123000Y-38373000D01*
X58123000Y-38373000D01*
G37*
X58123000Y-38373000D02*
X56627000Y-38373000D01*
X56627000Y-34627000D01*
X58123000Y-34627000D01*
X58123000Y-38373000D01*
G36*
X36862987Y-24685681D02*
X37135816Y-24685919D01*
X37278410Y-24627000D01*
X39721668Y-24627000D01*
X39862987Y-24685681D01*
X40135816Y-24685919D01*
X40278410Y-24627000D01*
X40693388Y-24627000D01*
X40750000Y-24638464D01*
X41250000Y-24638464D01*
X41310925Y-24627000D01*
X41412310Y-24627000D01*
X41314319Y-24862987D01*
X41314081Y-25135816D01*
X41418268Y-25387967D01*
X41611018Y-25581054D01*
X41862987Y-25685681D01*
X42135816Y-25685919D01*
X42361536Y-25592653D01*
X42361536Y-25850000D01*
X42365000Y-25868409D01*
X42365000Y-26284824D01*
X42250000Y-26261536D01*
X41750000Y-26261536D01*
X41608810Y-26288103D01*
X41567011Y-26315000D01*
X41138653Y-26315000D01*
X41137013Y-26314319D01*
X40864184Y-26314081D01*
X40612033Y-26418268D01*
X40499974Y-26530132D01*
X40469868Y-26499974D01*
X40581054Y-26388982D01*
X40685681Y-26137013D01*
X40685919Y-25864184D01*
X40581732Y-25612033D01*
X40388982Y-25418946D01*
X40137013Y-25314319D01*
X39864184Y-25314081D01*
X39861960Y-25315000D01*
X39434589Y-25315000D01*
X39401134Y-25292141D01*
X39250000Y-25261536D01*
X38750000Y-25261536D01*
X38608810Y-25288103D01*
X38479135Y-25371546D01*
X38392141Y-25498866D01*
X38361536Y-25650000D01*
X38361536Y-26250000D01*
X38388103Y-26391190D01*
X38458883Y-26501186D01*
X38392141Y-26598866D01*
X38361536Y-26750000D01*
X38361536Y-27350000D01*
X38388103Y-27491190D01*
X38471546Y-27620865D01*
X38598866Y-27707859D01*
X38750000Y-27738464D01*
X39250000Y-27738464D01*
X39375859Y-27714782D01*
X39314319Y-27862987D01*
X39314081Y-28135816D01*
X39418268Y-28387967D01*
X39468134Y-28437920D01*
X39401134Y-28392141D01*
X39250000Y-28361536D01*
X38650000Y-28361536D01*
X38508810Y-28388103D01*
X38379135Y-28471546D01*
X38292141Y-28598866D01*
X38261536Y-28750000D01*
X38261536Y-29250000D01*
X38288103Y-29391190D01*
X38315000Y-29432989D01*
X38315000Y-29861347D01*
X38314319Y-29862987D01*
X38314081Y-30135816D01*
X38418268Y-30387967D01*
X38611018Y-30581054D01*
X38862987Y-30685681D01*
X39135816Y-30685919D01*
X39387967Y-30581732D01*
X39500026Y-30469868D01*
X39530132Y-30500026D01*
X39418946Y-30611018D01*
X39314319Y-30862987D01*
X39314081Y-31135816D01*
X39315000Y-31138040D01*
X39315000Y-31565411D01*
X39292141Y-31598866D01*
X39261536Y-31750000D01*
X39261536Y-32250000D01*
X39288103Y-32391190D01*
X39371546Y-32520865D01*
X39498866Y-32607859D01*
X39650000Y-32638464D01*
X40250000Y-32638464D01*
X40391190Y-32611897D01*
X40501186Y-32541117D01*
X40598866Y-32607859D01*
X40750000Y-32638464D01*
X41350000Y-32638464D01*
X41491190Y-32611897D01*
X41582898Y-32552885D01*
X41611018Y-32581054D01*
X41862987Y-32685681D01*
X42135816Y-32685919D01*
X42387967Y-32581732D01*
X42581054Y-32388982D01*
X42685681Y-32137013D01*
X42685919Y-31864184D01*
X42591222Y-31635000D01*
X42740934Y-31635000D01*
X42862987Y-31685681D01*
X43135816Y-31685919D01*
X43387967Y-31581732D01*
X43500026Y-31469868D01*
X43530132Y-31500026D01*
X43418946Y-31611018D01*
X43314319Y-31862987D01*
X43314081Y-32135816D01*
X43418268Y-32387967D01*
X43611018Y-32581054D01*
X43862987Y-32685681D01*
X44135816Y-32685919D01*
X44138040Y-32685000D01*
X44565411Y-32685000D01*
X44598866Y-32707859D01*
X44750000Y-32738464D01*
X45250000Y-32738464D01*
X45391190Y-32711897D01*
X45520865Y-32628454D01*
X45607859Y-32501134D01*
X45638464Y-32350000D01*
X45638464Y-31750000D01*
X45611897Y-31608810D01*
X45541117Y-31498814D01*
X45607859Y-31401134D01*
X45638464Y-31250000D01*
X45638464Y-30650000D01*
X45611897Y-30508810D01*
X45528454Y-30379135D01*
X45401134Y-30292141D01*
X45250000Y-30261536D01*
X44750000Y-30261536D01*
X44608810Y-30288103D01*
X44567011Y-30315000D01*
X44138653Y-30315000D01*
X44137013Y-30314319D01*
X43864184Y-30314081D01*
X43612033Y-30418268D01*
X43499974Y-30530132D01*
X43469868Y-30499974D01*
X43581054Y-30388982D01*
X43685681Y-30137013D01*
X43685919Y-29864184D01*
X43592653Y-29638464D01*
X43750000Y-29638464D01*
X43891190Y-29611897D01*
X44001186Y-29541117D01*
X44098866Y-29607859D01*
X44250000Y-29638464D01*
X44749276Y-29638464D01*
X44862987Y-29685681D01*
X45135816Y-29685919D01*
X45387967Y-29581732D01*
X45581054Y-29388982D01*
X45685681Y-29137013D01*
X45685919Y-28864184D01*
X45581732Y-28612033D01*
X45388982Y-28418946D01*
X45137013Y-28314319D01*
X44864184Y-28314081D01*
X44749334Y-28361536D01*
X44250000Y-28361536D01*
X44108810Y-28388103D01*
X43998814Y-28458883D01*
X43901134Y-28392141D01*
X43750000Y-28361536D01*
X43592451Y-28361536D01*
X43685681Y-28137013D01*
X43685919Y-27864184D01*
X43581732Y-27612033D01*
X43469868Y-27499974D01*
X43581054Y-27388982D01*
X43685681Y-27137013D01*
X43685919Y-26864184D01*
X43635000Y-26740951D01*
X43635000Y-25867106D01*
X43638464Y-25850000D01*
X43638464Y-25250000D01*
X43611897Y-25108810D01*
X43541117Y-24998814D01*
X43607859Y-24901134D01*
X43638464Y-24750000D01*
X43638464Y-24627000D01*
X43721667Y-24627000D01*
X43862987Y-24685681D01*
X44135816Y-24685919D01*
X44278410Y-24627000D01*
X44693388Y-24627000D01*
X44750000Y-24638464D01*
X45250000Y-24638464D01*
X45310925Y-24627000D01*
X45721668Y-24627000D01*
X45862987Y-24685681D01*
X46135816Y-24685919D01*
X46278410Y-24627000D01*
X46386444Y-24627000D01*
X46361536Y-24750000D01*
X46361536Y-25350000D01*
X46365000Y-25368409D01*
X46365000Y-25408988D01*
X46137013Y-25314319D01*
X45864184Y-25314081D01*
X45612033Y-25418268D01*
X45418946Y-25611018D01*
X45314319Y-25862987D01*
X45314081Y-26135816D01*
X45415000Y-26380058D01*
X45415000Y-26565411D01*
X45392141Y-26598866D01*
X45361536Y-26750000D01*
X45361536Y-27250000D01*
X45388103Y-27391190D01*
X45471546Y-27520865D01*
X45598866Y-27607859D01*
X45750000Y-27638464D01*
X46350000Y-27638464D01*
X46491190Y-27611897D01*
X46582898Y-27552885D01*
X46611018Y-27581054D01*
X46862987Y-27685681D01*
X47123000Y-27685908D01*
X47123000Y-28314307D01*
X46864184Y-28314081D01*
X46612033Y-28418268D01*
X46418946Y-28611018D01*
X46314319Y-28862987D01*
X46314081Y-29135816D01*
X46418268Y-29387967D01*
X46530132Y-29500026D01*
X46418946Y-29611018D01*
X46314319Y-29862987D01*
X46314081Y-30135816D01*
X46418268Y-30387967D01*
X46611018Y-30581054D01*
X46862987Y-30685681D01*
X47123000Y-30685908D01*
X47123000Y-31261536D01*
X47000000Y-31261536D01*
X46858810Y-31288103D01*
X46729135Y-31371546D01*
X46642141Y-31498866D01*
X46611536Y-31650000D01*
X46611536Y-32250000D01*
X46638103Y-32391190D01*
X46708883Y-32501186D01*
X46642141Y-32598866D01*
X46611536Y-32750000D01*
X46611536Y-33350000D01*
X46638103Y-33491190D01*
X46721546Y-33620865D01*
X46848866Y-33707859D01*
X47000000Y-33738464D01*
X47123000Y-33738464D01*
X47123000Y-33873000D01*
X46685911Y-33873000D01*
X46685919Y-33864184D01*
X46581732Y-33612033D01*
X46388982Y-33418946D01*
X46137013Y-33314319D01*
X45864184Y-33314081D01*
X45612033Y-33418268D01*
X45418946Y-33611018D01*
X45314319Y-33862987D01*
X45314310Y-33873000D01*
X44685911Y-33873000D01*
X44685919Y-33864184D01*
X44581732Y-33612033D01*
X44388982Y-33418946D01*
X44137013Y-33314319D01*
X43864184Y-33314081D01*
X43612033Y-33418268D01*
X43537295Y-33492875D01*
X43528454Y-33479135D01*
X43401134Y-33392141D01*
X43250000Y-33361536D01*
X42750000Y-33361536D01*
X42608810Y-33388103D01*
X42567011Y-33415000D01*
X42379479Y-33415000D01*
X42137013Y-33314319D01*
X41864184Y-33314081D01*
X41612033Y-33418268D01*
X41418946Y-33611018D01*
X41314319Y-33862987D01*
X41314310Y-33873000D01*
X40685911Y-33873000D01*
X40685919Y-33864184D01*
X40581732Y-33612033D01*
X40388982Y-33418946D01*
X40137013Y-33314319D01*
X39864184Y-33314081D01*
X39612033Y-33418268D01*
X39499974Y-33530132D01*
X39388982Y-33418946D01*
X39137013Y-33314319D01*
X38864184Y-33314081D01*
X38619942Y-33415000D01*
X38434589Y-33415000D01*
X38401134Y-33392141D01*
X38250000Y-33361536D01*
X37750000Y-33361536D01*
X37608810Y-33388103D01*
X37479135Y-33471546D01*
X37392141Y-33598866D01*
X37361536Y-33750000D01*
X37361536Y-33873000D01*
X36627000Y-33873000D01*
X36627000Y-32278332D01*
X36685681Y-32137013D01*
X36685919Y-31864184D01*
X36627000Y-31721589D01*
X36627000Y-31635000D01*
X36740934Y-31635000D01*
X36862987Y-31685681D01*
X37135816Y-31685919D01*
X37387967Y-31581732D01*
X37581054Y-31388982D01*
X37685681Y-31137013D01*
X37685919Y-30864184D01*
X37581732Y-30612033D01*
X37469868Y-30499974D01*
X37581054Y-30388982D01*
X37685681Y-30137013D01*
X37685919Y-29864184D01*
X37635000Y-29740951D01*
X37635000Y-29367106D01*
X37638464Y-29350000D01*
X37638464Y-28750000D01*
X37611897Y-28608810D01*
X37541117Y-28498814D01*
X37607859Y-28401134D01*
X37638464Y-28250000D01*
X37638464Y-27650000D01*
X37635000Y-27631591D01*
X37635000Y-27259066D01*
X37685681Y-27137013D01*
X37685919Y-26864184D01*
X37581732Y-26612033D01*
X37469868Y-26499974D01*
X37581054Y-26388982D01*
X37685681Y-26137013D01*
X37685919Y-25864184D01*
X37581732Y-25612033D01*
X37388982Y-25418946D01*
X37137013Y-25314319D01*
X36864184Y-25314081D01*
X36627000Y-25412084D01*
X36627000Y-25306612D01*
X36638464Y-25250000D01*
X36638464Y-24750000D01*
X36627000Y-24689075D01*
X36627000Y-24627000D01*
X36721668Y-24627000D01*
X36862987Y-24685681D01*
X36862987Y-24685681D01*
G37*
X36862987Y-24685681D02*
X37135816Y-24685919D01*
X37278410Y-24627000D01*
X39721668Y-24627000D01*
X39862987Y-24685681D01*
X40135816Y-24685919D01*
X40278410Y-24627000D01*
X40693388Y-24627000D01*
X40750000Y-24638464D01*
X41250000Y-24638464D01*
X41310925Y-24627000D01*
X41412310Y-24627000D01*
X41314319Y-24862987D01*
X41314081Y-25135816D01*
X41418268Y-25387967D01*
X41611018Y-25581054D01*
X41862987Y-25685681D01*
X42135816Y-25685919D01*
X42361536Y-25592653D01*
X42361536Y-25850000D01*
X42365000Y-25868409D01*
X42365000Y-26284824D01*
X42250000Y-26261536D01*
X41750000Y-26261536D01*
X41608810Y-26288103D01*
X41567011Y-26315000D01*
X41138653Y-26315000D01*
X41137013Y-26314319D01*
X40864184Y-26314081D01*
X40612033Y-26418268D01*
X40499974Y-26530132D01*
X40469868Y-26499974D01*
X40581054Y-26388982D01*
X40685681Y-26137013D01*
X40685919Y-25864184D01*
X40581732Y-25612033D01*
X40388982Y-25418946D01*
X40137013Y-25314319D01*
X39864184Y-25314081D01*
X39861960Y-25315000D01*
X39434589Y-25315000D01*
X39401134Y-25292141D01*
X39250000Y-25261536D01*
X38750000Y-25261536D01*
X38608810Y-25288103D01*
X38479135Y-25371546D01*
X38392141Y-25498866D01*
X38361536Y-25650000D01*
X38361536Y-26250000D01*
X38388103Y-26391190D01*
X38458883Y-26501186D01*
X38392141Y-26598866D01*
X38361536Y-26750000D01*
X38361536Y-27350000D01*
X38388103Y-27491190D01*
X38471546Y-27620865D01*
X38598866Y-27707859D01*
X38750000Y-27738464D01*
X39250000Y-27738464D01*
X39375859Y-27714782D01*
X39314319Y-27862987D01*
X39314081Y-28135816D01*
X39418268Y-28387967D01*
X39468134Y-28437920D01*
X39401134Y-28392141D01*
X39250000Y-28361536D01*
X38650000Y-28361536D01*
X38508810Y-28388103D01*
X38379135Y-28471546D01*
X38292141Y-28598866D01*
X38261536Y-28750000D01*
X38261536Y-29250000D01*
X38288103Y-29391190D01*
X38315000Y-29432989D01*
X38315000Y-29861347D01*
X38314319Y-29862987D01*
X38314081Y-30135816D01*
X38418268Y-30387967D01*
X38611018Y-30581054D01*
X38862987Y-30685681D01*
X39135816Y-30685919D01*
X39387967Y-30581732D01*
X39500026Y-30469868D01*
X39530132Y-30500026D01*
X39418946Y-30611018D01*
X39314319Y-30862987D01*
X39314081Y-31135816D01*
X39315000Y-31138040D01*
X39315000Y-31565411D01*
X39292141Y-31598866D01*
X39261536Y-31750000D01*
X39261536Y-32250000D01*
X39288103Y-32391190D01*
X39371546Y-32520865D01*
X39498866Y-32607859D01*
X39650000Y-32638464D01*
X40250000Y-32638464D01*
X40391190Y-32611897D01*
X40501186Y-32541117D01*
X40598866Y-32607859D01*
X40750000Y-32638464D01*
X41350000Y-32638464D01*
X41491190Y-32611897D01*
X41582898Y-32552885D01*
X41611018Y-32581054D01*
X41862987Y-32685681D01*
X42135816Y-32685919D01*
X42387967Y-32581732D01*
X42581054Y-32388982D01*
X42685681Y-32137013D01*
X42685919Y-31864184D01*
X42591222Y-31635000D01*
X42740934Y-31635000D01*
X42862987Y-31685681D01*
X43135816Y-31685919D01*
X43387967Y-31581732D01*
X43500026Y-31469868D01*
X43530132Y-31500026D01*
X43418946Y-31611018D01*
X43314319Y-31862987D01*
X43314081Y-32135816D01*
X43418268Y-32387967D01*
X43611018Y-32581054D01*
X43862987Y-32685681D01*
X44135816Y-32685919D01*
X44138040Y-32685000D01*
X44565411Y-32685000D01*
X44598866Y-32707859D01*
X44750000Y-32738464D01*
X45250000Y-32738464D01*
X45391190Y-32711897D01*
X45520865Y-32628454D01*
X45607859Y-32501134D01*
X45638464Y-32350000D01*
X45638464Y-31750000D01*
X45611897Y-31608810D01*
X45541117Y-31498814D01*
X45607859Y-31401134D01*
X45638464Y-31250000D01*
X45638464Y-30650000D01*
X45611897Y-30508810D01*
X45528454Y-30379135D01*
X45401134Y-30292141D01*
X45250000Y-30261536D01*
X44750000Y-30261536D01*
X44608810Y-30288103D01*
X44567011Y-30315000D01*
X44138653Y-30315000D01*
X44137013Y-30314319D01*
X43864184Y-30314081D01*
X43612033Y-30418268D01*
X43499974Y-30530132D01*
X43469868Y-30499974D01*
X43581054Y-30388982D01*
X43685681Y-30137013D01*
X43685919Y-29864184D01*
X43592653Y-29638464D01*
X43750000Y-29638464D01*
X43891190Y-29611897D01*
X44001186Y-29541117D01*
X44098866Y-29607859D01*
X44250000Y-29638464D01*
X44749276Y-29638464D01*
X44862987Y-29685681D01*
X45135816Y-29685919D01*
X45387967Y-29581732D01*
X45581054Y-29388982D01*
X45685681Y-29137013D01*
X45685919Y-28864184D01*
X45581732Y-28612033D01*
X45388982Y-28418946D01*
X45137013Y-28314319D01*
X44864184Y-28314081D01*
X44749334Y-28361536D01*
X44250000Y-28361536D01*
X44108810Y-28388103D01*
X43998814Y-28458883D01*
X43901134Y-28392141D01*
X43750000Y-28361536D01*
X43592451Y-28361536D01*
X43685681Y-28137013D01*
X43685919Y-27864184D01*
X43581732Y-27612033D01*
X43469868Y-27499974D01*
X43581054Y-27388982D01*
X43685681Y-27137013D01*
X43685919Y-26864184D01*
X43635000Y-26740951D01*
X43635000Y-25867106D01*
X43638464Y-25850000D01*
X43638464Y-25250000D01*
X43611897Y-25108810D01*
X43541117Y-24998814D01*
X43607859Y-24901134D01*
X43638464Y-24750000D01*
X43638464Y-24627000D01*
X43721667Y-24627000D01*
X43862987Y-24685681D01*
X44135816Y-24685919D01*
X44278410Y-24627000D01*
X44693388Y-24627000D01*
X44750000Y-24638464D01*
X45250000Y-24638464D01*
X45310925Y-24627000D01*
X45721668Y-24627000D01*
X45862987Y-24685681D01*
X46135816Y-24685919D01*
X46278410Y-24627000D01*
X46386444Y-24627000D01*
X46361536Y-24750000D01*
X46361536Y-25350000D01*
X46365000Y-25368409D01*
X46365000Y-25408988D01*
X46137013Y-25314319D01*
X45864184Y-25314081D01*
X45612033Y-25418268D01*
X45418946Y-25611018D01*
X45314319Y-25862987D01*
X45314081Y-26135816D01*
X45415000Y-26380058D01*
X45415000Y-26565411D01*
X45392141Y-26598866D01*
X45361536Y-26750000D01*
X45361536Y-27250000D01*
X45388103Y-27391190D01*
X45471546Y-27520865D01*
X45598866Y-27607859D01*
X45750000Y-27638464D01*
X46350000Y-27638464D01*
X46491190Y-27611897D01*
X46582898Y-27552885D01*
X46611018Y-27581054D01*
X46862987Y-27685681D01*
X47123000Y-27685908D01*
X47123000Y-28314307D01*
X46864184Y-28314081D01*
X46612033Y-28418268D01*
X46418946Y-28611018D01*
X46314319Y-28862987D01*
X46314081Y-29135816D01*
X46418268Y-29387967D01*
X46530132Y-29500026D01*
X46418946Y-29611018D01*
X46314319Y-29862987D01*
X46314081Y-30135816D01*
X46418268Y-30387967D01*
X46611018Y-30581054D01*
X46862987Y-30685681D01*
X47123000Y-30685908D01*
X47123000Y-31261536D01*
X47000000Y-31261536D01*
X46858810Y-31288103D01*
X46729135Y-31371546D01*
X46642141Y-31498866D01*
X46611536Y-31650000D01*
X46611536Y-32250000D01*
X46638103Y-32391190D01*
X46708883Y-32501186D01*
X46642141Y-32598866D01*
X46611536Y-32750000D01*
X46611536Y-33350000D01*
X46638103Y-33491190D01*
X46721546Y-33620865D01*
X46848866Y-33707859D01*
X47000000Y-33738464D01*
X47123000Y-33738464D01*
X47123000Y-33873000D01*
X46685911Y-33873000D01*
X46685919Y-33864184D01*
X46581732Y-33612033D01*
X46388982Y-33418946D01*
X46137013Y-33314319D01*
X45864184Y-33314081D01*
X45612033Y-33418268D01*
X45418946Y-33611018D01*
X45314319Y-33862987D01*
X45314310Y-33873000D01*
X44685911Y-33873000D01*
X44685919Y-33864184D01*
X44581732Y-33612033D01*
X44388982Y-33418946D01*
X44137013Y-33314319D01*
X43864184Y-33314081D01*
X43612033Y-33418268D01*
X43537295Y-33492875D01*
X43528454Y-33479135D01*
X43401134Y-33392141D01*
X43250000Y-33361536D01*
X42750000Y-33361536D01*
X42608810Y-33388103D01*
X42567011Y-33415000D01*
X42379479Y-33415000D01*
X42137013Y-33314319D01*
X41864184Y-33314081D01*
X41612033Y-33418268D01*
X41418946Y-33611018D01*
X41314319Y-33862987D01*
X41314310Y-33873000D01*
X40685911Y-33873000D01*
X40685919Y-33864184D01*
X40581732Y-33612033D01*
X40388982Y-33418946D01*
X40137013Y-33314319D01*
X39864184Y-33314081D01*
X39612033Y-33418268D01*
X39499974Y-33530132D01*
X39388982Y-33418946D01*
X39137013Y-33314319D01*
X38864184Y-33314081D01*
X38619942Y-33415000D01*
X38434589Y-33415000D01*
X38401134Y-33392141D01*
X38250000Y-33361536D01*
X37750000Y-33361536D01*
X37608810Y-33388103D01*
X37479135Y-33471546D01*
X37392141Y-33598866D01*
X37361536Y-33750000D01*
X37361536Y-33873000D01*
X36627000Y-33873000D01*
X36627000Y-32278332D01*
X36685681Y-32137013D01*
X36685919Y-31864184D01*
X36627000Y-31721589D01*
X36627000Y-31635000D01*
X36740934Y-31635000D01*
X36862987Y-31685681D01*
X37135816Y-31685919D01*
X37387967Y-31581732D01*
X37581054Y-31388982D01*
X37685681Y-31137013D01*
X37685919Y-30864184D01*
X37581732Y-30612033D01*
X37469868Y-30499974D01*
X37581054Y-30388982D01*
X37685681Y-30137013D01*
X37685919Y-29864184D01*
X37635000Y-29740951D01*
X37635000Y-29367106D01*
X37638464Y-29350000D01*
X37638464Y-28750000D01*
X37611897Y-28608810D01*
X37541117Y-28498814D01*
X37607859Y-28401134D01*
X37638464Y-28250000D01*
X37638464Y-27650000D01*
X37635000Y-27631591D01*
X37635000Y-27259066D01*
X37685681Y-27137013D01*
X37685919Y-26864184D01*
X37581732Y-26612033D01*
X37469868Y-26499974D01*
X37581054Y-26388982D01*
X37685681Y-26137013D01*
X37685919Y-25864184D01*
X37581732Y-25612033D01*
X37388982Y-25418946D01*
X37137013Y-25314319D01*
X36864184Y-25314081D01*
X36627000Y-25412084D01*
X36627000Y-25306612D01*
X36638464Y-25250000D01*
X36638464Y-24750000D01*
X36627000Y-24689075D01*
X36627000Y-24627000D01*
X36721668Y-24627000D01*
X36862987Y-24685681D01*
G36*
X32873000Y-38123000D02*
X29627000Y-38123000D01*
X29627000Y-35877000D01*
X32873000Y-35877000D01*
X32873000Y-38123000D01*
X32873000Y-38123000D01*
G37*
X32873000Y-38123000D02*
X29627000Y-38123000D01*
X29627000Y-35877000D01*
X32873000Y-35877000D01*
X32873000Y-38123000D01*
G36*
X33623000Y-40873000D02*
X30627000Y-40873000D01*
X30627000Y-39377000D01*
X33623000Y-39377000D01*
X33623000Y-40873000D01*
X33623000Y-40873000D01*
G37*
X33623000Y-40873000D02*
X30627000Y-40873000D01*
X30627000Y-39377000D01*
X33623000Y-39377000D01*
X33623000Y-40873000D01*
G36*
X92532073Y-46047468D02*
X93505000Y-47020395D01*
X93519143Y-47006253D01*
X93698748Y-47185858D01*
X93684605Y-47200000D01*
X93698748Y-47214143D01*
X93519143Y-47393748D01*
X93505000Y-47379605D01*
X92532073Y-48352532D01*
X92630736Y-48619387D01*
X93240461Y-48845908D01*
X93890460Y-48821856D01*
X94379264Y-48619387D01*
X94477926Y-48352534D01*
X94488000Y-48362608D01*
X94488000Y-53237392D01*
X94477926Y-53247466D01*
X94379264Y-52980613D01*
X93769539Y-52754092D01*
X93119540Y-52778144D01*
X92630736Y-52980613D01*
X92532073Y-53247468D01*
X93505000Y-54220395D01*
X93519143Y-54206253D01*
X93698748Y-54385858D01*
X93684605Y-54400000D01*
X93698748Y-54414143D01*
X93519143Y-54593748D01*
X93505000Y-54579605D01*
X92532073Y-55552532D01*
X92606191Y-55753000D01*
X88392000Y-55753000D01*
X88392000Y-53609744D01*
X89411197Y-53609744D01*
X89425076Y-53697766D01*
X89663305Y-54099891D01*
X90037286Y-54380240D01*
X90490084Y-54496132D01*
X90678000Y-54332811D01*
X90678000Y-53427000D01*
X90932000Y-53427000D01*
X90932000Y-54332811D01*
X91119916Y-54496132D01*
X91572714Y-54380240D01*
X91860176Y-54164749D01*
X91883144Y-54785460D01*
X92085613Y-55274264D01*
X92352468Y-55372927D01*
X93325395Y-54400000D01*
X92352468Y-53427073D01*
X92129898Y-53509363D01*
X92073361Y-53427000D01*
X90932000Y-53427000D01*
X90678000Y-53427000D01*
X89536639Y-53427000D01*
X89411197Y-53609744D01*
X88392000Y-53609744D01*
X88392000Y-52990256D01*
X89411197Y-52990256D01*
X89536639Y-53173000D01*
X90678000Y-53173000D01*
X90678000Y-52267189D01*
X90932000Y-52267189D01*
X90932000Y-53173000D01*
X92073361Y-53173000D01*
X92198803Y-52990256D01*
X92184924Y-52902234D01*
X91946695Y-52500109D01*
X91572714Y-52219760D01*
X91119916Y-52103868D01*
X90932000Y-52267189D01*
X90678000Y-52267189D01*
X90490084Y-52103868D01*
X90037286Y-52219760D01*
X89663305Y-52500109D01*
X89425076Y-52902234D01*
X89411197Y-52990256D01*
X88392000Y-52990256D01*
X88392000Y-49284816D01*
X88976081Y-49284816D01*
X89051208Y-49466636D01*
X88976319Y-49646987D01*
X88976081Y-49919816D01*
X89080268Y-50171967D01*
X89273018Y-50365054D01*
X89524987Y-50469681D01*
X89797816Y-50469919D01*
X90049967Y-50365732D01*
X90243054Y-50172982D01*
X90347681Y-49921013D01*
X90347919Y-49648184D01*
X90272792Y-49466364D01*
X90282494Y-49443000D01*
X90490084Y-49496132D01*
X90678000Y-49332811D01*
X90678000Y-48427000D01*
X90932000Y-48427000D01*
X90932000Y-49332811D01*
X91119916Y-49496132D01*
X91327448Y-49443015D01*
X91337208Y-49466636D01*
X91262319Y-49646987D01*
X91262081Y-49919816D01*
X91366268Y-50171967D01*
X91559018Y-50365054D01*
X91810987Y-50469681D01*
X92083816Y-50469919D01*
X92335967Y-50365732D01*
X92529054Y-50172982D01*
X92633681Y-49921013D01*
X92633919Y-49648184D01*
X92558792Y-49466364D01*
X92633681Y-49286013D01*
X92633919Y-49013184D01*
X92529732Y-48761033D01*
X92336982Y-48567946D01*
X92103585Y-48471031D01*
X92073361Y-48427000D01*
X90932000Y-48427000D01*
X90678000Y-48427000D01*
X89536639Y-48427000D01*
X89506205Y-48471336D01*
X89274033Y-48567268D01*
X89080946Y-48760018D01*
X88976319Y-49011987D01*
X88976081Y-49284816D01*
X88392000Y-49284816D01*
X88392000Y-47990256D01*
X89411197Y-47990256D01*
X89536639Y-48173000D01*
X90678000Y-48173000D01*
X90678000Y-47267189D01*
X90932000Y-47267189D01*
X90932000Y-48173000D01*
X92073361Y-48173000D01*
X92129898Y-48090637D01*
X92352468Y-48172927D01*
X93325395Y-47200000D01*
X92352468Y-46227073D01*
X92085613Y-46325736D01*
X91859092Y-46935461D01*
X91878083Y-47448675D01*
X91572714Y-47219760D01*
X91119916Y-47103868D01*
X90932000Y-47267189D01*
X90678000Y-47267189D01*
X90490084Y-47103868D01*
X90037286Y-47219760D01*
X89663305Y-47500109D01*
X89425076Y-47902234D01*
X89411197Y-47990256D01*
X88392000Y-47990256D01*
X88392000Y-45847000D01*
X92606191Y-45847000D01*
X92532073Y-46047468D01*
X92532073Y-46047468D01*
G37*
X92532073Y-46047468D02*
X93505000Y-47020395D01*
X93519143Y-47006253D01*
X93698748Y-47185858D01*
X93684605Y-47200000D01*
X93698748Y-47214143D01*
X93519143Y-47393748D01*
X93505000Y-47379605D01*
X92532073Y-48352532D01*
X92630736Y-48619387D01*
X93240461Y-48845908D01*
X93890460Y-48821856D01*
X94379264Y-48619387D01*
X94477926Y-48352534D01*
X94488000Y-48362608D01*
X94488000Y-53237392D01*
X94477926Y-53247466D01*
X94379264Y-52980613D01*
X93769539Y-52754092D01*
X93119540Y-52778144D01*
X92630736Y-52980613D01*
X92532073Y-53247468D01*
X93505000Y-54220395D01*
X93519143Y-54206253D01*
X93698748Y-54385858D01*
X93684605Y-54400000D01*
X93698748Y-54414143D01*
X93519143Y-54593748D01*
X93505000Y-54579605D01*
X92532073Y-55552532D01*
X92606191Y-55753000D01*
X88392000Y-55753000D01*
X88392000Y-53609744D01*
X89411197Y-53609744D01*
X89425076Y-53697766D01*
X89663305Y-54099891D01*
X90037286Y-54380240D01*
X90490084Y-54496132D01*
X90678000Y-54332811D01*
X90678000Y-53427000D01*
X90932000Y-53427000D01*
X90932000Y-54332811D01*
X91119916Y-54496132D01*
X91572714Y-54380240D01*
X91860176Y-54164749D01*
X91883144Y-54785460D01*
X92085613Y-55274264D01*
X92352468Y-55372927D01*
X93325395Y-54400000D01*
X92352468Y-53427073D01*
X92129898Y-53509363D01*
X92073361Y-53427000D01*
X90932000Y-53427000D01*
X90678000Y-53427000D01*
X89536639Y-53427000D01*
X89411197Y-53609744D01*
X88392000Y-53609744D01*
X88392000Y-52990256D01*
X89411197Y-52990256D01*
X89536639Y-53173000D01*
X90678000Y-53173000D01*
X90678000Y-52267189D01*
X90932000Y-52267189D01*
X90932000Y-53173000D01*
X92073361Y-53173000D01*
X92198803Y-52990256D01*
X92184924Y-52902234D01*
X91946695Y-52500109D01*
X91572714Y-52219760D01*
X91119916Y-52103868D01*
X90932000Y-52267189D01*
X90678000Y-52267189D01*
X90490084Y-52103868D01*
X90037286Y-52219760D01*
X89663305Y-52500109D01*
X89425076Y-52902234D01*
X89411197Y-52990256D01*
X88392000Y-52990256D01*
X88392000Y-49284816D01*
X88976081Y-49284816D01*
X89051208Y-49466636D01*
X88976319Y-49646987D01*
X88976081Y-49919816D01*
X89080268Y-50171967D01*
X89273018Y-50365054D01*
X89524987Y-50469681D01*
X89797816Y-50469919D01*
X90049967Y-50365732D01*
X90243054Y-50172982D01*
X90347681Y-49921013D01*
X90347919Y-49648184D01*
X90272792Y-49466364D01*
X90282494Y-49443000D01*
X90490084Y-49496132D01*
X90678000Y-49332811D01*
X90678000Y-48427000D01*
X90932000Y-48427000D01*
X90932000Y-49332811D01*
X91119916Y-49496132D01*
X91327448Y-49443015D01*
X91337208Y-49466636D01*
X91262319Y-49646987D01*
X91262081Y-49919816D01*
X91366268Y-50171967D01*
X91559018Y-50365054D01*
X91810987Y-50469681D01*
X92083816Y-50469919D01*
X92335967Y-50365732D01*
X92529054Y-50172982D01*
X92633681Y-49921013D01*
X92633919Y-49648184D01*
X92558792Y-49466364D01*
X92633681Y-49286013D01*
X92633919Y-49013184D01*
X92529732Y-48761033D01*
X92336982Y-48567946D01*
X92103585Y-48471031D01*
X92073361Y-48427000D01*
X90932000Y-48427000D01*
X90678000Y-48427000D01*
X89536639Y-48427000D01*
X89506205Y-48471336D01*
X89274033Y-48567268D01*
X89080946Y-48760018D01*
X88976319Y-49011987D01*
X88976081Y-49284816D01*
X88392000Y-49284816D01*
X88392000Y-47990256D01*
X89411197Y-47990256D01*
X89536639Y-48173000D01*
X90678000Y-48173000D01*
X90678000Y-47267189D01*
X90932000Y-47267189D01*
X90932000Y-48173000D01*
X92073361Y-48173000D01*
X92129898Y-48090637D01*
X92352468Y-48172927D01*
X93325395Y-47200000D01*
X92352468Y-46227073D01*
X92085613Y-46325736D01*
X91859092Y-46935461D01*
X91878083Y-47448675D01*
X91572714Y-47219760D01*
X91119916Y-47103868D01*
X90932000Y-47267189D01*
X90678000Y-47267189D01*
X90490084Y-47103868D01*
X90037286Y-47219760D01*
X89663305Y-47500109D01*
X89425076Y-47902234D01*
X89411197Y-47990256D01*
X88392000Y-47990256D01*
X88392000Y-45847000D01*
X92606191Y-45847000D01*
X92532073Y-46047468D01*
G36*
X94488000Y-26987392D02*
X94477926Y-26997466D01*
X94379264Y-26730613D01*
X93769539Y-26504092D01*
X93119540Y-26528144D01*
X92630736Y-26730613D01*
X92532073Y-26997468D01*
X93505000Y-27970395D01*
X93519143Y-27956253D01*
X93698748Y-28135858D01*
X93684605Y-28150000D01*
X93698748Y-28164143D01*
X93519143Y-28343748D01*
X93505000Y-28329605D01*
X92532073Y-29302532D01*
X92630736Y-29569387D01*
X93240461Y-29795908D01*
X93890460Y-29771856D01*
X94379264Y-29569387D01*
X94477926Y-29302534D01*
X94488000Y-29312608D01*
X94488000Y-34187392D01*
X94477926Y-34197466D01*
X94379264Y-33930613D01*
X93769539Y-33704092D01*
X93119540Y-33728144D01*
X92630736Y-33930613D01*
X92532073Y-34197468D01*
X93505000Y-35170395D01*
X93519143Y-35156253D01*
X93698748Y-35335858D01*
X93684605Y-35350000D01*
X93698748Y-35364143D01*
X93519143Y-35543748D01*
X93505000Y-35529605D01*
X92532073Y-36502532D01*
X92606191Y-36703000D01*
X86877026Y-36703000D01*
X86738200Y-36564174D01*
X86687732Y-36442033D01*
X86494982Y-36248946D01*
X86487000Y-36245632D01*
X86487000Y-34559744D01*
X89411197Y-34559744D01*
X89425076Y-34647766D01*
X89663305Y-35049891D01*
X90037286Y-35330240D01*
X90490084Y-35446132D01*
X90678000Y-35282811D01*
X90678000Y-34377000D01*
X90932000Y-34377000D01*
X90932000Y-35282811D01*
X91119916Y-35446132D01*
X91572714Y-35330240D01*
X91860176Y-35114749D01*
X91883144Y-35735460D01*
X92085613Y-36224264D01*
X92352468Y-36322927D01*
X93325395Y-35350000D01*
X92352468Y-34377073D01*
X92129898Y-34459363D01*
X92073361Y-34377000D01*
X90932000Y-34377000D01*
X90678000Y-34377000D01*
X89536639Y-34377000D01*
X89411197Y-34559744D01*
X86487000Y-34559744D01*
X86487000Y-33663816D01*
X86817081Y-33663816D01*
X86921268Y-33915967D01*
X87114018Y-34109054D01*
X87365987Y-34213681D01*
X87638816Y-34213919D01*
X87890967Y-34109732D01*
X88060739Y-33940256D01*
X89411197Y-33940256D01*
X89536639Y-34123000D01*
X90678000Y-34123000D01*
X90678000Y-33217189D01*
X90932000Y-33217189D01*
X90932000Y-34123000D01*
X92073361Y-34123000D01*
X92198803Y-33940256D01*
X92184924Y-33852234D01*
X91946695Y-33450109D01*
X91572714Y-33169760D01*
X91119916Y-33053868D01*
X90932000Y-33217189D01*
X90678000Y-33217189D01*
X90490084Y-33053868D01*
X90037286Y-33169760D01*
X89663305Y-33450109D01*
X89425076Y-33852234D01*
X89411197Y-33940256D01*
X88060739Y-33940256D01*
X88084054Y-33916982D01*
X88188681Y-33665013D01*
X88188919Y-33392184D01*
X88084732Y-33140033D01*
X87891982Y-32946946D01*
X87640013Y-32842319D01*
X87367184Y-32842081D01*
X87115033Y-32946268D01*
X86921946Y-33139018D01*
X86817319Y-33390987D01*
X86817081Y-33663816D01*
X86487000Y-33663816D01*
X86487000Y-30996816D01*
X88976081Y-30996816D01*
X89080268Y-31248967D01*
X89273018Y-31442054D01*
X89524987Y-31546681D01*
X89797816Y-31546919D01*
X90049967Y-31442732D01*
X90243054Y-31249982D01*
X90347681Y-30998013D01*
X90347919Y-30725184D01*
X90322145Y-30662807D01*
X90370054Y-30614982D01*
X90444962Y-30434583D01*
X90490084Y-30446132D01*
X90678000Y-30282811D01*
X90678000Y-29377000D01*
X90932000Y-29377000D01*
X90932000Y-30282811D01*
X91119916Y-30446132D01*
X91279991Y-30405161D01*
X91337208Y-30543636D01*
X91262319Y-30723987D01*
X91262081Y-30996816D01*
X91366268Y-31248967D01*
X91559018Y-31442054D01*
X91810987Y-31546681D01*
X92083816Y-31546919D01*
X92335967Y-31442732D01*
X92529054Y-31249982D01*
X92633681Y-30998013D01*
X92633919Y-30725184D01*
X92558792Y-30543364D01*
X92633681Y-30363013D01*
X92633919Y-30090184D01*
X92529732Y-29838033D01*
X92336982Y-29644946D01*
X92194685Y-29585859D01*
X92198803Y-29559744D01*
X92073361Y-29377000D01*
X90932000Y-29377000D01*
X90678000Y-29377000D01*
X89536639Y-29377000D01*
X89411197Y-29559744D01*
X89423088Y-29635155D01*
X89401033Y-29644268D01*
X89207946Y-29837018D01*
X89103319Y-30088987D01*
X89103081Y-30361816D01*
X89128855Y-30424193D01*
X89080946Y-30472018D01*
X88976319Y-30723987D01*
X88976081Y-30996816D01*
X86487000Y-30996816D01*
X86487000Y-28940256D01*
X89411197Y-28940256D01*
X89536639Y-29123000D01*
X90678000Y-29123000D01*
X90678000Y-28217189D01*
X90932000Y-28217189D01*
X90932000Y-29123000D01*
X92073361Y-29123000D01*
X92129898Y-29040637D01*
X92352468Y-29122927D01*
X93325395Y-28150000D01*
X92352468Y-27177073D01*
X92085613Y-27275736D01*
X91859092Y-27885461D01*
X91878083Y-28398675D01*
X91572714Y-28169760D01*
X91119916Y-28053868D01*
X90932000Y-28217189D01*
X90678000Y-28217189D01*
X90490084Y-28053868D01*
X90037286Y-28169760D01*
X89663305Y-28450109D01*
X89425076Y-28852234D01*
X89411197Y-28940256D01*
X86487000Y-28940256D01*
X86487000Y-26162000D01*
X94488000Y-26162000D01*
X94488000Y-26987392D01*
X94488000Y-26987392D01*
G37*
X94488000Y-26987392D02*
X94477926Y-26997466D01*
X94379264Y-26730613D01*
X93769539Y-26504092D01*
X93119540Y-26528144D01*
X92630736Y-26730613D01*
X92532073Y-26997468D01*
X93505000Y-27970395D01*
X93519143Y-27956253D01*
X93698748Y-28135858D01*
X93684605Y-28150000D01*
X93698748Y-28164143D01*
X93519143Y-28343748D01*
X93505000Y-28329605D01*
X92532073Y-29302532D01*
X92630736Y-29569387D01*
X93240461Y-29795908D01*
X93890460Y-29771856D01*
X94379264Y-29569387D01*
X94477926Y-29302534D01*
X94488000Y-29312608D01*
X94488000Y-34187392D01*
X94477926Y-34197466D01*
X94379264Y-33930613D01*
X93769539Y-33704092D01*
X93119540Y-33728144D01*
X92630736Y-33930613D01*
X92532073Y-34197468D01*
X93505000Y-35170395D01*
X93519143Y-35156253D01*
X93698748Y-35335858D01*
X93684605Y-35350000D01*
X93698748Y-35364143D01*
X93519143Y-35543748D01*
X93505000Y-35529605D01*
X92532073Y-36502532D01*
X92606191Y-36703000D01*
X86877026Y-36703000D01*
X86738200Y-36564174D01*
X86687732Y-36442033D01*
X86494982Y-36248946D01*
X86487000Y-36245632D01*
X86487000Y-34559744D01*
X89411197Y-34559744D01*
X89425076Y-34647766D01*
X89663305Y-35049891D01*
X90037286Y-35330240D01*
X90490084Y-35446132D01*
X90678000Y-35282811D01*
X90678000Y-34377000D01*
X90932000Y-34377000D01*
X90932000Y-35282811D01*
X91119916Y-35446132D01*
X91572714Y-35330240D01*
X91860176Y-35114749D01*
X91883144Y-35735460D01*
X92085613Y-36224264D01*
X92352468Y-36322927D01*
X93325395Y-35350000D01*
X92352468Y-34377073D01*
X92129898Y-34459363D01*
X92073361Y-34377000D01*
X90932000Y-34377000D01*
X90678000Y-34377000D01*
X89536639Y-34377000D01*
X89411197Y-34559744D01*
X86487000Y-34559744D01*
X86487000Y-33663816D01*
X86817081Y-33663816D01*
X86921268Y-33915967D01*
X87114018Y-34109054D01*
X87365987Y-34213681D01*
X87638816Y-34213919D01*
X87890967Y-34109732D01*
X88060739Y-33940256D01*
X89411197Y-33940256D01*
X89536639Y-34123000D01*
X90678000Y-34123000D01*
X90678000Y-33217189D01*
X90932000Y-33217189D01*
X90932000Y-34123000D01*
X92073361Y-34123000D01*
X92198803Y-33940256D01*
X92184924Y-33852234D01*
X91946695Y-33450109D01*
X91572714Y-33169760D01*
X91119916Y-33053868D01*
X90932000Y-33217189D01*
X90678000Y-33217189D01*
X90490084Y-33053868D01*
X90037286Y-33169760D01*
X89663305Y-33450109D01*
X89425076Y-33852234D01*
X89411197Y-33940256D01*
X88060739Y-33940256D01*
X88084054Y-33916982D01*
X88188681Y-33665013D01*
X88188919Y-33392184D01*
X88084732Y-33140033D01*
X87891982Y-32946946D01*
X87640013Y-32842319D01*
X87367184Y-32842081D01*
X87115033Y-32946268D01*
X86921946Y-33139018D01*
X86817319Y-33390987D01*
X86817081Y-33663816D01*
X86487000Y-33663816D01*
X86487000Y-30996816D01*
X88976081Y-30996816D01*
X89080268Y-31248967D01*
X89273018Y-31442054D01*
X89524987Y-31546681D01*
X89797816Y-31546919D01*
X90049967Y-31442732D01*
X90243054Y-31249982D01*
X90347681Y-30998013D01*
X90347919Y-30725184D01*
X90322145Y-30662807D01*
X90370054Y-30614982D01*
X90444962Y-30434583D01*
X90490084Y-30446132D01*
X90678000Y-30282811D01*
X90678000Y-29377000D01*
X90932000Y-29377000D01*
X90932000Y-30282811D01*
X91119916Y-30446132D01*
X91279991Y-30405161D01*
X91337208Y-30543636D01*
X91262319Y-30723987D01*
X91262081Y-30996816D01*
X91366268Y-31248967D01*
X91559018Y-31442054D01*
X91810987Y-31546681D01*
X92083816Y-31546919D01*
X92335967Y-31442732D01*
X92529054Y-31249982D01*
X92633681Y-30998013D01*
X92633919Y-30725184D01*
X92558792Y-30543364D01*
X92633681Y-30363013D01*
X92633919Y-30090184D01*
X92529732Y-29838033D01*
X92336982Y-29644946D01*
X92194685Y-29585859D01*
X92198803Y-29559744D01*
X92073361Y-29377000D01*
X90932000Y-29377000D01*
X90678000Y-29377000D01*
X89536639Y-29377000D01*
X89411197Y-29559744D01*
X89423088Y-29635155D01*
X89401033Y-29644268D01*
X89207946Y-29837018D01*
X89103319Y-30088987D01*
X89103081Y-30361816D01*
X89128855Y-30424193D01*
X89080946Y-30472018D01*
X88976319Y-30723987D01*
X88976081Y-30996816D01*
X86487000Y-30996816D01*
X86487000Y-28940256D01*
X89411197Y-28940256D01*
X89536639Y-29123000D01*
X90678000Y-29123000D01*
X90678000Y-28217189D01*
X90932000Y-28217189D01*
X90932000Y-29123000D01*
X92073361Y-29123000D01*
X92129898Y-29040637D01*
X92352468Y-29122927D01*
X93325395Y-28150000D01*
X92352468Y-27177073D01*
X92085613Y-27275736D01*
X91859092Y-27885461D01*
X91878083Y-28398675D01*
X91572714Y-28169760D01*
X91119916Y-28053868D01*
X90932000Y-28217189D01*
X90678000Y-28217189D01*
X90490084Y-28053868D01*
X90037286Y-28169760D01*
X89663305Y-28450109D01*
X89425076Y-28852234D01*
X89411197Y-28940256D01*
X86487000Y-28940256D01*
X86487000Y-26162000D01*
X94488000Y-26162000D01*
X94488000Y-26987392D01*
G36*
X11760341Y-22189615D02*
X11760059Y-22512967D01*
X11883540Y-22811813D01*
X12111984Y-23040657D01*
X12410615Y-23164659D01*
X12733967Y-23164941D01*
X12867729Y-23109672D01*
X12958000Y-23127952D01*
X13458000Y-23127952D01*
X13646253Y-23092530D01*
X13819153Y-22981272D01*
X13935145Y-22811512D01*
X13975952Y-22610000D01*
X13975952Y-22010000D01*
X13968614Y-21971000D01*
X14351000Y-21971000D01*
X14351000Y-24677975D01*
X14272187Y-24710540D01*
X14043343Y-24938984D01*
X13919341Y-25237615D01*
X13919059Y-25560967D01*
X14042540Y-25859813D01*
X14191251Y-26008784D01*
X14132385Y-25984341D01*
X13809033Y-25984059D01*
X13510187Y-26107540D01*
X13281343Y-26335984D01*
X13157341Y-26634615D01*
X13157059Y-26957967D01*
X13280540Y-27256813D01*
X13508984Y-27485657D01*
X13807615Y-27609659D01*
X14130967Y-27609941D01*
X14351000Y-27519025D01*
X14351000Y-29032089D01*
X14317033Y-29032059D01*
X14200537Y-29080194D01*
X14185000Y-29077048D01*
X13585000Y-29077048D01*
X13396747Y-29112470D01*
X13223847Y-29223728D01*
X13107855Y-29393488D01*
X13067048Y-29595000D01*
X13067048Y-30095000D01*
X13102470Y-30283253D01*
X13157297Y-30368456D01*
X13157059Y-30640967D01*
X13280540Y-30939813D01*
X13328526Y-30987883D01*
X13281343Y-31034984D01*
X13157341Y-31333615D01*
X13157059Y-31656967D01*
X13280540Y-31955813D01*
X13508984Y-32184657D01*
X13807615Y-32308659D01*
X14130967Y-32308941D01*
X14351000Y-32218025D01*
X14351000Y-33159576D01*
X14220000Y-33133048D01*
X13720000Y-33133048D01*
X13531747Y-33168470D01*
X13358847Y-33279728D01*
X13242855Y-33449488D01*
X13202048Y-33651000D01*
X13202048Y-34251000D01*
X13205019Y-34266792D01*
X13157341Y-34381615D01*
X13157059Y-34704967D01*
X13280540Y-35003813D01*
X13455421Y-35179000D01*
X10287000Y-35179000D01*
X10287000Y-30530801D01*
X10447967Y-30530941D01*
X10746813Y-30407460D01*
X10975657Y-30179016D01*
X11099659Y-29880385D01*
X11099941Y-29557033D01*
X10976460Y-29258187D01*
X10748016Y-29029343D01*
X10624816Y-28978186D01*
X10613815Y-28967185D01*
X10520837Y-28905059D01*
X10366605Y-28802004D01*
X10287000Y-28786169D01*
X10287000Y-28735391D01*
X10292952Y-28706000D01*
X10292952Y-28106000D01*
X10287000Y-28074368D01*
X10287000Y-27970386D01*
X10337659Y-27848385D01*
X10337824Y-27659245D01*
X10352253Y-27656530D01*
X10525153Y-27545272D01*
X10641145Y-27375512D01*
X10681952Y-27174000D01*
X10681952Y-26674000D01*
X10646530Y-26485747D01*
X10535272Y-26312847D01*
X10365512Y-26196855D01*
X10287000Y-26180956D01*
X10287000Y-25560967D01*
X11125059Y-25560967D01*
X11248540Y-25859813D01*
X11476984Y-26088657D01*
X11775615Y-26212659D01*
X12098967Y-26212941D01*
X12397813Y-26089460D01*
X12626657Y-25861016D01*
X12750659Y-25562385D01*
X12750941Y-25239033D01*
X12627460Y-24940187D01*
X12399016Y-24711343D01*
X12100385Y-24587341D01*
X11777033Y-24587059D01*
X11478187Y-24710540D01*
X11249343Y-24938984D01*
X11125341Y-25237615D01*
X11125059Y-25560967D01*
X10287000Y-25560967D01*
X10287000Y-21971000D01*
X11851118Y-21971000D01*
X11760341Y-22189615D01*
X11760341Y-22189615D01*
G37*
X11760341Y-22189615D02*
X11760059Y-22512967D01*
X11883540Y-22811813D01*
X12111984Y-23040657D01*
X12410615Y-23164659D01*
X12733967Y-23164941D01*
X12867729Y-23109672D01*
X12958000Y-23127952D01*
X13458000Y-23127952D01*
X13646253Y-23092530D01*
X13819153Y-22981272D01*
X13935145Y-22811512D01*
X13975952Y-22610000D01*
X13975952Y-22010000D01*
X13968614Y-21971000D01*
X14351000Y-21971000D01*
X14351000Y-24677975D01*
X14272187Y-24710540D01*
X14043343Y-24938984D01*
X13919341Y-25237615D01*
X13919059Y-25560967D01*
X14042540Y-25859813D01*
X14191251Y-26008784D01*
X14132385Y-25984341D01*
X13809033Y-25984059D01*
X13510187Y-26107540D01*
X13281343Y-26335984D01*
X13157341Y-26634615D01*
X13157059Y-26957967D01*
X13280540Y-27256813D01*
X13508984Y-27485657D01*
X13807615Y-27609659D01*
X14130967Y-27609941D01*
X14351000Y-27519025D01*
X14351000Y-29032089D01*
X14317033Y-29032059D01*
X14200537Y-29080194D01*
X14185000Y-29077048D01*
X13585000Y-29077048D01*
X13396747Y-29112470D01*
X13223847Y-29223728D01*
X13107855Y-29393488D01*
X13067048Y-29595000D01*
X13067048Y-30095000D01*
X13102470Y-30283253D01*
X13157297Y-30368456D01*
X13157059Y-30640967D01*
X13280540Y-30939813D01*
X13328526Y-30987883D01*
X13281343Y-31034984D01*
X13157341Y-31333615D01*
X13157059Y-31656967D01*
X13280540Y-31955813D01*
X13508984Y-32184657D01*
X13807615Y-32308659D01*
X14130967Y-32308941D01*
X14351000Y-32218025D01*
X14351000Y-33159576D01*
X14220000Y-33133048D01*
X13720000Y-33133048D01*
X13531747Y-33168470D01*
X13358847Y-33279728D01*
X13242855Y-33449488D01*
X13202048Y-33651000D01*
X13202048Y-34251000D01*
X13205019Y-34266792D01*
X13157341Y-34381615D01*
X13157059Y-34704967D01*
X13280540Y-35003813D01*
X13455421Y-35179000D01*
X10287000Y-35179000D01*
X10287000Y-30530801D01*
X10447967Y-30530941D01*
X10746813Y-30407460D01*
X10975657Y-30179016D01*
X11099659Y-29880385D01*
X11099941Y-29557033D01*
X10976460Y-29258187D01*
X10748016Y-29029343D01*
X10624816Y-28978186D01*
X10613815Y-28967185D01*
X10520837Y-28905059D01*
X10366605Y-28802004D01*
X10287000Y-28786169D01*
X10287000Y-28735391D01*
X10292952Y-28706000D01*
X10292952Y-28106000D01*
X10287000Y-28074368D01*
X10287000Y-27970386D01*
X10337659Y-27848385D01*
X10337824Y-27659245D01*
X10352253Y-27656530D01*
X10525153Y-27545272D01*
X10641145Y-27375512D01*
X10681952Y-27174000D01*
X10681952Y-26674000D01*
X10646530Y-26485747D01*
X10535272Y-26312847D01*
X10365512Y-26196855D01*
X10287000Y-26180956D01*
X10287000Y-25560967D01*
X11125059Y-25560967D01*
X11248540Y-25859813D01*
X11476984Y-26088657D01*
X11775615Y-26212659D01*
X12098967Y-26212941D01*
X12397813Y-26089460D01*
X12626657Y-25861016D01*
X12750659Y-25562385D01*
X12750941Y-25239033D01*
X12627460Y-24940187D01*
X12399016Y-24711343D01*
X12100385Y-24587341D01*
X11777033Y-24587059D01*
X11478187Y-24710540D01*
X11249343Y-24938984D01*
X11125341Y-25237615D01*
X11125059Y-25560967D01*
X10287000Y-25560967D01*
X10287000Y-21971000D01*
X11851118Y-21971000D01*
X11760341Y-22189615D01*
G36*
X77089000Y-24348822D02*
X75620093Y-26797000D01*
X69215000Y-26797000D01*
X69215000Y-20920000D01*
X69446536Y-20920000D01*
X69446536Y-21620000D01*
X69473103Y-21761190D01*
X69556546Y-21890865D01*
X69683866Y-21977859D01*
X69835000Y-22008464D01*
X70076060Y-22008464D01*
X70076060Y-23750540D01*
X69943914Y-23805142D01*
X69625321Y-24123180D01*
X69452687Y-24538929D01*
X69452294Y-24989096D01*
X69624202Y-25405146D01*
X69942240Y-25723739D01*
X70357989Y-25896373D01*
X70808156Y-25896766D01*
X71224206Y-25724858D01*
X71542799Y-25406820D01*
X71715433Y-24991071D01*
X71715434Y-24989096D01*
X74334174Y-24989096D01*
X74506082Y-25405146D01*
X74824120Y-25723739D01*
X75239869Y-25896373D01*
X75690036Y-25896766D01*
X76106086Y-25724858D01*
X76424679Y-25406820D01*
X76597313Y-24991071D01*
X76597706Y-24540904D01*
X76425798Y-24124854D01*
X76107760Y-23806261D01*
X76073000Y-23791827D01*
X76073000Y-22008464D01*
X76215000Y-22008464D01*
X76356190Y-21981897D01*
X76485865Y-21898454D01*
X76572859Y-21771134D01*
X76603464Y-21620000D01*
X76603464Y-20920000D01*
X76576897Y-20778810D01*
X76493454Y-20649135D01*
X76366134Y-20562141D01*
X76215000Y-20531536D01*
X74915000Y-20531536D01*
X74773810Y-20558103D01*
X74644135Y-20641546D01*
X74557141Y-20768866D01*
X74526536Y-20920000D01*
X74526536Y-21620000D01*
X74553103Y-21761190D01*
X74636546Y-21890865D01*
X74763866Y-21977859D01*
X74915000Y-22008464D01*
X75057000Y-22008464D01*
X75057000Y-23709610D01*
X74825794Y-23805142D01*
X74507201Y-24123180D01*
X74334567Y-24538929D01*
X74334174Y-24989096D01*
X71715434Y-24989096D01*
X71715826Y-24540904D01*
X71543918Y-24124854D01*
X71225880Y-23806261D01*
X71092060Y-23750694D01*
X71092060Y-22008464D01*
X71135000Y-22008464D01*
X71276190Y-21981897D01*
X71405865Y-21898454D01*
X71492859Y-21771134D01*
X71523464Y-21620000D01*
X71523464Y-20920000D01*
X71496897Y-20778810D01*
X71413454Y-20649135D01*
X71286134Y-20562141D01*
X71135000Y-20531536D01*
X69835000Y-20531536D01*
X69693810Y-20558103D01*
X69564135Y-20641546D01*
X69477141Y-20768866D01*
X69446536Y-20920000D01*
X69215000Y-20920000D01*
X69215000Y-19882522D01*
X69296673Y-20079698D01*
X69475301Y-20258327D01*
X69708690Y-20355000D01*
X70199250Y-20355000D01*
X70358000Y-20196250D01*
X70358000Y-19497000D01*
X70612000Y-19497000D01*
X70612000Y-20196250D01*
X70770750Y-20355000D01*
X71261310Y-20355000D01*
X71494699Y-20258327D01*
X71673327Y-20079698D01*
X71770000Y-19846309D01*
X71770000Y-19655750D01*
X74280000Y-19655750D01*
X74280000Y-19846309D01*
X74376673Y-20079698D01*
X74555301Y-20258327D01*
X74788690Y-20355000D01*
X75279250Y-20355000D01*
X75438000Y-20196250D01*
X75438000Y-19497000D01*
X75692000Y-19497000D01*
X75692000Y-20196250D01*
X75850750Y-20355000D01*
X76341310Y-20355000D01*
X76574699Y-20258327D01*
X76753327Y-20079698D01*
X76850000Y-19846309D01*
X76850000Y-19655750D01*
X76691250Y-19497000D01*
X75692000Y-19497000D01*
X75438000Y-19497000D01*
X74438750Y-19497000D01*
X74280000Y-19655750D01*
X71770000Y-19655750D01*
X71611250Y-19497000D01*
X70612000Y-19497000D01*
X70358000Y-19497000D01*
X70338000Y-19497000D01*
X70338000Y-19243000D01*
X70358000Y-19243000D01*
X70358000Y-18543750D01*
X70612000Y-18543750D01*
X70612000Y-19243000D01*
X71611250Y-19243000D01*
X71770000Y-19084250D01*
X71770000Y-18893691D01*
X74280000Y-18893691D01*
X74280000Y-19084250D01*
X74438750Y-19243000D01*
X75438000Y-19243000D01*
X75438000Y-18543750D01*
X75692000Y-18543750D01*
X75692000Y-19243000D01*
X76691250Y-19243000D01*
X76850000Y-19084250D01*
X76850000Y-18893691D01*
X76753327Y-18660302D01*
X76574699Y-18481673D01*
X76341310Y-18385000D01*
X75850750Y-18385000D01*
X75692000Y-18543750D01*
X75438000Y-18543750D01*
X75279250Y-18385000D01*
X74788690Y-18385000D01*
X74555301Y-18481673D01*
X74376673Y-18660302D01*
X74280000Y-18893691D01*
X71770000Y-18893691D01*
X71673327Y-18660302D01*
X71494699Y-18481673D01*
X71261310Y-18385000D01*
X70770750Y-18385000D01*
X70612000Y-18543750D01*
X70358000Y-18543750D01*
X70199250Y-18385000D01*
X69708690Y-18385000D01*
X69475301Y-18481673D01*
X69296673Y-18660302D01*
X69215000Y-18857478D01*
X69215000Y-17907000D01*
X77089000Y-17907000D01*
X77089000Y-24348822D01*
X77089000Y-24348822D01*
G37*
X77089000Y-24348822D02*
X75620093Y-26797000D01*
X69215000Y-26797000D01*
X69215000Y-20920000D01*
X69446536Y-20920000D01*
X69446536Y-21620000D01*
X69473103Y-21761190D01*
X69556546Y-21890865D01*
X69683866Y-21977859D01*
X69835000Y-22008464D01*
X70076060Y-22008464D01*
X70076060Y-23750540D01*
X69943914Y-23805142D01*
X69625321Y-24123180D01*
X69452687Y-24538929D01*
X69452294Y-24989096D01*
X69624202Y-25405146D01*
X69942240Y-25723739D01*
X70357989Y-25896373D01*
X70808156Y-25896766D01*
X71224206Y-25724858D01*
X71542799Y-25406820D01*
X71715433Y-24991071D01*
X71715434Y-24989096D01*
X74334174Y-24989096D01*
X74506082Y-25405146D01*
X74824120Y-25723739D01*
X75239869Y-25896373D01*
X75690036Y-25896766D01*
X76106086Y-25724858D01*
X76424679Y-25406820D01*
X76597313Y-24991071D01*
X76597706Y-24540904D01*
X76425798Y-24124854D01*
X76107760Y-23806261D01*
X76073000Y-23791827D01*
X76073000Y-22008464D01*
X76215000Y-22008464D01*
X76356190Y-21981897D01*
X76485865Y-21898454D01*
X76572859Y-21771134D01*
X76603464Y-21620000D01*
X76603464Y-20920000D01*
X76576897Y-20778810D01*
X76493454Y-20649135D01*
X76366134Y-20562141D01*
X76215000Y-20531536D01*
X74915000Y-20531536D01*
X74773810Y-20558103D01*
X74644135Y-20641546D01*
X74557141Y-20768866D01*
X74526536Y-20920000D01*
X74526536Y-21620000D01*
X74553103Y-21761190D01*
X74636546Y-21890865D01*
X74763866Y-21977859D01*
X74915000Y-22008464D01*
X75057000Y-22008464D01*
X75057000Y-23709610D01*
X74825794Y-23805142D01*
X74507201Y-24123180D01*
X74334567Y-24538929D01*
X74334174Y-24989096D01*
X71715434Y-24989096D01*
X71715826Y-24540904D01*
X71543918Y-24124854D01*
X71225880Y-23806261D01*
X71092060Y-23750694D01*
X71092060Y-22008464D01*
X71135000Y-22008464D01*
X71276190Y-21981897D01*
X71405865Y-21898454D01*
X71492859Y-21771134D01*
X71523464Y-21620000D01*
X71523464Y-20920000D01*
X71496897Y-20778810D01*
X71413454Y-20649135D01*
X71286134Y-20562141D01*
X71135000Y-20531536D01*
X69835000Y-20531536D01*
X69693810Y-20558103D01*
X69564135Y-20641546D01*
X69477141Y-20768866D01*
X69446536Y-20920000D01*
X69215000Y-20920000D01*
X69215000Y-19882522D01*
X69296673Y-20079698D01*
X69475301Y-20258327D01*
X69708690Y-20355000D01*
X70199250Y-20355000D01*
X70358000Y-20196250D01*
X70358000Y-19497000D01*
X70612000Y-19497000D01*
X70612000Y-20196250D01*
X70770750Y-20355000D01*
X71261310Y-20355000D01*
X71494699Y-20258327D01*
X71673327Y-20079698D01*
X71770000Y-19846309D01*
X71770000Y-19655750D01*
X74280000Y-19655750D01*
X74280000Y-19846309D01*
X74376673Y-20079698D01*
X74555301Y-20258327D01*
X74788690Y-20355000D01*
X75279250Y-20355000D01*
X75438000Y-20196250D01*
X75438000Y-19497000D01*
X75692000Y-19497000D01*
X75692000Y-20196250D01*
X75850750Y-20355000D01*
X76341310Y-20355000D01*
X76574699Y-20258327D01*
X76753327Y-20079698D01*
X76850000Y-19846309D01*
X76850000Y-19655750D01*
X76691250Y-19497000D01*
X75692000Y-19497000D01*
X75438000Y-19497000D01*
X74438750Y-19497000D01*
X74280000Y-19655750D01*
X71770000Y-19655750D01*
X71611250Y-19497000D01*
X70612000Y-19497000D01*
X70358000Y-19497000D01*
X70338000Y-19497000D01*
X70338000Y-19243000D01*
X70358000Y-19243000D01*
X70358000Y-18543750D01*
X70612000Y-18543750D01*
X70612000Y-19243000D01*
X71611250Y-19243000D01*
X71770000Y-19084250D01*
X71770000Y-18893691D01*
X74280000Y-18893691D01*
X74280000Y-19084250D01*
X74438750Y-19243000D01*
X75438000Y-19243000D01*
X75438000Y-18543750D01*
X75692000Y-18543750D01*
X75692000Y-19243000D01*
X76691250Y-19243000D01*
X76850000Y-19084250D01*
X76850000Y-18893691D01*
X76753327Y-18660302D01*
X76574699Y-18481673D01*
X76341310Y-18385000D01*
X75850750Y-18385000D01*
X75692000Y-18543750D01*
X75438000Y-18543750D01*
X75279250Y-18385000D01*
X74788690Y-18385000D01*
X74555301Y-18481673D01*
X74376673Y-18660302D01*
X74280000Y-18893691D01*
X71770000Y-18893691D01*
X71673327Y-18660302D01*
X71494699Y-18481673D01*
X71261310Y-18385000D01*
X70770750Y-18385000D01*
X70612000Y-18543750D01*
X70358000Y-18543750D01*
X70199250Y-18385000D01*
X69708690Y-18385000D01*
X69475301Y-18481673D01*
X69296673Y-18660302D01*
X69215000Y-18857478D01*
X69215000Y-17907000D01*
X77089000Y-17907000D01*
X77089000Y-24348822D01*
G36*
X80899000Y-28244632D02*
X80655013Y-28143319D01*
X80382184Y-28143081D01*
X80130033Y-28247268D01*
X79936946Y-28440018D01*
X79832319Y-28691987D01*
X79832202Y-28825536D01*
X79752000Y-28825536D01*
X79679792Y-28839123D01*
X79679919Y-28693184D01*
X79575732Y-28441033D01*
X79382982Y-28247946D01*
X79131013Y-28143319D01*
X78858184Y-28143081D01*
X78612708Y-28244510D01*
X78369013Y-28143319D01*
X78096184Y-28143081D01*
X77844033Y-28247268D01*
X77650946Y-28440018D01*
X77546319Y-28691987D01*
X77546081Y-28964816D01*
X77626409Y-29159225D01*
X77461184Y-29159081D01*
X77209033Y-29263268D01*
X77025349Y-29446632D01*
X76842982Y-29263946D01*
X76591013Y-29159319D01*
X76318184Y-29159081D01*
X76172145Y-29219423D01*
X76069000Y-29198536D01*
X75569000Y-29198536D01*
X75427810Y-29225103D01*
X75298135Y-29308546D01*
X75211141Y-29435866D01*
X75180536Y-29587000D01*
X75180536Y-30099000D01*
X72907026Y-30099000D01*
X73030562Y-29975464D01*
X73156000Y-29975464D01*
X73297190Y-29948897D01*
X73426865Y-29865454D01*
X73513859Y-29738134D01*
X73544464Y-29587000D01*
X73544464Y-29087000D01*
X73517897Y-28945810D01*
X73497439Y-28914016D01*
X74091681Y-28914016D01*
X74195868Y-29166167D01*
X74388618Y-29359254D01*
X74640587Y-29463881D01*
X74913416Y-29464119D01*
X75165567Y-29359932D01*
X75358654Y-29167182D01*
X75463281Y-28915213D01*
X75463519Y-28642384D01*
X75359332Y-28390233D01*
X75166582Y-28197146D01*
X74914613Y-28092519D01*
X74641784Y-28092281D01*
X74389633Y-28196468D01*
X74196546Y-28389218D01*
X74091919Y-28641187D01*
X74091681Y-28914016D01*
X73497439Y-28914016D01*
X73434454Y-28816135D01*
X73307134Y-28729141D01*
X73156000Y-28698536D01*
X72771000Y-28698536D01*
X72771000Y-27305000D01*
X75946000Y-27305000D01*
X75995410Y-27294994D01*
X76037035Y-27266553D01*
X76053145Y-27246183D01*
X77831145Y-24452183D01*
X77851000Y-24384000D01*
X77851000Y-21971000D01*
X80899000Y-21971000D01*
X80899000Y-28244632D01*
X80899000Y-28244632D01*
G37*
X80899000Y-28244632D02*
X80655013Y-28143319D01*
X80382184Y-28143081D01*
X80130033Y-28247268D01*
X79936946Y-28440018D01*
X79832319Y-28691987D01*
X79832202Y-28825536D01*
X79752000Y-28825536D01*
X79679792Y-28839123D01*
X79679919Y-28693184D01*
X79575732Y-28441033D01*
X79382982Y-28247946D01*
X79131013Y-28143319D01*
X78858184Y-28143081D01*
X78612708Y-28244510D01*
X78369013Y-28143319D01*
X78096184Y-28143081D01*
X77844033Y-28247268D01*
X77650946Y-28440018D01*
X77546319Y-28691987D01*
X77546081Y-28964816D01*
X77626409Y-29159225D01*
X77461184Y-29159081D01*
X77209033Y-29263268D01*
X77025349Y-29446632D01*
X76842982Y-29263946D01*
X76591013Y-29159319D01*
X76318184Y-29159081D01*
X76172145Y-29219423D01*
X76069000Y-29198536D01*
X75569000Y-29198536D01*
X75427810Y-29225103D01*
X75298135Y-29308546D01*
X75211141Y-29435866D01*
X75180536Y-29587000D01*
X75180536Y-30099000D01*
X72907026Y-30099000D01*
X73030562Y-29975464D01*
X73156000Y-29975464D01*
X73297190Y-29948897D01*
X73426865Y-29865454D01*
X73513859Y-29738134D01*
X73544464Y-29587000D01*
X73544464Y-29087000D01*
X73517897Y-28945810D01*
X73497439Y-28914016D01*
X74091681Y-28914016D01*
X74195868Y-29166167D01*
X74388618Y-29359254D01*
X74640587Y-29463881D01*
X74913416Y-29464119D01*
X75165567Y-29359932D01*
X75358654Y-29167182D01*
X75463281Y-28915213D01*
X75463519Y-28642384D01*
X75359332Y-28390233D01*
X75166582Y-28197146D01*
X74914613Y-28092519D01*
X74641784Y-28092281D01*
X74389633Y-28196468D01*
X74196546Y-28389218D01*
X74091919Y-28641187D01*
X74091681Y-28914016D01*
X73497439Y-28914016D01*
X73434454Y-28816135D01*
X73307134Y-28729141D01*
X73156000Y-28698536D01*
X72771000Y-28698536D01*
X72771000Y-27305000D01*
X75946000Y-27305000D01*
X75995410Y-27294994D01*
X76037035Y-27266553D01*
X76053145Y-27246183D01*
X77831145Y-24452183D01*
X77851000Y-24384000D01*
X77851000Y-21971000D01*
X80899000Y-21971000D01*
X80899000Y-28244632D01*
M02*
